<svg width="202" height="164" viewBox="0 0 202 164" fill="none" xmlns="http://www.w3.org/2000/svg">
<path fill-rule="evenodd" clip-rule="evenodd" d="M173.136 105.786H153.114C148.659 105.786 145.018 109.465 145.018 113.956V119.935H152.364C156.061 119.935 159.418 121.456 161.849 123.909C162.31 124.375 162.74 124.876 163.131 125.41C163.521 124.884 163.944 124.39 164.401 123.929L164.433 123.897C166.871 121.452 170.217 119.935 173.882 119.935H181.228V113.956C181.228 109.461 177.586 105.786 173.136 105.786ZM109.861 51.84C111.266 50.9203 111.266 49.8971 109.861 49.0849L95.303 40.6407C94.1509 39.9121 92.9516 40.3421 92.9871 41.855L93.0344 58.9226C93.1291 60.5629 94.0602 61.0128 95.4292 60.2524L109.861 51.84ZM18.1997 0.481732C45.5368 3.94145 72.8068 5.64144 100.01 5.6295C127.213 5.61358 154.487 3.88173 181.824 0.481732L185.643 0.00796252V100.212L181.824 99.7425C154.483 96.3704 127.209 94.6266 100.01 94.5947C72.7437 94.5668 45.4776 96.2469 18.2116 99.7266L14.3767 100.216V0L18.1997 0.481732ZM100.01 12.4812C73.6787 12.4932 47.4069 10.9405 21.1942 7.77938V92.4488C47.4661 89.2559 73.7418 87.7151 100.01 87.743C126.345 87.7748 152.617 89.3713 178.829 92.4568V7.77142C152.617 10.8848 126.345 12.4653 100.01 12.4812ZM100.01 22.1915C115.294 22.1915 127.682 34.6927 127.682 50.1121C127.682 65.5315 115.294 78.0327 100.01 78.0327C84.7295 78.0327 72.3412 65.5315 72.3412 50.1121C72.3412 34.6927 84.7295 22.1915 100.01 22.1915ZM100.01 27.8609C112.189 27.8609 122.06 37.822 122.06 50.1121C122.06 62.4023 112.189 72.3634 100.01 72.3634C87.8345 72.3634 77.9633 62.4023 77.9633 50.1121C77.9633 37.822 87.8345 27.8609 100.01 27.8609ZM173.882 125.31H193.904C198.358 125.31 202 128.985 202 133.476V164H165.786V133.476C165.786 128.985 169.428 125.31 173.882 125.31ZM69.5361 125.31H49.5097C45.0594 125.31 41.4179 128.985 41.4179 133.476V164H77.628V133.476C77.628 128.985 73.9825 125.31 69.5361 125.31ZM8.09578 125.31H28.1182C32.5686 125.31 36.214 128.985 36.214 133.476V164H0V133.476C0 128.985 3.64152 125.31 8.09578 125.31ZM90.9276 125.31H110.95C115.4 125.31 119.046 128.985 119.046 133.476V164H82.8318V133.476C82.8318 128.985 86.4734 125.31 90.9276 125.31ZM152.364 125.31H132.342C127.891 125.31 124.25 128.985 124.25 133.476V164H160.46V133.476C160.46 128.985 156.814 125.31 152.364 125.31ZM28.8639 105.786H48.8864C53.3406 105.786 56.9821 109.465 56.9821 113.956V119.935H49.5097C45.8169 119.935 42.4595 121.456 40.0291 123.909C39.593 124.349 39.187 124.818 38.814 125.314C38.4431 124.82 38.0368 124.347 37.5988 123.909C35.1685 121.456 31.815 119.935 28.1182 119.935H20.7681V113.956C20.7681 109.461 24.4136 105.786 28.8639 105.786ZM90.3043 105.786H70.2818C65.8275 105.786 62.186 109.465 62.186 113.956V119.935H69.5361C73.2289 119.935 76.5864 121.456 79.0167 123.909C79.4507 124.347 79.8571 124.816 80.2279 125.314C80.6027 124.816 81.0091 124.347 81.4431 123.909C83.8734 121.456 87.2309 119.935 90.9276 119.935H98.3961V113.956C98.3961 109.461 94.7546 105.786 90.3043 105.786ZM111.696 105.786H131.718C136.172 105.786 139.814 109.465 139.814 113.956V119.935H132.342C128.649 119.935 125.291 121.456 122.861 123.909C122.425 124.349 122.019 124.818 121.646 125.314C121.275 124.82 120.869 124.347 120.431 123.909C118 121.456 114.647 119.935 110.95 119.935H103.6V113.956C103.6 109.461 107.245 105.786 111.696 105.786Z" fill="#3F3D56"/>
</svg>
