<svg width="15" height="14" viewBox="0 0 15 14" fill="none" xmlns="http://www.w3.org/2000/svg">
<path d="M9.49943 14C9.63203 14 9.7592 13.9473 9.85297 13.8536C9.94673 13.7598 9.9994 13.6326 9.9994 13.5C9.9994 13.3674 9.94673 13.2402 9.85297 13.1464C9.7592 13.0527 9.63203 13 9.49943 13H2.99982C2.46942 13 1.96074 12.7893 1.58569 12.4142C1.21064 12.0391 0.99994 11.5304 0.99994 11V3C0.99994 2.46957 1.21064 1.96086 1.58569 1.58579C1.96074 1.21071 2.46942 1 2.99982 1H9.49943C9.63203 1 9.7592 0.947321 9.85297 0.853553C9.94673 0.759785 9.9994 0.632608 9.9994 0.5C9.9994 0.367392 9.94673 0.240215 9.85297 0.146447C9.7592 0.0526785 9.63203 0 9.49943 0H2.99982C2.20422 0 1.4412 0.316071 0.878627 0.87868C0.316052 1.44129 0 2.20435 0 3V11C0 11.7956 0.316052 12.5587 0.878627 13.1213C1.4412 13.6839 2.20422 14 2.99982 14H9.49943ZM10.6454 3.146C10.6918 3.09944 10.747 3.06249 10.8077 3.03729C10.8685 3.01208 10.9336 2.99911 10.9993 2.99911C11.0651 2.99911 11.1302 3.01208 11.191 3.03729C11.2517 3.06249 11.3069 3.09944 11.3533 3.146L14.8531 6.646C14.8997 6.69245 14.9366 6.74762 14.9618 6.80837C14.987 6.86911 15 6.93423 15 7C15 7.06577 14.987 7.13089 14.9618 7.19163C14.9366 7.25238 14.8997 7.30755 14.8531 7.354L11.3533 10.854C11.3068 10.9005 11.2517 10.9374 11.1909 10.9625C11.1302 10.9877 11.0651 11.0006 10.9993 11.0006C10.9336 11.0006 10.8685 10.9877 10.8078 10.9625C10.747 10.9374 10.6919 10.9005 10.6454 10.854C10.5989 10.8075 10.562 10.7523 10.5368 10.6916C10.5117 10.6308 10.4987 10.5657 10.4987 10.5C10.4987 10.4343 10.5117 10.3692 10.5368 10.3084C10.562 10.2477 10.5989 10.1925 10.6454 10.146L13.2922 7.5H4.49973C4.36713 7.5 4.23996 7.44732 4.1462 7.35355C4.05244 7.25979 3.99976 7.13261 3.99976 7C3.99976 6.86739 4.05244 6.74021 4.1462 6.64645C4.23996 6.55268 4.36713 6.5 4.49973 6.5H13.2922L10.6454 3.854C10.5988 3.80755 10.5619 3.75238 10.5367 3.69163C10.5115 3.63089 10.4985 3.56577 10.4985 3.5C10.4985 3.43423 10.5115 3.36911 10.5367 3.30837C10.5619 3.24762 10.5988 3.19245 10.6454 3.146V3.146Z" fill="black"/>
</svg>
