<svg width="131" height="42" viewBox="0 0 131 42" fill="none" xmlns="http://www.w3.org/2000/svg">
<path d="M115.223 12.8496C119.148 12.5299 121.705 13.1159 123.099 13.9233L123.307 2.77889C121.498 1.15754 116.824 1.33202 115.34 2.11665C115.34 4.43245 115.223 9.86948 115.223 12.8496Z" fill="url(#paint0_linear_55_504)"/>
<path d="M108.703 3.70221C104.842 4.02453 102.327 3.43372 100.955 2.61963L100.75 13.8553C102.53 15.4899 107.128 15.314 108.588 14.523C108.588 12.1882 108.703 6.70667 108.703 3.70221Z" fill="url(#paint1_linear_55_504)"/>
<path d="M108.407 14.5622V3.6923C110.193 3.46394 112.825 2.75603 115.387 2.00244V12.8039C113.178 13.1236 110.17 14.2197 108.407 14.5622Z" fill="url(#paint2_linear_55_504)"/>
<path fill-rule="evenodd" clip-rule="evenodd" d="M113.323 4.04166C115.512 3.21647 117.499 2.94676 119.1 3.00844C120.255 3.05292 121.157 3.26642 121.784 3.52655V11.6361C120.76 11.3706 119.601 11.2052 118.374 11.1617C116.102 11.0812 113.485 11.4133 110.871 12.3987C108.682 13.2238 106.696 13.4936 105.094 13.4319C103.939 13.3874 103.038 13.1739 102.411 12.9138L102.411 4.80421C103.434 5.06975 104.593 5.23512 105.821 5.27861C108.092 5.35911 110.71 5.02705 113.323 4.04166ZM99.411 2.62511C99.4129 2.38305 99.4735 2.13799 99.599 1.91134C100 1.18663 100.913 0.924524 101.638 1.32589C102.475 1.78961 103.988 2.21179 105.927 2.28049C107.838 2.34821 110.056 2.0675 112.265 1.23451C114.808 0.275811 117.193 -0.0672423 119.216 0.010664C121.205 0.0872783 122.958 0.577508 124.145 1.40981L124.784 1.85774V2.63808V13.782C124.784 13.7931 124.784 13.8042 124.784 13.8152C124.782 14.0572 124.721 14.3023 124.595 14.529C124.194 15.2537 123.281 15.5158 122.557 15.1144C121.719 14.6507 120.206 14.2285 118.268 14.1598C116.357 14.0921 114.139 14.3728 111.929 15.2058C109.386 16.1645 107.002 16.5076 104.979 16.4296C102.989 16.353 101.237 15.8628 100.05 15.0305L99.4106 14.5826V13.8022V2.65827C99.4106 2.64719 99.4108 2.63613 99.411 2.62511Z" fill="#3F3D56"/>
<path fill-rule="evenodd" clip-rule="evenodd" d="M111.576 9.33346C111.521 9.38231 111.475 9.44225 111.423 9.49332C111.299 9.61099 111.221 9.75197 111.126 9.88629C111.1 9.92182 111.082 9.95956 111.068 9.9973C111.049 10.0406 111.067 10.0606 111.097 10.0728C111.129 10.0861 111.183 10.0761 111.193 10.1094C111.202 10.1372 111.182 10.1805 111.173 10.2182C111.157 10.287 111.157 10.287 111.092 10.2715C111.057 10.2626 111.008 10.2637 110.991 10.2404C110.975 10.2171 111.002 10.166 111.009 10.1283C111.012 10.1183 111.014 10.1072 111.008 10.0972C110.985 10.1039 110.973 10.125 110.958 10.1416C110.899 10.2005 110.875 10.2049 110.826 10.1638C110.803 10.1438 110.778 10.1272 110.763 10.105C110.751 10.085 110.723 10.1083 110.709 10.0872C110.695 10.0639 110.692 10.035 110.699 10.0051C110.703 9.97621 110.717 9.94513 110.739 9.9196C110.758 9.89628 110.768 9.88407 110.74 9.86964C110.717 9.85854 110.727 9.82968 110.743 9.80637C110.746 9.78527 110.733 9.79526 110.723 9.80082C110.68 9.85743 110.646 9.92182 110.596 9.97621C110.568 10.0084 110.54 10.0539 110.504 10.0628C110.445 10.0783 110.445 10.1261 110.422 10.1594C110.36 10.2537 110.299 10.3481 110.211 10.4336C110.244 10.2215 110.229 10.0262 110.232 9.82413C110.238 9.53883 110.235 9.25465 110.239 8.96602C110.239 8.93272 110.234 8.91939 110.193 8.91828C110.118 8.91717 110.074 8.87055 110.031 8.81949C110.052 8.80172 110.072 8.79506 110.096 8.78507C110.085 8.76176 110.057 8.75177 110.05 8.72291C110.105 8.70293 110.158 8.69848 110.209 8.70293C110.235 8.70626 110.237 8.69737 110.24 8.67406C110.24 8.62744 110.217 8.59525 110.198 8.55861C110.176 8.56971 110.18 8.58414 110.179 8.59747C110.178 8.63299 110.16 8.65741 110.126 8.66629C110.114 8.66962 110.103 8.66851 110.093 8.66407C110.084 8.65852 110.078 8.64853 110.077 8.63743C110.07 8.60413 110.091 8.58192 110.124 8.56527C110.131 8.56194 110.143 8.55972 110.149 8.54085C110.022 8.55972 109.971 8.48535 109.938 8.38655C109.975 8.36767 110.008 8.381 110.055 8.37767C110.005 8.32105 110.001 8.25333 110.01 8.17563C110.069 8.18562 110.109 8.21337 110.152 8.24556C110.173 8.21337 110.169 8.17896 110.191 8.14676C110.214 8.15009 110.214 8.17896 110.232 8.18895C110.248 8.17008 110.24 8.15343 110.241 8.13788C110.241 7.77266 110.243 7.40633 110.243 7.03999C110.243 6.96784 110.264 6.8979 110.302 6.82907C110.396 6.66034 110.523 6.51381 110.67 6.37948C110.696 6.35506 110.712 6.36061 110.732 6.36949C110.837 6.41834 110.923 6.49049 111.017 6.55488C111.021 6.55932 111.026 6.56376 111.032 6.56487C111.107 6.58263 111.108 6.64258 111.085 6.71695C111.08 6.73361 111.076 6.75026 111.076 6.76802C111.074 6.80687 111.062 6.85461 111.073 6.88458C111.088 6.92121 111.141 6.88902 111.174 6.89679C111.221 6.90456 111.266 6.91677 111.309 6.93675C111.386 6.97561 111.47 7.00336 111.557 7.01779C111.559 7.03777 111.542 7.04221 111.529 7.04998C111.492 7.06109 111.456 7.05998 111.423 7.04887C111.399 7.02889 111.364 7.03111 111.334 7.02001C111.327 7.01779 111.318 7.01002 111.308 7.02223C111.304 7.02778 111.306 7.03555 111.308 7.0411C111.311 7.04998 111.317 7.05665 111.328 7.05331C111.349 7.04665 111.367 7.03333 111.387 7.0411C111.388 7.04332 111.392 7.04332 111.393 7.04665C111.395 7.04887 111.397 7.0522 111.398 7.05553C111.371 7.12769 111.292 7.19208 111.245 7.11881C111.23 7.09217 111.213 7.10438 111.19 7.12658C111.13 7.19319 111.108 7.19541 111.058 7.1399C111.044 7.12658 111.032 7.10993 111.018 7.09439C111.003 7.07996 110.997 7.05776 110.97 7.04665C110.93 7.14434 110.948 7.23093 110.944 7.3264C110.972 7.31308 110.994 7.28422 111.02 7.29643C111.032 7.30309 111.038 7.31308 111.039 7.32751C111.037 7.39856 110.987 7.4474 110.937 7.49513C110.916 7.5129 110.892 7.51068 110.872 7.5018C110.836 7.48625 110.836 7.48736 110.832 7.53066C110.831 7.54287 110.832 7.55397 110.832 7.56507C110.826 8.10569 110.821 8.63965 110.816 9.16473C110.816 9.22134 110.835 9.2713 110.817 9.33457C110.829 9.31348 110.839 9.29461 110.855 9.28573C110.912 9.25465 110.923 9.20358 110.936 9.15585C110.946 9.12254 110.952 9.08813 110.964 9.05594C110.981 9.01486 110.994 9.00931 111.024 9.03596C111.031 9.05039 111.028 9.07037 111.03 9.08813C111.015 9.16806 110.988 9.24798 110.966 9.32791C110.962 9.34234 110.962 9.35677 110.964 9.36899C110.968 9.38786 110.972 9.39674 110.998 9.38897C111.039 9.37565 111.056 9.38564 111.056 9.42449C111.055 9.46556 111.047 9.50664 111.03 9.54771C111.011 9.58768 110.984 9.62653 110.952 9.65983C110.968 9.65428 110.988 9.64429 111.006 9.65317C111.033 9.67204 111.043 9.65428 111.057 9.62986C111.076 9.59545 111.099 9.56325 111.12 9.52884C111.136 9.49998 111.159 9.47112 111.147 9.44003C111.146 9.43559 111.146 9.43115 111.148 9.42671C111.185 9.36121 111.203 9.29128 111.26 9.23466C111.28 9.22578 111.294 9.23133 111.305 9.24354C111.321 9.28129 111.289 9.31348 111.272 9.349C111.288 9.35566 111.307 9.35566 111.317 9.37343C111.322 9.38564 111.336 9.38564 111.35 9.38231C111.358 9.37787 111.37 9.37565 111.38 9.37898C111.389 9.38009 111.397 9.38675 111.401 9.39341C111.414 9.41117 111.425 9.40451 111.438 9.38786C111.467 9.35455 111.492 9.31792 111.536 9.29683C111.562 9.29683 111.59 9.29461 111.576 9.33346ZM112.616 6.84351C112.701 6.80021 112.781 6.74471 112.856 6.68032C112.923 6.62038 112.993 6.56931 113.076 6.55488C113.103 6.55155 113.1 6.53046 113.101 6.50937C113.106 6.42389 113.101 6.33952 113.091 6.25737C113.089 6.24072 113.082 6.22185 113.1 6.20631C113.209 6.09863 113.296 5.95875 113.401 5.84552C113.505 5.73118 113.47 5.7434 113.559 5.81999C113.67 5.91657 113.762 6.04534 113.832 6.20964C113.861 6.27957 113.875 6.35617 113.875 6.44054C113.866 7.16655 113.862 7.83927 113.859 8.41763C113.858 8.43317 113.848 8.44982 113.868 8.46758C113.875 8.46536 113.881 8.47202 113.886 8.47757C113.896 8.50422 113.879 8.52087 113.869 8.53863C113.84 8.58858 113.803 8.63521 113.773 8.68405C113.806 8.66962 113.801 8.61967 113.852 8.62078C113.86 8.62411 113.863 8.62855 113.859 8.63521C113.858 8.78618 113.855 8.92828 113.854 9.06704C113.854 9.23355 113.854 9.39563 113.855 9.55437C113.855 9.6121 113.847 9.66982 113.886 9.72866C113.83 9.71312 113.799 9.68758 113.766 9.66316C113.717 9.62542 113.672 9.58324 113.634 9.53772C113.626 9.52773 113.624 9.51219 113.594 9.5244C113.586 9.52773 113.562 9.5133 113.546 9.50553C113.484 9.47445 113.438 9.42893 113.394 9.38342C113.382 9.38009 113.377 9.38453 113.382 9.39341C113.377 9.41783 113.354 9.42893 113.322 9.43781C113.36 9.46445 113.391 9.4911 113.394 9.53106C113.396 9.55881 113.4 9.58768 113.346 9.60544C113.311 9.61765 113.291 9.65428 113.266 9.68092C113.242 9.70979 113.216 9.73199 113.17 9.72533C113.148 9.722 113.149 9.73976 113.139 9.74753C113.121 9.75752 113.14 9.76085 113.145 9.76529C113.162 9.77417 113.157 9.78527 113.14 9.79526C113.104 9.8208 113.067 9.84411 113.03 9.87075C113.009 9.88518 113.005 9.87741 113.005 9.86298C113.004 9.8319 113.004 9.80193 113.003 9.77084C113.003 9.75197 113.001 9.72977 113.04 9.73421C113.052 9.73421 113.054 9.73088 113.055 9.72311C113.056 9.70424 113.076 9.69647 113.083 9.69314C112.945 9.48999 112.753 9.31681 112.519 9.17361C112.521 9.14142 112.548 9.13808 112.574 9.13475C112.612 9.14253 112.629 9.17361 112.658 9.19248C112.674 9.20358 112.687 9.21357 112.701 9.18471C112.708 9.1725 112.718 9.15918 112.735 9.16029C112.765 9.16362 112.776 9.14364 112.797 9.13142C112.827 9.11033 112.826 9.09701 112.808 9.07703C112.801 9.06926 112.795 9.06149 112.795 9.0515C112.793 9.04151 112.795 9.03152 112.798 9.02263C112.813 9.00487 112.831 8.99821 112.852 9.00598C112.899 9.04595 112.943 9.0959 112.949 9.14808C112.961 9.25021 113.057 9.30127 113.106 9.37676C113.125 9.40451 113.206 9.38675 113.238 9.36233C113.281 9.32791 113.269 9.30127 113.25 9.26686C113.175 9.13586 113.119 8.99377 113.082 8.84058C113.08 8.8317 113.075 8.82393 113.072 8.81394C113.077 8.78285 113.067 8.74955 113.099 8.72513C113.13 8.72846 113.133 8.75177 113.139 8.77175C113.169 8.86722 113.195 8.96158 113.243 9.04817C113.252 9.0626 113.256 9.07925 113.277 9.09701C113.281 8.51976 113.288 7.87812 113.297 7.16988C113.279 7.15766 113.273 7.1721 113.264 7.17876C113.237 7.19763 113.213 7.19319 113.191 7.17099C113.162 7.14212 113.136 7.11326 113.111 7.08107C113.096 7.03777 113.101 7.00003 113.139 6.97006C113.162 6.95785 113.175 6.98338 113.194 6.98671C113.21 6.90234 113.198 6.81908 113.201 6.73583C113.202 6.71806 113.2 6.69697 113.185 6.69253C113.17 6.6892 113.165 6.71251 113.156 6.72472C113.132 6.76802 113.106 6.80798 113.077 6.84462C113.043 6.89013 113.021 6.89346 112.985 6.85794C112.945 6.82019 112.945 6.82019 112.907 6.86571C112.87 6.91011 112.851 6.91566 112.812 6.88458C112.79 6.86793 112.763 6.85794 112.753 6.82574C112.771 6.78245 112.8 6.79577 112.822 6.80132C112.852 6.8102 112.867 6.7991 112.868 6.74915C112.828 6.79466 112.779 6.78467 112.745 6.82685C112.715 6.85461 112.678 6.86904 112.642 6.86793C112.63 6.86238 112.614 6.8646 112.616 6.84351ZM111.759 10.0906C111.687 10.2049 111.611 10.317 111.534 10.4291C111.507 10.4658 111.489 10.4802 111.446 10.4702C111.336 10.4436 111.221 10.428 111.101 10.4103C111.264 10.2893 111.366 10.1372 111.463 9.9862C111.59 9.78638 111.7 9.58213 111.793 9.37565C111.818 9.349 111.838 9.35677 111.854 9.37232C111.863 9.3923 111.856 9.41339 111.847 9.43337C111.738 9.67759 111.618 9.92071 111.455 10.1538C111.421 10.2093 111.381 10.2604 111.337 10.3104C111.312 10.3381 111.325 10.3403 111.346 10.3425C111.379 10.3425 111.414 10.3448 111.447 10.3481C111.475 10.3525 111.493 10.3403 111.513 10.3148C111.67 10.0939 111.815 9.87297 111.888 9.63208C111.893 9.61876 111.896 9.60655 111.904 9.59323C111.909 9.57879 111.915 9.56547 111.933 9.56436C111.95 9.56325 111.957 9.57435 111.961 9.58657C111.967 9.61432 111.966 9.64318 111.963 9.67204C111.932 9.89295 111.873 10.1139 111.766 10.3326C111.735 10.3936 111.735 10.3936 111.795 10.4069C111.872 10.4225 111.944 10.4436 112.013 10.4724C112.031 10.4802 112.05 10.4824 112.072 10.4602C112.142 10.3892 112.227 10.3314 112.31 10.2737C112.341 10.2526 112.345 10.2371 112.33 10.2149C112.228 10.0584 112.168 9.87741 112.138 9.68203C112.133 9.6454 112.136 9.60544 112.136 9.56769C112.138 9.55215 112.139 9.53217 112.159 9.52551C112.184 9.51663 112.191 9.5355 112.198 9.54993C112.222 9.59656 112.236 9.64651 112.26 9.69314C112.333 9.84189 112.451 9.95845 112.571 10.0695C112.591 10.0883 112.615 10.0917 112.649 10.0717C112.686 10.0506 112.727 10.0317 112.773 10.0106C112.724 9.97954 112.677 9.94624 112.637 9.90627C112.516 9.78638 112.413 9.65095 112.328 9.49998C112.304 9.4589 112.277 9.41783 112.257 9.37343C112.247 9.35344 112.236 9.33346 112.248 9.30793C112.263 9.29017 112.28 9.27685 112.305 9.28684C112.426 9.49665 112.554 9.69314 112.734 9.85188C112.801 9.91072 112.877 9.96289 112.983 9.9862C112.96 10.0073 112.929 10.0184 112.903 10.0328C112.809 10.0861 112.714 10.1394 112.623 10.1971C112.595 10.2138 112.585 10.2127 112.568 10.1993C112.482 10.1261 112.405 10.0439 112.322 9.95623C112.315 9.98398 112.326 9.99952 112.334 10.0151C112.374 10.0994 112.43 10.1716 112.492 10.2404C112.512 10.2604 112.511 10.2715 112.478 10.2926C112.359 10.3747 112.245 10.4624 112.141 10.5646C112.105 10.6034 112.072 10.6445 112.042 10.6878C111.933 10.5868 111.775 10.5468 111.619 10.5079C111.579 10.4991 111.574 10.488 111.6 10.4458C111.668 10.3348 111.733 10.2227 111.769 10.1061C111.773 10.0972 111.779 10.0861 111.76 10.0906" fill="black"/>
<path fill-rule="evenodd" clip-rule="evenodd" d="M111.851 9.38342C111.832 9.37898 111.817 9.36677 111.793 9.37565C111.737 9.34456 111.668 9.34234 111.606 9.32569C111.599 9.32236 111.587 9.33013 111.578 9.33457C111.577 9.3046 111.549 9.31681 111.533 9.30904C111.513 9.31792 111.493 9.32236 111.475 9.31792C111.432 9.30571 111.389 9.29905 111.345 9.28795C111.326 9.28462 111.309 9.27241 111.3 9.25465C111.29 9.2491 111.277 9.24243 111.262 9.24354C111.241 9.25243 111.224 9.25021 111.207 9.24354C111.152 9.228 111.1 9.20247 111.057 9.16806C111.033 9.15141 111.015 9.13142 111.012 9.09923C111.011 9.07814 111.01 9.05705 111.008 9.03707C110.985 8.9971 110.99 8.94604 110.99 8.8983C110.994 8.44205 111 7.97803 111.003 7.50957C111.005 7.45295 111.025 7.39412 111.025 7.33639C111.02 7.32307 111.014 7.30975 111.009 7.29643C110.996 7.29643 110.984 7.29976 110.975 7.2931C110.958 7.27645 110.929 7.26201 110.937 7.23204C110.945 7.19874 110.979 7.20096 111.006 7.1943C111.07 7.17432 111.134 7.16766 111.199 7.15877C111.317 7.13879 111.436 7.09439 111.551 7.09439C111.735 7.05887 111.918 7.0189 112.101 6.98893C112.266 6.96451 112.431 6.9423 112.594 6.92454C112.617 6.92121 112.641 6.91788 112.665 6.91122C112.724 6.89901 112.783 6.88458 112.839 6.89901C112.856 6.90345 112.87 6.89457 112.885 6.88791C112.899 6.88236 112.913 6.87903 112.928 6.87903C113.001 6.88125 113.075 6.86682 113.146 6.86238C113.169 6.86016 113.201 6.85239 113.207 6.88458C113.213 6.91677 113.193 6.94452 113.169 6.9634C113.164 6.97006 113.154 6.97228 113.148 6.9745C113.137 6.98782 113.129 7.00447 113.125 7.02001C113.12 7.03777 113.119 7.05553 113.122 7.07219C113.138 7.1066 113.141 7.14656 113.139 7.18653C113.131 7.7116 113.125 8.19894 113.12 8.64742C113.12 8.67517 113.13 8.70626 113.101 8.72846C113.096 8.75954 113.092 8.79062 113.09 8.8206C113.089 8.83392 113.084 8.84835 113.078 8.86056C113.071 8.87277 113.062 8.88387 113.047 8.89386C112.986 8.94271 112.926 8.99155 112.847 9.01597C112.827 9.00598 112.817 9.02263 112.803 9.02929C112.778 9.07148 112.727 9.08369 112.686 9.107C112.651 9.12587 112.616 9.1503 112.573 9.14475C112.554 9.15252 112.534 9.15918 112.518 9.17472C112.444 9.20469 112.374 9.24687 112.304 9.28795C112.285 9.29239 112.27 9.30349 112.254 9.3157C112.248 9.33013 112.235 9.34456 112.22 9.35344C112.173 9.38453 112.132 9.42005 112.093 9.4589C112.058 9.49665 112.04 9.49887 112.009 9.47556C111.975 9.45113 111.939 9.43226 111.9 9.41783C111.881 9.41006 111.857 9.40562 111.851 9.38342Z" fill="#F4D302"/>
<path fill-rule="evenodd" clip-rule="evenodd" d="M111.608 7.02667C111.755 6.90345 111.809 6.74138 111.838 6.57042C111.857 6.44942 111.87 6.32842 111.848 6.21741C111.828 6.12194 111.769 6.07199 111.679 6.05533C111.654 6.04978 111.646 6.05755 111.645 6.0842C111.642 6.12194 111.639 6.16079 111.636 6.19854C111.64 6.20964 111.634 6.21408 111.624 6.2163C111.602 6.20964 111.606 6.18966 111.607 6.16856C111.609 6.13526 111.61 6.10085 111.613 6.06754C111.613 6.05644 111.614 6.04756 111.611 6.03868C111.607 6.03091 111.603 6.02314 111.595 6.01759C111.595 6.01204 111.594 6.00649 111.594 6.00094C111.619 5.93544 111.627 5.87217 111.632 5.80778C111.634 5.77448 111.655 5.75228 111.686 5.74562C111.721 5.74117 111.759 5.71231 111.784 5.7434C111.785 5.75339 111.784 5.76227 111.77 5.76338C111.765 5.76338 111.76 5.76449 111.755 5.76671C111.654 5.7878 111.654 5.7878 111.662 5.89437C111.704 5.86551 111.745 5.85219 111.786 5.83997C111.811 5.83442 111.839 5.82221 111.851 5.79113C111.877 5.73118 111.924 5.71009 111.971 5.69566C112.063 5.66347 112.156 5.6557 112.236 5.67235C112.337 5.69455 112.434 5.73007 112.548 5.73895C112.537 5.74451 112.526 5.75228 112.516 5.76005C112.467 5.79224 112.467 5.79446 112.504 5.82332C112.521 5.83553 112.541 5.84663 112.546 5.87661C112.54 5.87883 112.534 5.88327 112.529 5.8866C112.494 5.89548 112.482 5.91213 112.502 5.9421C112.507 5.9532 112.509 5.96764 112.509 5.98207C112.511 6.00094 112.509 6.01981 112.509 6.04312C112.485 6.04867 112.478 6.02092 112.453 6.02758C112.453 6.05533 112.453 6.08309 112.453 6.10973C112.453 6.13859 112.451 6.16967 112.435 6.19632C112.355 6.32731 112.369 6.44831 112.39 6.56709C112.415 6.69697 112.463 6.8102 112.575 6.86793C112.577 6.86793 112.578 6.86682 112.581 6.86682C112.611 6.87459 112.644 6.87237 112.653 6.91455C112.65 6.92232 112.647 6.92676 112.638 6.92787C112.544 6.93564 112.45 6.95452 112.372 6.89124C112.375 6.90567 112.383 6.91344 112.385 6.92454C112.39 6.94897 112.385 6.96451 112.356 6.96673C112.293 6.96784 112.228 6.96784 112.183 6.92121C112.165 6.90345 112.153 6.90456 112.135 6.93342C112.1 6.98782 112.08 6.99115 112.05 6.94897C112.035 6.9312 112.023 6.93342 112.003 6.9523C111.951 7.00447 111.894 7.03999 111.827 7.04665C111.817 7.04776 111.809 7.04554 111.804 7.03666C111.797 7.02334 111.806 7.0078 111.807 6.98893C111.726 7.06775 111.634 7.08107 111.545 7.10438C111.535 7.10327 111.521 7.11437 111.515 7.09994C111.513 7.08773 111.522 7.07663 111.532 7.06775C111.549 7.05331 111.566 7.04221 111.586 7.03333C111.593 7.03111 111.599 7.02778 111.608 7.02667Z" fill="black"/>
<path fill-rule="evenodd" clip-rule="evenodd" d="M114.185 8.14565C114.174 8.15231 114.158 8.14898 114.173 8.17896C114.236 8.2933 114.235 8.29441 114.145 8.32549C114.1 8.34214 114.065 8.36878 114.055 8.41985C114.049 8.41985 114.044 8.4143 114.038 8.40875C114.024 8.36101 114.046 8.33326 114.075 8.31328C114.1 8.29663 114.128 8.28553 114.155 8.27443C114.181 8.26444 114.181 8.24889 114.158 8.22225C114.149 8.21004 114.136 8.20227 114.126 8.19339C114.106 8.16564 114.08 8.16342 114.057 8.14787C114.049 8.14232 114.045 8.13677 114.039 8.13122C114.018 8.10347 114.01 8.11679 114.008 8.13677C114.005 8.16564 114.007 8.19561 114.007 8.22558C114.001 8.28664 113.977 8.31883 113.929 8.31994C113.927 8.31772 113.923 8.31328 113.921 8.30884C113.962 8.27776 113.969 8.22447 113.966 8.16675C113.964 8.14454 113.966 8.12345 113.963 8.10125C113.959 8.06684 113.974 8.05796 114.003 8.06795C114.012 8.07128 114.019 8.0735 114.028 8.07461C114.061 8.0846 114.105 8.11457 114.098 8.04464C114.098 8.0413 114.107 8.03797 114.111 8.03575C114.116 8.03464 114.12 8.03464 114.124 8.03686C114.137 8.06795 114.138 8.1068 114.174 8.12345C114.18 8.13011 114.184 8.13788 114.185 8.14565Z" fill="#080600"/>
<path fill-rule="evenodd" clip-rule="evenodd" d="M113.921 8.30884C113.925 8.31106 113.929 8.31217 113.934 8.31328C113.944 8.32771 113.956 8.31994 113.966 8.32549C113.972 8.32882 113.978 8.33326 113.982 8.33881C113.989 8.3488 113.995 8.3488 113.999 8.34214C114.008 8.33215 114.015 8.32438 114.031 8.3266C114.037 8.32882 114.043 8.33437 114.046 8.34103C114.056 8.36545 114.016 8.37878 114.048 8.40764C114.05 8.41208 114.052 8.41541 114.055 8.41985C114.015 8.42318 114.009 8.46869 113.97 8.47424C113.964 8.47535 113.962 8.47424 113.959 8.4698C113.942 8.45204 113.971 8.43206 113.949 8.41874C113.929 8.40875 113.928 8.43983 113.912 8.44316C113.908 8.44538 113.902 8.44427 113.899 8.44427C113.893 8.44427 113.89 8.44094 113.887 8.43761C113.898 8.39543 113.91 8.35213 113.921 8.30884Z" fill="#0C0B00"/>
<path fill-rule="evenodd" clip-rule="evenodd" d="M111.77 5.76338C111.774 5.75894 111.778 5.7545 111.782 5.75117C111.784 5.74006 111.814 5.71453 111.778 5.72452C111.748 5.73118 111.721 5.73784 111.692 5.74562C111.676 5.75006 111.661 5.75339 111.651 5.74229C111.621 5.71786 111.645 5.60019 111.688 5.56245C111.696 5.56134 111.704 5.56356 111.697 5.57577C111.676 5.62239 111.666 5.67124 111.682 5.70676C111.694 5.72896 111.792 5.67679 111.832 5.63127C111.842 5.65237 111.848 5.67901 111.845 5.70787C111.842 5.73673 111.833 5.76671 111.818 5.79446C111.803 5.78336 111.786 5.77448 111.77 5.76338Z" fill="#1A1600"/>
<path fill-rule="evenodd" clip-rule="evenodd" d="M114.185 8.14565C114.181 8.1401 114.177 8.13677 114.173 8.13233C114.169 8.0957 114.145 8.07017 114.126 8.04019C114.12 8.03908 114.116 8.03575 114.111 8.03464C114.119 7.95694 114.181 7.95694 114.231 7.92474C114.235 8.0191 114.242 8.10125 114.185 8.14565Z" fill="#060500"/>
<path fill-rule="evenodd" clip-rule="evenodd" d="M111.606 6.00094C111.606 6.00649 111.606 6.01204 111.607 6.01648C111.611 6.0842 111.625 6.1508 111.584 6.22518C111.559 6.22407 111.57 6.20187 111.57 6.18633C111.577 6.07643 111.584 5.96542 111.591 5.85441C111.593 5.83775 111.599 5.81888 111.588 5.80556C111.55 5.81666 111.509 5.81777 111.47 5.84552C111.454 5.84885 111.454 5.84108 111.459 5.82998C111.489 5.79446 111.583 5.75894 111.61 5.77226C111.627 5.77892 111.632 5.79668 111.63 5.81666C111.626 5.8644 111.625 5.91102 111.61 5.96209C111.605 5.97541 111.599 5.98984 111.606 6.00094Z" fill="#0E0C00"/>
<path fill-rule="evenodd" clip-rule="evenodd" d="M111.477 5.75006C111.586 5.75672 111.596 5.74562 111.606 5.62794C111.611 5.61462 111.618 5.60907 111.63 5.6124C111.656 5.64571 111.638 5.69011 111.63 5.73451C111.628 5.74117 111.621 5.74895 111.613 5.75672C111.581 5.78447 111.486 5.79335 111.462 5.77115C111.46 5.76116 111.462 5.75228 111.477 5.75006Z" fill="#252000"/>
<path fill-rule="evenodd" clip-rule="evenodd" d="M111.588 5.80556C111.606 5.81666 111.599 5.83775 111.597 5.85663C111.59 5.96098 111.584 6.06532 111.577 6.17078C111.575 6.18855 111.571 6.20964 111.582 6.22407C111.597 6.2496 111.578 6.26403 111.556 6.27735C111.549 6.27846 111.545 6.27624 111.541 6.27402C111.554 6.25515 111.563 6.23406 111.564 6.21408C111.572 6.07754 111.582 5.94099 111.588 5.80556Z" fill="#322A00"/>
<path fill-rule="evenodd" clip-rule="evenodd" d="M113.959 8.47091C113.962 8.47202 113.966 8.47313 113.97 8.47424C113.933 8.52864 113.895 8.58192 113.858 8.63521C113.855 8.63188 113.851 8.62855 113.848 8.62411C113.835 8.57748 113.909 8.47535 113.959 8.47091Z" fill="#241E00"/>
<path fill-rule="evenodd" clip-rule="evenodd" d="M111.477 5.75006C111.473 5.75339 111.468 5.75783 111.464 5.76227C111.461 5.7878 111.458 5.81333 111.459 5.83886C111.463 5.84108 111.465 5.84219 111.47 5.84552C111.459 5.85885 111.448 5.87217 111.437 5.8866C111.409 5.83775 111.413 5.79002 111.448 5.72452C111.458 5.7334 111.466 5.74117 111.477 5.75006Z" fill="#272000"/>
<path fill-rule="evenodd" clip-rule="evenodd" d="M111.618 5.61018C111.613 5.61573 111.61 5.62239 111.606 5.62794C111.6 5.60685 111.584 5.59797 111.568 5.58132C111.612 5.5458 111.654 5.53914 111.697 5.53359C111.706 5.53359 111.723 5.53137 111.723 5.54469C111.723 5.5569 111.708 5.56467 111.697 5.57466C111.696 5.57133 111.694 5.568 111.691 5.56578C111.666 5.57799 111.638 5.58465 111.618 5.61018Z" fill="#201B00"/>
<path fill-rule="evenodd" clip-rule="evenodd" d="M111.541 6.27402C111.546 6.27291 111.551 6.27291 111.557 6.2718C111.583 6.27513 111.609 6.28401 111.639 6.26514C111.645 6.26736 111.651 6.26958 111.649 6.27957C111.631 6.30511 111.611 6.32953 111.594 6.35506C111.575 6.33175 111.563 6.30511 111.533 6.29512C111.519 6.29068 111.534 6.28068 111.541 6.27402Z" fill="#221C00"/>
<path fill-rule="evenodd" clip-rule="evenodd" d="M111.608 7.02667C111.605 7.03111 111.601 7.03444 111.597 7.03888C111.575 7.03333 111.541 7.07441 111.528 7.03444C111.537 7.02778 111.549 7.02223 111.558 7.01779C111.576 7.01668 111.591 7.0189 111.608 7.02667Z" fill="#3B2E0B"/>
<path fill-rule="evenodd" clip-rule="evenodd" d="M113.887 8.43761C113.889 8.43872 113.895 8.43983 113.898 8.44094C113.91 8.46647 113.908 8.48201 113.875 8.47868C113.873 8.47535 113.869 8.47091 113.866 8.46758C113.869 8.45537 113.877 8.44427 113.887 8.43761Z" fill="#050400"/>
<path fill-rule="evenodd" clip-rule="evenodd" d="M111.625 6.21408C111.628 6.20853 111.633 6.20409 111.636 6.19854C111.642 6.21519 111.643 6.23517 111.657 6.24738C111.652 6.25293 111.646 6.25737 111.642 6.25737C111.617 6.25515 111.608 6.24405 111.625 6.21408Z" fill="#020200"/>
<path fill-rule="evenodd" clip-rule="evenodd" d="M111.64 6.25182C111.646 6.2496 111.65 6.24849 111.656 6.24738C111.677 6.25959 111.677 6.25959 111.648 6.27957C111.643 6.27624 111.64 6.27402 111.637 6.2718C111.634 6.26514 111.634 6.25848 111.64 6.25182Z" fill="#3C3200"/>
<path fill-rule="evenodd" clip-rule="evenodd" d="M112.616 6.84351C112.626 6.84462 112.635 6.84795 112.643 6.85017C112.625 6.89568 112.598 6.86904 112.575 6.86682C112.575 6.86682 112.575 6.86682 112.575 6.86793C112.585 6.85017 112.602 6.85017 112.616 6.84351Z" fill="#3A2E09"/>
<path fill-rule="evenodd" clip-rule="evenodd" d="M110.723 9.80082C110.737 9.78749 110.749 9.78638 110.765 9.78305C110.761 9.79637 110.751 9.79971 110.743 9.80637C110.741 9.79859 110.729 9.80193 110.723 9.80082Z" fill="#997E00"/>
<path fill-rule="evenodd" clip-rule="evenodd" d="M113.381 9.39452C113.375 9.38453 113.367 9.37787 113.375 9.36677C113.385 9.3701 113.389 9.37676 113.391 9.38342C113.388 9.38675 113.384 9.39008 113.381 9.39452Z" fill="#B89800"/>
<path fill-rule="evenodd" clip-rule="evenodd" d="M111.759 10.0906C111.76 10.0839 111.767 10.0728 111.771 10.0761C111.783 10.0817 111.775 10.095 111.767 10.1061C111.765 10.1017 111.76 10.0972 111.759 10.0906Z" fill="#AD8F00"/>
<path fill-rule="evenodd" clip-rule="evenodd" d="M111.024 7.3375C111.038 7.35859 111.027 7.38746 111.026 7.41299C111.02 7.92696 111.012 8.43317 111.008 8.93161C111.008 8.96602 111.015 9.00154 111.007 9.03707C111.001 9.03263 110.996 9.01486 110.988 9.04262C110.969 9.11477 110.948 9.18804 110.926 9.2602C110.922 9.27352 110.924 9.30571 110.892 9.28129C110.88 9.27241 110.874 9.29128 110.867 9.30127C110.843 9.33013 110.823 9.36233 110.8 9.3923C110.804 8.74955 110.811 8.09903 110.817 7.43741C110.843 7.45406 110.864 7.4696 110.884 7.48403C110.893 7.48958 110.898 7.50069 110.913 7.49402C110.938 7.48514 111.021 7.36747 111.024 7.3375Z" fill="#AF7E55"/>
<path fill-rule="evenodd" clip-rule="evenodd" d="M110.7 8.95159C110.695 8.93827 110.692 8.92384 110.688 8.9094C110.666 8.84058 110.666 8.84058 110.607 8.89386C110.542 8.86722 110.557 8.80061 110.557 8.74178C110.56 8.32771 110.564 7.91031 110.568 7.48958C110.599 7.49625 110.618 7.51623 110.638 7.53177C110.656 7.54731 110.67 7.5462 110.689 7.52178C110.708 7.49736 110.729 7.47515 110.75 7.45295C110.767 7.46405 110.761 7.48181 110.76 7.49514C110.753 7.95805 110.75 8.4143 110.746 8.86833C110.746 8.90274 110.736 8.92717 110.7 8.95159Z" fill="#AF7E54"/>
<path fill-rule="evenodd" clip-rule="evenodd" d="M110.33 7.54398C110.36 7.56174 110.388 7.59504 110.415 7.59171C110.446 7.58838 110.47 7.53732 110.498 7.51179C110.501 7.50846 110.505 7.50846 110.51 7.50624C110.507 7.84815 110.505 8.18784 110.501 8.52642C110.474 8.49312 110.474 8.49312 110.414 8.56083C110.391 8.5131 110.384 8.45537 110.324 8.43761C110.314 8.43539 110.316 8.42207 110.316 8.41208C110.319 8.12789 110.321 7.8426 110.323 7.55619C110.323 7.55286 110.327 7.54953 110.33 7.54398ZM110.7 6.90567C110.669 6.86571 110.642 6.8324 110.617 6.79577C110.595 6.76691 110.603 6.73028 110.622 6.69364C110.629 6.68365 110.644 6.67033 110.623 6.66589C110.611 6.66256 110.603 6.67033 110.596 6.68365C110.59 6.69586 110.579 6.70918 110.579 6.7225C110.577 6.79466 110.515 6.83907 110.472 6.89457C110.46 6.91122 110.451 6.909 110.444 6.89568C110.433 6.87015 110.421 6.84684 110.408 6.82352C110.399 6.80909 110.407 6.79577 110.417 6.78245C110.491 6.67588 110.578 6.58041 110.671 6.49049C110.688 6.47273 110.7 6.47162 110.715 6.4805C110.801 6.53601 110.881 6.59595 110.981 6.63148C110.998 6.63814 110.996 6.65146 110.996 6.667C110.996 6.73694 110.993 6.80576 110.993 6.87459C110.991 6.91122 110.976 6.91011 110.956 6.89901C110.911 6.87237 110.874 6.83795 110.843 6.79577C110.829 6.7769 110.835 6.75137 110.844 6.72472C110.849 6.71362 110.867 6.69808 110.843 6.69475C110.822 6.69253 110.813 6.71362 110.813 6.72583C110.803 6.79799 110.743 6.84351 110.7 6.90567ZM110.445 9.58657C110.448 9.61432 110.463 9.62764 110.476 9.64429C110.513 9.69425 110.512 9.6998 110.451 9.73976C110.459 9.76418 110.501 9.7553 110.499 9.79304C110.496 9.84966 110.506 9.90627 110.472 9.96733C110.431 10.0406 110.386 10.1128 110.322 10.176C110.308 10.1671 110.311 10.1527 110.312 10.1416C110.312 9.89295 110.314 9.64429 110.314 9.39452C110.313 9.35677 110.321 9.34456 110.358 9.35899C110.387 9.37121 110.423 9.37121 110.459 9.35789C110.495 9.34678 110.504 9.36122 110.503 9.3923C110.499 9.43448 110.497 9.47667 110.501 9.51885C110.506 9.5577 110.498 9.58546 110.445 9.58657Z" fill="#AF7E55"/>
<path fill-rule="evenodd" clip-rule="evenodd" d="M111.011 9.09812C111.077 9.17139 111.168 9.20802 111.262 9.24243C111.232 9.30904 111.195 9.37454 111.156 9.43892C111.164 9.45224 111.189 9.43226 111.191 9.44447C111.191 9.45446 111.179 9.4689 111.173 9.48111C111.124 9.55548 111.079 9.63208 111.031 9.70757C111.011 9.65539 110.99 9.65206 110.935 9.68981C110.92 9.6998 110.904 9.71534 110.883 9.70757C110.888 9.68981 110.904 9.68203 110.916 9.67204C110.995 9.601 111.035 9.52218 111.035 9.43115C111.037 9.38342 111.034 9.38231 110.988 9.41006C110.976 9.41672 110.965 9.42449 110.953 9.43226C110.919 9.32236 110.989 9.20913 111.011 9.09812Z" fill="#FED100"/>
<path fill-rule="evenodd" clip-rule="evenodd" d="M110.951 9.95401C110.961 9.91072 110.998 9.8874 111.007 9.84744C110.937 9.88185 110.863 9.89184 110.803 9.94735C110.792 9.95845 110.78 9.96622 110.769 9.95512C110.758 9.94402 110.766 9.9307 110.775 9.92071C110.821 9.87519 110.865 9.82857 110.93 9.82413C110.985 9.82191 111.021 9.79637 111.049 9.74309C111.101 9.64873 111.159 9.55881 111.216 9.46668C111.224 9.45002 111.231 9.43337 111.251 9.42227C111.265 9.42449 111.26 9.43892 111.264 9.44669C111.268 9.48555 111.283 9.49554 111.319 9.45668C111.345 9.42893 111.353 9.44114 111.355 9.46668C111.357 9.48555 111.343 9.49887 111.336 9.5133C111.26 9.62431 111.184 9.73643 111.109 9.84633C111.084 9.88518 111.058 9.92404 111.046 9.96733C111.043 9.9751 111.045 9.98842 111.031 9.99064C111.015 9.99508 111.008 9.98287 111.008 9.97177C111.011 9.93292 110.997 9.92404 110.951 9.95401Z" fill="#D00429"/>
<path fill-rule="evenodd" clip-rule="evenodd" d="M111.528 7.03444C111.548 7.04554 111.577 7.02334 111.597 7.03888C111.572 7.05776 111.547 7.07663 111.517 7.10105C111.528 7.09994 111.537 7.09994 111.547 7.09994C111.547 7.10216 111.547 7.10438 111.546 7.1066C111.345 7.14545 111.144 7.18542 110.942 7.22649C110.964 7.2498 110.985 7.272 111.008 7.29643C110.983 7.32085 110.958 7.34527 110.933 7.36858C110.91 7.26978 110.93 7.07108 110.976 7.00114C111.015 7.0522 111.051 7.10438 111.097 7.14656C111.12 7.16655 111.136 7.18431 111.16 7.13435C111.165 7.12436 111.174 7.11659 111.181 7.10771C111.23 7.05442 111.23 7.05442 111.262 7.10105C111.294 7.14878 111.3 7.14878 111.349 7.09994C111.362 7.08773 111.377 7.0733 111.391 7.05887C111.395 7.04665 111.4 7.03555 111.415 7.03333C111.417 7.03222 111.419 7.03111 111.421 7.03111C111.458 7.03222 111.492 7.03333 111.528 7.03444Z" fill="#AE7E54"/>
<path fill-rule="evenodd" clip-rule="evenodd" d="M111.3 9.25354C111.377 9.27241 111.452 9.29128 111.529 9.30904C111.496 9.35011 111.462 9.39119 111.427 9.43004C111.419 9.44003 111.401 9.46223 111.397 9.43892C111.389 9.37898 111.361 9.38009 111.305 9.43226C111.307 9.37343 111.289 9.34789 111.218 9.39785C111.254 9.34012 111.283 9.29905 111.3 9.25354Z" fill="#AF7E54"/>
<path fill-rule="evenodd" clip-rule="evenodd" d="M110.326 7.20873C110.34 7.09439 110.311 6.9967 110.354 6.88236C110.444 6.97894 110.434 7.10993 110.326 7.20873Z" fill="#AD7D53"/>
<path fill-rule="evenodd" clip-rule="evenodd" d="M110.57 6.86349C110.689 6.97561 110.688 7.07552 110.565 7.16655C110.566 7.06553 110.569 6.96562 110.57 6.86349Z" fill="#AB7C53"/>
<path fill-rule="evenodd" clip-rule="evenodd" d="M110.792 9.65539C110.707 9.70979 110.564 9.70091 110.522 9.63763C110.505 9.6121 110.528 9.6121 110.543 9.60877C110.623 9.59101 110.694 9.59767 110.755 9.63541C110.768 9.64318 110.781 9.64984 110.792 9.6565V9.65539ZM110.852 9.58324C110.792 9.5133 110.797 9.44003 110.861 9.35566C110.878 9.33235 110.887 9.33235 110.896 9.35344C110.916 9.40784 110.945 9.46223 110.88 9.52995C110.868 9.54216 110.863 9.56325 110.852 9.58324Z" fill="#097553"/>
<path fill-rule="evenodd" clip-rule="evenodd" d="M110.53 7.17432C110.408 7.14323 110.405 6.99892 110.533 6.89346C110.532 6.98671 110.531 7.08107 110.53 7.17432Z" fill="#AF7E54"/>
<path fill-rule="evenodd" clip-rule="evenodd" d="M110.811 7.1288C110.813 7.03777 110.814 6.94674 110.816 6.85461C110.856 6.8979 110.887 6.9423 110.935 6.96673C110.95 6.97339 110.937 6.98782 110.929 6.99781C110.896 7.04332 110.864 7.08995 110.811 7.1288Z" fill="#AD7D54"/>
<path fill-rule="evenodd" clip-rule="evenodd" d="M110.728 9.57991C110.68 9.57435 110.631 9.57213 110.581 9.57324C110.556 9.57324 110.536 9.52218 110.559 9.50886C110.606 9.47889 110.616 9.44114 110.618 9.39785C110.622 9.39674 110.627 9.39563 110.631 9.39341C110.663 9.45557 110.696 9.51774 110.728 9.57991ZM110.774 7.12214C110.662 7.08218 110.65 6.99004 110.779 6.87681C110.777 6.95896 110.775 7.03999 110.774 7.12214Z" fill="#AC7C53"/>
<path fill-rule="evenodd" clip-rule="evenodd" d="M110.729 8.97934C110.753 9.05927 110.75 9.13253 110.694 9.20802C110.688 9.21801 110.681 9.23133 110.669 9.23244C110.655 9.23244 110.657 9.21801 110.654 9.20913C110.633 9.13142 110.665 9.05816 110.729 8.97934Z" fill="#097553"/>
<path fill-rule="evenodd" clip-rule="evenodd" d="M110.792 9.6565C110.749 9.57102 110.704 9.48555 110.662 9.39896C110.65 9.37343 110.64 9.34456 110.629 9.31237C110.665 9.32902 110.867 9.70535 110.878 9.76862C110.832 9.73865 110.825 9.68758 110.792 9.65539C110.793 9.65539 110.793 9.6565 110.793 9.6565" fill="#EECE02"/>
<path fill-rule="evenodd" clip-rule="evenodd" d="M111.269 6.98116C111.222 7.02445 111.171 7.05442 111.136 7.10105C111.128 7.11215 111.121 7.10771 111.117 7.10216C111.11 7.09994 111.108 7.0955 111.104 7.08995C111.089 7.05998 111.052 7.02445 111.07 6.9967C111.089 6.96451 111.143 6.96784 111.181 6.96451C111.214 6.96229 111.243 6.96784 111.269 6.98116Z" fill="#AE7D54"/>
<path fill-rule="evenodd" clip-rule="evenodd" d="M110.438 7.47071C110.436 7.46183 110.435 7.45517 110.436 7.4474C110.437 7.37746 110.438 7.30531 110.439 7.23315C110.556 7.26756 110.567 7.37524 110.438 7.47071Z" fill="#AF7E54"/>
<path fill-rule="evenodd" clip-rule="evenodd" d="M110.684 7.42409C110.687 7.34416 110.688 7.26534 110.689 7.18653C110.804 7.21095 110.806 7.30309 110.684 7.42409Z" fill="#AE7D54"/>
<path fill-rule="evenodd" clip-rule="evenodd" d="M110.406 7.23759C110.403 7.31974 110.402 7.40078 110.401 7.48292C110.37 7.46405 110.329 7.4585 110.326 7.41521C110.316 7.32751 110.326 7.30642 110.406 7.23759Z" fill="#A87951"/>
<path fill-rule="evenodd" clip-rule="evenodd" d="M110.65 7.18653C110.646 7.26534 110.646 7.34416 110.645 7.42298C110.541 7.39412 110.511 7.29865 110.65 7.18653Z" fill="#AD7D54"/>
<path fill-rule="evenodd" clip-rule="evenodd" d="M110.463 8.57637C110.516 8.6563 110.508 8.72957 110.439 8.81283C110.39 8.76287 110.399 8.66851 110.463 8.57637Z" fill="#097553"/>
<path fill-rule="evenodd" clip-rule="evenodd" d="M110.42 8.98933C110.449 9.04595 110.479 9.10145 110.508 9.15807C110.445 9.13586 110.393 9.13253 110.335 9.1503C110.308 9.16029 110.316 9.13475 110.316 9.12254C110.316 9.11144 110.308 9.08924 110.329 9.08813C110.398 9.08702 110.406 9.04373 110.409 8.99377C110.412 8.99266 110.417 8.99044 110.42 8.98933Z" fill="#AE7D54"/>
<path fill-rule="evenodd" clip-rule="evenodd" d="M111.156 10.1483C111.155 10.1505 111.153 10.1538 111.153 10.1572C111.134 10.2471 111.135 10.2449 111.052 10.2249C111.019 10.2171 111.03 10.1927 111.035 10.1694C111.052 10.0983 111.054 10.0972 111.117 10.1161C111.134 10.1205 111.165 10.115 111.156 10.1483Z" fill="#F1D002"/>
<path fill-rule="evenodd" clip-rule="evenodd" d="M110.895 7.14434C110.893 7.22427 110.891 7.3042 110.891 7.38524C110.853 7.34971 110.805 7.34416 110.804 7.27978C110.802 7.21428 110.865 7.19208 110.885 7.14212C110.888 7.14323 110.891 7.14434 110.895 7.14434Z" fill="#AE7E54"/>
<path fill-rule="evenodd" clip-rule="evenodd" d="M110.566 9.29128C110.472 9.35122 110.395 9.35788 110.336 9.31459C110.413 9.25576 110.491 9.24687 110.566 9.29128Z" fill="#097552"/>
<path fill-rule="evenodd" clip-rule="evenodd" d="M110.529 9.73532C110.607 9.71312 110.676 9.69647 110.74 9.71312C110.751 9.71645 110.766 9.71867 110.766 9.73199C110.766 9.74753 110.746 9.75197 110.734 9.75752C110.656 9.79415 110.59 9.79082 110.529 9.73532Z" fill="#097553"/>
<path fill-rule="evenodd" clip-rule="evenodd" d="M110.619 9.14697C110.553 9.10256 110.557 8.99821 110.622 8.93716C110.638 8.92495 110.644 8.92717 110.65 8.93716C110.666 8.96935 110.672 9.00598 110.651 9.04595C110.634 9.07703 110.618 9.11033 110.619 9.14697Z" fill="#097653"/>
<path fill-rule="evenodd" clip-rule="evenodd" d="M110.531 9.2391C110.499 9.23244 110.463 9.23244 110.427 9.24132C110.397 9.24909 110.347 9.21468 110.341 9.18915C110.335 9.16251 110.358 9.16251 110.371 9.16029C110.447 9.14808 110.499 9.17916 110.543 9.22578C110.545 9.23466 110.542 9.2391 110.531 9.2391ZM110.999 9.43115C110.993 9.50664 110.985 9.56769 110.925 9.61987C110.914 9.62986 110.902 9.63985 110.89 9.63541C110.875 9.63208 110.879 9.61543 110.88 9.60433C110.888 9.53772 110.935 9.48888 110.999 9.43115ZM110.148 8.35435C110.154 8.38988 110.138 8.38433 110.12 8.37989C110.096 8.371 110.075 8.35546 110.063 8.33326C110.05 8.31106 110.044 8.28442 110.046 8.25666C110.048 8.2278 110.064 8.23113 110.079 8.23779C110.136 8.25444 110.146 8.3044 110.148 8.35435Z" fill="#097452"/>
<path fill-rule="evenodd" clip-rule="evenodd" d="M110.667 9.81303C110.628 9.85632 110.591 9.89961 110.553 9.94402C110.553 9.89628 110.55 9.8541 110.553 9.81081C110.554 9.79082 110.568 9.79637 110.577 9.79859C110.605 9.80193 110.632 9.80748 110.667 9.81303Z" fill="#A67850"/>
<path fill-rule="evenodd" clip-rule="evenodd" d="M109.993 8.41652C110.064 8.40542 110.113 8.41652 110.136 8.46869C110.14 8.47646 110.149 8.48646 110.14 8.49867C110.132 8.50977 110.118 8.50866 110.107 8.50755C110.052 8.50089 110.023 8.46425 109.993 8.41652Z" fill="#097452"/>
<path fill-rule="evenodd" clip-rule="evenodd" d="M110.297 8.87499C110.194 8.90052 110.152 8.89275 110.114 8.83947C110.149 8.82504 110.186 8.81949 110.218 8.82615C110.252 8.83281 110.279 8.84835 110.297 8.87499Z" fill="#097351"/>
<path fill-rule="evenodd" clip-rule="evenodd" d="M110.289 8.78174C110.211 8.79617 110.148 8.78951 110.1 8.73956C110.163 8.70515 110.238 8.7218 110.289 8.78174Z" fill="#097251"/>
<path fill-rule="evenodd" clip-rule="evenodd" d="M110.218 8.41985C110.198 8.39543 110.187 8.36434 110.183 8.33104C110.182 8.29663 110.188 8.2611 110.205 8.2278C110.253 8.26555 110.26 8.32993 110.218 8.41985Z" fill="#097452"/>
<path fill-rule="evenodd" clip-rule="evenodd" d="M111.379 7.04998C111.373 7.05442 111.364 7.05665 111.357 7.05998C111.292 7.09772 111.292 7.09883 111.282 7.03222C111.28 7.01557 111.277 6.99892 111.275 6.98005C111.329 6.99781 111.379 7.00447 111.421 7.03111C111.422 7.03222 111.422 7.03222 111.422 7.03222C111.41 7.04554 111.393 7.04221 111.379 7.04998Z" fill="#A97A52"/>
<path fill-rule="evenodd" clip-rule="evenodd" d="M110.452 8.95825C110.503 9.03707 110.553 9.11588 110.586 9.2058C110.581 9.20913 110.575 9.21357 110.568 9.21912C110.524 9.13586 110.48 9.05372 110.434 8.97157C110.44 8.96713 110.446 8.96269 110.452 8.95825Z" fill="#EBCB02"/>
<path fill-rule="evenodd" clip-rule="evenodd" d="M110.958 10.0317C110.973 10.0317 110.987 10.0406 110.976 10.0584C110.953 10.0928 110.925 10.125 110.89 10.1494C110.874 10.1627 110.86 10.1538 110.859 10.1372C110.859 10.1216 110.938 10.035 110.958 10.0317Z" fill="#C90428"/>
<path fill-rule="evenodd" clip-rule="evenodd" d="M110.899 9.99952C110.94 9.99508 110.945 10.0117 110.914 10.045C110.897 10.065 110.878 10.085 110.86 10.1039C110.828 10.1338 110.812 10.1283 110.811 10.0928C110.816 10.0728 110.828 10.0528 110.843 10.0362C110.86 10.0184 110.878 10.0073 110.899 9.99952Z" fill="#C50427"/>
<path fill-rule="evenodd" clip-rule="evenodd" d="M110.799 10.0839C110.762 10.0839 110.76 10.0661 110.783 10.0362C110.801 10.0173 110.821 9.9973 110.84 9.97843C110.871 9.94957 110.883 9.9529 110.888 9.99064C110.863 10.0273 110.838 10.0628 110.799 10.0839Z" fill="#CC0428"/>
<path fill-rule="evenodd" clip-rule="evenodd" d="M110.373 8.71514C110.335 8.6563 110.327 8.60413 110.363 8.53086C110.403 8.58414 110.394 8.64187 110.373 8.71514Z" fill="#097250"/>
<path fill-rule="evenodd" clip-rule="evenodd" d="M110.314 8.95381C110.316 8.92495 110.304 8.89164 110.346 8.88387C110.385 8.87832 110.39 8.91828 110.39 8.9416C110.395 8.97157 110.353 8.98933 110.329 8.99377C110.297 9.00043 110.325 8.9638 110.314 8.95381Z" fill="#AC7C53"/>
<path fill-rule="evenodd" clip-rule="evenodd" d="M110.237 8.57304C110.264 8.5686 110.271 8.58525 110.276 8.59636C110.302 8.63965 110.327 8.68405 110.35 8.72846C110.354 8.73512 110.357 8.744 110.351 8.75066C110.341 8.75954 110.335 8.75621 110.33 8.74955C110.29 8.69737 110.261 8.63743 110.237 8.57304Z" fill="#EBCB02"/>
<path fill-rule="evenodd" clip-rule="evenodd" d="M110.742 9.19692C110.746 9.25354 110.732 9.28018 110.692 9.29572C110.679 9.30016 110.669 9.30349 110.664 9.29128C110.658 9.28129 110.669 9.27463 110.676 9.26686C110.699 9.24354 110.72 9.22023 110.742 9.19692Z" fill="#A0734D"/>
<path fill-rule="evenodd" clip-rule="evenodd" d="M110.505 8.79062C110.505 8.81505 110.505 8.83947 110.504 8.86389C110.504 8.87832 110.5 8.89275 110.483 8.89941C110.47 8.90385 110.462 8.90274 110.456 8.89275C110.448 8.88054 110.445 8.86944 110.459 8.8539C110.472 8.83725 110.484 8.81838 110.505 8.79062Z" fill="#A2754E"/>
<path fill-rule="evenodd" clip-rule="evenodd" d="M110.555 9.36677C110.556 9.349 110.548 9.32902 110.575 9.32236C110.602 9.31459 110.606 9.33568 110.606 9.349C110.609 9.37232 110.586 9.39119 110.566 9.39563C110.545 9.40118 110.559 9.37676 110.555 9.36677Z" fill="#A0744D"/>
<path fill-rule="evenodd" clip-rule="evenodd" d="M110.688 9.33901C110.746 9.34345 110.75 9.38009 110.74 9.42893C110.715 9.40451 110.705 9.37343 110.688 9.33901Z" fill="#9B704B"/>
<path fill-rule="evenodd" clip-rule="evenodd" d="M110.319 9.21135C110.34 9.22911 110.357 9.24354 110.374 9.25909C110.353 9.26908 110.333 9.29239 110.322 9.28462C110.305 9.2713 110.313 9.24243 110.319 9.21135Z" fill="#A77851"/>
<path fill-rule="evenodd" clip-rule="evenodd" d="M110.998 9.75641C110.95 9.80304 110.925 9.80082 110.912 9.74642C110.938 9.75863 110.96 9.77084 110.998 9.75641Z" fill="#E9C000"/>
<path fill-rule="evenodd" clip-rule="evenodd" d="M110.799 10.0839C110.828 10.0528 110.858 10.0217 110.888 9.99064C110.891 9.99397 110.895 9.99508 110.899 9.99841C110.87 10.0295 110.84 10.0617 110.81 10.0928C110.807 10.0906 110.803 10.0872 110.799 10.0839Z" fill="#200106"/>
<path fill-rule="evenodd" clip-rule="evenodd" d="M110.797 9.99175C110.798 9.96733 110.811 9.9529 110.837 9.9418C110.832 9.96955 110.813 9.98065 110.797 9.99175Z" fill="#BA0424"/>
<path fill-rule="evenodd" clip-rule="evenodd" d="M110.835 9.83634C110.831 9.81303 110.826 9.80082 110.834 9.77972C110.842 9.79637 110.861 9.80415 110.835 9.83634Z" fill="#E1B900"/>
<path fill-rule="evenodd" clip-rule="evenodd" d="M110.486 8.94826C110.504 8.95048 110.506 8.95825 110.501 8.97268C110.491 8.97046 110.488 8.96158 110.486 8.94826Z" fill="#745438"/>
<path fill-rule="evenodd" clip-rule="evenodd" d="M110.531 9.2391C110.535 9.23466 110.538 9.22911 110.543 9.22578C110.549 9.22911 110.562 9.23355 110.555 9.24354C110.549 9.25132 110.537 9.24354 110.531 9.2391Z" fill="#06543B"/>
<path fill-rule="evenodd" clip-rule="evenodd" d="M111.379 7.04998C111.392 7.03666 111.407 7.03666 111.422 7.03222C111.411 7.04221 111.4 7.04998 111.391 7.05887C111.387 7.05664 111.385 7.0522 111.379 7.04998Z" fill="#302317"/>
<path fill-rule="evenodd" clip-rule="evenodd" d="M113.101 8.72735C113.103 8.46758 113.103 8.19339 113.107 7.90587C113.112 7.63612 113.117 7.35859 113.121 7.07108C113.126 7.0733 113.131 7.07552 113.133 7.07885C113.164 7.11104 113.188 7.15655 113.224 7.16877C113.261 7.18209 113.278 7.11215 113.318 7.09328C113.31 7.8537 113.302 8.53641 113.297 9.14808C113.262 9.12809 113.248 9.09923 113.231 9.07259C113.181 8.98156 113.15 8.88054 113.118 8.77952C113.114 8.76287 113.106 8.74511 113.101 8.72735ZM113.414 9.15696C113.397 9.1725 113.378 9.18249 113.357 9.19026C113.361 8.57193 113.369 7.8759 113.376 7.09328C113.397 7.09883 113.409 7.1177 113.42 7.13324C113.451 7.18431 113.48 7.17987 113.509 7.13324C113.52 7.11881 113.533 7.10771 113.544 7.0955C113.561 7.10438 113.555 7.11881 113.555 7.13102C113.548 7.80596 113.544 8.40764 113.54 8.94271C113.54 8.95159 113.538 8.9638 113.535 8.97379C113.534 8.98489 113.536 8.99821 113.53 9.00931C113.501 9.05372 113.467 9.09701 113.439 9.14142C113.432 9.14808 113.424 9.15363 113.414 9.15696Z" fill="#AF7F55"/>
<path fill-rule="evenodd" clip-rule="evenodd" d="M113.595 8.8206C113.596 8.80949 113.594 8.7995 113.594 8.78951C113.596 8.29996 113.602 7.75268 113.607 7.14656C113.608 7.12991 113.609 7.11659 113.61 7.08773C113.635 7.1177 113.656 7.1399 113.676 7.16655C113.692 7.18875 113.704 7.18764 113.72 7.16877C113.738 7.14545 113.76 7.12658 113.78 7.10549C113.793 7.12103 113.787 7.13768 113.788 7.15211C113.785 7.6783 113.78 8.15454 113.78 8.5686C113.78 8.61967 113.744 8.65075 113.719 8.68738C113.694 8.72846 113.64 8.75399 113.63 8.80616C113.629 8.81283 113.614 8.81727 113.606 8.82171C113.603 8.82615 113.599 8.82615 113.595 8.8206Z" fill="#AF7E55"/>
<path fill-rule="evenodd" clip-rule="evenodd" d="M112.846 9.01708C112.869 8.98156 112.912 8.96935 112.945 8.94826C113.002 8.91384 113.05 8.87166 113.088 8.82171C113.121 8.92162 113.156 9.01819 113.192 9.11366C113.22 9.18471 113.258 9.25021 113.296 9.31459C113.307 9.33013 113.312 9.33901 113.281 9.34678C113.243 9.35566 113.242 9.3812 113.247 9.41006C113.217 9.40229 113.192 9.39896 113.167 9.40562C113.121 9.41783 113.094 9.4034 113.07 9.37454C113.019 9.30904 112.961 9.24243 112.904 9.17361C112.917 9.17139 112.93 9.16695 112.944 9.16473C112.909 9.11588 112.87 9.06926 112.846 9.01708Z" fill="#FED100"/>
<path fill-rule="evenodd" clip-rule="evenodd" d="M113.663 8.92162C113.699 8.8983 113.716 8.86167 113.75 8.83725C113.77 8.82282 113.746 8.79617 113.774 8.78063C113.773 9.05261 113.773 9.31237 113.771 9.56436C113.757 9.56769 113.75 9.55881 113.743 9.55215C113.647 9.48777 113.575 9.4145 113.591 9.30349C113.602 9.21024 113.596 9.11588 113.597 9.01819C113.598 8.99932 113.603 8.98045 113.615 8.96269C113.627 8.94604 113.643 8.93161 113.663 8.92162ZM113.679 6.3595C113.641 6.28845 113.571 6.2607 113.574 6.15857C113.574 6.14525 113.567 6.13415 113.561 6.12194C113.556 6.10862 113.548 6.0953 113.534 6.10751C113.513 6.12305 113.531 6.13415 113.536 6.14414C113.556 6.19077 113.555 6.23739 113.525 6.28512C113.521 6.28957 113.521 6.29512 113.517 6.29956C113.493 6.33841 113.482 6.38725 113.449 6.41501C113.418 6.36949 113.364 6.34396 113.361 6.26958C113.36 6.25404 113.352 6.24183 113.346 6.22851C113.339 6.21519 113.33 6.22074 113.322 6.2274C113.311 6.23628 113.315 6.24405 113.321 6.25182C113.347 6.30178 113.326 6.34507 113.297 6.38947C113.269 6.43055 113.243 6.47162 113.21 6.50492C113.193 6.52047 113.176 6.53268 113.178 6.49271C113.181 6.40946 113.185 6.32509 113.187 6.24183C113.186 6.22185 113.193 6.20964 113.207 6.19743C113.297 6.12083 113.373 6.02314 113.45 5.92878C113.472 5.89992 113.485 5.89659 113.508 5.91657C113.58 5.9854 113.647 6.06421 113.708 6.15302C113.732 6.18966 113.737 6.21852 113.716 6.2607C113.703 6.28845 113.694 6.32065 113.679 6.3595Z" fill="#AF7E55"/>
<path fill-rule="evenodd" clip-rule="evenodd" d="M112.753 9.20913C112.765 9.21246 112.773 9.2169 112.781 9.21912C112.824 9.24021 112.825 9.2391 112.836 9.1947C112.836 9.18582 112.831 9.17361 112.847 9.17028C112.86 9.16917 112.867 9.17916 112.873 9.18693C112.931 9.25909 112.993 9.32902 113.047 9.40118C113.073 9.43448 113.107 9.4478 113.157 9.43448C113.22 9.42005 113.264 9.44336 113.309 9.46779C113.322 9.47667 113.333 9.48555 113.32 9.49998C113.308 9.5133 113.292 9.50553 113.284 9.49887C113.225 9.47001 113.152 9.48777 113.085 9.47334C113.091 9.50442 113.126 9.51552 113.139 9.53994C113.119 9.55659 113.103 9.53772 113.087 9.54327C113.077 9.56325 113.096 9.59545 113.065 9.60211C113.033 9.60988 113.046 9.56991 113.031 9.55548C113.015 9.54216 113.004 9.52551 112.987 9.50997C112.912 9.43337 112.84 9.35566 112.765 9.27796C112.745 9.25798 112.737 9.2391 112.753 9.20913Z" fill="#D00429"/>
<path fill-rule="evenodd" clip-rule="evenodd" d="M112.574 6.86793C112.598 6.86349 112.622 6.86571 112.643 6.85017C112.678 6.83795 112.712 6.82574 112.747 6.81242C112.752 6.81353 112.756 6.81908 112.759 6.82241C112.783 6.83018 112.806 6.84573 112.822 6.86682C112.855 6.909 112.874 6.88236 112.898 6.84573C112.91 6.82574 112.913 6.78689 112.937 6.78689C112.96 6.78689 112.982 6.8102 112.994 6.83351C113.019 6.88569 113.039 6.86682 113.066 6.82685C113.108 6.76802 113.144 6.70141 113.181 6.6337C113.206 6.667 113.224 6.69919 113.22 6.74804C113.216 6.84462 113.216 6.94119 113.204 7.04554C113.185 7.02112 113.166 6.99781 113.148 6.9745C113.155 6.94008 113.186 6.92121 113.205 6.88014C113.027 6.89235 112.847 6.909 112.668 6.92787C112.662 6.92232 112.655 6.91677 112.649 6.91122C112.622 6.90345 112.595 6.88791 112.574 6.86793Z" fill="#AF7E54"/>
<path fill-rule="evenodd" clip-rule="evenodd" d="M113.587 9.0082C113.552 9.06371 113.515 9.11921 113.477 9.1725C113.465 9.19359 113.46 9.21468 113.462 9.23577C113.462 9.26242 113.461 9.29128 113.435 9.31237C113.412 9.33235 113.384 9.34456 113.35 9.33346C113.313 9.32125 113.305 9.29794 113.312 9.26797C113.318 9.24132 113.339 9.22245 113.365 9.2058C113.385 9.1947 113.412 9.18582 113.423 9.16695C113.449 9.09812 113.498 9.04151 113.544 8.98156C113.562 8.95492 113.581 8.92717 113.598 8.89941C113.606 8.89053 113.614 8.87832 113.63 8.88165C113.65 8.88498 113.655 8.8983 113.653 8.91162C113.64 8.94826 113.617 8.98045 113.587 9.0082Z" fill="#F3D202"/>
<path fill-rule="evenodd" clip-rule="evenodd" d="M112.573 9.14475C112.649 9.10478 112.726 9.06593 112.802 9.02818C112.815 9.06593 112.844 9.09479 112.872 9.12587C112.855 9.13364 112.842 9.13142 112.828 9.12809C112.81 9.12365 112.799 9.13142 112.798 9.14586C112.798 9.20247 112.767 9.1836 112.737 9.1725C112.735 9.17028 112.73 9.17028 112.726 9.16917C112.707 9.18915 112.712 9.2169 112.692 9.24243C112.649 9.21246 112.609 9.18027 112.573 9.14475Z" fill="#AF7E54"/>
<path fill-rule="evenodd" clip-rule="evenodd" d="M113.877 8.47868C113.888 8.46869 113.896 8.45537 113.898 8.43983C113.904 8.42984 113.911 8.41985 113.915 8.40875C113.92 8.39543 113.925 8.38211 113.945 8.38766C113.962 8.3921 113.975 8.39987 113.983 8.41541C113.991 8.43317 113.983 8.44316 113.973 8.45204C113.969 8.4587 113.963 8.46536 113.959 8.47091C113.913 8.51643 113.883 8.57082 113.849 8.62411C113.831 8.64964 113.815 8.67517 113.795 8.69959C113.788 8.71292 113.779 8.72957 113.754 8.71403C113.73 8.69848 113.743 8.68738 113.751 8.67517C113.789 8.61634 113.829 8.55528 113.868 8.49645C113.872 8.4909 113.873 8.48313 113.877 8.47868Z" fill="#F1D002"/>
<path fill-rule="evenodd" clip-rule="evenodd" d="M113.531 9.43781C113.492 9.40895 113.452 9.37898 113.412 9.35011C113.473 9.31792 113.487 9.2713 113.481 9.21801C113.479 9.18249 113.509 9.15585 113.532 9.11699C113.531 9.22467 113.532 9.33235 113.531 9.43781ZM113.774 6.29401C113.799 6.35617 113.807 6.54045 113.787 6.68365C113.695 6.61038 113.689 6.42278 113.774 6.29401ZM113.571 6.70585C113.439 6.60705 113.479 6.47828 113.571 6.34507C113.579 6.35062 113.578 6.36172 113.575 6.3706C113.574 6.48272 113.573 6.59484 113.571 6.70585Z" fill="#AE7E54"/>
<path fill-rule="evenodd" clip-rule="evenodd" d="M113.606 6.70474C113.607 6.59151 113.609 6.47939 113.61 6.36394C113.709 6.43166 113.736 6.6015 113.606 6.70474Z" fill="#AD7D54"/>
<path fill-rule="evenodd" clip-rule="evenodd" d="M113.34 6.40946C113.339 6.51603 113.337 6.6226 113.335 6.72806C113.283 6.69919 113.254 6.65146 113.223 6.60594C113.214 6.59373 113.217 6.58374 113.228 6.57264C113.271 6.53268 113.301 6.47606 113.34 6.40946Z" fill="#AE7E54"/>
<path fill-rule="evenodd" clip-rule="evenodd" d="M113.254 6.76358C113.367 6.89568 113.367 6.93675 113.25 7.03999C113.251 6.94785 113.253 6.85572 113.254 6.76358Z" fill="#AA7B52"/>
<path fill-rule="evenodd" clip-rule="evenodd" d="M113.687 6.74138C113.685 6.84462 113.683 6.94786 113.683 7.05109C113.651 7.00225 113.608 6.98338 113.599 6.92232C113.586 6.83351 113.634 6.79244 113.687 6.74138Z" fill="#AB7C53"/>
<path fill-rule="evenodd" clip-rule="evenodd" d="M112.903 6.70585C112.961 6.65812 113.018 6.64702 113.077 6.6448C113.099 6.6448 113.106 6.65257 113.095 6.6781C113.094 6.68143 113.093 6.68587 113.091 6.6892C113.079 6.72472 113.07 6.77024 113.045 6.78911C113.01 6.81464 113.001 6.75692 112.974 6.74915C112.949 6.74027 112.928 6.7225 112.903 6.70585Z" fill="#AD7D54"/>
<path fill-rule="evenodd" clip-rule="evenodd" d="M113.487 6.74915C113.607 6.84018 113.591 6.96229 113.483 7.03555C113.485 6.94119 113.486 6.84573 113.487 6.74915Z" fill="#AD7D53"/>
<path fill-rule="evenodd" clip-rule="evenodd" d="M113.446 7.03555C113.345 6.96895 113.323 6.85461 113.449 6.75248C113.448 6.84795 113.447 6.9423 113.446 7.03555Z" fill="#AD7D54"/>
<path fill-rule="evenodd" clip-rule="evenodd" d="M113.371 6.71584C113.374 6.62038 113.375 6.52602 113.377 6.43055C113.486 6.48161 113.486 6.59373 113.371 6.71584Z" fill="#AE7E54"/>
<path fill-rule="evenodd" clip-rule="evenodd" d="M113.718 6.74693C113.824 6.81353 113.816 6.9967 113.717 7.04221C113.717 7.03555 113.715 7.03111 113.715 7.02556C113.715 6.93342 113.717 6.84129 113.718 6.74693Z" fill="#AF7E54"/>
<path fill-rule="evenodd" clip-rule="evenodd" d="M113.022 9.8541C113.023 9.82191 113.024 9.79637 113.022 9.77084C113.023 9.75641 113.032 9.74975 113.05 9.75086C113.064 9.75197 113.08 9.75419 113.092 9.75752C113.132 9.77084 113.132 9.77972 113.094 9.80415C113.073 9.81858 113.053 9.83301 113.022 9.8541Z" fill="#EDCD02"/>
<path fill-rule="evenodd" clip-rule="evenodd" d="M112.759 6.82241C112.754 6.81908 112.75 6.81575 112.747 6.81242C112.79 6.77468 112.839 6.74582 112.886 6.71473C112.897 6.73361 112.891 6.75137 112.887 6.76802C112.876 6.83795 112.871 6.84018 112.814 6.82352C112.798 6.81797 112.781 6.80021 112.759 6.82241Z" fill="#AC7C53"/>
<path fill-rule="evenodd" clip-rule="evenodd" d="M113.323 9.59101C113.318 9.60433 113.305 9.61765 113.286 9.60877C113.258 9.59545 113.23 9.57991 113.206 9.56214C113.191 9.54993 113.204 9.53661 113.225 9.53106C113.241 9.52551 113.321 9.57435 113.323 9.59101Z" fill="#C40426"/>
<path fill-rule="evenodd" clip-rule="evenodd" d="M113.276 9.63208C113.274 9.6454 113.262 9.65761 113.246 9.65095C113.215 9.63763 113.187 9.62209 113.163 9.60322C113.149 9.59323 113.16 9.57879 113.176 9.57324C113.194 9.56769 113.278 9.61654 113.276 9.63208Z" fill="#C50427"/>
<path fill-rule="evenodd" clip-rule="evenodd" d="M113.136 9.61543C113.15 9.61321 113.23 9.65872 113.229 9.67093C113.231 9.6787 113.226 9.68536 113.218 9.69092C113.214 9.69425 113.21 9.69536 113.204 9.69536C113.2 9.69536 113.194 9.69425 113.192 9.69314C113.166 9.6787 113.142 9.66427 113.119 9.65095C113.112 9.64651 113.109 9.63874 113.113 9.63097C113.117 9.6232 113.126 9.61765 113.136 9.61543Z" fill="#CB0428"/>
<path fill-rule="evenodd" clip-rule="evenodd" d="M113.264 9.3923C113.264 9.37121 113.276 9.359 113.298 9.35789C113.328 9.35455 113.352 9.36566 113.356 9.39008C113.361 9.41006 113.34 9.42005 113.317 9.42227C113.289 9.42227 113.268 9.41228 113.264 9.3923ZM113.743 8.81172C113.741 8.83059 113.727 8.83392 113.711 8.83059C113.683 8.82726 113.656 8.81394 113.652 8.7884C113.648 8.76953 113.666 8.76398 113.684 8.76731C113.714 8.77286 113.734 8.78729 113.743 8.81172Z" fill="#EECE02"/>
<path fill-rule="evenodd" clip-rule="evenodd" d="M113.544 8.98156C113.506 9.04484 113.467 9.107 113.422 9.16695C113.418 9.16362 113.415 9.16029 113.412 9.15696C113.451 9.09479 113.489 9.03151 113.535 8.97268C113.537 8.97601 113.541 8.97934 113.544 8.98156Z" fill="#1B1606"/>
<path fill-rule="evenodd" clip-rule="evenodd" d="M113.7 8.86278C113.699 8.87832 113.687 8.87943 113.672 8.87832C113.65 8.87388 113.629 8.86611 113.624 8.84391C113.622 8.83059 113.636 8.82615 113.651 8.82948C113.672 8.83281 113.691 8.84391 113.7 8.86278Z" fill="#E6C702"/>
<path fill-rule="evenodd" clip-rule="evenodd" d="M113.77 8.75399C113.774 8.77508 113.754 8.77286 113.746 8.77175C113.722 8.76953 113.702 8.75732 113.696 8.73512C113.692 8.72069 113.706 8.71958 113.721 8.7218C113.745 8.72513 113.762 8.73623 113.77 8.75399Z" fill="#E5C602"/>
<path fill-rule="evenodd" clip-rule="evenodd" d="M113.587 9.0082C113.609 8.97601 113.63 8.94382 113.653 8.91162C113.656 8.91606 113.659 8.91828 113.663 8.92162C113.645 8.95492 113.623 8.98822 113.597 9.01819C113.593 9.01486 113.591 9.01153 113.587 9.0082Z" fill="#211B04"/>
<path fill-rule="evenodd" clip-rule="evenodd" d="M113.137 9.72311C113.137 9.73532 113.129 9.73865 113.117 9.73976C113.097 9.74198 113.081 9.73754 113.071 9.72422C113.067 9.71534 113.076 9.70868 113.088 9.70646C113.097 9.70535 113.107 9.70535 113.115 9.70868C113.125 9.7109 113.132 9.71645 113.137 9.72311Z" fill="#E0C202"/>
<path fill-rule="evenodd" clip-rule="evenodd" d="M113.268 9.50664C113.279 9.5133 113.298 9.51552 113.299 9.52995C113.299 9.5355 113.29 9.53994 113.285 9.53661C113.272 9.53106 113.258 9.52662 113.254 9.51441C113.253 9.50886 113.258 9.50553 113.268 9.50664Z" fill="#A60320"/>
<path fill-rule="evenodd" clip-rule="evenodd" d="M113.595 8.8206C113.598 8.8206 113.603 8.8206 113.606 8.8206C113.605 8.83836 113.605 8.85612 113.605 8.87166C113.589 8.84835 113.597 8.83503 113.595 8.8206Z" fill="#A3764E"/>
<path fill-rule="evenodd" clip-rule="evenodd" d="M111.851 9.38342C111.919 9.39785 111.979 9.42227 112.028 9.46556C112.048 9.48444 112.059 9.47556 112.075 9.45557C112.124 9.39785 112.186 9.35122 112.255 9.3157C112.396 9.58546 112.548 9.83856 112.812 10.0106C112.745 10.0428 112.679 10.0772 112.612 10.1094C112.589 10.1205 112.58 10.105 112.571 10.0961C112.404 9.94957 112.256 9.78527 112.183 9.56547C112.178 9.55437 112.179 9.53772 112.159 9.53106C112.147 9.6232 112.161 9.70535 112.178 9.78638C112.218 9.94735 112.272 10.0972 112.365 10.226C112.378 10.2426 112.371 10.2537 112.349 10.2693C112.247 10.337 112.145 10.4069 112.06 10.4957C112.047 10.5079 112.039 10.5113 112.027 10.5046C111.941 10.4602 111.845 10.4358 111.743 10.4169C111.712 10.4114 111.711 10.3992 111.728 10.3703C111.845 10.1383 111.914 9.90739 111.942 9.67426C111.945 9.64651 111.942 9.61987 111.943 9.59323C111.944 9.58546 111.944 9.57769 111.931 9.57325C111.919 9.60655 111.906 9.63874 111.896 9.67093C111.818 9.9085 111.67 10.1272 111.512 10.3459C111.501 10.3614 111.49 10.3736 111.466 10.3714C111.406 10.3647 111.342 10.3614 111.273 10.3559C111.361 10.2626 111.431 10.1649 111.497 10.0639C111.637 9.84189 111.748 9.61432 111.851 9.38342Z" fill="#AF7E55"/>
<path fill-rule="evenodd" clip-rule="evenodd" d="M111.067 8.30662C111.071 8.00689 111.074 7.70716 111.081 7.403C111.082 7.35526 111.087 7.30642 111.062 7.26867C111.082 7.25091 111.101 7.25313 111.119 7.24869C111.768 7.12658 112.408 7.02445 113.038 6.95563C113.075 6.95341 113.096 6.9523 113.073 7.00891C113.066 7.03666 113.067 7.06997 113.067 7.10105C113.06 7.4141 113.058 7.71827 113.055 8.01244C113.054 8.03353 113.052 8.05463 113.052 8.07461C113.048 8.07905 113.043 8.08127 113.039 8.08238C112.95 8.07239 112.876 8.02576 112.806 7.97803C112.748 7.94251 112.75 7.94251 112.692 7.98247C112.616 8.03908 112.537 8.09126 112.439 8.09681C112.414 8.07128 112.43 8.0513 112.454 8.03464C112.485 8.01355 112.518 7.9969 112.549 7.97581C112.749 7.84593 112.873 7.51623 112.649 7.27089C112.588 7.21095 112.525 7.15544 112.457 7.10882C112.464 7.20429 112.506 7.27867 112.533 7.36303C112.567 7.47293 112.578 7.58505 112.538 7.70272C112.524 7.7438 112.5 7.78154 112.467 7.8104C112.435 7.84038 112.395 7.86036 112.355 7.86924C112.345 7.87146 112.335 7.87368 112.328 7.88034C112.284 7.91586 112.243 7.91364 112.205 7.88589C112.181 7.86924 112.157 7.88367 112.137 7.90143C112.088 7.94362 112.042 7.94917 111.995 7.91697C111.974 7.90032 111.95 7.90476 111.926 7.92696C111.891 7.96027 111.856 7.96471 111.818 7.95028C111.81 7.94695 111.803 7.94584 111.796 7.94362C111.64 7.92696 111.577 7.8537 111.582 7.69051C111.584 7.59393 111.615 7.49847 111.655 7.403C111.682 7.34527 111.7 7.28644 111.712 7.22538C111.61 7.32085 111.515 7.41743 111.439 7.53399C111.333 7.70161 111.369 7.93807 111.481 8.02798C111.534 8.0735 111.594 8.10791 111.664 8.12678C111.709 8.13899 111.712 8.15343 111.686 8.19339C111.582 8.20782 111.495 8.1723 111.415 8.12678C111.389 8.11235 111.371 8.11568 111.343 8.1401C111.264 8.21004 111.182 8.28109 111.079 8.31106C111.074 8.30995 111.07 8.30884 111.067 8.30662Z" fill="#D00429"/>
<path fill-rule="evenodd" clip-rule="evenodd" d="M113.043 8.0735C113.045 8.07683 113.047 8.07572 113.051 8.0735C113.046 8.31106 113.045 8.53863 113.044 8.75732C113.044 8.79617 113.018 8.82504 112.989 8.85057C112.924 8.91051 112.845 8.9527 112.764 8.99155C112.598 9.0737 112.431 9.15918 112.263 9.25132C112.194 9.29128 112.124 9.33124 112.066 9.38897C112.056 9.39674 112.05 9.40451 112.038 9.39674C111.911 9.32014 111.748 9.30349 111.6 9.26686C111.486 9.23799 111.368 9.21357 111.258 9.17916C111.217 9.16584 111.177 9.1503 111.142 9.1292C111.086 9.09479 111.055 9.04817 111.057 8.97268C111.066 8.75177 111.064 8.53086 111.067 8.30662C111.07 8.30662 111.071 8.30662 111.073 8.30551C111.134 8.29552 111.181 8.31994 111.23 8.3377C111.268 8.35324 111.307 8.36767 111.343 8.38766C111.368 8.40209 111.386 8.39876 111.41 8.37211C111.468 8.31328 111.532 8.26221 111.602 8.2167C111.625 8.20338 111.649 8.18784 111.675 8.20005C111.691 8.23002 111.669 8.25777 111.655 8.28664C111.637 8.31661 111.637 8.33659 111.677 8.33326C111.683 8.33215 111.675 8.33326 111.682 8.33326C111.821 8.34325 111.913 8.37989 111.917 8.58525C111.906 8.61523 111.921 8.64631 111.894 8.67406C111.868 8.67961 111.869 8.65852 111.863 8.6452C111.855 8.62522 111.839 8.60968 111.817 8.60191C111.796 8.59525 111.773 8.59414 111.748 8.60191C111.722 8.6119 111.73 8.63077 111.733 8.64409C111.758 8.74178 111.764 8.84169 111.764 8.94271C111.762 8.96713 111.75 8.99599 111.765 9.01819C111.769 9.02152 111.769 9.02485 111.771 9.02929C111.772 9.04262 111.766 9.05483 111.759 9.06815C111.736 9.11921 111.746 9.14475 111.794 9.15807C111.85 9.1725 111.896 9.19581 111.942 9.22134C112.004 9.25687 112.11 9.23466 112.173 9.17583C112.211 9.14142 112.252 9.11366 112.295 9.08702C112.366 9.04484 112.373 9.02929 112.341 8.96602C112.338 8.96158 112.338 8.95825 112.338 8.95381C112.336 8.94715 112.338 8.93938 112.343 8.93383C112.348 8.85057 112.346 8.76731 112.358 8.68405C112.362 8.64076 112.371 8.59858 112.383 8.55639C112.392 8.52753 112.382 8.51754 112.352 8.52198C112.284 8.52864 112.262 8.54973 112.247 8.61634C112.237 8.66407 112.252 8.70848 112.232 8.7551C112.227 8.76287 112.222 8.76731 112.213 8.7662C112.208 8.76509 112.202 8.76176 112.199 8.75621C112.195 8.75177 112.194 8.74511 112.193 8.73956C112.196 8.64853 112.19 8.55639 112.21 8.46092C112.234 8.3377 112.322 8.27443 112.436 8.23557C112.487 8.22003 112.487 8.22003 112.466 8.17674C112.456 8.15787 112.443 8.14121 112.443 8.1179C112.458 8.07461 112.489 8.08571 112.512 8.09459C112.583 8.12345 112.652 8.15898 112.711 8.20893C112.735 8.22891 112.75 8.23002 112.776 8.20893C112.836 8.16231 112.906 8.129 112.97 8.09126C112.992 8.07794 113.016 8.0735 113.043 8.0735Z" fill="#0B45BA"/>
<path fill-rule="evenodd" clip-rule="evenodd" d="M112.651 6.91011C112.66 6.91122 112.665 6.91677 112.668 6.92787C112.297 6.97894 111.924 7.03999 111.546 7.1066C111.547 7.10438 111.547 7.10216 111.547 7.09994C111.656 7.06664 111.759 7.02334 111.852 6.92343C111.848 6.96784 111.823 6.9967 111.809 7.02889C111.807 7.0522 111.821 7.0411 111.833 7.03777C111.901 7.01557 111.965 6.97117 112.014 6.91122C112.035 6.8868 112.043 6.88458 112.053 6.91122C112.062 6.93342 112.075 6.9523 112.087 6.97339C112.121 6.9423 112.127 6.90123 112.151 6.86349C112.211 6.92787 112.285 6.95896 112.381 6.95563C112.365 6.91899 112.341 6.89124 112.33 6.85128C112.355 6.84906 112.366 6.86349 112.38 6.87237C112.452 6.91899 112.536 6.92565 112.622 6.92454C112.631 6.92343 112.643 6.92676 112.651 6.91011Z" fill="#AF7E54"/>
<path fill-rule="evenodd" clip-rule="evenodd" d="M112.109 5.83775C112.2 5.79335 112.257 5.84996 112.328 5.86773C112.284 5.81666 112.237 5.76893 112.156 5.79446C112.09 5.81333 112.026 5.82998 111.967 5.81C111.948 5.80445 111.919 5.81555 111.895 5.81888C111.884 5.81999 111.869 5.82554 111.868 5.81C111.866 5.79668 111.876 5.78558 111.887 5.77448C111.903 5.75783 111.924 5.74562 111.942 5.74117C112.053 5.70343 112.156 5.68678 112.249 5.71564C112.305 5.73451 112.364 5.74784 112.42 5.7656C112.427 5.76671 112.433 5.77115 112.44 5.77226C112.395 5.84774 112.475 5.81999 112.477 5.85663C112.479 5.85885 112.479 5.85996 112.479 5.86329C112.47 5.86995 112.463 5.87661 112.455 5.88216C112.432 5.8977 112.424 5.91102 112.447 5.92323C112.456 5.92767 112.463 5.93433 112.467 5.9421C112.471 5.95209 112.472 5.9632 112.471 5.97652C112.448 5.99095 112.434 5.96764 112.413 5.97985C112.405 5.99428 112.41 6.00649 112.411 6.01648C112.417 6.09974 112.415 6.17744 112.366 6.26625C112.316 6.3595 112.338 6.45053 112.345 6.53934C112.35 6.65368 112.403 6.74249 112.453 6.83573C112.353 6.81242 112.259 6.71251 112.275 6.61593C112.288 6.53823 112.284 6.46163 112.287 6.38392C112.287 6.36949 112.297 6.34396 112.274 6.34729C112.249 6.35173 112.257 6.37504 112.256 6.39058C112.25 6.47717 112.246 6.56265 112.244 6.64924C112.24 6.72694 112.269 6.78911 112.292 6.85461C112.299 6.87459 112.308 6.89568 112.317 6.91899C112.217 6.89679 112.164 6.82463 112.17 6.71695C112.174 6.61038 112.177 6.50714 112.183 6.40169C112.183 6.38725 112.193 6.36283 112.17 6.36838C112.148 6.37393 112.152 6.39502 112.153 6.40835C112.147 6.53823 112.139 6.667 112.137 6.79577C112.136 6.7991 112.137 6.80243 112.137 6.80576C112.137 6.83907 112.119 6.87348 112.091 6.87903C112.071 6.88014 112.056 6.85239 112.059 6.81908C112.065 6.6892 112.072 6.55932 112.077 6.42833C112.078 6.4139 112.088 6.38614 112.066 6.38947C112.04 6.3928 112.049 6.41723 112.049 6.43277C112.041 6.53823 112.037 6.64147 112.034 6.74582C112.029 6.84462 111.971 6.93231 111.87 6.99004C111.888 6.94452 111.902 6.90678 111.919 6.86793C111.948 6.79577 111.962 6.72472 111.964 6.65146C111.964 6.58041 111.968 6.50937 111.971 6.43943C111.974 6.42611 111.978 6.40502 111.958 6.40946C111.938 6.41612 111.943 6.43277 111.942 6.44609C111.937 6.51825 111.93 6.59151 111.933 6.66256C111.934 6.74582 111.897 6.81242 111.836 6.87459C111.805 6.91011 111.766 6.94341 111.724 6.96784C111.736 6.94675 111.743 6.93342 111.75 6.92121C111.884 6.68365 111.909 6.44609 111.888 6.20853C111.887 6.183 111.876 6.15968 111.868 6.13526C111.862 6.1175 111.856 6.09752 111.873 6.07643C111.891 6.05533 111.912 6.05422 111.93 6.05422C111.963 6.05533 111.985 6.07532 112.017 6.08531C112.018 6.07421 112.017 6.06199 112.013 6.05311C112.011 6.04423 112.005 6.03535 111.997 6.03202C111.965 6.01093 111.965 5.98318 111.997 5.94432C111.995 5.91879 112.028 5.91546 112.035 5.89215C112.047 5.84663 112.081 5.8533 112.109 5.83775Z" fill="#AF7E55"/>
<path fill-rule="evenodd" clip-rule="evenodd" d="M111.618 5.61018C111.625 5.59464 111.591 5.5902 111.613 5.57577C111.64 5.55801 111.669 5.5458 111.691 5.56578C111.647 5.62017 111.662 5.67013 111.657 5.72119C111.654 5.73007 111.663 5.73451 111.673 5.73118C111.711 5.72119 111.748 5.71897 111.787 5.69677C111.801 5.69011 111.815 5.66347 111.822 5.67901C111.828 5.689 111.83 5.69899 111.829 5.71231C111.828 5.72452 111.824 5.73673 111.816 5.74895C111.807 5.76893 111.795 5.74562 111.782 5.75117C111.778 5.75006 111.774 5.74784 111.768 5.74895C111.663 5.75339 111.648 5.76338 111.646 5.87439C111.644 5.9199 111.61 5.95986 111.606 6.00094C111.591 5.94765 111.606 5.8866 111.611 5.82776C111.613 5.7878 111.602 5.77892 111.566 5.79224C111.528 5.80556 111.49 5.80556 111.459 5.83886C111.425 5.8533 111.438 5.82221 111.44 5.81222C111.446 5.79668 111.424 5.77115 111.463 5.76338C111.503 5.78558 111.552 5.75783 111.599 5.75006C111.611 5.74673 111.618 5.73562 111.618 5.72563C111.617 5.68678 111.633 5.64349 111.618 5.61018Z" fill="#F2D102"/>
<path fill-rule="evenodd" clip-rule="evenodd" d="M111.64 6.25182C111.638 6.25848 111.638 6.26514 111.637 6.2718C111.59 6.32398 111.59 6.32398 111.557 6.2718C111.57 6.25848 111.579 6.24294 111.582 6.22407C111.584 6.173 111.589 6.12305 111.591 6.07199C111.594 6.05311 111.595 6.03424 111.606 6.01648C111.623 6.00427 111.636 5.99539 111.634 6.02536C111.627 6.08975 111.626 6.15191 111.624 6.21519C111.622 6.23184 111.631 6.24294 111.64 6.25182Z" fill="#E9CA02"/>
<path fill-rule="evenodd" clip-rule="evenodd" d="M111.706 5.95875C111.762 5.94765 111.811 5.95098 111.852 5.97541C111.86 5.98096 111.873 5.9854 111.869 5.99872C111.864 6.01648 111.848 6.01426 111.84 6.01537C111.782 6.01759 111.723 6.01759 111.668 6.0187C111.652 6.01981 111.649 6.01093 111.651 5.9965C111.652 5.98318 111.66 5.97208 111.673 5.96875C111.684 5.96542 111.694 5.96098 111.706 5.95875Z" fill="#F9CD00"/>
<path fill-rule="evenodd" clip-rule="evenodd" d="M111.787 5.93433C111.743 5.92767 111.696 5.94321 111.64 5.95542C111.685 5.89992 111.732 5.8977 111.775 5.88327C111.818 5.86995 111.858 5.86329 111.879 5.90214H111.877C111.879 5.92989 111.906 5.94321 111.901 5.98096C111.879 5.96764 111.857 5.95542 111.835 5.9421C111.827 5.92434 111.808 5.92656 111.787 5.93433Z" fill="#C6092E"/>
<path fill-rule="evenodd" clip-rule="evenodd" d="M111.968 5.88105C111.933 5.95764 111.906 5.90991 111.879 5.90214C111.879 5.90214 111.879 5.90214 111.879 5.90103C111.884 5.88216 111.873 5.85552 111.904 5.84552C111.939 5.83553 111.976 5.82665 111.99 5.8644C111.989 5.88105 111.981 5.88438 111.968 5.88105Z" fill="#AA7B52"/>
<path fill-rule="evenodd" clip-rule="evenodd" d="M111.968 5.88105C111.978 5.87772 111.986 5.8755 111.99 5.8644C112.003 5.86218 112.016 5.85885 112.028 5.85552C112.047 5.86329 112.06 5.87661 112.046 5.90658C112.035 5.92878 112.013 5.93211 111.997 5.94432C111.964 5.94099 111.965 5.91324 111.968 5.88105Z" fill="#E1C302"/>
<path fill-rule="evenodd" clip-rule="evenodd" d="M111.876 6.02758C111.83 6.10307 111.828 6.10529 111.774 6.05089C111.809 6.03535 111.838 6.03868 111.876 6.02758Z" fill="#BE0425"/>
<path fill-rule="evenodd" clip-rule="evenodd" d="M112.043 5.90658C112.044 5.88549 112.039 5.86773 112.027 5.85663C112.054 5.84996 112.08 5.84441 112.109 5.83775C112.069 5.85552 112.069 5.85552 112.043 5.90658Z" fill="#020101"/>
<path fill-rule="evenodd" clip-rule="evenodd" d="M111.787 5.93433C111.801 5.92656 111.799 5.90325 111.817 5.90436C111.836 5.9088 111.836 5.92656 111.835 5.9421C111.818 5.93988 111.803 5.93766 111.787 5.93433Z" fill="#34020C"/>
<path fill-rule="evenodd" clip-rule="evenodd" d="M111.833 7.03777C111.823 7.04665 111.809 7.05442 111.799 7.04776C111.794 7.04443 111.803 7.03222 111.811 7.02667C111.818 7.03111 111.827 7.03555 111.833 7.03777Z" fill="#291D14"/>
<path fill-rule="evenodd" clip-rule="evenodd" d="M114.032 8.33104C114.024 8.34436 114.016 8.35657 114.007 8.36989C114.002 8.37545 114.002 8.3921 113.984 8.38211C113.959 8.36767 113.97 8.35546 113.974 8.34436C113.978 8.33326 113.971 8.31772 113.977 8.30884C114.007 8.26888 114.016 8.2167 114.024 8.16342C114.028 8.13899 114.04 8.13233 114.061 8.13788C114.091 8.14454 114.128 8.12789 114.136 8.19006C114.158 8.20782 114.162 8.23113 114.149 8.24112C114.108 8.26888 114.08 8.31328 114.032 8.33104Z" fill="#F2D102"/>
<path fill-rule="evenodd" clip-rule="evenodd" d="M113.965 8.33104C113.957 8.33437 113.957 8.35324 113.939 8.33992C113.927 8.33104 113.926 8.32216 113.934 8.31328C113.976 8.29774 113.988 8.25999 113.989 8.21559C113.991 8.19006 113.989 8.16342 113.989 8.13677C113.989 8.12123 113.979 8.0957 113.997 8.09459C114.016 8.09126 114.043 8.0957 114.061 8.11568C114.072 8.12345 114.055 8.12012 114.05 8.12345C114.021 8.14787 114.031 8.19339 114.021 8.22669C114.009 8.26777 113.997 8.30662 113.965 8.33104Z" fill="#E5C602"/>
<path fill-rule="evenodd" clip-rule="evenodd" d="M114.049 8.40764C114.026 8.40986 114.011 8.40542 114.023 8.37878C114.028 8.36656 114.034 8.35657 114.039 8.34436C114.046 8.31328 114.069 8.29885 114.089 8.28331C114.116 8.2611 114.15 8.24667 114.165 8.20782C114.217 8.27665 114.216 8.27887 114.158 8.29552C114.103 8.31217 114.045 8.32993 114.049 8.40764Z" fill="#E9CA02"/>
<path fill-rule="evenodd" clip-rule="evenodd" d="M114.126 8.04019C114.149 8.04464 114.17 8.04908 114.184 8.08016C114.196 8.10791 114.187 8.12123 114.173 8.13233C114.15 8.13233 114.13 8.12123 114.116 8.09348C114.103 8.06684 114.114 8.05352 114.126 8.04019Z" fill="#E8C902"/>
<path fill-rule="evenodd" clip-rule="evenodd" d="M113.965 8.33104C113.999 8.28442 114.015 8.22669 114.022 8.15898C114.023 8.1401 114.024 8.11901 114.05 8.12345C114.054 8.129 114.058 8.13233 114.061 8.13677C114.046 8.14343 114.04 8.15787 114.038 8.17563C114.031 8.24223 114.015 8.30218 113.972 8.34436C113.971 8.33881 113.967 8.33437 113.965 8.33104Z" fill="#201C00"/>
<path fill-rule="evenodd" clip-rule="evenodd" d="M114.163 8.20782C114.162 8.22114 114.161 8.23557 114.155 8.24445C114.15 8.25555 114.142 8.26332 114.131 8.26666C114.093 8.28442 114.065 8.31217 114.039 8.34436C114.037 8.33992 114.035 8.33659 114.032 8.33104C114.05 8.29108 114.084 8.26888 114.12 8.24889C114.143 8.23668 114.147 8.21892 114.136 8.19006C114.148 8.18673 114.158 8.1945 114.163 8.20782Z" fill="#201B00"/>
<path fill-rule="evenodd" clip-rule="evenodd" d="M114.209 7.97359C114.209 8.00467 114.209 8.03686 114.209 8.06684C114.187 8.04686 114.166 8.02798 114.144 8.00689C114.163 7.99024 114.186 7.98025 114.209 7.97359Z" fill="#E6C702"/>
<path fill-rule="evenodd" clip-rule="evenodd" d="M112.451 8.11124C112.475 8.1512 112.499 8.19117 112.525 8.23446C112.481 8.24778 112.442 8.25777 112.404 8.2711C112.301 8.30773 112.244 8.37878 112.226 8.48202C112.209 8.57859 112.214 8.67184 112.213 8.76398C112.225 8.77064 112.228 8.78396 112.236 8.79284C112.243 8.80061 112.246 8.81061 112.246 8.82171C112.242 8.86167 112.263 8.88498 112.293 8.90607C112.311 8.92051 112.338 8.92606 112.347 8.95159C112.404 8.99932 112.396 9.04706 112.323 9.09035C112.272 9.12032 112.225 9.15474 112.183 9.1947C112.116 9.25798 111.988 9.28018 111.924 9.2391C111.88 9.20913 111.832 9.18804 111.78 9.17472C111.703 9.15696 111.712 9.0737 111.77 9.03152C111.771 9.01375 111.785 9.00376 111.798 8.99266C111.821 8.9749 111.841 8.9527 111.854 8.92717C111.867 8.90274 111.872 8.8761 111.872 8.84946C111.872 8.84058 111.872 8.82948 111.879 8.8206C111.889 8.73956 111.904 8.65852 111.896 8.57859C111.892 8.40875 111.842 8.36989 111.603 8.35102C111.618 8.29885 111.661 8.25555 111.67 8.20005C111.67 8.1945 111.674 8.19117 111.68 8.18784C111.704 8.16675 111.697 8.15787 111.672 8.15232C111.599 8.13788 111.534 8.10791 111.478 8.0624C111.341 7.95472 111.281 7.68385 111.477 7.44296C111.556 7.3486 111.649 7.26756 111.734 7.16988C111.743 7.23093 111.721 7.28533 111.7 7.3375C111.664 7.4363 111.621 7.53066 111.606 7.63057C111.596 7.69939 111.599 7.76378 111.625 7.82372C111.654 7.89033 111.708 7.92585 111.786 7.92585C111.794 7.92585 111.803 7.92363 111.809 7.92696C111.853 7.95139 111.892 7.94251 111.933 7.89699C111.956 7.87035 111.98 7.88256 112.002 7.89588C112.062 7.93252 112.072 7.93252 112.134 7.87812C112.168 7.84815 112.195 7.84704 112.222 7.87146C112.247 7.89366 112.271 7.90032 112.303 7.87257C112.315 7.86369 112.33 7.85703 112.344 7.8537C112.455 7.82039 112.519 7.74269 112.538 7.62391C112.553 7.51401 112.53 7.41521 112.493 7.31863C112.475 7.26312 112.452 7.21095 112.439 7.151C112.431 7.12325 112.431 7.09328 112.438 7.06109C112.511 7.12325 112.581 7.18098 112.65 7.24425C112.907 7.4918 112.781 7.90365 112.476 8.04464C112.459 8.0513 112.417 8.0513 112.444 8.09015C112.452 8.0957 112.448 8.10458 112.451 8.11124Z" fill="black"/>
<path fill-rule="evenodd" clip-rule="evenodd" d="M112.087 7.12658C112.105 7.1832 112.122 7.22649 112.134 7.26978C112.141 7.29532 112.151 7.29754 112.175 7.282C112.215 7.25313 112.258 7.2276 112.312 7.19208C112.286 7.25313 112.267 7.29865 112.246 7.34527C112.232 7.3708 112.235 7.3819 112.261 7.38746C112.304 7.39634 112.346 7.40744 112.401 7.42298C112.355 7.44518 112.318 7.46627 112.282 7.47959C112.237 7.49847 112.223 7.51734 112.249 7.55952C112.267 7.58949 112.281 7.62502 112.301 7.66942C112.255 7.65388 112.218 7.645 112.185 7.62724C112.144 7.60615 112.128 7.62169 112.115 7.6672C112.105 7.70605 112.089 7.74269 112.071 7.79486C112.053 7.74158 112.038 7.70161 112.024 7.66054C112.016 7.63612 112.005 7.63057 111.979 7.64722C111.94 7.67497 111.899 7.69828 111.845 7.73159C111.869 7.67608 111.888 7.63168 111.911 7.58838C111.924 7.56063 111.924 7.54731 111.893 7.54287C111.85 7.53732 111.808 7.52511 111.755 7.51512C111.809 7.48514 111.852 7.46072 111.896 7.43963C111.926 7.42631 111.928 7.41521 111.916 7.3919C111.896 7.35415 111.88 7.31419 111.856 7.26312C111.909 7.28089 111.951 7.29199 111.988 7.30753C112.013 7.31752 112.025 7.31197 112.032 7.28311C112.048 7.23648 112.064 7.18875 112.087 7.12658Z" fill="#010000"/>
<path fill-rule="evenodd" clip-rule="evenodd" d="M112.451 8.11124C112.448 8.10458 112.446 8.09792 112.444 8.09126C112.546 8.05019 112.647 8.00911 112.727 7.92585C112.738 7.91475 112.747 7.91031 112.759 7.92141C112.844 7.99246 112.942 8.03575 113.043 8.07572C112.947 8.13122 112.847 8.17785 112.758 8.24667C112.738 8.26332 112.73 8.25 112.718 8.24001C112.65 8.17896 112.565 8.1401 112.479 8.10569C112.468 8.10125 112.457 8.09459 112.451 8.11124ZM111.68 8.18673C111.675 8.19117 111.673 8.19561 111.669 8.19894C111.574 8.24889 111.485 8.31661 111.409 8.39543C111.387 8.41874 111.374 8.42651 111.35 8.41208C111.265 8.36323 111.167 8.3377 111.075 8.3044C111.179 8.24556 111.282 8.18118 111.369 8.09237C111.379 8.08127 111.388 8.07794 111.397 8.08793C111.474 8.15454 111.578 8.16675 111.68 8.18673Z" fill="#010100"/>
<path fill-rule="evenodd" clip-rule="evenodd" d="M111.615 8.87943C111.669 8.92606 111.673 8.97268 111.638 9.02041C111.602 9.06926 111.549 9.08036 111.479 9.05594C111.461 9.09479 111.436 9.13031 111.389 9.14475C111.319 9.16362 111.268 9.12254 111.282 9.05261C111.288 9.02263 111.281 9.01597 111.253 9.01486C111.23 9.01486 111.21 9.00598 111.197 8.99044C111.182 8.9749 111.178 8.95381 111.179 8.9305C111.181 8.90718 111.193 8.88387 111.209 8.86389C111.226 8.84613 111.248 8.8317 111.272 8.82504C111.301 8.81838 111.306 8.80949 111.303 8.78396C111.3 8.73179 111.331 8.68627 111.381 8.66629C111.43 8.64853 111.475 8.66407 111.497 8.70848C111.503 8.72069 111.5 8.73512 111.525 8.72291C111.596 8.68627 111.64 8.69071 111.664 8.73401C111.691 8.7773 111.673 8.82504 111.615 8.87943ZM112.873 8.66518C112.667 8.6674 112.59 8.76398 112.629 8.95381C112.539 8.9527 112.456 8.87499 112.447 8.78174C112.44 8.7007 112.499 8.61745 112.588 8.58081C112.69 8.54196 112.812 8.57859 112.873 8.66518Z" fill="#010101"/>
<path fill-rule="evenodd" clip-rule="evenodd" d="M112.232 8.82504C112.226 8.81727 112.225 8.80949 112.222 8.80172C112.219 8.78618 112.226 8.77064 112.223 8.75399C112.224 8.70848 112.222 8.66185 112.232 8.61412C112.244 8.54196 112.249 8.53419 112.322 8.51199C112.421 8.48201 112.421 8.48201 112.396 8.57304C112.368 8.68738 112.357 8.80172 112.369 8.91162C112.37 8.92273 112.383 8.93827 112.356 8.94271C112.289 8.92606 112.244 8.89164 112.232 8.82504Z" fill="#010201"/>
<path fill-rule="evenodd" clip-rule="evenodd" d="M111.893 8.82837C111.893 8.83725 111.893 8.84613 111.893 8.85612C111.878 8.87166 111.879 8.89164 111.87 8.90829C111.86 8.93383 111.845 8.95714 111.824 8.97934C111.803 8.99932 111.779 9.01708 111.753 9.02929C111.746 9.02929 111.731 9.0404 111.733 9.02374C111.745 8.94715 111.748 8.87277 111.742 8.79728C111.733 8.72402 111.718 8.65408 111.697 8.58525C111.83 8.55861 111.871 8.57859 111.887 8.67184C111.903 8.7218 111.889 8.77619 111.893 8.82837Z" fill="#010101"/>
<path fill-rule="evenodd" clip-rule="evenodd" d="M111.772 8.55861C111.76 8.56083 111.692 8.50422 111.692 8.49534C111.692 8.48868 111.762 8.40875 111.77 8.40653C111.778 8.40431 111.851 8.45981 111.852 8.46869C111.851 8.47757 111.782 8.55639 111.772 8.55861Z" fill="#030405"/>
<path fill-rule="evenodd" clip-rule="evenodd" d="M112.35 8.33104C112.361 8.33215 112.428 8.39543 112.427 8.4032C112.426 8.41208 112.357 8.48201 112.347 8.48312C112.338 8.48424 112.269 8.42429 112.269 8.41652C112.269 8.40764 112.342 8.33215 112.35 8.33104Z" fill="#020303"/>
<path fill-rule="evenodd" clip-rule="evenodd" d="M111.893 8.82837C111.875 8.77952 111.891 8.72402 111.887 8.67184C111.904 8.63965 111.89 8.60857 111.896 8.57748C111.911 8.65963 111.909 8.744 111.893 8.82837Z" fill="#083288"/>
<path fill-rule="evenodd" clip-rule="evenodd" d="M112.232 8.82504C112.254 8.88165 112.298 8.91828 112.357 8.94271C112.354 8.94493 112.349 8.94826 112.346 8.95159C112.304 8.93383 112.259 8.91606 112.238 8.87277C112.232 8.85834 112.219 8.84391 112.232 8.82504Z" fill="#08348D"/>
<path fill-rule="evenodd" clip-rule="evenodd" d="M111.753 9.03041C111.814 8.98822 111.86 8.93827 111.878 8.86944C111.879 8.86389 111.887 8.85945 111.893 8.85612C111.88 8.92939 111.841 8.98822 111.77 9.03041C111.764 9.03041 111.759 9.02929 111.753 9.03041Z" fill="#093898"/>
<path fill-rule="evenodd" clip-rule="evenodd" d="M112.223 8.75399C112.232 8.76842 112.237 8.78396 112.222 8.80172C112.21 8.79173 112.211 8.77841 112.214 8.76176C112.217 8.75954 112.219 8.75621 112.223 8.75399Z" fill="#06276A"/>
<path fill-rule="evenodd" clip-rule="evenodd" d="M112.003 5.88438C112.012 5.88216 112.016 5.8866 112.017 5.89437C112.018 5.90436 112.014 5.91102 112.005 5.91546C111.995 5.91879 111.988 5.91435 111.988 5.90547C111.988 5.89659 111.995 5.88882 112.003 5.88438Z" fill="#1F1B00"/>
<path fill-rule="evenodd" clip-rule="evenodd" d="M112.491 7.16099C112.605 7.2498 112.707 7.35082 112.729 7.51068C112.759 7.70383 112.649 7.89588 112.462 8.00023C112.433 8.01577 112.384 8.02021 112.379 8.0513C112.372 8.07794 112.399 8.1068 112.411 8.13566C112.423 8.16009 112.434 8.18451 112.446 8.21115C112.409 8.22669 112.377 8.2389 112.342 8.25333C112.263 8.28997 112.217 8.34991 112.198 8.43095C112.165 8.57082 112.171 8.70515 112.176 8.83836C112.178 8.89386 112.207 8.93383 112.261 8.95381C112.279 8.96047 112.296 8.96935 112.312 8.97934C112.345 9.00043 112.347 9.03596 112.308 9.05927C112.244 9.09812 112.183 9.14364 112.12 9.18471C112.095 9.20136 112.066 9.21135 112.038 9.21357C112.009 9.2169 111.981 9.21135 111.958 9.19803C111.915 9.17694 111.869 9.16029 111.82 9.14586C111.756 9.1292 111.753 9.08369 111.816 9.0404C111.912 8.97823 111.941 8.89941 111.941 8.80505C111.941 8.70404 111.945 8.60302 111.93 8.50311C111.914 8.38433 111.844 8.32216 111.722 8.31661C111.682 8.3155 111.675 8.30662 111.696 8.26888C111.718 8.22447 111.755 8.1723 111.748 8.13455C111.743 8.0957 111.675 8.1068 111.637 8.09126C111.459 8.01577 111.373 7.85481 111.415 7.6672C111.442 7.55175 111.556 7.38523 111.673 7.28533C111.675 7.31641 111.659 7.34194 111.648 7.36969C111.598 7.4918 111.54 7.6117 111.548 7.73714C111.557 7.86702 111.624 7.95583 111.73 7.96471C111.77 7.96915 111.814 7.96471 111.852 7.98469C111.875 7.99801 111.9 7.97692 111.917 7.95805C111.946 7.92807 111.971 7.92585 112.002 7.94584C112.049 7.97692 112.081 7.97248 112.134 7.92807C112.163 7.90143 112.186 7.89699 112.213 7.91808C112.243 7.94251 112.275 7.94251 112.309 7.91142C112.325 7.8981 112.344 7.89033 112.362 7.88811C112.452 7.87368 112.514 7.8215 112.553 7.73825C112.577 7.68718 112.591 7.63279 112.594 7.57839C112.598 7.524 112.591 7.46849 112.573 7.41854C112.553 7.35304 112.526 7.29199 112.503 7.22538C112.496 7.20651 112.483 7.18986 112.49 7.16099" fill="#FED100"/>
<path fill-rule="evenodd" clip-rule="evenodd" d="M112.273 7.43519C112.269 7.44074 112.267 7.44407 112.264 7.44629C112.236 7.46627 112.189 7.46849 112.182 7.49736C112.174 7.524 112.201 7.55397 112.218 7.59504C112.188 7.58505 112.168 7.57839 112.149 7.56951C112.122 7.55619 112.109 7.56396 112.102 7.59615C112.096 7.61836 112.086 7.64056 112.079 7.6561C112.069 7.66609 112.068 7.66498 112.067 7.66165C112.053 7.6339 112.059 7.58283 112.027 7.57839C112.002 7.57617 111.967 7.61059 111.932 7.63168C111.943 7.5906 111.983 7.55064 111.969 7.52511C111.958 7.50402 111.913 7.50513 111.876 7.49402C111.911 7.47515 111.946 7.45628 111.982 7.43852C111.965 7.40411 111.951 7.3708 111.937 7.3375C111.971 7.3486 112.005 7.35859 112.039 7.36969C112.053 7.33306 112.066 7.29865 112.078 7.26423C112.099 7.27089 112.097 7.29199 112.101 7.30642C112.111 7.3486 112.127 7.36747 112.171 7.32751C112.183 7.31641 112.2 7.30975 112.214 7.29976C112.217 7.30309 112.22 7.30642 112.219 7.30864C112.209 7.34305 112.171 7.3819 112.184 7.40744C112.197 7.42964 112.239 7.42742 112.273 7.43519ZM112.562 8.08793C112.627 8.05574 112.685 8.02576 112.729 7.97581C112.742 7.96471 112.751 7.9636 112.762 7.97359C112.812 8.02021 112.876 8.04797 112.944 8.07794C112.879 8.1179 112.813 8.15121 112.756 8.20005C112.748 8.20671 112.74 8.21004 112.73 8.20116C112.684 8.15454 112.625 8.12123 112.562 8.08793ZM111.175 8.29219C111.245 8.24778 111.312 8.20671 111.367 8.14676C111.378 8.13455 111.386 8.13566 111.395 8.14343C111.441 8.18118 111.497 8.20005 111.564 8.21337C111.505 8.26777 111.448 8.31883 111.392 8.36989C111.379 8.381 111.37 8.37767 111.362 8.37323C111.3 8.34547 111.24 8.31883 111.175 8.29219Z" fill="#FDD100"/>
<path fill-rule="evenodd" clip-rule="evenodd" d="M111.515 8.88831C111.515 8.8983 111.512 8.90718 111.507 8.91606C111.503 8.92717 111.498 8.93494 111.49 8.94382C111.483 8.95048 111.474 8.95714 111.463 8.96269C111.454 8.96713 111.446 8.97046 111.435 8.97157C111.425 8.97379 111.414 8.97379 111.406 8.97046C111.398 8.96824 111.388 8.9638 111.381 8.95825C111.376 8.95159 111.37 8.94604 111.367 8.93716C111.363 8.92828 111.362 8.91939 111.362 8.9094C111.364 8.89164 111.373 8.87166 111.388 8.85723C111.401 8.84169 111.422 8.8317 111.44 8.82948C111.45 8.82726 111.46 8.82726 111.47 8.82948C111.478 8.83059 111.487 8.83614 111.493 8.84058C111.5 8.84724 111.505 8.85279 111.51 8.86167C111.513 8.87055 111.514 8.87943 111.515 8.88831Z" fill="#FCCF00"/>
<path fill-rule="evenodd" clip-rule="evenodd" d="M111.341 8.83836C111.316 8.77397 111.34 8.72069 111.4 8.70292C111.415 8.69848 111.432 8.69848 111.447 8.70404C111.462 8.70848 111.472 8.71847 111.478 8.7329C111.497 8.76509 111.486 8.78618 111.442 8.78951C111.404 8.79284 111.378 8.83503 111.341 8.83725V8.83836Z" fill="#FACE00"/>
<path fill-rule="evenodd" clip-rule="evenodd" d="M111.395 9.10478C111.338 9.1181 111.301 9.08702 111.308 9.03818C111.314 8.99599 111.333 8.98267 111.368 9.00043C111.385 9.0082 111.404 9.01264 111.425 9.01042C111.466 9.00598 111.473 9.01819 111.453 9.05483C111.448 9.06704 111.44 9.07814 111.43 9.08702C111.419 9.09479 111.409 9.10145 111.395 9.10478Z" fill="#FBCE00"/>
<path fill-rule="evenodd" clip-rule="evenodd" d="M111.554 8.73512C111.57 8.73179 111.586 8.73179 111.6 8.73734C111.613 8.74289 111.621 8.75288 111.627 8.7662C111.634 8.7773 111.637 8.79173 111.634 8.80838C111.632 8.82171 111.625 8.83614 111.613 8.84835C111.583 8.88609 111.56 8.88498 111.548 8.84835C111.542 8.83281 111.532 8.82282 111.523 8.80949C111.514 8.79617 111.478 8.80727 111.495 8.7773C111.5 8.76509 111.509 8.7551 111.52 8.74844C111.532 8.74067 111.542 8.73623 111.554 8.73512Z" fill="#FCCF00"/>
<path fill-rule="evenodd" clip-rule="evenodd" d="M111.339 8.83725C111.341 8.87943 111.307 8.92717 111.332 8.96824C111.339 8.98156 111.315 8.986 111.306 8.98933C111.295 8.99266 111.284 8.99488 111.275 8.99377C111.265 8.99155 111.255 8.98822 111.246 8.98378C111.24 8.97823 111.232 8.97157 111.228 8.96269C111.224 8.95492 111.222 8.94604 111.221 8.93494C111.221 8.92606 111.223 8.91384 111.228 8.90385C111.23 8.89386 111.236 8.88276 111.244 8.87388C111.253 8.865 111.262 8.85723 111.271 8.85168C111.282 8.84613 111.292 8.84169 111.304 8.84169C111.316 8.83947 111.327 8.84724 111.341 8.83836L111.339 8.83725Z" fill="#FDD000"/>
<path fill-rule="evenodd" clip-rule="evenodd" d="M111.622 8.94604C111.622 8.98489 111.606 9.01153 111.572 9.03041C111.539 9.04928 111.513 9.04595 111.488 9.02818C111.474 9.01708 111.464 9.00376 111.495 8.98711C111.515 8.97379 111.528 8.95381 111.541 8.93272C111.55 8.91828 111.542 8.89386 111.57 8.89386C111.591 8.89275 111.606 8.90385 111.615 8.92051C111.62 8.92939 111.622 8.94049 111.622 8.94604Z" fill="#FBCF00"/>
<path fill-rule="evenodd" clip-rule="evenodd" d="M112.766 8.62966C112.637 8.6785 112.566 8.75732 112.565 8.87832C112.531 8.86278 112.507 8.83392 112.496 8.79839C112.487 8.76398 112.493 8.72513 112.512 8.69071C112.558 8.61523 112.661 8.58858 112.766 8.62966ZM112.37 8.53752C112.337 8.64964 112.334 8.75732 112.328 8.87055C112.282 8.84835 112.261 8.81616 112.26 8.77286C112.258 8.72846 112.259 8.68405 112.262 8.63743C112.266 8.56527 112.283 8.54862 112.37 8.53752Z" fill="#FDD000"/>
<path fill-rule="evenodd" clip-rule="evenodd" d="M111.778 8.95159C111.78 8.83836 111.775 8.73512 111.75 8.63743C111.749 8.62966 111.747 8.61634 111.762 8.61634C111.794 8.61634 111.833 8.60302 111.844 8.64409C111.86 8.71403 111.863 8.78951 111.844 8.86389C111.836 8.89719 111.815 8.92162 111.778 8.95159Z" fill="#FCCF00"/>
<path fill-rule="evenodd" clip-rule="evenodd" d="M111.769 8.52309C111.755 8.5131 111.731 8.50533 111.733 8.48757C111.735 8.47202 111.753 8.4476 111.774 8.4476C111.79 8.4476 111.811 8.45981 111.807 8.47979C111.805 8.49645 111.786 8.5131 111.769 8.52309Z" fill="#F3C800"/>
<path fill-rule="evenodd" clip-rule="evenodd" d="M112.391 8.39876C112.381 8.41985 112.366 8.44094 112.349 8.44316C112.33 8.4476 112.311 8.42762 112.309 8.40986C112.309 8.39543 112.331 8.37211 112.348 8.371C112.362 8.36989 112.375 8.38877 112.391 8.39876Z" fill="#F2C700"/>
<path fill-rule="evenodd" clip-rule="evenodd" d="M111.902 9.05705C111.924 9.0515 111.955 9.04706 111.955 9.07925C111.957 9.11366 111.926 9.11921 111.896 9.12365C111.887 9.12476 111.875 9.12587 111.864 9.12476C111.842 9.12365 111.803 9.13475 111.807 9.10256C111.809 9.07592 111.845 9.07148 111.869 9.06482C111.878 9.06149 111.888 9.06038 111.902 9.05705Z" fill="#060500"/>
<path fill-rule="evenodd" clip-rule="evenodd" d="M112.218 9.07481C112.183 9.07925 112.15 9.08702 112.151 9.05039C112.153 9.01486 112.186 9.01375 112.212 9.01153C112.234 9.00931 112.254 9.01042 112.274 9.01153C112.287 9.01264 112.303 9.01597 112.303 9.03152C112.301 9.04595 112.285 9.05372 112.27 9.05927C112.25 9.06593 112.231 9.07037 112.218 9.07481Z" fill="#050400"/>
<path d="M19.1171 21.846V40.963H14.7475V29.8478L9.80433 37.9589H9.31275L4.36962 29.8478V40.963H0V21.846H4.36962L9.55854 30.3394L14.7475 21.846H19.1171Z" fill="white"/>
<path d="M38.5704 38.4778C36.6405 40.3895 34.2918 41.3454 31.5244 41.3454C28.757 41.3454 26.4083 40.3895 24.4784 38.4778C22.5485 36.5661 21.5835 34.2083 21.5835 31.4045C21.5835 28.6007 22.5485 26.2429 24.4784 24.3312C26.4083 22.4195 28.757 21.4636 31.5244 21.4636C34.2918 21.4636 36.6405 22.4195 38.5704 24.3312C40.5003 26.2429 41.4653 28.6007 41.4653 31.4045C41.4653 34.2083 40.5003 36.5661 38.5704 38.4778ZM27.5371 35.501C28.6113 36.557 29.9404 37.085 31.5244 37.085C33.1084 37.085 34.4284 36.557 35.4844 35.501C36.5586 34.445 37.0957 33.0795 37.0957 31.4045C37.0957 29.7295 36.5586 28.364 35.4844 27.308C34.4284 26.252 33.1084 25.724 31.5244 25.724C29.9404 25.724 28.6113 26.252 27.5371 27.308C26.4811 28.364 25.9531 29.7295 25.9531 31.4045C25.9531 33.0795 26.4811 34.445 27.5371 35.501Z" fill="white"/>
<path d="M48.2952 36.7573H55.1227V40.963H43.9255V21.846H48.2952V36.7573Z" fill="white"/>
<path d="M64.694 21.846C67.334 21.846 69.537 22.7654 71.3031 24.6043C73.0873 26.425 73.9795 28.6917 73.9795 31.4045C73.9795 34.1173 73.0873 36.3932 71.3031 38.232C69.537 40.0527 67.334 40.963 64.694 40.963H57.0472V21.846H64.694ZM64.694 36.7573C66.2052 36.7573 67.425 36.2748 68.3536 35.3099C69.3003 34.3267 69.7737 33.0249 69.7737 31.4045C69.7737 29.7841 69.3003 28.4914 68.3536 27.5265C67.425 26.5433 66.2052 26.0517 64.694 26.0517H61.4168V36.7573H64.694Z" fill="white"/>
<path d="M92.6039 38.4778C90.674 40.3895 88.3253 41.3454 85.5579 41.3454C82.7905 41.3454 80.4418 40.3895 78.5119 38.4778C76.582 36.5661 75.617 34.2083 75.617 31.4045C75.617 28.6007 76.582 26.2429 78.5119 24.3312C80.4418 22.4195 82.7905 21.4636 85.5579 21.4636C88.3253 21.4636 90.674 22.4195 92.6039 24.3312C94.5338 26.2429 95.4988 28.6007 95.4988 31.4045C95.4988 34.2083 94.5338 36.5661 92.6039 38.4778ZM81.5706 35.501C82.6448 36.557 83.9739 37.085 85.5579 37.085C87.1419 37.085 88.4619 36.557 89.5179 35.501C90.592 34.445 91.1292 33.0795 91.1292 31.4045C91.1292 29.7295 90.592 28.364 89.5179 27.308C88.4619 26.252 87.1419 25.724 85.5579 25.724C83.9739 25.724 82.6448 26.252 81.5706 27.308C80.5146 28.364 79.9866 29.7295 79.9866 31.4045C79.9866 33.0795 80.5146 34.445 81.5706 35.501Z" fill="white"/>
<path d="M101.72 40.963L95.4936 21.846H100.273L104.506 35.9107L108.739 21.846H113.518L107.292 40.963H101.72Z" fill="white"/>
<path d="M126.221 40.963L125.265 37.9589H118.164L117.208 40.963H112.429L118.929 21.846H124.5L131 40.963H126.221ZM119.475 33.8624H123.954L121.715 26.8437L119.475 33.8624Z" fill="white"/>
<path d="M8.2079 16.9303C5.84775 16.9303 3.88597 16.15 2.32256 14.5894C0.774188 13.0138 0 11.0631 0 8.73722C0 6.41136 0.774188 4.46814 2.32256 2.90756C3.88597 1.33198 5.84775 0.544189 8.2079 0.544189C9.62098 0.544189 10.9288 0.874312 12.1315 1.53456C13.3341 2.1798 14.2811 3.06512 14.9726 4.19054L11.8609 5.99121C11.5151 5.37598 11.019 4.9033 10.3726 4.57318C9.72621 4.22805 9.00463 4.05549 8.2079 4.05549C6.80985 4.05549 5.68991 4.48315 4.84807 5.33846C4.02127 6.19378 3.60787 7.3267 3.60787 8.73722C3.60787 10.1477 4.02127 11.2807 4.84807 12.136C5.68991 12.9913 6.80985 13.419 8.2079 13.419C9.00463 13.419 9.72621 13.2464 10.3726 12.9013C11.0341 12.5561 11.5301 12.0835 11.8609 11.4832L14.9726 13.2839C14.2962 14.4093 13.3566 15.3022 12.154 15.9624C10.9514 16.6076 9.63601 16.9303 8.2079 16.9303Z" fill="white"/>
<path d="M27.0135 15.4672C25.8711 16.4426 24.4129 16.9303 22.639 16.9303C20.8651 16.9303 19.407 16.4426 18.2645 15.4672C17.122 14.4919 16.5507 13.1789 16.5507 11.5283V0.859306H20.1586V11.2131C20.1586 12.6837 20.9854 13.419 22.639 13.419C24.2926 13.419 25.1194 12.6837 25.1194 11.2131V0.859306H28.7273V11.5283C28.7273 13.1789 28.156 14.4919 27.0135 15.4672Z" fill="white"/>
<path d="M34.9371 13.1489H40.5744V16.6151H31.3293V0.859306H34.9371V13.1489Z" fill="white"/>
<path d="M52.3978 0.859306L52.354 4.99994H48.2952V21.846H43.9248L43.8868 4.99994H39.9656L40.0093 0.859306H52.3978Z" fill="white"/>
<path d="M65.7658 15.4672C64.6233 16.4426 63.1651 16.9303 61.3913 16.9303C59.6174 16.9303 58.1592 16.4426 57.0167 15.4672C55.8742 14.4919 55.303 13.1789 55.303 11.5283V0.859306H58.9108V11.2131C58.9108 12.6837 59.7376 13.419 61.3913 13.419C63.0449 13.419 63.8717 12.6837 63.8717 11.2131V0.859306H67.4795V11.5283C67.4795 13.1789 66.9083 14.4919 65.7658 15.4672Z" fill="white"/>
<path d="M78.3796 16.6151L75.4031 11.4382H73.6894V16.6151H70.0815V0.859306H76.3953C77.8985 0.859306 79.1763 1.3845 80.2286 2.43489C81.2809 3.48528 81.8071 4.76075 81.8071 6.26131C81.8071 7.22166 81.5365 8.11449 80.9953 8.9398C80.4691 9.7501 79.7701 10.3803 78.8982 10.8305L82.258 16.6151H78.3796ZM73.6894 4.23556V8.28706H76.3953C76.8913 8.28706 77.3123 8.09198 77.658 7.70184C78.0188 7.3117 78.1992 6.83152 78.1992 6.26131C78.1992 5.6911 78.0188 5.21092 77.658 4.82077C77.3123 4.43063 76.8913 4.23556 76.3953 4.23556H73.6894Z" fill="white"/>
<path d="M87.5624 13.1489H93.8762V16.6151H83.9545V0.859306H93.7634V4.32559H87.5624V6.93656H93.1997V10.3578H87.5624V13.1489Z" fill="white"/>
<defs>
<linearGradient id="paint0_linear_55_504" x1="118.645" y1="1.36036" x2="118.645" y2="12.957" gradientUnits="userSpaceOnUse">
<stop stop-color="#FD4343"/>
<stop offset="1" stop-color="#CB0000"/>
</linearGradient>
<linearGradient id="paint1_linear_55_504" x1="104.727" y1="2.61963" x2="104.727" y2="15.1083" gradientUnits="userSpaceOnUse">
<stop stop-color="#2E4AF5"/>
<stop offset="1" stop-color="#2B3990"/>
</linearGradient>
<linearGradient id="paint2_linear_55_504" x1="110.744" y1="2.25239" x2="111.954" y2="14.5829" gradientUnits="userSpaceOnUse">
<stop stop-color="#FFE050"/>
<stop offset="1" stop-color="#FED100"/>
</linearGradient>
</defs>
</svg>
