<svg width="410" height="483" viewBox="0 0 410 483" fill="none" xmlns="http://www.w3.org/2000/svg">
<path d="M403.888 403.381H130.653C129.033 403.379 127.479 402.735 126.334 401.589C125.188 400.443 124.543 398.89 124.542 397.27V6.11184C124.543 4.49143 125.188 2.93791 126.334 1.79211C127.479 0.646313 129.033 0.00180801 130.653 0H403.888C405.509 0.00180991 407.062 0.646314 408.208 1.79211C409.354 2.93791 409.998 4.49143 410 6.11184V397.27C409.998 398.89 409.354 400.443 408.208 401.589C407.062 402.735 405.509 403.379 403.888 403.381Z" fill="#3F3D56"/>
<path d="M398.136 397.629H136.405C134.785 397.627 133.231 396.983 132.086 395.837C130.94 394.691 130.295 393.138 130.293 391.517V11.8642C130.295 10.2437 130.94 8.69023 132.086 7.54443C133.231 6.39863 134.785 5.75413 136.405 5.75232H398.136C399.756 5.75413 401.31 6.39863 402.455 7.54443C403.601 8.69023 404.246 10.2437 404.248 11.8642V391.517C404.246 393.138 403.601 394.691 402.455 395.837C401.31 396.983 399.756 397.627 398.136 397.629Z" fill="white"/>
<path d="M207.998 377.722C184.715 346.987 193.948 311.909 180.308 287.437C128.029 193.646 192.403 202.287 265.185 220.526L265.358 222.55C219.035 229.698 188.571 253.539 181.776 287.958C176.495 314.707 186.186 346.071 209.063 376.271L207.998 377.722Z" fill="#F0F0F0"/>
<path d="M259.142 263.338L258.655 261.409C284.644 249.626 282.411 214.531 305.663 206.517C482.786 145.468 307.946 138.583 268.619 106.291C233.45 77.4133 195.123 43.8393 146.413 26.5478L146.802 24.5792C195.724 41.9468 239.335 70.4137 269.599 104.736C300.016 139.231 313.345 175.562 307.131 207.038C302.23 231.858 285.636 251.326 259.142 263.338Z" fill="#F0F0F0"/>
<path d="M188.397 195.696C176.521 194.758 190.535 186.898 191.473 175.022C191.695 172.197 192.471 169.444 193.757 166.919C195.044 164.394 196.815 162.147 198.97 160.307C201.124 158.467 203.621 157.07 206.316 156.195C209.011 155.319 211.852 154.984 214.677 155.207C217.501 155.43 220.255 156.208 222.779 157.495C225.303 158.783 227.549 160.555 229.388 162.71C231.227 164.866 232.623 167.363 233.497 170.058C234.371 172.754 234.706 175.595 234.481 178.42C233.543 190.296 200.274 196.634 188.397 195.696Z" fill="#6D79FF"/>
<path d="M302.43 121.757C299.606 121.534 296.853 120.757 294.33 119.47C291.806 118.183 289.56 116.412 287.721 114.258C285.882 112.103 284.486 109.607 283.611 106.913C282.736 104.218 282.401 101.378 282.624 98.5542C283.562 86.6777 259.978 78.7332 271.854 79.6714C283.731 80.6096 326.571 90.0753 325.633 101.952C325.409 104.776 324.632 107.528 323.346 110.052C322.059 112.575 320.288 114.821 318.133 116.66C315.978 118.499 313.483 119.896 310.788 120.77C308.094 121.645 305.254 121.98 302.43 121.757Z" fill="#6D79FF"/>
<path d="M328.425 94.6849C329.99 97.9318 329.067 101.683 327 104.486C324.649 107.675 320.909 109.246 317.073 109.766C312.956 110.266 308.779 109.922 304.799 108.755C300.959 107.647 296.974 105.272 296.182 101.028C295.654 98.2 296.861 95.1817 299.798 94.3977C300.976 94.0998 302.211 94.1104 303.384 94.4286C304.556 94.7467 305.627 95.3617 306.493 96.2141C308.932 98.7524 308.746 102.826 307.196 105.775C305.373 109.242 301.726 111.155 297.976 111.787C293.517 112.538 289.037 111.489 284.843 109.997C280.284 108.375 275.861 106.356 271.394 104.501C262.683 100.884 253.785 97.4853 244.417 96.0446C230.108 93.8437 213.125 97.2708 204.365 109.816C199.636 116.589 198.296 125.082 199.314 133.162C200.387 141.684 204.126 149.514 209.077 156.448C211.699 160.055 214.561 163.48 217.645 166.701C218.649 167.677 219.34 168.929 219.63 170.299C219.92 171.669 219.797 173.094 219.275 174.394C216.561 181.062 205.711 178.936 204.902 172.063C204.535 168.94 206.277 165.724 208.455 163.605C210.925 161.294 214.039 159.786 217.384 159.28C224.424 158.104 231.867 160.714 237.248 165.249C243.328 170.371 246.751 178.156 248.554 185.734C250.607 194.362 250.712 203.236 250.907 212.055C251.106 221.081 251.449 230.213 254.038 238.924C256.144 245.935 259.395 252.55 263.659 258.501C272.175 270.49 284.281 279.461 298.23 284.12C301.604 285.215 305.063 286.025 308.573 286.543C309.947 286.746 310.111 284.595 308.743 284.392C293.446 282.124 279.378 273.842 269.308 262.2C264.262 256.392 260.273 249.744 257.524 242.557C254.24 233.901 253.407 224.707 253.139 215.521C252.866 206.138 253.015 196.671 251.136 187.428C249.476 179.258 246.218 170.984 240.186 165.03C234.867 159.781 227.257 156.534 219.737 156.882C212.739 157.206 205.257 161.06 203.177 168.2C202.201 171.55 202.822 175.147 205.38 177.635C206.838 179.018 208.651 179.97 210.617 180.386C212.584 180.802 214.627 180.664 216.52 179.989C218.577 179.1 220.229 177.477 221.155 175.436C222.081 173.395 222.215 171.083 221.531 168.949C220.955 167.382 220.03 165.967 218.826 164.811C212.513 158.069 206.72 150.525 203.576 141.747C200.644 133.559 200.043 124.14 203.424 115.993C209.826 100.569 228.405 95.9345 243.539 98.0902C253.443 99.501 262.821 103.251 271.995 107.086C276.68 109.045 281.334 111.222 286.193 112.721C290.543 114.063 295.211 114.737 299.693 113.636C303.605 112.676 307.2 110.401 309.095 106.763C310.816 103.458 311.113 99.2642 309.066 96.0264C306.107 91.3452 297.935 90.2922 294.957 95.55C292.981 99.0388 293.952 103.506 296.547 106.399C299.456 109.643 303.813 110.968 307.982 111.637C315.861 112.901 325.563 111.908 329.778 104.126C331.514 100.92 331.983 97.0976 330.367 93.7463C330.237 93.4986 330.016 93.3112 329.75 93.2237C329.484 93.1361 329.195 93.1552 328.943 93.277C328.691 93.3988 328.496 93.6137 328.399 93.8764C328.303 94.139 328.312 94.429 328.425 94.685L328.425 94.6849Z" fill="#3F3D56"/>
<path d="M303.082 286.982C290.488 285.987 256.813 303.22 247.698 295.806C246.559 294.887 245.457 293.922 244.392 292.912C240.907 289.644 237.828 285.966 235.224 281.96C234.773 281.283 234.344 280.599 233.929 279.91C232.469 277.462 231.183 274.914 230.081 272.285C229.888 271.809 229.696 271.324 229.503 270.84C224.373 257.583 224.113 242.935 228.77 229.504C233.426 216.073 242.697 204.73 254.932 197.493C267.167 190.255 281.573 187.594 295.586 189.981C309.6 192.369 322.312 199.651 331.46 210.532C331.948 211.104 332.421 211.69 332.886 212.289C337.53 218.236 341.006 225.008 343.131 232.248C343.13 232.256 343.138 232.256 343.137 232.263C346.307 243.12 346.358 254.649 343.286 265.533L343.285 265.548C343.215 265.787 343.146 266.027 343.069 266.266C335.203 292.888 331.862 289.255 303.082 286.982Z" fill="#6D79FF"/>
<path d="M230.353 272.314C230.262 272.316 230.17 272.306 230.081 272.285C229.888 271.809 229.696 271.325 229.503 270.84C229.584 270.638 229.725 270.464 229.908 270.343C230.09 270.222 230.304 270.16 230.523 270.164C231.613 270.16 232.699 270.035 233.762 269.792C242.986 267.708 248.362 258.265 250.666 249.835C253.493 239.521 253.532 228.438 258.641 218.816C260.626 214.861 263.545 211.45 267.144 208.877C271.096 206.199 275.899 205.076 280.629 205.723C291.757 207.193 299.88 215.762 310.211 219.29C314.467 220.744 318.998 221.102 323.254 219.448C326.87 218.046 330.169 215.277 330.916 211.297C330.941 211.136 331.003 210.983 331.097 210.85C331.191 210.717 331.316 210.608 331.46 210.532C331.948 211.104 332.421 211.69 332.886 212.289C332.72 213.008 332.479 213.707 332.166 214.374C330.35 218.184 326.73 220.646 322.788 221.878C318.225 223.299 313.479 222.758 309.039 221.167C298.686 217.456 290.171 208.287 278.74 207.716C268.833 207.222 261.986 215.365 258.69 223.861C254.614 234.373 255.219 246.156 250.643 256.512C247.042 264.66 239.826 272.276 230.353 272.314Z" fill="#3F3D56"/>
<path d="M235.224 281.96C234.772 281.283 234.343 280.599 233.929 279.91C234.029 279.83 234.145 279.773 234.27 279.742C234.394 279.71 234.524 279.706 234.65 279.729C243.894 280.82 253.206 278.338 260.681 272.791C263.961 270.393 266.811 267.458 269.113 264.11C271.503 260.606 272.947 256.666 274.567 252.776C276.16 248.95 278.031 245.08 281.2 242.308C284.431 239.483 288.6 238.298 292.822 238.17C302.828 237.871 311.554 243.559 321.292 244.732C325.636 245.256 329.948 244.63 333.667 242.204C336.877 240.107 339.213 236.822 339.063 232.879C339.007 231.576 340.905 231.661 341.182 232.808C341.201 232.887 341.212 232.968 341.214 233.049C341.385 237.635 338.565 241.56 334.853 243.986C330.541 246.812 325.501 247.51 320.458 246.794C310.701 245.403 301.683 239.498 291.587 240.388C289.468 240.51 287.399 241.076 285.513 242.049C283.627 243.022 281.966 244.38 280.639 246.036C277.982 249.447 276.578 253.613 274.939 257.566C273.383 261.517 271.208 265.194 268.495 268.461C265.75 271.65 262.513 274.379 258.906 276.546C251.81 280.877 243.496 282.778 235.224 281.96Z" fill="#3F3D56"/>
<path d="M247.698 295.806C246.559 294.887 245.457 293.922 244.392 292.912C249.885 294.311 255.61 294.549 261.2 293.612C268.234 292.484 274.87 289.6 280.493 285.226C283.294 283.034 285.764 280.45 287.829 277.554C290.183 274.242 292.239 270.582 295.788 268.388C303.492 263.63 312.712 267.979 320.404 270.318C324.418 271.544 328.731 272.375 332.82 271.018C335.99 269.963 339.067 267.623 339.694 264.168C339.938 262.809 342.096 262.972 341.844 264.337C341.795 264.593 341.739 264.848 341.675 265.103C340.686 268.855 337.616 271.562 333.993 272.877C329.263 274.581 324.364 273.783 319.666 272.352C311.94 269.996 301.842 265.152 294.852 271.834C291.903 274.652 290.094 278.469 287.434 281.548C285.062 284.307 282.325 286.731 279.299 288.753C270.005 294.943 258.742 297.457 247.698 295.806Z" fill="#3F3D56"/>
<path d="M398.495 449.04H347.443C345.823 449.039 344.27 448.394 343.124 447.248C341.978 446.102 341.333 444.549 341.332 442.929V424.953C341.333 423.332 341.978 421.779 343.124 420.633C344.269 419.487 345.823 418.843 347.443 418.841H398.495C400.116 418.843 401.669 419.487 402.815 420.633C403.961 421.779 404.605 423.332 404.607 424.953V442.929C404.605 444.549 403.961 446.102 402.815 447.248C401.669 448.394 400.116 449.039 398.495 449.04Z" fill="#E6E6E6"/>
<path d="M102.438 240.421L103.785 252.919L102.992 269.308L139.293 264.995L142.704 240.421L138.358 240.464L102.438 240.421Z" fill="#FFB6B6"/>
<path d="M145.753 201.691L134.53 197.54L129.734 190.575L112.482 188.85L101.841 195.667L92.9199 200.21L93.0727 223.929L103.329 266.404L140.001 264.966L144.827 234.678C144.827 234.678 156.041 219.617 143.965 210.991L145.753 201.691Z" fill="#CCCCCC"/>
<path d="M83.6089 467.331H91.5456L95.322 436.719H83.6089V467.331Z" fill="#FFB6B6"/>
<path d="M81.0192 461.895L93.6988 461.139V466.571L105.754 474.897C106.349 475.308 106.797 475.898 107.033 476.582C107.269 477.266 107.28 478.008 107.065 478.699C106.85 479.39 106.419 479.993 105.836 480.422C105.254 480.851 104.549 481.082 103.825 481.082H88.7299L86.1279 475.709L85.112 481.082H79.4204L81.0192 461.895Z" fill="#2F2E41"/>
<path d="M128.189 467.331H136.126L139.903 436.719H128.189V467.331Z" fill="#FFB6B6"/>
<path d="M125.6 461.895L138.279 461.139V466.571L150.334 474.897C150.93 475.308 151.378 475.898 151.614 476.582C151.85 477.266 151.861 478.008 151.646 478.699C151.43 479.39 151 479.993 150.417 480.422C149.834 480.851 149.129 481.082 148.406 481.082H133.31L130.708 475.709L129.693 481.082H124.001L125.6 461.895Z" fill="#2F2E41"/>
<path d="M80.1849 440.933H80.2711L81.7975 391.158C80.8097 389.253 80.3084 387.133 80.3382 384.987C80.368 382.841 80.928 380.736 81.9682 378.859L82.1868 378.463L81.6202 375.837C80.8924 372.463 81.2264 368.946 82.5762 365.768L84.0001 319.338C78.913 286.369 103.157 264.868 103.157 264.868H139.474L147.271 291.657C152.426 341.875 151.49 390.811 143.311 438.222L143.534 438.334C144.337 438.612 144.681 439.724 144.303 440.819C143.925 441.914 142.968 442.577 142.165 442.3L122.985 441.633C122.182 441.355 121.838 440.243 122.216 439.148C122.594 438.053 123.551 437.39 124.354 437.667L125.658 438.327L122.877 390.297L123.186 381.524L122.55 371.571L119.61 326.803L108.482 381.855L97.1152 441.487C97.4287 441.771 97.6487 442.143 97.7463 442.554C97.8438 442.966 97.8143 443.397 97.6615 443.792C97.5088 444.186 97.2401 444.525 96.8908 444.763C96.5416 445.002 96.1282 445.129 95.7052 445.128H80.1849C79.6286 445.128 79.0951 444.907 78.7017 444.513C78.3084 444.12 78.0874 443.586 78.0874 443.03C78.0874 442.474 78.3084 441.94 78.7017 441.547C79.0951 441.154 79.6286 440.933 80.1849 440.933V440.933Z" fill="#2F2E41"/>
<path d="M76.409 299.917C75.716 299.249 75.1779 298.437 74.8326 297.539C74.4874 296.64 74.3433 295.677 74.4107 294.717C74.478 293.756 74.755 292.822 75.2223 291.981C75.6896 291.139 76.3357 290.41 77.1151 289.845L86.7914 230.452L98.1396 234.445L86.6403 291.659C87.5025 293.032 87.8314 294.673 87.5645 296.271C87.2977 297.87 86.4538 299.315 85.1926 300.333C83.9315 301.351 82.3407 301.871 80.7219 301.794C79.103 301.717 77.5684 301.05 76.409 299.917H76.409Z" fill="#FFB6B6"/>
<path d="M94.4463 200.157C94.4463 200.157 91.1913 198.93 90.01 206.205C89.0642 212.029 79.8309 247.182 80.7045 255.327C79.6208 255.706 78.6943 256.436 78.0708 257.4C77.4474 258.364 77.1623 259.508 77.2607 260.652L94.2864 260.739C96.8933 257.896 97.2314 254.465 95.9725 253.622L98.3281 243.229L109.421 209.699L96.815 201.002L94.4463 200.157Z" fill="#CCCCCC"/>
<path d="M154.793 302.446C155.541 301.84 156.147 301.077 156.569 300.212C156.99 299.346 157.216 298.399 157.232 297.436C157.247 296.474 157.052 295.52 156.659 294.641C156.266 293.762 155.685 292.98 154.957 292.35L151.505 232.609L138.777 235.346L145.311 293.338C144.334 294.631 143.865 296.237 143.993 297.853C144.121 299.469 144.838 300.981 146.007 302.104C147.176 303.227 148.716 303.881 150.335 303.944C151.955 304.007 153.541 303.474 154.793 302.446L154.793 302.446Z" fill="#FFB6B6"/>
<path d="M145.408 201.503C145.408 201.503 148.756 200.561 149.307 207.911C149.748 213.794 155.923 249.611 154.351 257.651C155.398 258.122 156.259 258.929 156.797 259.943C157.335 260.957 157.52 262.122 157.324 263.253L140.354 261.875C138.001 258.817 137.96 255.371 139.287 254.639L137.834 244.082L129.667 209.721L142.975 202.141L145.408 201.503Z" fill="#CCCCCC"/>
<path d="M113.539 187.625C123.02 187.625 130.706 179.938 130.706 170.457C130.706 160.976 123.02 153.289 113.539 153.289C104.057 153.289 96.3711 160.976 96.3711 170.457C96.3711 179.938 104.057 187.625 113.539 187.625Z" fill="#FFB8B8"/>
<path d="M79.42 206.537C75.7871 205.249 72.1541 203.959 68.5212 202.667C69.1474 201.616 69.9448 200.678 70.8806 199.89C74.3395 197.002 79.1138 196.48 83.5053 195.506C87.9038 194.531 92.6781 192.534 94.2859 188.33C95.9562 183.96 93.5342 179.241 92.1284 174.787C90.1588 168.572 90.2005 161.633 92.8383 155.675C95.476 149.718 100.835 144.888 107.196 143.468C113.557 142.055 120.746 144.359 124.658 149.565C127.178 148.809 129.887 149.002 132.275 150.107C134.662 151.212 136.563 153.154 137.617 155.564C138.528 157.847 138.556 160.596 137.199 162.649C135.842 164.702 132.94 165.753 130.754 164.612L132.021 161.396C128.103 162.726 125.556 169.811 126.085 173.917C126.606 178.016 129.001 181.607 131.43 184.955C133.858 188.302 136.447 191.685 137.491 195.686C138.995 201.442 136.962 207.734 133.204 212.348C129.446 216.962 124.15 220.094 118.666 222.398C114.56 224.124 110.294 225.438 105.929 226.323C106.709 224.806 107.481 223.288 108.261 221.771L99.0115 227.367C97.2229 227.541 95.4203 227.645 93.6178 227.68C88.3702 227.77 83.0183 227.221 78.216 225.126C73.407 223.024 69.1824 219.217 67.4425 214.269C66.8847 212.668 66.6207 210.98 66.6631 209.286C70.9153 208.367 75.1676 207.451 79.42 206.537Z" fill="#2F2E41"/>
<path d="M62.1062 462.172C61.574 462.197 61.0472 462.057 60.5971 461.772C60.147 461.487 59.7954 461.071 59.5899 460.579C59.3844 460.088 59.3349 459.545 59.4482 459.024C59.5615 458.504 59.8321 458.031 60.2232 457.669C60.2888 457.409 60.3358 457.222 60.4013 456.961C60.3778 456.905 60.3542 456.848 60.3305 456.791C59.7944 455.525 58.8961 454.446 57.7484 453.688C56.6007 452.931 55.2548 452.53 53.8798 452.535C52.5047 452.54 51.1618 452.951 50.0198 453.717C48.8777 454.483 47.9875 455.569 47.4608 456.839C45.3559 461.909 42.676 466.987 42.0161 472.347C41.7255 474.717 41.8481 477.119 42.3785 479.446C37.4346 468.662 34.8674 456.94 34.8509 445.077C34.8498 442.1 35.0152 439.125 35.3463 436.166C35.6199 433.741 35.9995 431.333 36.4851 428.942C39.1349 415.969 44.8241 403.81 53.0856 393.463C57.0841 391.282 60.3177 387.927 62.3508 383.851C63.0873 382.385 63.6079 380.821 63.8963 379.207C63.4452 379.266 62.9868 379.303 62.5357 379.333C62.3952 379.34 62.2473 379.347 62.1068 379.355L62.0538 379.357C61.5581 379.379 61.0665 379.258 60.6382 379.007C60.2099 378.757 59.8633 378.387 59.6399 377.944C59.4165 377.501 59.326 377.003 59.3792 376.51C59.4324 376.016 59.627 375.549 59.9397 375.164C60.1345 374.924 60.3294 374.684 60.5244 374.445C60.8202 374.075 61.1233 373.713 61.4191 373.343C61.4532 373.308 61.4853 373.271 61.5152 373.232C61.8554 372.811 62.1955 372.397 62.5357 371.975C61.9148 371.011 61.0797 370.204 60.0955 369.616C56.6867 367.62 51.9838 369.003 49.5214 372.086C47.0517 375.169 46.5859 379.495 47.4436 383.348C48.2871 386.626 49.6824 389.737 51.5697 392.546C51.3848 392.783 51.1926 393.012 51.0077 393.249C47.6284 397.594 44.6831 402.26 42.2141 407.18C42.8145 401.668 42.0979 396.093 40.1231 390.912C38.1217 386.084 34.3703 382.018 31.0668 377.844C27.0987 372.83 18.9618 375.018 18.2627 381.374C18.256 381.435 18.2494 381.497 18.2429 381.558C18.7336 381.835 19.2139 382.129 19.6839 382.44C20.2743 382.834 20.7317 383.398 20.9963 384.057C21.2609 384.716 21.3203 385.439 21.1668 386.132C21.0132 386.825 20.6538 387.456 20.1356 387.942C19.6175 388.427 18.9648 388.745 18.2631 388.853L18.1912 388.864C18.366 390.632 18.675 392.385 19.1155 394.107C20.3919 398.913 22.6474 403.404 25.7407 407.297C28.834 411.191 32.6983 414.403 37.0914 416.734C37.3797 416.882 37.6608 417.029 37.9492 417.17C35.4685 424.2 33.9125 431.523 33.3202 438.954C32.9849 443.338 33.0047 447.742 33.3794 452.124L33.3572 451.968C32.4106 447.097 29.8118 442.701 25.9997 439.523C20.3377 434.872 12.3384 433.16 6.23009 429.421C5.58093 429.004 4.8261 428.782 4.05465 428.78C3.28321 428.778 2.52733 428.997 1.87614 429.41C1.22495 429.824 0.705612 430.415 0.379405 431.114C0.0531979 431.813 -0.0662834 432.591 0.0350479 433.356C0.0432306 433.41 0.0515711 433.465 0.0600414 433.519C0.970603 433.89 1.85716 434.317 2.71459 434.798C3.20528 435.075 3.68562 435.369 4.15557 435.68C4.74596 436.074 5.20342 436.638 5.46802 437.297C5.73263 437.956 5.79202 438.679 5.63844 439.372C5.48485 440.065 5.12545 440.696 4.60732 441.182C4.08918 441.667 3.43649 441.985 2.73474 442.093L2.66283 442.104C2.61106 442.111 2.56671 442.119 2.51502 442.126C4.07084 445.841 6.25448 449.26 8.97031 452.234C12.3253 455.834 16.3802 458.711 20.8865 460.688C25.3928 462.666 30.2554 463.702 35.1763 463.733H35.1837C36.5195 469.537 38.4549 475.188 40.9588 480.592H61.5892C61.6632 480.363 61.7297 480.126 61.7963 479.897C59.8867 480.017 57.9696 479.903 56.0877 479.557C57.6184 477.679 59.149 475.786 60.6797 473.908C60.7138 473.872 60.7459 473.835 60.7758 473.797C61.5522 472.835 62.336 471.881 63.1124 470.92L63.1129 470.919C63.1542 467.972 62.8161 465.033 62.1068 462.173L62.1062 462.172Z" fill="#F2F2F2"/>
<path d="M200.675 482.036L2.40011 482.257C2.17304 482.257 1.95527 482.167 1.79471 482.006C1.63415 481.846 1.54395 481.628 1.54395 481.401C1.54395 481.174 1.63415 480.956 1.79471 480.795C1.95527 480.635 2.17304 480.545 2.40011 480.545L200.675 480.324C200.902 480.324 201.12 480.414 201.281 480.574C201.441 480.735 201.531 480.953 201.531 481.18C201.531 481.407 201.441 481.625 201.281 481.785C201.12 481.946 200.902 482.036 200.675 482.036Z" fill="#CACACA"/>
</svg>
