<svg width="572" height="327" viewBox="0 0 572 327" fill="none" xmlns="http://www.w3.org/2000/svg">
<path d="M571.216 193.647C571.216 166.492 549.188 102.056 522.015 102.056C494.842 102.056 472.814 166.492 472.814 193.647C472.823 206.69 478.011 219.195 487.237 228.415C496.463 237.634 508.972 242.813 522.015 242.813C535.058 242.813 547.567 237.634 556.793 228.415C566.019 219.195 571.207 206.69 571.216 193.647H571.216Z" fill="#F2F2F2"/>
<path d="M522.015 302.598C521.866 302.598 521.723 302.539 521.617 302.434C521.512 302.328 521.453 302.185 521.453 302.036V187.18C521.453 187.03 521.512 186.887 521.617 186.782C521.723 186.676 521.866 186.617 522.015 186.617C522.164 186.617 522.308 186.676 522.413 186.782C522.519 186.887 522.578 187.03 522.578 187.18V302.036C522.578 302.185 522.519 302.328 522.413 302.434C522.308 302.539 522.164 302.598 522.015 302.598Z" fill="#CCCCCC"/>
<path d="M522.016 208.639C521.935 208.639 521.855 208.622 521.782 208.588C521.709 208.555 521.643 208.506 521.59 208.445L493.294 175.812C493.196 175.699 493.147 175.553 493.158 175.404C493.169 175.255 493.238 175.117 493.351 175.019C493.463 174.922 493.61 174.873 493.759 174.883C493.908 174.893 494.046 174.962 494.144 175.075L522.441 207.708C522.511 207.789 522.557 207.889 522.572 207.996C522.588 208.103 522.572 208.212 522.527 208.31C522.483 208.408 522.411 208.491 522.32 208.549C522.229 208.608 522.124 208.639 522.016 208.639Z" fill="#CCCCCC"/>
<path d="M522.015 227.472C521.904 227.472 521.795 227.439 521.703 227.377C521.61 227.315 521.538 227.227 521.495 227.124C521.453 227.022 521.442 226.909 521.463 226.799C521.485 226.69 521.539 226.59 521.617 226.511L537.696 210.432C537.802 210.327 537.945 210.268 538.094 210.269C538.242 210.269 538.385 210.328 538.49 210.433C538.596 210.539 538.655 210.682 538.655 210.83C538.655 210.979 538.597 211.122 538.492 211.228L522.413 227.307C522.361 227.359 522.299 227.401 522.231 227.429C522.162 227.457 522.089 227.472 522.015 227.472Z" fill="#CCCCCC"/>
<path d="M221.099 256.22C150.459 256.22 92.9893 198.75 92.9893 128.11C92.9893 57.4701 150.459 0 221.099 0C291.739 0 349.209 57.4701 349.209 128.11C349.209 198.75 291.739 256.22 221.099 256.22ZM221.099 1.7196C151.407 1.7196 94.7089 58.418 94.7089 128.11C94.7089 197.802 151.407 254.5 221.099 254.5C290.791 254.5 347.49 197.802 347.49 128.11C347.49 58.418 290.791 1.7196 221.099 1.7196Z" fill="#CCCCCC"/>
<path d="M221.099 118.652C220.871 118.652 220.652 118.562 220.491 118.4C220.33 118.239 220.239 118.02 220.239 117.792V0.859798C220.239 0.631766 220.33 0.413085 220.491 0.251842C220.652 0.0905981 220.871 0 221.099 0C221.327 0 221.546 0.0905981 221.707 0.251842C221.868 0.413085 221.959 0.631766 221.959 0.859798V117.792C221.959 118.02 221.868 118.239 221.707 118.4C221.546 118.562 221.327 118.652 221.099 118.652Z" fill="#CCCCCC"/>
<path d="M348.349 128.97H231.416C231.188 128.97 230.97 128.879 230.808 128.718C230.647 128.557 230.557 128.338 230.557 128.11C230.557 127.882 230.647 127.663 230.808 127.502C230.97 127.341 231.188 127.25 231.416 127.25H348.349C348.577 127.25 348.796 127.341 348.957 127.502C349.118 127.663 349.209 127.882 349.209 128.11C349.209 128.338 349.118 128.557 348.957 128.718C348.796 128.879 348.577 128.97 348.349 128.97Z" fill="#CCCCCC"/>
<path d="M210.781 128.97H93.9042C93.6762 128.97 93.4575 128.879 93.2963 128.718C93.135 128.557 93.0444 128.338 93.0444 128.11C93.0444 127.882 93.135 127.663 93.2963 127.502C93.4575 127.341 93.6762 127.25 93.9042 127.25H210.781C211.009 127.25 211.228 127.341 211.389 127.502C211.551 127.663 211.641 127.882 211.641 128.11C211.641 128.338 211.551 128.557 211.389 128.718C211.228 128.879 211.009 128.97 210.781 128.97Z" fill="#CCCCCC"/>
<path d="M221.099 256.22C220.871 256.22 220.652 256.129 220.491 255.968C220.33 255.807 220.239 255.588 220.239 255.36V138.428C220.239 138.2 220.33 137.981 220.491 137.82C220.652 137.658 220.871 137.568 221.099 137.568C221.327 137.568 221.546 137.658 221.707 137.82C221.868 137.981 221.959 138.2 221.959 138.428V255.36C221.959 255.588 221.868 255.807 221.707 255.968C221.546 256.129 221.327 256.22 221.099 256.22Z" fill="#CCCCCC"/>
<path d="M228.68 121.983C228.51 121.983 228.344 121.932 228.202 121.838C228.061 121.744 227.951 121.609 227.886 121.452C227.821 121.295 227.804 121.122 227.837 120.955C227.87 120.789 227.952 120.636 228.072 120.515L310.392 38.195C310.472 38.1152 310.567 38.0519 310.671 38.0087C310.775 37.9655 310.887 37.9432 311 37.9432C311.113 37.9432 311.225 37.9655 311.329 38.0087C311.433 38.0519 311.528 38.1152 311.608 38.195C311.688 38.2749 311.751 38.3696 311.794 38.4739C311.837 38.5783 311.86 38.69 311.86 38.8029C311.86 38.9158 311.837 39.0276 311.794 39.1319C311.751 39.2362 311.688 39.331 311.608 39.4109L229.288 121.731C229.208 121.811 229.113 121.874 229.009 121.918C228.905 121.961 228.793 121.983 228.68 121.983Z" fill="#CCCCCC"/>
<path d="M213.518 121.983C213.405 121.983 213.294 121.961 213.189 121.918C213.085 121.874 212.99 121.811 212.91 121.731L130.59 39.4107C130.429 39.2495 130.338 39.0308 130.338 38.8028C130.338 38.5748 130.429 38.3561 130.59 38.1949C130.751 38.0337 130.97 37.9431 131.198 37.9431C131.426 37.9431 131.645 38.0337 131.806 38.1949L214.126 120.515C214.246 120.635 214.328 120.789 214.361 120.955C214.395 121.122 214.378 121.295 214.313 121.452C214.247 121.609 214.137 121.743 213.996 121.838C213.855 121.932 213.688 121.983 213.518 121.983L213.518 121.983Z" fill="#CCCCCC"/>
<path d="M311 218.277C310.887 218.277 310.775 218.255 310.671 218.212C310.567 218.168 310.472 218.105 310.392 218.025L228.072 135.705C227.911 135.543 227.82 135.325 227.82 135.097C227.82 134.869 227.911 134.65 228.072 134.489C228.233 134.328 228.452 134.237 228.68 134.237C228.908 134.237 229.127 134.328 229.288 134.489L311.608 216.809C311.728 216.929 311.81 217.083 311.843 217.249C311.876 217.416 311.859 217.589 311.794 217.746C311.729 217.903 311.619 218.037 311.478 218.132C311.336 218.226 311.17 218.277 311 218.277L311 218.277Z" fill="#CCCCCC"/>
<path d="M131.198 218.277C131.028 218.277 130.862 218.226 130.72 218.132C130.579 218.037 130.469 217.903 130.404 217.746C130.339 217.589 130.322 217.416 130.355 217.249C130.388 217.083 130.47 216.929 130.59 216.809L212.91 134.489C212.99 134.409 213.085 134.346 213.189 134.303C213.294 134.259 213.405 134.237 213.518 134.237C213.631 134.237 213.743 134.259 213.847 134.303C213.952 134.346 214.046 134.409 214.126 134.489C214.206 134.569 214.269 134.663 214.312 134.768C214.356 134.872 214.378 134.984 214.378 135.097C214.378 135.21 214.356 135.321 214.312 135.426C214.269 135.53 214.206 135.625 214.126 135.705L131.806 218.025C131.726 218.105 131.631 218.168 131.527 218.212C131.423 218.255 131.311 218.277 131.198 218.277Z" fill="#CCCCCC"/>
<path d="M221.099 216.239C203.669 216.239 186.63 211.071 172.137 201.387C157.644 191.703 146.349 177.939 139.678 161.836C133.008 145.732 131.263 128.012 134.663 110.917C138.064 93.8214 146.457 78.1182 158.782 65.7931C171.107 53.468 186.811 45.0745 203.906 41.674C221.001 38.2735 238.721 40.0188 254.825 46.6891C270.928 53.3594 284.692 64.6551 294.376 79.1479C304.06 93.6407 309.228 110.68 309.228 128.11C309.202 151.475 299.909 173.876 283.387 190.398C266.865 206.919 244.464 216.213 221.099 216.239ZM221.099 41.7002C204.009 41.7002 187.302 46.7681 173.092 56.2629C158.882 65.7577 147.807 79.2531 141.267 95.0424C134.727 110.832 133.016 128.206 136.35 144.968C139.684 161.73 147.914 177.126 159.998 189.211C172.083 201.296 187.48 209.525 204.241 212.859C221.003 216.194 238.377 214.482 254.167 207.942C269.956 201.402 283.451 190.327 292.946 176.117C302.441 161.907 307.509 145.2 307.509 128.11C307.483 105.201 298.371 83.237 282.171 67.0377C265.972 50.8383 244.008 41.7261 221.099 41.7002Z" fill="#CCCCCC"/>
<path d="M221.099 138.428C226.798 138.428 231.417 133.808 231.417 128.11C231.417 122.412 226.798 117.792 221.099 117.792C215.401 117.792 210.782 122.412 210.782 128.11C210.782 133.808 215.401 138.428 221.099 138.428Z" fill="#3F3D56"/>
<path d="M181.156 302.387L172.091 302.649L216.333 124.073L224.557 126.582L181.156 302.387Z" fill="#3F3D56"/>
<path d="M261.043 302.387L270.108 302.649L225.865 124.073L217.641 126.582L261.043 302.387Z" fill="#3F3D56"/>
<path d="M234.856 26.6538H206.482V42.1302H234.856V26.6538Z" fill="#CCCCCC"/>
<path d="M219.38 30.093H208.202V42.1302H219.38V30.093Z" fill="white"/>
<path d="M233.136 30.093H221.959V42.1302H233.136V30.093Z" fill="white"/>
<path d="M220.669 58.8963C216.338 58.8914 212.186 57.1686 209.123 54.1061C206.061 51.0435 204.338 46.8912 204.333 42.5601V42.1302C204.334 41.1044 204.742 40.121 205.468 39.3956C206.193 38.6703 207.176 38.2623 208.202 38.2611H233.136C234.162 38.2623 235.145 38.6703 235.871 39.3956C236.596 40.121 237.004 41.1044 237.005 42.1302V42.5601C237 46.8912 235.278 51.0435 232.215 54.1061C229.153 57.1686 225 58.8914 220.669 58.8963Z" fill="#CCCCCC"/>
<path d="M233.793 30.5228H207.545C207.179 30.5229 206.818 30.4292 206.498 30.2508C206.178 30.0724 205.909 29.8151 205.717 29.5034C205.524 29.1917 205.414 28.836 205.398 28.4699C205.381 28.1039 205.459 27.7397 205.623 27.4119L210.781 17.0944C210.959 16.7365 211.233 16.4354 211.573 16.2254C211.913 16.0154 212.304 15.9049 212.704 15.9063H228.634C229.034 15.9049 229.425 16.0154 229.765 16.2254C230.105 16.4354 230.379 16.7365 230.557 17.0944L235.715 27.4119C235.879 27.7397 235.957 28.1039 235.94 28.4699C235.924 28.8359 235.814 29.1917 235.622 29.5034C235.429 29.8151 235.16 30.0724 234.84 30.2508C234.52 30.4292 234.159 30.5229 233.793 30.5228Z" fill="#6D79FF"/>
<path d="M311.378 61.0457H283.004V76.522H311.378V61.0457Z" fill="#CCCCCC"/>
<path d="M295.902 64.4847H284.724V76.5219H295.902V64.4847Z" fill="white"/>
<path d="M309.658 64.4847H298.481V76.5219H309.658V64.4847Z" fill="white"/>
<path d="M297.191 93.288C292.86 93.2831 288.708 91.5604 285.645 88.4978C282.583 85.4352 280.86 81.2829 280.855 76.9518V76.5219C280.856 75.4961 281.264 74.5127 281.99 73.7874C282.715 73.062 283.698 72.654 284.724 72.6528H309.658C310.684 72.654 311.667 73.062 312.393 73.7874C313.118 74.5127 313.526 75.4961 313.527 76.5219V76.9518C313.522 81.2829 311.8 85.4352 308.737 88.4978C305.675 91.5604 301.522 93.2831 297.191 93.288Z" fill="#CCCCCC"/>
<path d="M289.226 51.1581C288.986 51.1573 288.751 51.2237 288.547 51.3497C288.343 51.4757 288.179 51.6563 288.072 51.871L282.914 62.1886C282.815 62.3852 282.769 62.6037 282.779 62.8233C282.788 63.0429 282.854 63.2564 282.97 63.4434C283.085 63.6305 283.247 63.7848 283.439 63.8919C283.631 63.9989 283.847 64.0551 284.067 64.0551H310.315C310.535 64.0551 310.751 63.9989 310.943 63.8919C311.135 63.7848 311.296 63.6305 311.412 63.4434C311.528 63.2564 311.593 63.0429 311.603 62.8233C311.613 62.6037 311.567 62.3852 311.468 62.1886L306.31 51.871C306.203 51.6563 306.039 51.4757 305.835 51.3497C305.631 51.2237 305.396 51.1573 305.156 51.1581H289.226Z" fill="#6D79FF"/>
<path d="M341.471 138.428H313.097V153.904H341.471V138.428Z" fill="#CCCCCC"/>
<path d="M325.994 141.867H314.817V153.904H325.994V141.867Z" fill="white"/>
<path d="M339.752 141.867H328.574V153.904H339.752V141.867Z" fill="white"/>
<path d="M327.284 170.67C322.953 170.665 318.801 168.942 315.738 165.88C312.676 162.817 310.953 158.665 310.948 154.334V153.904C310.949 152.878 311.357 151.895 312.083 151.169C312.808 150.444 313.792 150.036 314.817 150.035H339.751C340.777 150.036 341.761 150.444 342.486 151.169C343.211 151.895 343.619 152.878 343.621 153.904V154.334C343.616 158.665 341.893 162.817 338.83 165.88C335.768 168.942 331.616 170.665 327.284 170.67Z" fill="#CCCCCC"/>
<path d="M340.408 142.297H314.16C313.794 142.297 313.434 142.203 313.114 142.025C312.793 141.846 312.524 141.589 312.332 141.277C312.139 140.966 312.029 140.61 312.013 140.244C311.996 139.878 312.074 139.513 312.238 139.186L317.397 128.868C317.574 128.51 317.848 128.209 318.188 127.999C318.528 127.789 318.92 127.679 319.319 127.68H335.249C335.649 127.679 336.041 127.789 336.381 127.999C336.72 128.209 336.995 128.51 337.172 128.868L342.331 139.186C342.495 139.513 342.572 139.878 342.556 140.244C342.539 140.61 342.429 140.966 342.237 141.277C342.044 141.589 341.775 141.846 341.455 142.025C341.135 142.203 340.775 142.297 340.408 142.297Z" fill="#6D79FF"/>
<path d="M309.659 210.651H281.285V226.127H309.659V210.651Z" fill="#CCCCCC"/>
<path d="M294.182 214.09H283.004V226.127H294.182V214.09Z" fill="white"/>
<path d="M307.939 214.09H296.762V226.127H307.939V214.09Z" fill="white"/>
<path d="M295.472 242.893C291.141 242.888 286.988 241.165 283.926 238.103C280.863 235.04 279.141 230.888 279.136 226.557V226.127C279.137 225.101 279.545 224.118 280.27 223.392C280.996 222.667 281.979 222.259 283.005 222.258H307.939C308.965 222.259 309.948 222.667 310.674 223.392C311.399 224.118 311.807 225.101 311.808 226.127V226.557C311.803 230.888 310.08 235.04 307.018 238.103C303.955 241.165 299.803 242.888 295.472 242.893Z" fill="#CCCCCC"/>
<path d="M308.596 214.52H282.348C281.981 214.52 281.621 214.426 281.301 214.248C280.981 214.069 280.712 213.812 280.519 213.5C280.327 213.189 280.217 212.833 280.2 212.467C280.184 212.101 280.261 211.736 280.425 211.409L285.584 201.091C285.761 200.733 286.036 200.432 286.375 200.222C286.715 200.012 287.107 199.902 287.507 199.903H303.437C303.836 199.902 304.228 200.012 304.568 200.222C304.908 200.432 305.182 200.733 305.359 201.091L310.518 211.409C310.682 211.736 310.76 212.101 310.743 212.467C310.727 212.833 310.617 213.189 310.424 213.5C310.232 213.812 309.963 214.069 309.642 214.248C309.322 214.426 308.962 214.52 308.596 214.52Z" fill="#6D79FF"/>
<path d="M130.82 76.522H159.194V61.0456H130.82V76.522Z" fill="#CCCCCC"/>
<path d="M146.297 76.522H157.474V64.4848H146.297V76.522Z" fill="white"/>
<path d="M132.54 76.522H143.717V64.4848H132.54V76.522Z" fill="white"/>
<path d="M145.007 93.288C140.675 93.2831 136.523 91.5604 133.461 88.4978C130.398 85.4352 128.675 81.2829 128.67 76.9518V76.5219C128.672 75.4961 129.08 74.5127 129.805 73.7874C130.53 73.062 131.514 72.654 132.54 72.6528H157.474C158.499 72.654 159.483 73.062 160.208 73.7874C160.934 74.5127 161.342 75.4961 161.343 76.5219V76.9518C161.338 81.2829 159.615 85.4352 156.553 88.4978C153.49 91.5604 149.338 93.2831 145.007 93.288Z" fill="#CCCCCC"/>
<path d="M158.131 64.9148H131.883C131.517 64.9148 131.156 64.8212 130.836 64.6428C130.516 64.4644 130.247 64.2071 130.054 63.8954C129.862 63.5837 129.752 63.2279 129.736 62.8619C129.719 62.4958 129.797 62.1316 129.96 61.8039L135.119 51.4863C135.297 51.1284 135.571 50.8274 135.911 50.6174C136.25 50.4074 136.642 50.2968 137.042 50.2982H152.972C153.371 50.2968 153.763 50.4074 154.103 50.6174C154.443 50.8274 154.717 51.1284 154.895 51.4863L160.053 61.8039C160.217 62.1316 160.295 62.4958 160.278 62.8619C160.262 63.2279 160.152 63.5837 159.959 63.8954C159.767 64.2071 159.498 64.4644 159.178 64.6428C158.858 64.8212 158.497 64.9148 158.131 64.9148Z" fill="#6D79FF"/>
<path d="M100.728 153.904H129.101V138.428H100.728V153.904Z" fill="#CCCCCC"/>
<path d="M116.204 153.904H127.381V141.867H116.204V153.904Z" fill="white"/>
<path d="M102.447 153.904H113.625V141.867H102.447V153.904Z" fill="white"/>
<path d="M114.914 170.67C110.583 170.665 106.43 168.942 103.368 165.88C100.305 162.817 98.5826 158.665 98.5776 154.334V153.904C98.5788 152.878 98.9868 151.895 99.7121 151.169C100.437 150.444 101.421 150.036 102.447 150.035H127.381C128.407 150.036 129.39 150.444 130.115 151.169C130.841 151.895 131.249 152.878 131.25 153.904V154.334C131.245 158.665 129.522 162.817 126.46 165.88C123.397 168.942 119.245 170.665 114.914 170.67Z" fill="#CCCCCC"/>
<path d="M128.038 142.297H101.79C101.423 142.297 101.063 142.203 100.743 142.025C100.423 141.846 100.154 141.589 99.9611 141.277C99.7685 140.966 99.6588 140.61 99.6423 140.244C99.6259 139.878 99.7033 139.513 99.8672 139.186L105.026 128.868C105.203 128.51 105.478 128.209 105.817 127.999C106.157 127.789 106.549 127.679 106.949 127.68H122.879C123.278 127.679 123.67 127.789 124.01 127.999C124.35 128.209 124.624 128.51 124.801 128.868L129.96 139.186C130.124 139.513 130.201 139.878 130.185 140.244C130.169 140.61 130.059 140.966 129.866 141.277C129.673 141.589 129.404 141.846 129.084 142.025C128.764 142.203 128.404 142.297 128.038 142.297Z" fill="#6D79FF"/>
<path d="M132.54 226.127H160.914V210.651H132.54V226.127Z" fill="#CCCCCC"/>
<path d="M148.016 226.127H159.194V214.09H148.016V226.127Z" fill="white"/>
<path d="M134.26 226.127H145.437V214.09H134.26V226.127Z" fill="white"/>
<path d="M146.727 242.893C142.396 242.888 138.243 241.165 135.181 238.103C132.118 235.04 130.396 230.888 130.391 226.557V226.127C130.392 225.101 130.8 224.118 131.525 223.392C132.25 222.667 133.234 222.259 134.26 222.258H159.194C160.22 222.259 161.203 222.667 161.928 223.392C162.654 224.118 163.062 225.101 163.063 226.127V226.557C163.058 230.888 161.335 235.04 158.273 238.103C155.21 241.165 151.058 242.888 146.727 242.893Z" fill="#CCCCCC"/>
<path d="M159.851 214.52H133.603C133.236 214.52 132.876 214.426 132.556 214.248C132.236 214.069 131.967 213.812 131.774 213.5C131.581 213.189 131.472 212.833 131.455 212.467C131.439 212.101 131.516 211.736 131.68 211.409L136.839 201.091C137.016 200.733 137.291 200.432 137.63 200.222C137.97 200.012 138.362 199.902 138.762 199.903H154.692C155.091 199.902 155.483 200.012 155.823 200.222C156.163 200.432 156.437 200.733 156.614 201.091L161.773 211.409C161.937 211.736 162.014 212.101 161.998 212.467C161.982 212.833 161.872 213.189 161.679 213.5C161.486 213.812 161.217 214.069 160.897 214.248C160.577 214.426 160.217 214.52 159.851 214.52Z" fill="#6D79FF"/>
<path d="M234.856 243.323H206.482V258.799H234.856V243.323Z" fill="#CCCCCC"/>
<path d="M219.38 246.762H208.202V258.799H219.38V246.762Z" fill="white"/>
<path d="M233.136 246.762H221.959V258.799H233.136V246.762Z" fill="white"/>
<path d="M208.202 255.79C207.404 255.791 206.639 256.108 206.075 256.672C205.511 257.237 205.193 258.002 205.192 258.799V259.229C205.192 263.334 206.823 267.27 209.725 270.173C212.628 273.075 216.564 274.706 220.669 274.706C224.773 274.706 228.71 273.075 231.612 270.173C234.515 267.27 236.145 263.334 236.145 259.229V258.799C236.144 258.002 235.827 257.237 235.263 256.672C234.699 256.108 233.934 255.791 233.136 255.79H208.202Z" fill="#CCCCCC"/>
<path d="M212.704 233.435C212.465 233.434 212.23 233.501 212.026 233.627C211.822 233.753 211.657 233.933 211.551 234.148L206.392 244.466C206.294 244.662 206.247 244.881 206.257 245.1C206.267 245.32 206.333 245.533 206.448 245.72C206.564 245.908 206.725 246.062 206.917 246.169C207.11 246.276 207.326 246.332 207.546 246.332H233.793C234.013 246.332 234.229 246.276 234.421 246.169C234.614 246.062 234.775 245.908 234.891 245.72C235.006 245.533 235.072 245.32 235.082 245.1C235.092 244.881 235.045 244.662 234.947 244.466L229.788 234.148C229.682 233.933 229.517 233.753 229.313 233.627C229.109 233.501 228.874 233.434 228.635 233.435H212.704Z" fill="#6D79FF"/>
<path d="M413.873 276.855C414.101 276.855 414.32 276.765 414.481 276.603C414.642 276.442 414.733 276.223 414.733 275.995C414.733 275.767 414.642 275.549 414.481 275.387C414.32 275.226 414.101 275.136 413.873 275.136H405.705V271.696H413.873C414.101 271.696 414.32 271.606 414.481 271.445C414.642 271.283 414.733 271.065 414.733 270.837C414.733 270.609 414.642 270.39 414.481 270.229C414.32 270.067 414.101 269.977 413.873 269.977H344.229C344.001 269.977 343.783 270.067 343.621 270.229C343.46 270.39 343.37 270.609 343.37 270.837C343.37 271.065 343.46 271.283 343.621 271.445C343.783 271.606 344.001 271.696 344.229 271.696H352.398V275.136H344.229C344.001 275.136 343.783 275.226 343.621 275.387C343.46 275.549 343.37 275.767 343.37 275.995C343.37 276.223 343.46 276.442 343.621 276.603C343.783 276.765 344.001 276.855 344.229 276.855H352.398V280.294H344.229C344.001 280.294 343.783 280.385 343.621 280.546C343.46 280.707 343.37 280.926 343.37 281.154C343.37 281.382 343.46 281.601 343.621 281.762C343.783 281.923 344.001 282.014 344.229 282.014H352.398V285.453H345.089C344.633 285.453 344.196 285.634 343.873 285.957C343.551 286.279 343.37 286.717 343.37 287.173C343.37 287.629 343.551 288.066 343.873 288.389C344.196 288.711 344.633 288.892 345.089 288.892H352.047C351.996 289.03 351.969 289.176 351.968 289.322V301.359C351.968 301.701 352.103 302.029 352.345 302.271C352.587 302.513 352.915 302.649 353.257 302.649C353.599 302.649 353.927 302.513 354.169 302.271C354.411 302.029 354.547 301.701 354.547 301.359V289.322C354.546 289.176 354.519 289.03 354.468 288.892H403.634C403.584 289.03 403.557 289.176 403.556 289.322V301.359C403.556 301.701 403.691 302.029 403.933 302.271C404.175 302.513 404.503 302.649 404.845 302.649C405.187 302.649 405.515 302.513 405.757 302.271C405.999 302.029 406.135 301.701 406.135 301.359V289.322C406.133 289.176 406.107 289.03 406.056 288.892H413.013C413.469 288.892 413.907 288.711 414.229 288.389C414.552 288.066 414.733 287.629 414.733 287.173C414.733 286.717 414.552 286.279 414.229 285.957C413.907 285.634 413.469 285.453 413.013 285.453H405.705V282.014H413.873C414.101 282.014 414.32 281.923 414.481 281.762C414.642 281.601 414.733 281.382 414.733 281.154C414.733 280.926 414.642 280.707 414.481 280.546C414.32 280.385 414.101 280.294 413.873 280.294H405.705V276.855H413.873ZM354.117 271.696H403.985V275.136H354.117V271.696ZM403.985 285.453H354.117V282.014H403.985V285.453ZM403.985 280.294H354.117V276.855H403.985V280.294Z" fill="#3F3D56"/>
<path d="M121.542 276.855C121.77 276.855 121.988 276.765 122.15 276.603C122.311 276.442 122.401 276.223 122.401 275.995C122.401 275.767 122.311 275.549 122.15 275.387C121.988 275.226 121.77 275.136 121.542 275.136H113.373V271.696H121.542C121.77 271.696 121.988 271.606 122.15 271.445C122.311 271.283 122.401 271.065 122.401 270.837C122.401 270.609 122.311 270.39 122.15 270.229C121.988 270.067 121.77 269.977 121.542 269.977H51.8979C51.6699 269.977 51.4512 270.067 51.2899 270.229C51.1287 270.39 51.0381 270.609 51.0381 270.837C51.0381 271.065 51.1287 271.283 51.2899 271.445C51.4512 271.606 51.6699 271.696 51.8979 271.696H60.066V275.136H51.8979C51.6699 275.136 51.4512 275.226 51.2899 275.387C51.1287 275.549 51.0381 275.767 51.0381 275.995C51.0381 276.223 51.1287 276.442 51.2899 276.603C51.4512 276.765 51.6699 276.855 51.8979 276.855H60.066V280.294H51.8979C51.6699 280.294 51.4512 280.385 51.2899 280.546C51.1287 280.707 51.0381 280.926 51.0381 281.154C51.0381 281.382 51.1287 281.601 51.2899 281.762C51.4512 281.923 51.6699 282.014 51.8979 282.014H60.066V285.453H52.7577C52.3016 285.453 51.8642 285.634 51.5417 285.957C51.2193 286.279 51.0381 286.717 51.0381 287.173C51.0381 287.629 51.2193 288.066 51.5417 288.389C51.8642 288.711 52.3016 288.892 52.7577 288.892H59.715C59.6643 289.03 59.6376 289.176 59.6361 289.322V301.359C59.6361 301.701 59.772 302.029 60.0138 302.271C60.2557 302.513 60.5837 302.649 60.9258 302.649C61.2678 302.649 61.5959 302.513 61.8377 302.271C62.0796 302.029 62.2155 301.701 62.2155 301.359V289.322C62.214 289.176 62.1873 289.03 62.1365 288.892H111.303C111.252 289.03 111.226 289.176 111.224 289.322V301.359C111.224 301.701 111.36 302.029 111.602 302.271C111.844 302.513 112.172 302.649 112.514 302.649C112.856 302.649 113.184 302.513 113.426 302.271C113.667 302.029 113.803 301.701 113.803 301.359V289.322C113.802 289.176 113.775 289.03 113.724 288.892H120.682C121.138 288.892 121.575 288.711 121.898 288.389C122.22 288.066 122.401 287.629 122.401 287.173C122.401 286.717 122.22 286.279 121.898 285.957C121.575 285.634 121.138 285.453 120.682 285.453H113.373V282.014H121.542C121.77 282.014 121.988 281.923 122.15 281.762C122.311 281.601 122.401 281.382 122.401 281.154C122.401 280.926 122.311 280.707 122.15 280.546C121.988 280.385 121.77 280.294 121.542 280.294H113.373V276.855H121.542ZM61.7856 271.696H111.654V275.136H61.7856V271.696ZM111.654 285.453H61.7856V282.014H111.654V285.453ZM111.654 280.294H61.7856V276.855H111.654V280.294Z" fill="#3F3D56"/>
<path d="M392.378 272.126H389.799C389.457 272.126 389.129 271.99 388.887 271.748C388.646 271.506 388.51 271.178 388.509 270.837V268.257C388.51 267.915 388.646 267.587 388.887 267.346C389.129 267.104 389.457 266.968 389.799 266.967H392.378C392.72 266.968 393.048 267.104 393.29 267.346C393.532 267.587 393.668 267.915 393.668 268.257V270.837C393.668 271.178 393.532 271.506 393.29 271.748C393.048 271.99 392.72 272.126 392.378 272.126Z" fill="#CCCCCC"/>
<path d="M391.137 269.284C391.088 269.284 391.039 269.28 390.991 269.271C390.879 269.252 390.773 269.212 390.677 269.151C390.582 269.091 390.499 269.013 390.434 268.92C390.369 268.828 390.322 268.724 390.298 268.614C390.273 268.504 390.27 268.39 390.289 268.279L398.792 218.8C398.831 218.576 398.957 218.376 399.144 218.245C399.33 218.114 399.56 218.062 399.785 218.1C400.009 218.139 400.209 218.265 400.341 218.451C400.472 218.637 400.525 218.867 400.487 219.092L391.984 268.57C391.949 268.77 391.845 268.951 391.691 269.081C391.536 269.212 391.34 269.284 391.137 269.284Z" fill="#CCCCCC"/>
<path d="M391.135 269.284C390.933 269.284 390.737 269.212 390.582 269.081C390.427 268.951 390.323 268.77 390.289 268.57L381.786 219.092C381.747 218.867 381.799 218.636 381.931 218.45C382.063 218.263 382.263 218.137 382.488 218.098C382.712 218.06 382.943 218.112 383.129 218.244C383.316 218.375 383.442 218.575 383.481 218.8L391.984 268.279C392.003 268.39 392 268.504 391.975 268.614C391.95 268.724 391.904 268.828 391.838 268.92C391.773 269.013 391.691 269.091 391.595 269.151C391.5 269.211 391.393 269.252 391.282 269.271C391.233 269.28 391.184 269.284 391.135 269.284Z" fill="#CCCCCC"/>
<path d="M409.442 210.331C410.271 204.459 407.135 199.162 402.437 198.498C397.74 197.835 393.26 202.058 392.431 207.93C391.732 212.882 393.859 217.414 397.358 219.113L397.159 220.525L401.412 221.125L401.611 219.714C405.444 219.049 408.743 215.283 409.442 210.331Z" fill="#FF6584"/>
<path d="M389.694 207.659C388.677 201.817 384.064 197.741 379.39 198.555C374.716 199.369 371.752 204.765 372.77 210.607C373.628 215.534 377.046 219.192 380.899 219.733L381.143 221.137L385.374 220.4L385.13 218.996C388.573 217.184 390.553 212.586 389.694 207.659Z" fill="#CCCCCC"/>
<path d="M391.089 268.257C390.861 268.257 390.642 268.167 390.481 268.005C390.32 267.844 390.229 267.625 390.229 267.397V216.534C390.229 216.306 390.32 216.087 390.481 215.926C390.642 215.764 390.861 215.674 391.089 215.674C391.317 215.674 391.536 215.764 391.697 215.926C391.858 216.087 391.949 216.306 391.949 216.534V267.397C391.949 267.625 391.858 267.844 391.697 268.005C391.536 268.167 391.317 268.257 391.089 268.257Z" fill="#CCCCCC"/>
<path d="M399.146 206.764C399.146 200.834 395.3 196.026 390.556 196.026C385.812 196.026 381.966 200.834 381.966 206.764C381.966 211.765 384.706 215.955 388.409 217.149V218.574H392.703V217.149C396.406 215.955 399.146 211.765 399.146 206.764Z" fill="#6D79FF"/>
<path d="M570.045 304H0.955316C0.701949 304 0.458962 303.895 0.279805 303.707C0.100648 303.52 0 303.265 0 303C0 302.735 0.100648 302.48 0.279805 302.293C0.458962 302.105 0.701949 302 0.955316 302H570.045C570.298 302 570.541 302.105 570.72 302.293C570.899 302.48 571 302.735 571 303C571 303.265 570.899 303.52 570.72 303.707C570.541 303.895 570.298 304 570.045 304Z" fill="#CCCCCC"/>
<path d="M434.877 302.139L432.921 302.138L431.99 294.595H434.877V302.139Z" fill="#A0616A"/>
<path d="M431.245 301.58H435.296V303.955H429.149V303.676C429.149 303.401 429.204 303.128 429.309 302.874C429.414 302.62 429.569 302.389 429.763 302.194C429.958 301.999 430.189 301.845 430.443 301.74C430.698 301.634 430.97 301.58 431.245 301.58Z" fill="#2F2E41"/>
<path d="M449.067 299.923L447.288 300.736L443.308 294.262L445.933 293.062L449.067 299.923Z" fill="#A0616A"/>
<path d="M445.532 300.924L449.216 299.241L450.202 301.401L444.612 303.955L444.496 303.701C444.381 303.451 444.318 303.18 444.308 302.905C444.298 302.63 444.342 302.356 444.438 302.098C444.535 301.84 444.681 301.604 444.868 301.402C445.056 301.201 445.281 301.038 445.532 300.924Z" fill="#2F2E41"/>
<path d="M434.752 300.15H432.884C432.702 300.149 432.528 300.08 432.395 299.957C432.263 299.833 432.181 299.665 432.168 299.484L431.149 272.277C431.141 272.173 431.157 272.068 431.194 271.971C431.231 271.873 431.289 271.784 431.363 271.711C431.438 271.638 431.528 271.583 431.627 271.548C431.725 271.513 431.83 271.501 431.935 271.511L442.739 272.658C442.914 272.675 443.077 272.756 443.197 272.885C443.316 273.015 443.384 273.183 443.387 273.359L443.614 285.36C443.615 285.425 443.628 285.49 443.651 285.551L448.083 297.044C448.117 297.133 448.134 297.228 448.131 297.323C448.128 297.418 448.107 297.512 448.067 297.598C448.028 297.685 447.972 297.763 447.902 297.828C447.833 297.893 447.751 297.943 447.662 297.976L445.768 298.673C445.604 298.734 445.423 298.732 445.26 298.669C445.096 298.605 444.962 298.484 444.882 298.328L439.437 287.741C439.408 287.684 439.386 287.623 439.373 287.559L438.443 283.078C438.416 282.948 438.343 282.832 438.238 282.75C438.134 282.669 438.003 282.627 437.871 282.633C437.738 282.639 437.612 282.693 437.515 282.783C437.418 282.874 437.356 282.996 437.341 283.128L435.465 299.514C435.445 299.689 435.361 299.85 435.23 299.968C435.098 300.085 434.928 300.15 434.752 300.15Z" fill="#2F2E41"/>
<path d="M435.682 251.005C437.846 251.005 439.6 249.25 439.6 247.087C439.6 244.923 437.846 243.169 435.682 243.169C433.518 243.169 431.764 244.923 431.764 247.087C431.764 249.25 433.518 251.005 435.682 251.005Z" fill="#A0616A"/>
<path d="M438.384 274.76C435.857 274.729 433.384 274.022 431.222 272.713C431.111 272.645 431.02 272.547 430.961 272.431C430.901 272.314 430.875 272.184 430.884 272.053L431.837 258.435C431.898 257.516 432.174 256.624 432.641 255.83C433.109 255.037 433.755 254.364 434.53 253.865C435.269 253.375 436.113 253.065 436.994 252.96C437.875 252.856 438.768 252.958 439.602 253.26C439.97 253.387 440.317 253.567 440.633 253.795C441.648 254.518 442.445 255.506 442.937 256.651C443.429 257.796 443.598 259.055 443.424 260.289C442.725 265.588 443.517 272.736 443.609 273.533L443.616 273.591L443.563 273.615C441.941 274.369 440.173 274.76 438.384 274.76Z" fill="#6D79FF"/>
<path d="M443.371 276.705C443.558 276.564 443.713 276.384 443.823 276.177C443.933 275.97 443.996 275.741 444.008 275.507C444.021 275.273 443.981 275.039 443.893 274.821C443.805 274.604 443.671 274.409 443.499 274.249L445.798 269.033L442.877 269.528L441.142 274.405C440.893 274.711 440.765 275.099 440.782 275.493C440.799 275.887 440.96 276.262 441.235 276.545C441.51 276.829 441.879 277.002 442.273 277.031C442.666 277.061 443.057 276.945 443.371 276.705Z" fill="#A0616A"/>
<path d="M443.591 273.483C443.492 273.483 443.394 273.462 443.303 273.422C443.212 273.382 443.13 273.324 443.063 273.25L442.206 272.315C442.123 272.224 442.064 272.112 442.036 271.992C442.008 271.871 442.012 271.746 442.047 271.627L444.01 264.984L441.023 258.712C440.892 258.436 440.86 258.124 440.932 257.827C440.996 257.567 441.137 257.332 441.337 257.154C441.537 256.975 441.786 256.861 442.052 256.827C442.318 256.793 442.587 256.841 442.826 256.963C443.064 257.086 443.26 257.278 443.387 257.514L447.424 264.065C447.581 264.319 447.673 264.608 447.692 264.907C447.712 265.205 447.657 265.504 447.534 265.776L444.246 273.061C444.198 273.169 444.123 273.263 444.028 273.336C443.934 273.408 443.823 273.455 443.706 273.474C443.668 273.48 443.63 273.483 443.591 273.483Z" fill="#6D79FF"/>
<path d="M438.91 250.541C438.504 250.61 438.17 250.045 438.119 249.647C438.123 249.253 438.16 248.861 438.229 248.473C438.252 248.267 438.208 248.059 438.103 247.881C437.999 247.702 437.839 247.562 437.648 247.481C437.218 247.358 436.819 247.703 436.379 247.661C435.765 247.604 435.457 246.885 435.383 246.304C435.308 245.723 435.25 245.035 434.718 244.704C434.188 244.373 433.533 244.614 432.924 244.624C432.403 244.618 431.898 244.447 431.481 244.135C431.065 243.823 430.758 243.386 430.606 242.888C430.731 242.924 430.865 242.917 430.985 242.869C431.106 242.821 431.207 242.734 431.272 242.621C431.324 242.502 431.334 242.368 431.302 242.242C431.27 242.116 431.197 242.003 431.095 241.923L432.261 242.494C432.232 242.414 432.219 242.328 432.224 242.242C432.229 242.156 432.252 242.073 432.29 241.996C432.329 241.92 432.383 241.852 432.449 241.797C432.515 241.742 432.592 241.701 432.674 241.677C433.028 241.584 433.4 241.58 433.757 241.666C435.583 241.95 437.699 241.81 438.91 243.203C439.824 244.333 440.33 245.738 440.346 247.191C440.056 248.379 439.571 249.511 438.91 250.541Z" fill="#2F2E41"/>
<path d="M418.136 257.22C418.34 257.103 418.567 257.033 418.8 257.015C419.034 256.996 419.269 257.028 419.489 257.11C419.709 257.192 419.908 257.32 420.073 257.487C420.237 257.654 420.363 257.856 420.442 258.077L426.142 258.035L424.529 260.52L419.363 260.178C418.983 260.285 418.577 260.249 418.222 260.077C417.867 259.905 417.587 259.609 417.436 259.244C417.284 258.879 417.272 258.472 417.401 258.099C417.53 257.725 417.792 257.413 418.136 257.22Z" fill="#A0616A"/>
<path d="M421.102 259.928C421.082 259.83 421.082 259.73 421.103 259.633C421.123 259.535 421.164 259.443 421.222 259.363L421.963 258.333C422.035 258.233 422.132 258.153 422.245 258.101C422.357 258.049 422.481 258.027 422.604 258.037L429.272 257.758L435.039 254.401C435.282 254.217 435.582 254.122 435.887 254.132C436.154 254.141 436.413 254.231 436.629 254.391C436.844 254.55 437.006 254.771 437.094 255.024C437.181 255.277 437.19 255.551 437.119 255.81C437.047 256.068 436.899 256.299 436.694 256.471L431.104 261.759C430.887 261.965 430.623 262.114 430.334 262.194C430.046 262.273 429.743 262.281 429.451 262.216L421.649 260.483C421.533 260.457 421.425 260.403 421.335 260.325C421.246 260.248 421.176 260.149 421.134 260.038C421.121 260.002 421.11 259.965 421.102 259.928Z" fill="#6D79FF"/>
<path d="M323.084 298.926C323.165 298.699 323.195 298.456 323.172 298.216C323.149 297.976 323.073 297.743 322.95 297.535C322.828 297.327 322.661 297.149 322.462 297.012C322.263 296.876 322.036 296.784 321.798 296.745L320.808 290.96L318.582 293.044L319.863 298.218C319.823 298.623 319.933 299.028 320.172 299.357C320.411 299.686 320.762 299.916 321.159 300.003C321.556 300.09 321.972 300.029 322.326 299.83C322.681 299.632 322.951 299.31 323.084 298.926Z" fill="#FFB8B8"/>
<path d="M321.605 296.159L319.419 296.732C319.315 296.759 319.205 296.744 319.112 296.691C319.018 296.638 318.95 296.55 318.92 296.447L314.992 282.531L313.806 278.981C313.691 278.639 313.665 278.273 313.73 277.918C313.795 277.564 313.949 277.231 314.177 276.951C314.404 276.672 314.699 276.455 315.034 276.32C315.368 276.185 315.732 276.137 316.09 276.18C316.504 276.23 316.895 276.4 317.214 276.669C317.533 276.939 317.766 277.296 317.884 277.696L321.022 288.305L321.909 295.713C321.918 295.795 321.903 295.879 321.864 295.952C321.826 296.026 321.766 296.086 321.693 296.125C321.665 296.139 321.635 296.151 321.605 296.159Z" fill="#6D79FF"/>
<path d="M313.617 273.832C315.845 273.832 317.651 272.026 317.651 269.799C317.651 267.571 315.845 265.765 313.617 265.765C311.389 265.765 309.583 267.571 309.583 269.799C309.583 272.026 311.389 273.832 313.617 273.832Z" fill="#FFB8B8"/>
<path d="M301.74 324.983L299.81 324.409L301.106 316.691L303.955 317.539L301.74 324.983Z" fill="#FFB8B8"/>
<path d="M301.676 327L295.453 325.148L295.476 325.07C295.571 324.752 295.727 324.455 295.936 324.198C296.145 323.94 296.403 323.726 296.695 323.568C296.987 323.41 297.307 323.311 297.637 323.277C297.967 323.242 298.301 323.273 298.619 323.368H298.619L302.42 324.499L301.676 327Z" fill="#2F2E41"/>
<path d="M322.884 324.884L320.87 324.883L319.913 317.117L321.899 317.118L322.884 324.884Z" fill="#FFB8B8"/>
<path d="M323.397 326.836L316.905 326.836V326.753C316.905 326.422 316.97 326.093 317.097 325.786C317.224 325.48 317.41 325.201 317.645 324.966C317.88 324.732 318.158 324.546 318.465 324.419C318.771 324.292 319.1 324.226 319.432 324.226H319.432L323.397 324.227L323.397 326.836Z" fill="#2F2E41"/>
<path d="M302.482 322.699H300.46C300.352 322.699 300.245 322.675 300.147 322.629C300.049 322.583 299.962 322.516 299.892 322.433C299.823 322.35 299.773 322.252 299.745 322.148C299.718 322.043 299.714 321.933 299.733 321.827C298.444 321.253 305.386 287.963 307.026 288.608L307.08 288.53L315.339 289.204C319.038 296.608 321.38 308.859 323.571 321.649C323.598 321.755 323.601 321.866 323.58 321.973C323.559 322.081 323.514 322.182 323.449 322.27C323.384 322.358 323.3 322.431 323.204 322.482C323.107 322.534 323 322.564 322.891 322.569L320.619 322.679C320.466 322.687 320.313 322.647 320.184 322.563C320.054 322.48 319.954 322.359 319.897 322.215L311.194 300.459C311.177 300.411 311.145 300.371 311.103 300.343C311.061 300.315 311.01 300.301 310.96 300.304C310.91 300.305 310.861 300.321 310.82 300.35C310.779 300.38 310.749 300.422 310.733 300.469L303.18 322.203C303.13 322.348 303.035 322.473 302.91 322.562C302.785 322.651 302.636 322.699 302.482 322.699Z" fill="#2F2E41"/>
<path d="M315.512 289.856L315.449 289.851L306.656 289.188L308.198 279.378C308.367 278.283 308.886 277.272 309.677 276.496C310.468 275.72 311.489 275.22 312.587 275.072C312.655 275.063 312.723 275.053 312.791 275.044C313.654 274.931 314.531 275.041 315.339 275.364C316.147 275.687 316.858 276.213 317.404 276.89C317.963 277.572 318.338 278.385 318.492 279.253C318.646 280.121 318.574 281.013 318.283 281.845L315.512 289.856Z" fill="#6D79FF"/>
<path d="M321.45 274.413C318.676 275.682 314.913 275.455 310.61 274.413C311.206 272.782 311.67 271.207 311.143 270.051C310.931 269.614 310.811 269.138 310.791 268.653C310.771 268.168 310.852 267.684 311.028 267.232C311.44 266.245 312.135 265.403 313.025 264.81C313.916 264.217 314.961 263.901 316.03 263.901C317.468 263.901 318.846 264.473 319.863 265.489C320.879 266.505 321.45 267.884 321.45 269.321L321.45 274.413Z" fill="#2F2E41"/>
<path d="M312.552 264.27H315.537V268.512H308.311C308.311 267.955 308.42 267.403 308.633 266.889C308.847 266.374 309.159 265.906 309.553 265.513C309.947 265.119 310.414 264.806 310.929 264.593C311.443 264.38 311.995 264.27 312.552 264.27Z" fill="#2F2E41"/>
<path d="M306.465 299.839C306.643 299.676 306.783 299.475 306.876 299.252C306.968 299.029 307.01 298.788 306.999 298.547C306.988 298.306 306.925 298.07 306.813 297.856C306.701 297.642 306.544 297.455 306.352 297.309L308.188 291.734L305.244 292.533L303.952 297.704C303.727 298.043 303.634 298.452 303.691 298.854C303.748 299.257 303.951 299.625 304.26 299.888C304.57 300.151 304.966 300.291 305.372 300.282C305.779 300.273 306.168 300.115 306.465 299.839Z" fill="#FFB8B8"/>
<path d="M306.456 296.701L304.257 296.183C304.152 296.158 304.062 296.093 304.004 296.002C303.947 295.912 303.927 295.802 303.949 295.697L307.001 281.563L307.617 277.87C307.676 277.515 307.824 277.18 308.048 276.897C308.271 276.614 308.563 276.392 308.895 276.252C309.227 276.112 309.59 276.058 309.949 276.095C310.307 276.133 310.651 276.261 310.947 276.467C311.29 276.705 311.555 277.038 311.71 277.426C311.866 277.813 311.904 278.238 311.821 278.647L309.622 289.489L306.933 296.449C306.903 296.526 306.85 296.593 306.782 296.639C306.714 296.686 306.633 296.711 306.55 296.711C306.518 296.711 306.487 296.708 306.456 296.701Z" fill="#6D79FF"/>
<path d="M374.437 265.982C374.352 266.004 374.268 266.032 374.188 266.067L367.579 261.804L367.67 259.895L364.808 259.381L364.318 262.744C364.279 263.016 364.328 263.293 364.46 263.534C364.591 263.775 364.797 263.967 365.047 264.081L373.186 267.797C373.227 268.132 373.369 268.448 373.593 268.701C373.817 268.954 374.113 269.133 374.441 269.213C374.769 269.294 375.114 269.273 375.43 269.153C375.746 269.033 376.018 268.82 376.21 268.542C376.402 268.263 376.504 267.933 376.504 267.595C376.503 267.257 376.4 266.927 376.207 266.649C376.015 266.371 375.742 266.159 375.426 266.039C375.11 265.92 374.765 265.9 374.437 265.982H374.437Z" fill="#FFB8B8"/>
<path d="M367.309 261.686L363.765 261.032C363.664 261.013 363.568 260.973 363.484 260.914C363.4 260.855 363.33 260.779 363.278 260.69C363.227 260.602 363.194 260.503 363.184 260.401C363.174 260.299 363.186 260.196 363.219 260.099L364.382 256.699C364.479 256.183 364.777 255.726 365.211 255.429C365.645 255.132 366.179 255.02 366.696 255.117C367.212 255.214 367.669 255.512 367.966 255.946C368.263 256.38 368.375 256.914 368.278 257.43L368.152 261.01C368.148 261.112 368.122 261.213 368.076 261.304C368.03 261.396 367.965 261.477 367.885 261.541C367.805 261.605 367.712 261.651 367.613 261.676C367.514 261.701 367.41 261.705 367.309 261.686Z" fill="#3F3D56"/>
<path d="M379.634 252.465C379.614 252.55 379.602 252.637 379.596 252.725L372.784 256.655L371.128 255.702L369.363 258.012L372.13 259.985C372.354 260.144 372.623 260.227 372.897 260.22C373.172 260.213 373.437 260.118 373.652 259.948L380.677 254.406C380.994 254.523 381.339 254.541 381.667 254.458C381.994 254.374 382.288 254.193 382.51 253.938C382.732 253.683 382.871 253.366 382.909 253.03C382.947 252.694 382.881 252.355 382.721 252.057C382.561 251.759 382.314 251.517 382.013 251.363C381.712 251.209 381.372 251.15 381.037 251.195C380.702 251.239 380.388 251.384 380.137 251.611C379.887 251.838 379.711 252.136 379.634 252.465L379.634 252.465Z" fill="#FFB8B8"/>
<path d="M372.556 256.841L370.354 259.695C370.291 259.776 370.212 259.842 370.121 259.89C370.031 259.938 369.931 259.965 369.828 259.971C369.726 259.977 369.623 259.96 369.528 259.923C369.433 259.885 369.346 259.827 369.275 259.754L366.783 257.165C366.367 256.843 366.097 256.369 366.032 255.848C365.966 255.326 366.11 254.8 366.432 254.385C366.755 253.969 367.229 253.699 367.75 253.634C368.272 253.568 368.798 253.712 369.213 254.034L372.339 255.782C372.429 255.832 372.506 255.901 372.567 255.984C372.627 256.067 372.669 256.162 372.69 256.262C372.711 256.363 372.709 256.466 372.686 256.566C372.663 256.666 372.618 256.76 372.556 256.841V256.841Z" fill="#CCCCCC"/>
<path d="M363.539 250.028C365.691 250.028 367.434 248.284 367.434 246.133C367.434 243.982 365.691 242.238 363.539 242.238C361.388 242.238 359.645 243.982 359.645 246.133C359.645 248.284 361.388 250.028 363.539 250.028Z" fill="#FFB8B8"/>
<path d="M367.217 301.901H369.161L370.085 294.402H367.216L367.217 301.901Z" fill="#FFB8B8"/>
<path d="M366.721 301.266L370.549 301.266H370.55C370.87 301.266 371.187 301.329 371.483 301.452C371.779 301.574 372.048 301.754 372.275 301.981C372.502 302.207 372.681 302.476 372.804 302.772C372.926 303.068 372.99 303.385 372.99 303.706V303.785L366.721 303.785L366.721 301.266Z" fill="#2F2E41"/>
<path d="M360.556 301.901H362.5L363.425 294.402H360.556V301.901Z" fill="#FFB8B8"/>
<path d="M360.06 301.266L363.889 301.266H363.889C364.209 301.266 364.527 301.329 364.823 301.452C365.119 301.574 365.388 301.754 365.614 301.981C365.841 302.207 366.021 302.476 366.143 302.772C366.266 303.068 366.329 303.385 366.329 303.706V303.785L360.06 303.785L360.06 301.266Z" fill="#2F2E41"/>
<path d="M366.633 299.055L364.65 283.711C364.649 283.691 364.64 283.672 364.625 283.658C364.61 283.644 364.59 283.637 364.569 283.637C364.559 283.637 364.549 283.639 364.54 283.642C364.53 283.646 364.521 283.652 364.514 283.659C364.507 283.666 364.501 283.675 364.497 283.684C364.493 283.693 364.491 283.704 364.491 283.714L363.921 298.834C363.915 299.019 363.837 299.194 363.704 299.322C363.571 299.45 363.393 299.522 363.208 299.521H360.854C360.667 299.522 360.487 299.45 360.354 299.319C360.22 299.189 360.144 299.011 360.14 298.825L359.529 273.632L370.067 273.737L370.331 299.011C370.328 299.111 370.305 299.21 370.262 299.301C370.218 299.392 370.157 299.472 370.08 299.538C370.005 299.602 369.918 299.65 369.824 299.678C369.729 299.707 369.63 299.715 369.532 299.703L367.248 299.709C367.086 299.687 366.937 299.61 366.825 299.491C366.713 299.372 366.645 299.218 366.633 299.055Z" fill="#2F2E41"/>
<path d="M359.373 274.321C359.255 274.276 359.151 274.2 359.072 274.102C358.993 274.004 358.941 273.886 358.922 273.761L358.817 259.916C358.351 256.833 357.801 253.812 360.496 252.25L360.733 251.538C360.759 251.461 360.808 251.393 360.873 251.345C360.939 251.297 361.017 251.269 361.098 251.267L366.211 251.121C366.291 251.118 366.369 251.139 366.436 251.182C366.504 251.225 366.556 251.287 366.587 251.361L366.967 252.248L367.102 252.325C368.387 253.057 369.427 254.152 370.093 255.472C370.758 256.793 371.02 258.28 370.845 259.748L370.552 262.216L370.345 273.751C370.342 273.878 370.306 274.002 370.24 274.11C370.174 274.218 370.081 274.307 369.97 274.368C368.524 275.119 366.911 275.495 365.282 275.459C363.261 275.423 361.262 275.038 359.373 274.321Z" fill="#CCCCCC"/>
<path d="M363.413 250.172C362.827 250.185 362.244 250.073 361.704 249.845C361.164 249.616 360.679 249.276 360.28 248.847C359.88 248.417 359.576 247.908 359.388 247.353C359.2 246.798 359.131 246.209 359.186 245.625C359.241 245.042 359.42 244.476 359.709 243.966C359.998 243.456 360.392 243.013 360.865 242.667C361.338 242.32 361.879 242.077 362.452 241.954C363.025 241.831 363.618 241.831 364.192 241.954C365.035 241.398 366.033 241.125 367.042 241.173C367.544 241.204 368.028 241.371 368.443 241.654C368.858 241.938 369.189 242.328 369.4 242.784C369.589 243.249 369.595 243.768 369.418 244.238C369.241 244.707 368.893 245.093 368.445 245.318C367.825 245.497 367.168 245.506 366.543 245.345C365.916 245.184 365.252 245.243 364.663 245.511C364.11 245.839 363.862 246.717 364.357 247.127C364.619 247.352 364.806 247.653 364.894 247.988C364.981 248.322 364.964 248.676 364.846 249.001C364.73 249.304 364.536 249.572 364.285 249.777C364.034 249.982 363.733 250.119 363.413 250.172Z" fill="#2F2E41"/>
<path d="M137.55 324.81H139.445L140.346 317.502H137.549L137.55 324.81Z" fill="#FFB8B8"/>
<path d="M136.714 327L136.714 323.84L140.798 323.839C141.522 323.84 142.216 324.128 142.728 324.64C143.24 325.152 143.528 325.846 143.529 326.57V327L136.714 327Z" fill="#2F2E41"/>
<path d="M127.338 324.81H129.232L130.133 317.502H127.337L127.338 324.81Z" fill="#FFB8B8"/>
<path d="M126.502 327L126.501 323.84L130.586 323.839C131.309 323.84 132.004 324.128 132.515 324.64C133.027 325.152 133.315 325.846 133.316 326.57V327L126.502 327Z" fill="#2F2E41"/>
<path d="M132.886 272.856C135.134 272.856 136.957 271.034 136.957 268.786C136.957 266.538 135.134 264.715 132.886 264.715C130.638 264.715 128.815 266.538 128.815 268.786C128.815 271.034 130.638 272.856 132.886 272.856Z" fill="#FFB8B8"/>
<path d="M146.805 295.333C146.777 295.108 146.699 294.891 146.578 294.699C146.457 294.507 146.295 294.343 146.104 294.221C145.913 294.098 145.697 294.018 145.472 293.988C145.247 293.957 145.018 293.976 144.801 294.044L142.526 291.317L140.532 292.295L143.798 296.101C143.936 296.458 144.2 296.752 144.54 296.927C144.88 297.103 145.272 297.147 145.643 297.053C146.014 296.958 146.337 296.731 146.551 296.414C146.765 296.097 146.856 295.712 146.805 295.333Z" fill="#FFB8B8"/>
<path d="M127.226 298.091C127.323 297.886 127.374 297.662 127.375 297.434C127.376 297.207 127.327 296.983 127.232 296.776C127.136 296.57 126.997 296.387 126.823 296.241C126.65 296.094 126.446 295.987 126.227 295.928L125.77 292.406L123.562 292.162L124.277 297.126C124.202 297.501 124.267 297.891 124.459 298.221C124.652 298.552 124.959 298.8 125.323 298.919C125.686 299.038 126.081 299.019 126.432 298.867C126.783 298.714 127.065 298.438 127.226 298.091H127.226Z" fill="#FFB8B8"/>
<path d="M129.484 276.474C129.268 276.196 128.982 275.981 128.655 275.848C128.328 275.716 127.973 275.673 127.624 275.722C127.275 275.771 126.946 275.912 126.668 276.129C126.391 276.346 126.176 276.633 126.045 276.96L122.709 285.287C122.368 286.138 122.259 287.064 122.394 287.971L123.48 295.289C123.494 295.384 123.529 295.474 123.581 295.554C123.633 295.634 123.702 295.702 123.782 295.753C123.863 295.803 123.954 295.836 124.049 295.849C124.143 295.862 124.239 295.854 124.331 295.826L125.762 295.386C125.911 295.34 126.038 295.244 126.123 295.114C126.208 294.984 126.244 294.829 126.226 294.675C125.721 290.366 126.389 286.001 128.159 282.041L129.732 278.522C129.881 278.191 129.936 277.825 129.892 277.464C129.848 277.103 129.707 276.761 129.484 276.474Z" fill="#CCCCCC"/>
<path d="M131.895 272.856C131.282 272.87 130.674 272.753 130.109 272.514C129.545 272.276 129.037 271.92 128.62 271.471C128.203 271.023 127.885 270.491 127.688 269.91C127.492 269.33 127.42 268.715 127.477 268.105C127.535 267.495 127.721 266.904 128.024 266.371C128.326 265.838 128.738 265.375 129.232 265.012C129.726 264.65 130.292 264.396 130.891 264.268C131.49 264.139 132.109 264.139 132.709 264.267C133.59 263.687 134.633 263.401 135.688 263.451C136.212 263.484 136.718 263.658 137.152 263.954C137.585 264.251 137.931 264.659 138.153 265.135C138.35 265.621 138.356 266.164 138.171 266.654C137.986 267.145 137.623 267.548 137.154 267.783C136.506 267.97 135.819 267.98 135.166 267.811C134.51 267.643 133.817 267.704 133.201 267.985C132.624 268.327 132.364 269.246 132.881 269.674C133.155 269.91 133.351 270.223 133.442 270.573C133.534 270.923 133.516 271.293 133.392 271.633C133.271 271.949 133.069 272.229 132.806 272.444C132.544 272.658 132.229 272.801 131.895 272.856Z" fill="#2F2E41"/>
<path d="M126.844 295.172L126.122 322.575C126.12 322.666 126.136 322.757 126.171 322.842C126.205 322.926 126.257 323.003 126.322 323.067C126.387 323.131 126.465 323.18 126.551 323.213C126.636 323.245 126.728 323.259 126.819 323.254L129.197 323.133C129.349 323.125 129.494 323.066 129.607 322.964C129.72 322.862 129.795 322.725 129.818 322.575L132.648 304.777C132.66 304.701 132.698 304.631 132.756 304.58C132.814 304.529 132.888 304.5 132.965 304.497C133.042 304.495 133.117 304.52 133.178 304.567C133.239 304.614 133.282 304.681 133.299 304.756L137.128 321.893C137.149 321.985 137.188 322.071 137.245 322.146C137.301 322.221 137.373 322.283 137.455 322.329C137.537 322.374 137.628 322.402 137.721 322.409C137.815 322.417 137.909 322.405 137.997 322.373L140.358 322.229C140.495 322.18 140.612 322.088 140.691 321.967C140.77 321.846 140.808 321.702 140.797 321.557L138.737 294.913L126.844 295.172Z" fill="#2F2E41"/>
<path d="M125.686 282.157C125.585 281.169 125.682 280.17 125.971 279.22C126.261 278.27 126.737 277.387 127.371 276.624C128.006 275.86 128.787 275.23 129.668 274.771C130.548 274.313 131.512 274.034 132.502 273.953C134.295 273.825 137.078 273.78 137.996 276.13C140.76 283.209 135.921 283.037 137.588 289.17C139.255 295.304 140.728 295.655 138.44 296.098C136.153 296.541 125.866 299.156 126.289 294.839C126.548 292.185 126.083 286.299 125.686 282.157Z" fill="#CCCCCC"/>
<path d="M137.506 275.41C137.178 275.283 136.822 275.244 136.474 275.299C136.125 275.353 135.798 275.499 135.524 275.72C135.25 275.942 135.04 276.232 134.913 276.561C134.787 276.89 134.75 277.246 134.806 277.594L136.105 285.714C136.327 287.102 136.914 288.406 137.806 289.493L142.026 294.635C142.087 294.709 142.162 294.769 142.248 294.811C142.334 294.853 142.428 294.875 142.523 294.877C142.619 294.88 142.713 294.861 142.801 294.823C142.889 294.786 142.967 294.729 143.031 294.658L144.033 293.545C144.137 293.43 144.197 293.282 144.203 293.127C144.209 292.972 144.161 292.82 144.066 292.697L143.771 292.314C141.316 289.128 139.767 285.339 139.288 281.346L138.772 277.039C138.729 276.678 138.588 276.336 138.365 276.049C138.142 275.762 137.845 275.541 137.506 275.41Z" fill="#CCCCCC"/>
<path d="M146.999 297.22C147.208 297.116 147.392 296.967 147.537 296.785C147.682 296.602 147.786 296.39 147.84 296.163C147.895 295.936 147.899 295.7 147.852 295.471C147.805 295.243 147.709 295.027 147.57 294.84L148.764 283.169H146.184L145.235 294.565C144.936 294.819 144.74 295.175 144.686 295.564C144.631 295.953 144.721 296.349 144.938 296.676C145.155 297.003 145.485 297.239 145.865 297.34C146.245 297.44 146.649 297.397 146.999 297.22V297.22Z" fill="#A0616A"/>
<path d="M149.367 276.728C151.383 276.728 153.017 275.094 153.017 273.078C153.017 271.062 151.383 269.428 149.367 269.428C147.352 269.428 145.718 271.062 145.718 273.078C145.718 275.094 147.352 276.728 149.367 276.728Z" fill="#A0616A"/>
<path d="M150.055 289.965C149.909 289.965 149.767 289.917 149.651 289.829C149.534 289.74 149.451 289.616 149.412 289.475C148.799 287.639 148.043 285.854 147.151 284.136C146.878 283.575 146.727 282.963 146.708 282.34C146.688 281.717 146.801 281.097 147.038 280.52C147.275 279.944 147.632 279.424 148.084 278.995C148.536 278.566 149.074 278.237 149.662 278.03C150.219 277.833 150.811 277.75 151.401 277.786C151.991 277.822 152.568 277.975 153.097 278.238C153.627 278.5 154.099 278.867 154.484 279.315C154.87 279.763 155.162 280.283 155.343 280.846C156.028 283.214 156.308 285.68 156.171 288.141C156.163 288.288 156.107 288.428 156.012 288.539C155.918 288.651 155.789 288.729 155.646 288.76L150.198 289.95C150.151 289.96 150.103 289.965 150.055 289.965Z" fill="#6D79FF"/>
<path d="M155.329 324.623H157.151L158.018 317.596H155.329L155.329 324.623Z" fill="#A0616A"/>
<path d="M161.095 326.744H154.509L154.509 323.672H158.454C158.8 323.672 159.144 323.741 159.464 323.874C159.785 324.006 160.076 324.201 160.321 324.446C160.567 324.692 160.761 324.983 160.894 325.303C161.027 325.624 161.095 325.968 161.095 326.314L161.095 326.744Z" fill="#2F2E41"/>
<path d="M137.112 322.262L138.709 323.14L142.854 317.4L140.498 316.104L137.112 322.262Z" fill="#A0616A"/>
<path d="M141.143 326.898L135.372 323.726L136.852 321.033L140.307 322.934C140.921 323.271 141.376 323.839 141.572 324.512C141.767 325.184 141.687 325.907 141.35 326.521L141.143 326.898Z" fill="#2F2E41"/>
<path d="M155.244 320.723C155.082 320.723 154.925 320.663 154.803 320.556C154.681 320.449 154.603 320.301 154.582 320.14L152.303 302.583C152.293 302.506 152.259 302.433 152.205 302.376C152.152 302.319 152.081 302.281 152.004 302.266C151.927 302.252 151.848 302.262 151.777 302.295C151.706 302.328 151.648 302.383 151.61 302.452L142.114 319.679C142.036 319.819 141.91 319.927 141.759 319.983C141.608 320.038 141.442 320.038 141.291 319.981L139.221 319.193C139.138 319.161 139.062 319.113 138.997 319.051C138.933 318.99 138.882 318.916 138.846 318.834C138.81 318.753 138.792 318.665 138.791 318.576C138.79 318.487 138.806 318.398 138.84 318.316L145.417 302.157C145.434 302.116 145.445 302.073 145.451 302.029C146.342 295.134 148.609 291.627 149.282 290.717C149.331 290.65 149.364 290.572 149.377 290.49C149.389 290.408 149.382 290.324 149.356 290.245L149.263 289.968C149.226 289.858 149.219 289.74 149.241 289.625C149.264 289.511 149.316 289.405 149.392 289.317C151.819 286.553 156.049 288.062 156.091 288.077L156.112 288.085L156.126 288.103C160.868 294.608 159.115 315.734 158.715 319.903C158.7 320.06 158.63 320.206 158.518 320.316C158.405 320.426 158.258 320.493 158.101 320.505L155.296 320.721C155.279 320.722 155.261 320.723 155.244 320.723Z" fill="#2F2E41"/>
<path d="M163.557 277.318C163.539 277.398 163.527 277.479 163.521 277.561L157.138 281.244L155.586 280.351L153.932 282.516L156.525 284.364C156.735 284.514 156.987 284.591 157.244 284.585C157.501 284.578 157.75 284.489 157.952 284.33L164.534 279.137C164.831 279.247 165.154 279.264 165.461 279.185C165.768 279.107 166.044 278.937 166.252 278.698C166.46 278.459 166.59 278.162 166.626 277.848C166.661 277.533 166.599 277.215 166.45 276.936C166.3 276.657 166.068 276.43 165.786 276.285C165.504 276.141 165.185 276.086 164.871 276.127C164.557 276.169 164.263 276.305 164.028 276.518C163.794 276.73 163.629 277.009 163.557 277.318Z" fill="#A0616A"/>
<path d="M156.924 281.418L154.861 284.092C154.802 284.168 154.728 284.231 154.643 284.275C154.558 284.32 154.464 284.346 154.368 284.351C154.272 284.357 154.176 284.341 154.087 284.306C153.997 284.271 153.917 284.217 153.85 284.148L151.514 281.722C151.127 281.42 150.876 280.976 150.815 280.488C150.754 280 150.89 279.508 151.191 279.12C151.492 278.732 151.935 278.479 152.423 278.417C152.91 278.355 153.403 278.488 153.792 278.788L156.721 280.426C156.805 280.473 156.878 280.538 156.935 280.615C156.991 280.693 157.031 280.782 157.05 280.876C157.069 280.97 157.068 281.067 157.046 281.161C157.024 281.254 156.983 281.342 156.924 281.418H156.924Z" fill="#6D79FF"/>
<path d="M148.928 286.064L145.604 285.464C145.51 285.447 145.42 285.409 145.341 285.354C145.262 285.3 145.196 285.228 145.147 285.146C145.098 285.063 145.068 284.97 145.058 284.875C145.048 284.779 145.059 284.683 145.089 284.592L146.167 281.402C146.257 280.918 146.535 280.49 146.94 280.212C147.345 279.933 147.844 279.827 148.328 279.915C148.811 280.004 149.24 280.281 149.52 280.685C149.799 281.09 149.907 281.589 149.82 282.072L149.715 285.427C149.712 285.523 149.688 285.617 149.645 285.703C149.603 285.789 149.542 285.865 149.467 285.926C149.392 285.986 149.305 286.03 149.212 286.054C149.119 286.077 149.022 286.081 148.928 286.064Z" fill="#6D79FF"/>
<path d="M149.945 272.239C150.883 272.881 152.115 273.541 153.073 272.857C153.373 272.629 153.59 272.309 153.694 271.947C153.797 271.585 153.78 271.199 153.645 270.847C153.187 269.535 151.926 268.958 150.721 268.515C149.189 267.823 147.486 267.607 145.83 267.894C144.213 268.306 142.783 269.872 143.075 271.515C143.31 272.837 144.557 273.937 144.38 275.267C144.202 276.607 142.696 277.312 141.366 277.551C140.036 277.79 138.548 277.867 137.593 278.822C136.374 280.041 136.678 282.218 137.825 283.504C139.078 284.705 140.667 285.495 142.38 285.77C144.603 286.295 147.006 286.571 149.117 285.7C151.227 284.828 152.87 282.482 152.258 280.282C151.936 279.37 151.443 278.528 150.804 277.803C150.164 277.076 149.685 276.224 149.396 275.3C149.293 274.911 149.281 274.502 149.363 274.107C149.444 273.712 149.617 273.342 149.866 273.025C149.96 272.922 150.02 272.792 150.035 272.654C150.051 272.515 150.023 272.375 149.954 272.254L149.945 272.239Z" fill="#2F2E41"/>
</svg>
