<svg width="457" height="45" viewBox="0 0 457 45" fill="none" xmlns="http://www.w3.org/2000/svg">
<path d="M7.16 38.54L8.58775 37.1395L7.16 38.54ZM7.16 7.46L8.58105 8.86738L8.58775 8.86055L7.16 7.46ZM33.32 3.86L32.3395 5.60315L32.3524 5.61039L32.3653 5.61744L33.32 3.86ZM40.88 11.06L41.8832 12.7902L43.6293 11.7778L42.601 10.041L40.88 11.06ZM33.74 15.2L31.9899 16.1681L32.9778 17.9538L34.7432 16.9302L33.74 15.2ZM29.3 10.82L28.3195 12.5631L28.3334 12.571L28.3474 12.5786L29.3 10.82ZM12.92 13.04L11.4947 11.637L11.4891 11.6427L11.4835 11.6484L12.92 13.04ZM12.92 32.9L11.4835 34.2916L11.4891 34.2973L11.4947 34.303L12.92 32.9ZM29.3 35.18L30.2526 36.9386L30.2589 36.9352L30.2652 36.9317L29.3 35.18ZM33.74 30.8L34.7432 29.0698L32.9645 28.0385L31.9828 29.845L33.74 30.8ZM40.88 34.94L42.601 35.959L43.6293 34.2222L41.8832 33.2098L40.88 34.94ZM33.38 42.2L34.3438 43.9524L34.3522 43.9478L34.3605 43.9431L33.38 42.2ZM22.82 42.84C16.9929 42.84 12.3018 40.9256 8.58775 37.1395L5.73225 39.9406C10.2582 44.5544 16.0071 46.84 22.82 46.84V42.84ZM8.58775 37.1395C4.85324 33.3324 2.98 28.6636 2.98 23H-1.02C-1.02 29.6564 1.22676 35.3476 5.73225 39.9406L8.58775 37.1395ZM2.98 23C2.98 17.2926 4.85548 12.6291 8.58103 8.86736L5.73897 6.05263C1.22452 10.6109 -1.02 16.3074 -1.02 23H2.98ZM8.58775 8.86055C12.3018 5.07442 16.9929 3.16 22.82 3.16V-0.840003C16.0071 -0.840003 10.2582 1.44557 5.73225 6.05945L8.58775 8.86055ZM22.82 3.16C26.2891 3.16 29.4496 3.97758 32.3395 5.60315L34.3005 2.11685C30.7904 0.142419 26.951 -0.840003 22.82 -0.840003V3.16ZM32.3653 5.61744C35.3024 7.21288 37.5513 9.36371 39.159 12.079L42.601 10.041C40.6087 6.67629 37.8176 4.02712 34.2747 2.10255L32.3653 5.61744ZM39.8768 9.32981L32.7368 13.4698L34.7432 16.9302L41.8832 12.7902L39.8768 9.32981ZM35.4901 14.2319C34.262 12.0119 32.5026 10.2802 30.2526 9.06141L28.3474 12.5786C29.9374 13.4398 31.138 14.6281 31.9899 16.1681L35.4901 14.2319ZM30.2805 9.07685C28.0348 7.81362 25.5319 7.2 22.82 7.2V11.2C24.9081 11.2 26.7252 11.6664 28.3195 12.5631L30.2805 9.07685ZM22.82 7.2C18.2835 7.2 14.4429 8.64196 11.4947 11.637L14.3453 14.443C16.4371 12.318 19.1965 11.2 22.82 11.2V7.2ZM11.4835 11.6484C8.58927 14.636 7.2 18.4818 7.2 23H11.2C11.2 19.3582 12.2907 16.564 14.3565 14.4316L11.4835 11.6484ZM7.2 23C7.2 27.4843 8.59298 31.3078 11.4835 34.2916L14.3565 31.5084C12.287 29.3722 11.2 26.5957 11.2 23H7.2ZM11.4947 34.303C14.4429 37.298 18.2835 38.74 22.82 38.74V34.74C19.1965 34.74 16.4371 33.622 14.3453 31.497L11.4947 34.303ZM22.82 38.74C25.519 38.74 28.0118 38.1523 30.2526 36.9386L28.3474 33.4214C26.7482 34.2877 24.921 34.74 22.82 34.74V38.74ZM30.2652 36.9317C32.5359 35.6805 34.3021 33.9541 35.4973 31.755L31.9828 29.845C31.1779 31.3259 29.9841 32.5195 28.3348 33.4283L30.2652 36.9317ZM32.7368 32.5302L39.8768 36.6702L41.8832 33.2098L34.7432 29.0698L32.7368 32.5302ZM39.159 33.921C37.5452 36.6467 35.3059 38.822 32.3995 40.4568L34.3605 43.9431C37.8541 41.978 40.6148 39.3133 42.601 35.959L39.159 33.921ZM32.4162 40.4476C29.5268 42.0367 26.341 42.84 22.82 42.84V46.84C26.979 46.84 30.8332 45.8833 34.3438 43.9524L32.4162 40.4476ZM65.8752 14V12H63.8752V14H65.8752ZM73.6152 14H75.6152V12H73.6152V14ZM73.6152 44V46H75.6152V44H73.6152ZM65.8752 44H63.8752V46H65.8752V44ZM65.8752 40.64H67.8752V34.0734L64.2147 39.5251L65.8752 40.64ZM48.7752 41.54L47.335 42.9278L47.3415 42.9345L47.348 42.9412L48.7752 41.54ZM45.5952 14V12H43.5952V14H45.5952ZM53.3352 14H55.3352V12H53.3352V14ZM54.9552 36.08L53.5409 37.4942L53.5543 37.5076L53.5679 37.5206L54.9552 36.08ZM65.8752 16H73.6152V12H65.8752V16ZM71.6152 14V44H75.6152V14H71.6152ZM73.6152 42H65.8752V46H73.6152V42ZM67.8752 44V40.64H63.8752V44H67.8752ZM64.2147 39.5251C62.7873 41.6511 60.5087 42.84 56.9352 42.84V46.84C61.5216 46.84 65.203 45.2289 67.5356 41.7549L64.2147 39.5251ZM56.9352 42.84C54.1538 42.84 51.9603 41.9294 50.2023 40.1388L47.348 42.9412C49.91 45.5506 53.1565 46.84 56.9352 46.84V42.84ZM50.2153 40.1522C48.5444 38.4183 47.5952 35.9284 47.5952 32.42H43.5952C43.5952 36.6716 44.7659 40.2617 47.335 42.9278L50.2153 40.1522ZM47.5952 32.42V14H43.5952V32.42H47.5952ZM45.5952 16H53.3352V12H45.5952V16ZM51.3352 14V31.46H55.3352V14H51.3352ZM51.3352 31.46C51.3352 33.8198 51.9803 35.9336 53.5409 37.4942L56.3694 34.6658C55.77 34.0664 55.3352 33.1002 55.3352 31.46H51.3352ZM53.5679 37.5206C55.0931 38.9894 57.0682 39.64 59.2752 39.64V35.64C57.8821 35.64 56.9772 35.2506 56.3424 34.6394L53.5679 37.5206ZM59.2752 39.64C61.7233 39.64 63.875 38.8627 65.5124 37.1708L62.638 34.3892C61.8753 35.1773 60.8271 35.64 59.2752 35.64V39.64ZM65.5124 37.1708C67.2052 35.4216 67.8752 32.9722 67.8752 30.2H63.8752C63.8752 32.3878 63.3451 33.6584 62.638 34.3892L65.5124 37.1708ZM67.8752 30.2V14H63.8752V30.2H67.8752ZM80.7041 44H78.7041V46H80.7041V44ZM80.7041 0.199999V-1.8H78.7041V0.199999H80.7041ZM88.4441 0.199999H90.4441V-1.8H88.4441V0.199999ZM88.4441 44V46H90.4441V44H88.4441ZM82.7041 44V0.199999H78.7041V44H82.7041ZM80.7041 2.2H88.4441V-1.8H80.7041V2.2ZM86.4441 0.199999V44H90.4441V0.199999H86.4441ZM88.4441 42H80.7041V46H88.4441V42ZM112.688 21.44V23.44H114.688V21.44H112.688ZM105.908 21.44V19.44H103.908V21.44H105.908ZM106.688 36.2L105.332 37.6696L106.688 36.2ZM108.968 37.04L108.809 39.0336L108.849 39.0368L108.888 39.0384L108.968 37.04ZM112.688 36.98H114.688V34.869L112.58 34.9829L112.688 36.98ZM112.688 44L112.912 45.9874L114.688 45.7871V44H112.688ZM101.408 42.5L100.218 44.1071L100.225 44.1123L100.232 44.1175L101.408 42.5ZM98.1683 21.44H100.168V19.44H98.1683V21.44ZM92.9483 21.44H90.9483V23.44H92.9483V21.44ZM92.9483 14V12H90.9483V14H92.9483ZM98.1683 14V16H100.168V14H98.1683ZM98.1683 7.94L97.5895 6.02558L96.1683 6.45525V7.94H98.1683ZM105.908 5.6H107.908V2.90594L105.33 3.68558L105.908 5.6ZM105.908 14H103.908V16H105.908V14ZM112.688 14H114.688V12H112.688V14ZM112.688 19.44H105.908V23.44H112.688V19.44ZM103.908 21.44V33.92H107.908V21.44H103.908ZM103.908 33.92C103.908 35.2537 104.241 36.6627 105.332 37.6696L108.045 34.7304C108.096 34.7773 107.908 34.6663 107.908 33.92H103.908ZM105.332 37.6696C106.294 38.5576 107.544 38.9325 108.809 39.0336L109.128 35.0464C108.392 34.9875 108.123 34.8024 108.045 34.7304L105.332 37.6696ZM108.888 39.0384C109.973 39.0818 111.28 39.059 112.796 38.9771L112.58 34.9829C111.136 35.061 109.964 35.0782 109.048 35.0416L108.888 39.0384ZM110.688 36.98V44H114.688V36.98H110.688ZM112.464 42.0126C107.225 42.6034 104.137 42.0114 102.585 40.8825L100.232 44.1175C103.08 46.1886 107.511 46.5966 112.912 45.9874L112.464 42.0126ZM102.599 40.8929C101.174 39.8377 100.168 37.7539 100.168 33.92H96.1683C96.1683 38.3261 97.3223 41.9623 100.218 44.1071L102.599 40.8929ZM100.168 33.92V21.44H96.1683V33.92H100.168ZM98.1683 19.44H92.9483V23.44H98.1683V19.44ZM94.9483 21.44V14H90.9483V21.44H94.9483ZM92.9483 16H98.1683V12H92.9483V16ZM100.168 14V7.94H96.1683V14H100.168ZM98.7471 9.85442L106.487 7.51442L105.33 3.68558L97.5895 6.02558L98.7471 9.85442ZM103.908 5.6V14H107.908V5.6H103.908ZM105.908 16H112.688V12H105.908V16ZM110.688 14V21.44H114.688V14H110.688ZM138.414 14V12H136.414V14H138.414ZM146.154 14H148.154V12H146.154V14ZM146.154 44V46H148.154V44H146.154ZM138.414 44H136.414V46H138.414V44ZM138.414 40.64H140.414V34.0734L136.754 39.5251L138.414 40.64ZM121.314 41.54L119.874 42.9278L119.881 42.9345L119.887 42.9412L121.314 41.54ZM118.134 14V12H116.134V14H118.134ZM125.874 14H127.874V12H125.874V14ZM127.494 36.08L126.08 37.4942L126.093 37.5076L126.107 37.5206L127.494 36.08ZM138.414 16H146.154V12H138.414V16ZM144.154 14V44H148.154V14H144.154ZM146.154 42H138.414V46H146.154V42ZM140.414 44V40.64H136.414V44H140.414ZM136.754 39.5251C135.326 41.6511 133.048 42.84 129.474 42.84V46.84C134.061 46.84 137.742 45.2289 140.075 41.7549L136.754 39.5251ZM129.474 42.84C126.693 42.84 124.499 41.9294 122.741 40.1388L119.887 42.9412C122.449 45.5506 125.696 46.84 129.474 46.84V42.84ZM122.754 40.1522C121.083 38.4183 120.134 35.9284 120.134 32.42H116.134C116.134 36.6716 117.305 40.2617 119.874 42.9278L122.754 40.1522ZM120.134 32.42V14H116.134V32.42H120.134ZM118.134 16H125.874V12H118.134V16ZM123.874 14V31.46H127.874V14H123.874ZM123.874 31.46C123.874 33.8198 124.519 35.9336 126.08 37.4942L128.908 34.6658C128.309 34.0664 127.874 33.1002 127.874 31.46H123.874ZM126.107 37.5206C127.632 38.9894 129.607 39.64 131.814 39.64V35.64C130.421 35.64 129.516 35.2506 128.882 34.6394L126.107 37.5206ZM131.814 39.64C134.262 39.64 136.414 38.8627 138.051 37.1708L135.177 34.3892C134.414 35.1773 133.366 35.64 131.814 35.64V39.64ZM138.051 37.1708C139.744 35.4216 140.414 32.9722 140.414 30.2H136.414C136.414 32.3878 135.884 33.6584 135.177 34.3892L138.051 37.1708ZM140.414 30.2V14H136.414V30.2H140.414ZM160.983 19.16H158.983L162.856 19.8622L160.983 19.16ZM164.523 14.84L163.531 13.1035L163.522 13.1087L163.513 13.114L164.523 14.84ZM170.103 13.4H172.103V11.4H170.103V13.4ZM170.103 22.04L169.867 24.0261L172.103 24.2913V22.04H170.103ZM163.743 23.48L162.642 21.8105L162.634 21.8159L162.625 21.8215L163.743 23.48ZM160.983 44V46H162.983V44H160.983ZM153.243 44H151.243V46H153.243V44ZM153.243 14V12H151.243V14H153.243ZM160.983 14H162.983V12H160.983V14ZM162.856 19.8622C163.428 18.336 164.322 17.275 165.533 16.566L163.513 13.114C161.444 14.325 159.978 16.144 159.11 18.4578L162.856 19.8622ZM165.515 16.5765C166.877 15.7986 168.392 15.4 170.103 15.4V11.4C167.735 11.4 165.53 11.9613 163.531 13.1035L165.515 16.5765ZM168.103 13.4V22.04H172.103V13.4H168.103ZM170.339 20.0539C167.538 19.7216 164.939 20.2952 162.642 21.8105L164.844 25.1495C166.307 24.1847 167.948 23.7984 169.867 24.0261L170.339 20.0539ZM162.625 21.8215C160.073 23.5418 158.983 26.3362 158.983 29.66H162.983C162.983 27.2238 163.734 25.8982 164.861 25.1385L162.625 21.8215ZM158.983 29.66V44H162.983V29.66H158.983ZM160.983 42H153.243V46H160.983V42ZM155.243 44V14H151.243V44H155.243ZM153.243 16H160.983V12H153.243V16ZM158.983 14V19.16H162.983V14H158.983ZM180.057 32.18V30.18H177.428L178.129 32.7132L180.057 32.18ZM195.237 34.82L196.236 33.0876L194.71 32.2073L193.644 33.6098L195.237 34.82ZM201.477 38.42L203.122 39.5576L204.356 37.7723L202.476 36.6876L201.477 38.42ZM176.457 40.34L175.042 41.7542V41.7542L176.457 40.34ZM176.397 17.72L177.82 19.1247L177.829 19.1152L176.397 17.72ZM198.657 17.72L197.195 19.0854L197.205 19.0955L198.657 17.72ZM202.677 32.18V34.18H204.351L204.645 32.5316L202.677 32.18ZM179.937 26.18L177.987 25.7332L177.426 28.18H179.937V26.18ZM195.237 26.18V28.18H197.714L197.192 25.7583L195.237 26.18ZM192.477 21.62L191.292 23.2313L191.303 23.2395L191.314 23.2475L192.477 21.62ZM182.637 21.74L183.851 23.3287L183.866 23.3176L183.88 23.3062L182.637 21.74ZM178.129 32.7132C178.756 34.982 179.973 36.8278 181.842 38.0741C183.679 39.2986 185.959 39.82 188.517 39.82V35.82C186.474 35.82 185.044 35.4014 184.061 34.7459C183.11 34.1122 182.397 33.138 181.984 31.6468L178.129 32.7132ZM188.517 39.82C191.976 39.82 194.861 38.62 196.829 36.0302L193.644 33.6098C192.573 35.02 190.977 35.82 188.517 35.82V39.82ZM194.237 36.5524L200.477 40.1524L202.476 36.6876L196.236 33.0876L194.237 36.5524ZM199.832 37.2824C197.29 40.9582 193.582 42.84 188.397 42.84V46.84C194.731 46.84 199.744 44.4418 203.122 39.5576L199.832 37.2824ZM188.397 42.84C183.87 42.84 180.432 41.4874 177.871 38.9258L175.042 41.7542C178.481 45.1926 183.003 46.84 188.397 46.84V42.84ZM177.871 38.9258C175.276 36.3308 173.957 33.0734 173.957 29H169.957C169.957 34.0466 171.637 38.3492 175.042 41.7542L177.871 38.9258ZM173.957 29C173.957 24.9637 175.258 21.7215 177.82 19.1247L174.973 16.3153C171.615 19.7185 169.957 23.9963 169.957 29H173.957ZM177.829 19.1152C180.376 16.5001 183.64 15.16 187.797 15.16V11.16C182.673 11.16 178.337 12.8599 174.964 16.3248L177.829 19.1152ZM187.797 15.16C191.678 15.16 194.757 16.4757 197.195 19.0853L200.118 16.3547C196.876 12.8843 192.715 11.16 187.797 11.16V15.16ZM197.205 19.0955C199.707 21.7365 200.977 24.9925 200.977 29H204.977C204.977 24.0475 203.367 19.7835 200.108 16.3445L197.205 19.0955ZM200.977 29C200.977 29.8673 200.89 30.8089 200.708 31.8284L204.645 32.5316C204.863 31.3111 204.977 30.1327 204.977 29H200.977ZM202.677 30.18H180.057V34.18H202.677V30.18ZM179.937 28.18H195.237V24.18H179.937V28.18ZM197.192 25.7583C196.67 23.3407 195.526 21.3407 193.639 19.9925L191.314 23.2475C192.227 23.8993 192.923 24.9393 193.282 26.6017L197.192 25.7583ZM193.661 20.0087C191.943 18.7449 189.963 18.12 187.797 18.12V22.12C189.15 22.12 190.291 22.4951 191.292 23.2313L193.661 20.0087ZM187.797 18.12C185.357 18.12 183.173 18.7603 181.393 20.1738L183.88 23.3062C184.82 22.5597 186.076 22.12 187.797 22.12V18.12ZM181.422 20.1513C179.636 21.5166 178.515 23.4308 177.987 25.7332L181.886 26.6268C182.238 25.0892 182.917 24.0434 183.851 23.3287L181.422 20.1513ZM264.84 2H266.84V-2.86102e-06H264.84V2ZM264.84 44V46H266.84V44H264.84ZM256.62 44H254.62V46H256.62V44ZM256.62 16.76H258.62V9.60218L254.91 15.7233L256.62 16.76ZM244.8 36.26V38.26H245.926L246.51 37.2967L244.8 36.26ZM243.84 36.26L242.131 37.2991L242.715 38.26H243.84V36.26ZM232.02 16.82L233.729 15.7809L230.02 9.68102V16.82H232.02ZM232.02 44V46H234.02V44H232.02ZM223.74 44H221.74V46H223.74V44ZM223.74 2V-2.86102e-06H221.74V2H223.74ZM232.26 2L233.969 0.961906L233.385 -2.86102e-06H232.26V2ZM244.32 21.86L242.61 22.8981L244.324 25.7202L246.032 22.8943L244.32 21.86ZM256.32 2V-2.86102e-06H255.192L254.608 0.965687L256.32 2ZM262.84 2V44H266.84V2H262.84ZM264.84 42H256.62V46H264.84V42ZM258.62 44V16.76H254.62V44H258.62ZM254.91 15.7233L243.09 35.2233L246.51 37.2967L258.33 17.7967L254.91 15.7233ZM244.8 34.26H243.84V38.26H244.8V34.26ZM245.549 35.2209L233.729 15.7809L230.311 17.8591L242.131 37.2991L245.549 35.2209ZM230.02 16.82V44H234.02V16.82H230.02ZM232.02 42H223.74V46H232.02V42ZM225.74 44V2H221.74V44H225.74ZM223.74 4H232.26V-2.86102e-06H223.74V4ZM230.55 3.03809L242.61 22.8981L246.029 20.8219L233.969 0.961906L230.55 3.03809ZM246.032 22.8943L258.032 3.03431L254.608 0.965687L242.608 20.8257L246.032 22.8943ZM256.32 4H264.84V-2.86102e-06H256.32V4ZM297.866 40.28L299.271 41.7035L299.28 41.6942L297.866 40.28ZM275.306 40.28L273.882 41.6849L273.891 41.6942L273.901 41.7034L275.306 40.28ZM275.306 17.78L276.72 19.1942L275.306 17.78ZM297.866 17.78L296.451 19.1942L296.461 19.2034L297.866 17.78ZM280.766 34.94L279.333 36.3357L279.342 36.345L279.351 36.3542L280.766 34.94ZM280.766 23.06L279.351 21.6458L279.342 21.655L279.333 21.6643L280.766 23.06ZM296.461 38.8566C293.766 41.5166 290.515 42.84 286.586 42.84V46.84C291.536 46.84 295.806 45.1234 299.271 41.7034L296.461 38.8566ZM286.586 42.84C282.656 42.84 279.406 41.5166 276.711 38.8566L273.901 41.7034C277.366 45.1234 281.635 46.84 286.586 46.84V42.84ZM276.729 38.8751C274.069 36.1801 272.746 32.9294 272.746 29H268.746C268.746 33.9506 270.462 38.2199 273.882 41.6849L276.729 38.8751ZM272.746 29C272.746 25.071 274.068 21.8456 276.72 19.1942L273.891 16.3658C270.463 19.7944 268.746 24.049 268.746 29H272.746ZM276.72 19.1942C279.417 16.4973 282.665 15.16 286.586 15.16V11.16C281.627 11.16 277.355 12.9027 273.891 16.3658L276.72 19.1942ZM286.586 15.16C290.507 15.16 293.755 16.4973 296.451 19.1942L299.28 16.3658C295.817 12.9027 291.545 11.16 286.586 11.16V15.16ZM296.461 19.2034C299.149 21.8568 300.486 25.0794 300.486 29H304.486C304.486 24.0406 302.742 19.7832 299.271 16.3566L296.461 19.2034ZM300.486 29C300.486 32.9211 299.148 36.1689 296.451 38.8658L299.28 41.6942C302.743 38.2311 304.486 33.9589 304.486 29H300.486ZM279.351 36.3542C281.307 38.3103 283.766 39.28 286.586 39.28V35.28C284.766 35.28 283.344 34.6897 282.18 33.5258L279.351 36.3542ZM286.586 39.28C289.406 39.28 291.864 38.3103 293.82 36.3542L290.991 33.5258C289.827 34.6897 288.406 35.28 286.586 35.28V39.28ZM293.82 36.3542C295.79 34.3843 296.746 31.8791 296.746 29H292.746C292.746 30.9209 292.142 32.3757 290.991 33.5258L293.82 36.3542ZM296.746 29C296.746 26.1209 295.79 23.6157 293.82 21.6458L290.991 24.4742C292.142 25.6243 292.746 27.0791 292.746 29H296.746ZM293.82 21.6458C291.864 19.6897 289.406 18.72 286.586 18.72V22.72C288.406 22.72 289.827 23.3103 290.991 24.4742L293.82 21.6458ZM286.586 18.72C283.766 18.72 281.307 19.6897 279.351 21.6458L282.18 24.4742C283.344 23.3103 284.766 22.72 286.586 22.72V18.72ZM279.333 21.6643C277.411 23.6374 276.486 26.1367 276.486 29H280.486C280.486 27.0633 281.081 25.6026 282.198 24.4557L279.333 21.6643ZM276.486 29C276.486 31.8633 277.411 34.3626 279.333 36.3357L282.198 33.5443C281.081 32.3974 280.486 30.9367 280.486 29H276.486ZM307.931 44H305.931V46H307.931V44ZM307.931 0.199999V-1.8H305.931V0.199999H307.931ZM315.671 0.199999H317.671V-1.8H315.671V0.199999ZM315.671 44V46H317.671V44H315.671ZM309.931 44V0.199999H305.931V44H309.931ZM307.931 2.2H315.671V-1.8H307.931V2.2ZM313.671 0.199999V44H317.671V0.199999H313.671ZM315.671 42H307.931V46H315.671V42ZM345.495 2V-2.86102e-06H343.495V2H345.495ZM353.235 2H355.235V-2.86102e-06H353.235V2ZM353.235 44V46H355.235V44H353.235ZM345.495 44H343.495V46H345.495V44ZM345.495 40.46H347.495V34.6489L343.918 39.2291L345.495 40.46ZM325.395 40.28L323.924 41.6358L323.934 41.6457L323.943 41.6555L325.395 40.28ZM325.395 17.78L323.934 16.414L323.933 16.4147L325.395 17.78ZM345.495 17.54L343.918 18.7709L347.495 23.3511V17.54H345.495ZM331.215 35.12L329.783 36.5162L329.801 36.5343L329.819 36.552L331.215 35.12ZM343.155 35.12L344.569 36.5342L344.578 36.5253L344.587 36.5162L343.155 35.12ZM343.155 22.94L341.723 24.3362L341.732 24.3453L341.741 24.3542L343.155 22.94ZM331.215 22.94L329.801 21.5258L331.215 22.94ZM345.495 4H353.235V-2.86102e-06H345.495V4ZM351.235 2V44H355.235V2H351.235ZM353.235 42H345.495V46H353.235V42ZM347.495 44V40.46H343.495V44H347.495ZM343.918 39.2291C342.072 41.5945 339.453 42.84 335.775 42.84V46.84C340.497 46.84 344.358 45.1655 347.071 41.6909L343.918 39.2291ZM335.775 42.84C332.306 42.84 329.365 41.5622 326.847 38.9045L323.943 41.6555C327.185 45.0778 331.163 46.84 335.775 46.84V42.84ZM326.865 38.9242C324.387 36.2371 323.135 32.9705 323.135 29H319.135C319.135 33.9095 320.722 38.1629 323.924 41.6358L326.865 38.9242ZM323.135 29C323.135 25.0295 324.387 21.7885 326.856 19.1453L323.933 16.4147C320.723 19.8515 319.135 24.0905 319.135 29H323.135ZM326.856 19.146C329.376 16.4505 332.315 15.16 335.775 15.16V11.16C331.154 11.16 327.174 12.9495 323.934 16.414L326.856 19.146ZM335.775 15.16C339.453 15.16 342.072 16.4055 343.918 18.7709L347.071 16.3091C344.358 12.8345 340.497 11.16 335.775 11.16V15.16ZM347.495 17.54V2H343.495V17.54H347.495ZM329.819 36.552C331.822 38.5048 334.336 39.46 337.215 39.46V35.46C335.294 35.46 333.808 34.8552 332.611 33.688L329.819 36.552ZM337.215 39.46C340.094 39.46 342.599 38.5041 344.569 36.5342L341.741 33.7058C340.591 34.8559 339.136 35.46 337.215 35.46V39.46ZM344.587 36.5162C346.552 34.5002 347.495 31.9391 347.495 29H343.495C343.495 31.0209 342.877 32.5398 341.723 33.7238L344.587 36.5162ZM347.495 29C347.495 26.0614 346.552 23.5088 344.569 21.5258L341.741 24.3542C342.878 25.4912 343.495 26.9786 343.495 29H347.495ZM344.587 21.5438C342.621 19.5271 340.11 18.54 337.215 18.54V22.54C339.12 22.54 340.569 23.1529 341.723 24.3362L344.587 21.5438ZM337.215 18.54C334.32 18.54 331.8 19.5262 329.801 21.5258L332.629 24.3542C333.829 23.1538 335.31 22.54 337.215 22.54V18.54ZM329.801 21.5258C327.818 23.5088 326.875 26.0614 326.875 29H330.875C330.875 26.9785 331.492 25.4912 332.629 24.3542L329.801 21.5258ZM326.875 29C326.875 31.9391 327.817 34.5002 329.783 36.5162L332.647 33.7238C331.492 32.5398 330.875 31.0209 330.875 29H326.875ZM385.873 40.28L387.278 41.7035L387.288 41.6942L385.873 40.28ZM363.313 40.28L361.89 41.6849L361.899 41.6942L361.909 41.7034L363.313 40.28ZM363.313 17.78L364.728 19.1942L363.313 17.78ZM385.873 17.78L384.459 19.1942L384.469 19.2034L385.873 17.78ZM368.773 34.94L367.341 36.3357L367.35 36.345L367.359 36.3542L368.773 34.94ZM368.773 23.06L367.359 21.6458L367.35 21.655L367.341 21.6643L368.773 23.06ZM384.469 38.8566C381.774 41.5166 378.523 42.84 374.593 42.84V46.84C379.544 46.84 383.813 45.1234 387.278 41.7034L384.469 38.8566ZM374.593 42.84C370.664 42.84 367.413 41.5166 364.718 38.8566L361.909 41.7034C365.374 45.1234 369.643 46.84 374.593 46.84V42.84ZM364.737 38.8751C362.077 36.1801 360.753 32.9294 360.753 29H356.753C356.753 33.9506 358.47 38.2199 361.89 41.6849L364.737 38.8751ZM360.753 29C360.753 25.071 362.076 21.8456 364.728 19.1942L361.899 16.3658C358.471 19.7944 356.753 24.049 356.753 29H360.753ZM364.728 19.1942C367.425 16.4973 370.672 15.16 374.593 15.16V11.16C369.635 11.16 365.362 12.9027 361.899 16.3658L364.728 19.1942ZM374.593 15.16C378.514 15.16 381.762 16.4973 384.459 19.1942L387.288 16.3658C383.825 12.9027 379.552 11.16 374.593 11.16V15.16ZM384.469 19.2034C387.157 21.8568 388.493 25.0794 388.493 29H392.493C392.493 24.0406 390.75 19.7832 387.278 16.3566L384.469 19.2034ZM388.493 29C388.493 32.9211 387.156 36.1689 384.459 38.8658L387.288 41.6942C390.751 38.2311 392.493 33.9589 392.493 29H388.493ZM367.359 36.3542C369.315 38.3103 371.773 39.28 374.593 39.28V35.28C372.773 35.28 371.352 34.6897 370.188 33.5258L367.359 36.3542ZM374.593 39.28C377.413 39.28 379.872 38.3103 381.828 36.3542L378.999 33.5258C377.835 34.6897 376.413 35.28 374.593 35.28V39.28ZM381.828 36.3542C383.798 34.3843 384.753 31.8791 384.753 29H380.753C380.753 30.9209 380.149 32.3757 378.999 33.5258L381.828 36.3542ZM384.753 29C384.753 26.1209 383.798 23.6157 381.828 21.6458L378.999 24.4742C380.149 25.6243 380.753 27.0791 380.753 29H384.753ZM381.828 21.6458C379.872 19.6897 377.413 18.72 374.593 18.72V22.72C376.413 22.72 377.835 23.3103 378.999 24.4742L381.828 21.6458ZM374.593 18.72C371.773 18.72 369.315 19.6897 367.359 21.6458L370.188 24.4742C371.352 23.3103 372.773 22.72 374.593 22.72V18.72ZM367.341 21.6643C365.418 23.6374 364.493 26.1367 364.493 29H368.493C368.493 27.0633 369.088 25.6026 370.206 24.4557L367.341 21.6643ZM364.493 29C364.493 31.8633 365.418 34.3626 367.341 36.3357L370.206 33.5443C369.088 32.3974 368.493 30.9367 368.493 29H364.493ZM414.507 14V12H413.086L412.618 13.3417L414.507 14ZM423.027 14L424.896 14.7104L425.926 12H423.027V14ZM411.627 44V46H413.006L413.496 44.7104L411.627 44ZM402.807 44L400.937 44.7104L401.427 46H402.807V44ZM391.407 14V12H388.507L389.537 14.7104L391.407 14ZM399.927 14L401.817 13.3465L401.351 12H399.927V14ZM407.187 35L405.296 35.6535L407.179 41.0986L409.075 35.6583L407.187 35ZM414.507 16H423.027V12H414.507V16ZM421.157 13.2896L409.757 43.2896L413.496 44.7104L424.896 14.7104L421.157 13.2896ZM411.627 42H402.807V46H411.627V42ZM404.676 43.2896L393.276 13.2896L389.537 14.7104L400.937 44.7104L404.676 43.2896ZM391.407 16H399.927V12H391.407V16ZM398.036 14.6535L405.296 35.6535L409.077 34.3465L401.817 13.3465L398.036 14.6535ZM409.075 35.6583L416.395 14.6583L412.618 13.3417L405.298 34.3417L409.075 35.6583ZM448.387 14V12H446.387V14H448.387ZM456.127 14H458.127V12H456.127V14ZM456.127 44V46H458.127V44H456.127ZM448.387 44H446.387V46H448.387V44ZM448.387 40.46H450.387V34.7277L446.821 39.2158L448.387 40.46ZM428.287 40.28L426.817 41.6358L426.826 41.6457L426.835 41.6555L428.287 40.28ZM428.287 17.78L426.826 16.414L426.825 16.4147L428.287 17.78ZM448.387 17.54L446.821 18.7842L450.387 23.2723V17.54H448.387ZM434.107 35.12L432.675 36.5162L432.684 36.5253L432.693 36.5342L434.107 35.12ZM445.987 35.12L447.401 36.5342L445.987 35.12ZM445.987 22.94L444.555 24.3362L444.573 24.3543L444.591 24.372L445.987 22.94ZM434.107 22.94L435.521 24.3542L435.53 24.3453L435.539 24.3362L434.107 22.94ZM448.387 16H456.127V12H448.387V16ZM454.127 14V44H458.127V14H454.127ZM456.127 42H448.387V46H456.127V42ZM450.387 44V40.46H446.387V44H450.387ZM446.821 39.2158C444.932 41.5939 442.284 42.84 438.607 42.84V46.84C443.329 46.84 447.202 45.1661 449.953 41.7042L446.821 39.2158ZM438.607 42.84C435.184 42.84 432.261 41.5668 429.739 38.9045L426.835 41.6555C430.073 45.0732 434.029 46.84 438.607 46.84V42.84ZM429.757 38.9242C427.279 36.2371 426.027 32.9705 426.027 29H422.027C422.027 33.9095 423.614 38.1629 426.817 41.6358L429.757 38.9242ZM426.027 29C426.027 25.0295 427.279 21.7885 429.748 19.1453L426.825 16.4147C423.615 19.8515 422.027 24.0905 422.027 29H426.027ZM429.748 19.146C432.273 16.4458 435.193 15.16 438.607 15.16V11.16C434.02 11.16 430.061 12.9542 426.826 16.414L429.748 19.146ZM438.607 15.16C442.284 15.16 444.932 16.4061 446.821 18.7842L449.953 16.2958C447.202 12.8339 443.329 11.16 438.607 11.16V15.16ZM450.387 17.54V14H446.387V17.54H450.387ZM432.693 36.5342C434.663 38.5041 437.168 39.46 440.047 39.46V35.46C438.126 35.46 436.671 34.8559 435.521 33.7058L432.693 36.5342ZM440.047 39.46C442.926 39.46 445.431 38.5041 447.401 36.5342L444.573 33.7058C443.423 34.8559 441.968 35.46 440.047 35.46V39.46ZM447.401 36.5342C449.414 34.5213 450.387 31.9544 450.387 29H446.387C446.387 31.0056 445.76 32.5187 444.573 33.7058L447.401 36.5342ZM450.387 29C450.387 26.0459 449.413 23.4876 447.383 21.508L444.591 24.372C445.76 25.5124 446.387 26.9941 446.387 29H450.387ZM447.419 21.5438C445.453 19.5271 442.942 18.54 440.047 18.54V22.54C441.952 22.54 443.401 23.1529 444.555 24.3362L447.419 21.5438ZM440.047 18.54C437.152 18.54 434.641 19.5271 432.675 21.5438L435.539 24.3362C436.693 23.1529 438.142 22.54 440.047 22.54V18.54ZM432.693 21.5258C430.71 23.5088 429.767 26.0614 429.767 29H433.767C433.767 26.9786 434.384 25.4912 435.521 24.3542L432.693 21.5258ZM429.767 29C429.767 31.9391 430.709 34.5002 432.675 36.5162L435.539 33.7238C434.384 32.5398 433.767 31.0209 433.767 29H429.767Z" fill="#3F3D56"/>
</svg>
