<svg width="131" height="44" viewBox="0 0 131 44" fill="none" xmlns="http://www.w3.org/2000/svg">
<path d="M116.812 14.6158C120.737 14.2464 123.294 14.9236 124.688 15.8568L124.896 2.97721C123.087 1.10342 118.414 1.30507 116.93 2.21186C116.93 4.88823 116.812 11.1718 116.812 14.6158Z" fill="url(#paint0_linear_51_73)"/>
<path d="M110.293 4.04434C106.432 4.41685 103.916 3.73406 102.544 2.79321L102.339 15.7782C104.12 17.6674 108.717 17.4641 110.177 16.5499C110.177 13.8516 110.293 7.51659 110.293 4.04434Z" fill="url(#paint1_linear_51_73)"/>
<path d="M109.997 16.5953V4.03292C111.783 3.76901 114.415 2.95087 116.976 2.07996V14.5631C114.767 14.9326 111.759 16.1994 109.997 16.5953Z" fill="url(#paint2_linear_51_73)"/>
<path fill-rule="evenodd" clip-rule="evenodd" d="M114.983 4.18974C118.839 2.50944 121.885 2.88378 123.373 3.63005V13.4383C120.461 12.5796 116.371 12.6077 112.39 14.3418C108.534 16.0221 105.488 15.6478 104 14.9015L104 5.09321C106.913 5.95196 111.003 5.92389 114.983 4.18974ZM101 2.80059C101.003 2.52791 101.079 2.25257 101.237 2.00594C101.684 1.30821 102.612 1.10462 103.309 1.55123C105.03 2.6528 109.337 3.37708 113.785 1.43944C118.821 -0.755008 123.482 -0.242932 125.817 1.64908L126.373 2.09933V2.81459V15.6936C126.373 15.7061 126.373 15.7186 126.373 15.731C126.37 16.0037 126.294 16.279 126.136 16.5256C125.689 17.2233 124.762 17.4269 124.064 16.9803C122.343 15.8787 118.036 15.1545 113.589 17.0921C108.552 19.2865 103.891 18.7745 101.556 16.8825L101 16.4322L101 15.7169L101 2.83793C101 2.82544 101 2.813 101 2.80059Z" fill="white"/>
<path fill-rule="evenodd" clip-rule="evenodd" d="M113.166 10.5524C113.11 10.6089 113.064 10.6782 113.012 10.7372C112.888 10.8732 112.811 11.0361 112.716 11.1913C112.69 11.2324 112.671 11.276 112.657 11.3196C112.639 11.3697 112.656 11.3928 112.686 11.4069C112.718 11.4223 112.772 11.4107 112.782 11.4492C112.791 11.4813 112.771 11.5313 112.763 11.5749C112.746 11.6545 112.746 11.6545 112.681 11.6365C112.646 11.6262 112.597 11.6275 112.581 11.6006C112.564 11.5736 112.592 11.5146 112.598 11.471C112.602 11.4595 112.604 11.4466 112.597 11.4351C112.574 11.4428 112.562 11.4672 112.547 11.4864C112.488 11.5544 112.464 11.5595 112.415 11.5121C112.392 11.489 112.367 11.4697 112.352 11.4441C112.34 11.421 112.312 11.4479 112.299 11.4235C112.285 11.3966 112.281 11.3632 112.288 11.3286C112.292 11.2953 112.306 11.2593 112.328 11.2298C112.348 11.2029 112.358 11.1888 112.329 11.1721C112.306 11.1593 112.316 11.1259 112.333 11.099C112.336 11.0746 112.323 11.0861 112.312 11.0925C112.269 11.158 112.236 11.2324 112.186 11.2953C112.157 11.3325 112.129 11.3851 112.093 11.3953C112.034 11.4133 112.034 11.4684 112.011 11.5069C111.949 11.616 111.888 11.725 111.8 11.8238C111.834 11.5788 111.819 11.353 111.822 11.1195C111.827 10.7898 111.824 10.4613 111.828 10.1278C111.828 10.0893 111.823 10.0739 111.783 10.0726C111.708 10.0713 111.663 10.0174 111.62 9.95843C111.641 9.9379 111.662 9.9302 111.686 9.91866C111.675 9.89172 111.647 9.88017 111.639 9.84681C111.694 9.82372 111.748 9.81859 111.798 9.82372C111.824 9.82757 111.826 9.81731 111.829 9.79036C111.829 9.73648 111.807 9.69927 111.787 9.65694C111.765 9.66977 111.77 9.68645 111.768 9.70184C111.767 9.74289 111.749 9.77112 111.715 9.78138C111.703 9.78523 111.692 9.78395 111.682 9.77882C111.674 9.7724 111.667 9.76086 111.666 9.74803C111.66 9.70954 111.68 9.68388 111.713 9.66464C111.721 9.66079 111.733 9.65822 111.738 9.63641C111.612 9.65822 111.56 9.57226 111.528 9.45808C111.565 9.43627 111.598 9.45167 111.644 9.44782C111.594 9.38239 111.59 9.30413 111.6 9.21432C111.659 9.22587 111.699 9.25794 111.741 9.29515C111.762 9.25794 111.759 9.21817 111.78 9.18097C111.803 9.18482 111.803 9.21817 111.822 9.22972C111.837 9.20791 111.829 9.18866 111.831 9.1707C111.831 8.74862 111.833 8.32525 111.833 7.90188C111.833 7.81848 111.853 7.73766 111.892 7.65812C111.985 7.46311 112.113 7.29376 112.26 7.13853C112.286 7.1103 112.301 7.11672 112.322 7.12698C112.426 7.18343 112.512 7.26682 112.606 7.34123C112.61 7.34636 112.616 7.35149 112.621 7.35278C112.696 7.3733 112.697 7.44258 112.674 7.52854C112.669 7.54778 112.666 7.56703 112.666 7.58756C112.664 7.63246 112.652 7.68763 112.662 7.72226C112.678 7.7646 112.73 7.7274 112.764 7.73638C112.811 7.74536 112.855 7.75947 112.899 7.78256C112.975 7.82747 113.059 7.85954 113.146 7.87622C113.148 7.89931 113.132 7.90444 113.119 7.91342C113.082 7.92625 113.046 7.92497 113.012 7.91214C112.988 7.88905 112.953 7.89161 112.924 7.87878C112.916 7.87622 112.907 7.86724 112.898 7.88135C112.893 7.88776 112.896 7.89674 112.898 7.90316C112.9 7.91342 112.906 7.92112 112.917 7.91727C112.938 7.90957 112.956 7.89418 112.976 7.90316C112.977 7.90572 112.982 7.90572 112.983 7.90957C112.985 7.91214 112.986 7.91599 112.987 7.91984C112.961 8.00323 112.881 8.07764 112.835 7.99296C112.819 7.96217 112.802 7.97629 112.779 8.00195C112.719 8.07892 112.697 8.08149 112.647 8.01734C112.633 8.00195 112.621 7.9827 112.607 7.96474C112.593 7.94806 112.586 7.9224 112.559 7.90957C112.52 8.02247 112.537 8.12254 112.533 8.23287C112.561 8.21748 112.583 8.18412 112.609 8.19824C112.621 8.20593 112.628 8.21748 112.629 8.23416C112.627 8.31627 112.576 8.37271 112.526 8.42788C112.506 8.44841 112.482 8.44584 112.461 8.43558C112.425 8.41762 112.425 8.4189 112.422 8.46894C112.421 8.48305 112.422 8.49588 112.422 8.50871C112.415 9.1335 112.41 9.75059 112.406 10.3574C112.406 10.4229 112.424 10.4806 112.407 10.5537C112.419 10.5293 112.428 10.5075 112.445 10.4973C112.501 10.4613 112.512 10.4023 112.525 10.3472C112.535 10.3087 112.542 10.2689 112.554 10.2317C112.57 10.1842 112.583 10.1778 112.613 10.2086C112.62 10.2253 112.618 10.2484 112.619 10.2689C112.605 10.3613 112.578 10.4536 112.556 10.546C112.551 10.5627 112.551 10.5794 112.554 10.5935C112.557 10.6153 112.561 10.6256 112.587 10.6166C112.629 10.6012 112.645 10.6127 112.645 10.6576C112.644 10.7051 112.636 10.7526 112.619 10.8C112.6 10.8462 112.573 10.8911 112.542 10.9296C112.557 10.9232 112.578 10.9117 112.595 10.9219C112.622 10.9437 112.632 10.9232 112.646 10.895C112.666 10.8552 112.689 10.818 112.709 10.7782C112.726 10.7449 112.749 10.7115 112.737 10.6756C112.735 10.6705 112.735 10.6653 112.738 10.6602C112.775 10.5845 112.792 10.5037 112.85 10.4382C112.869 10.428 112.884 10.4344 112.894 10.4485C112.911 10.4921 112.878 10.5293 112.862 10.5704C112.877 10.5781 112.897 10.5781 112.906 10.5986C112.912 10.6127 112.925 10.6127 112.939 10.6089C112.948 10.6037 112.96 10.6012 112.97 10.605C112.978 10.6063 112.986 10.614 112.99 10.6217C113.003 10.6422 113.014 10.6345 113.027 10.6153C113.057 10.5768 113.082 10.5345 113.125 10.5101C113.151 10.5101 113.18 10.5075 113.166 10.5524ZM114.205 7.6748C114.29 7.62476 114.37 7.56061 114.445 7.4862C114.513 7.41692 114.582 7.35791 114.665 7.34123C114.692 7.33738 114.689 7.31301 114.69 7.28863C114.696 7.18984 114.69 7.09234 114.68 6.9974C114.678 6.97816 114.672 6.95635 114.689 6.93839C114.798 6.81394 114.885 6.65229 114.991 6.52143C115.094 6.38929 115.059 6.4034 115.149 6.49193C115.26 6.60354 115.351 6.75236 115.422 6.94224C115.45 7.02306 115.464 7.11159 115.464 7.20909C115.456 8.04813 115.451 8.82559 115.448 9.494C115.447 9.51197 115.437 9.53121 115.458 9.55174C115.464 9.54917 115.471 9.55687 115.475 9.56328C115.485 9.59407 115.469 9.61332 115.459 9.63384C115.429 9.69158 115.392 9.74546 115.362 9.80191C115.396 9.78523 115.39 9.7275 115.441 9.72878C115.449 9.73263 115.452 9.73776 115.448 9.74546C115.447 9.91994 115.445 10.0842 115.444 10.2445C115.444 10.437 115.444 10.6243 115.445 10.8077C115.445 10.8744 115.436 10.9412 115.475 11.0092C115.42 10.9912 115.388 10.9617 115.355 10.9335C115.306 10.8898 115.262 10.8411 115.224 10.7885C115.215 10.7769 115.214 10.759 115.183 10.7731C115.176 10.7769 115.152 10.7603 115.135 10.7513C115.073 10.7154 115.028 10.6628 114.983 10.6102C114.971 10.6063 114.967 10.6114 114.971 10.6217C114.967 10.6499 114.944 10.6628 114.911 10.673C114.949 10.7038 114.981 10.7346 114.983 10.7808C114.985 10.8129 114.99 10.8462 114.935 10.8667C114.9 10.8809 114.881 10.9232 114.856 10.954C114.832 10.9873 114.805 11.013 114.76 11.0053C114.737 11.0015 114.738 11.022 114.728 11.031C114.711 11.0425 114.729 11.0464 114.735 11.0515C114.751 11.0618 114.747 11.0746 114.729 11.0861C114.693 11.1156 114.656 11.1426 114.619 11.1734C114.599 11.1901 114.594 11.1811 114.594 11.1644C114.593 11.1285 114.593 11.0938 114.592 11.0579C114.592 11.0361 114.59 11.0104 114.629 11.0156C114.641 11.0156 114.643 11.0117 114.644 11.0027C114.645 10.9809 114.665 10.972 114.673 10.9681C114.534 10.7333 114.343 10.5332 114.109 10.3677C114.111 10.3305 114.137 10.3266 114.163 10.3228C114.201 10.3318 114.219 10.3677 114.247 10.3895C114.263 10.4023 114.276 10.4139 114.29 10.3805C114.297 10.3664 114.308 10.351 114.324 10.3523C114.355 10.3561 114.366 10.333 114.386 10.3189C114.417 10.2946 114.416 10.2792 114.397 10.2561C114.391 10.2471 114.384 10.2381 114.384 10.2266C114.382 10.215 114.384 10.2035 114.387 10.1932C114.403 10.1727 114.42 10.165 114.442 10.174C114.489 10.2201 114.532 10.2779 114.539 10.3382C114.551 10.4562 114.647 10.5152 114.696 10.6025C114.714 10.6345 114.796 10.614 114.827 10.5858C114.871 10.546 114.859 10.5152 114.839 10.4755C114.764 10.3241 114.709 10.1599 114.672 9.9828C114.669 9.97254 114.664 9.96356 114.662 9.95201C114.666 9.91609 114.656 9.8776 114.688 9.84938C114.719 9.85323 114.723 9.88017 114.728 9.90326C114.759 10.0136 114.785 10.1226 114.833 10.2227C114.841 10.2394 114.846 10.2586 114.866 10.2792C114.871 9.61203 114.877 8.8705 114.886 8.05198C114.869 8.03787 114.862 8.05455 114.853 8.06224C114.826 8.08405 114.802 8.07892 114.78 8.05326C114.751 8.01991 114.725 7.98655 114.7 7.94934C114.686 7.89931 114.69 7.85569 114.728 7.82105C114.751 7.80694 114.764 7.83645 114.784 7.84029C114.799 7.74279 114.787 7.64657 114.79 7.55035C114.791 7.52982 114.789 7.50545 114.774 7.50032C114.76 7.49647 114.754 7.52341 114.746 7.53752C114.722 7.58756 114.696 7.63374 114.666 7.67608C114.632 7.72868 114.611 7.73253 114.575 7.69147C114.534 7.64785 114.534 7.64785 114.496 7.70045C114.459 7.75177 114.441 7.75819 114.402 7.72226C114.38 7.70302 114.352 7.69147 114.343 7.65427C114.36 7.60423 114.39 7.61963 114.411 7.62604C114.442 7.63631 114.456 7.62348 114.457 7.56575C114.418 7.61835 114.369 7.6068 114.334 7.65555C114.305 7.68763 114.268 7.7043 114.232 7.70302C114.22 7.69661 114.203 7.69917 114.205 7.6748ZM113.349 11.4274C113.277 11.5595 113.2 11.6891 113.123 11.8187C113.096 11.861 113.078 11.8777 113.035 11.8662C112.925 11.8354 112.811 11.8174 112.691 11.7969C112.853 11.657 112.955 11.4813 113.052 11.3068C113.18 11.0759 113.29 10.8398 113.382 10.6012C113.407 10.5704 113.427 10.5794 113.443 10.5973C113.452 10.6204 113.445 10.6448 113.437 10.6679C113.328 10.9501 113.207 11.2311 113.045 11.5005C113.01 11.5647 112.971 11.6237 112.926 11.6814C112.901 11.7135 112.914 11.7161 112.936 11.7186C112.968 11.7186 113.003 11.7212 113.036 11.725C113.064 11.7302 113.083 11.7161 113.102 11.6865C113.259 11.4312 113.404 11.1759 113.477 10.8975C113.482 10.8821 113.486 10.868 113.493 10.8526C113.499 10.836 113.504 10.8206 113.523 10.8193C113.539 10.818 113.547 10.8308 113.55 10.8449C113.556 10.877 113.555 10.9104 113.552 10.9437C113.522 11.199 113.463 11.4543 113.355 11.7071C113.325 11.7776 113.325 11.7776 113.384 11.793C113.462 11.811 113.534 11.8354 113.602 11.8687C113.621 11.8777 113.639 11.8803 113.661 11.8546C113.732 11.7725 113.817 11.7058 113.9 11.6391C113.93 11.6147 113.934 11.5967 113.919 11.5711C113.818 11.3902 113.757 11.1811 113.727 10.9553C113.722 10.9129 113.725 10.8667 113.725 10.8231C113.727 10.8052 113.729 10.7821 113.748 10.7744C113.773 10.7641 113.781 10.7859 113.787 10.8026C113.811 10.8565 113.825 10.9142 113.849 10.9681C113.922 11.14 114.04 11.2747 114.161 11.403C114.18 11.4248 114.204 11.4287 114.238 11.4056C114.275 11.3812 114.317 11.3594 114.362 11.335C114.313 11.2991 114.266 11.2606 114.226 11.2144C114.105 11.0759 114.002 10.9194 113.917 10.7449C113.893 10.6974 113.867 10.6499 113.846 10.5986C113.836 10.5755 113.825 10.5524 113.837 10.5229C113.853 10.5024 113.869 10.487 113.894 10.4985C114.015 10.741 114.143 10.9681 114.323 11.1516C114.391 11.2196 114.467 11.2799 114.572 11.3068C114.55 11.3312 114.518 11.344 114.492 11.3607C114.398 11.4223 114.303 11.4838 114.212 11.5506C114.185 11.5698 114.174 11.5685 114.158 11.5531C114.072 11.4684 113.994 11.3735 113.911 11.2722C113.904 11.3042 113.916 11.3222 113.923 11.3402C113.964 11.4377 114.019 11.521 114.081 11.6006C114.101 11.6237 114.1 11.6365 114.067 11.6609C113.949 11.7558 113.834 11.8572 113.731 11.9752C113.695 12.0201 113.661 12.0676 113.632 12.1176C113.523 12.0009 113.365 11.9547 113.208 11.9098C113.169 11.8995 113.163 11.8867 113.19 11.8379C113.257 11.7096 113.322 11.5801 113.358 11.4454C113.363 11.4351 113.368 11.4223 113.35 11.4274" fill="black"/>
<path fill-rule="evenodd" clip-rule="evenodd" d="M113.44 10.6102C113.421 10.605 113.406 10.5909 113.382 10.6012C113.327 10.5653 113.257 10.5627 113.195 10.5434C113.188 10.5396 113.176 10.5486 113.168 10.5537C113.167 10.5191 113.138 10.5332 113.122 10.5242C113.102 10.5345 113.083 10.5396 113.064 10.5345C113.022 10.5204 112.978 10.5127 112.935 10.4998C112.915 10.496 112.899 10.4819 112.889 10.4613C112.879 10.4549 112.866 10.4472 112.851 10.4485C112.83 10.4588 112.814 10.4562 112.796 10.4485C112.741 10.4306 112.69 10.401 112.646 10.3613C112.622 10.342 112.605 10.3189 112.602 10.2817C112.6 10.2574 112.599 10.233 112.597 10.2099C112.574 10.1637 112.58 10.1047 112.58 10.0495C112.583 9.52223 112.59 8.98596 112.593 8.44456C112.594 8.37913 112.615 8.31113 112.615 8.24442C112.609 8.22903 112.604 8.21363 112.598 8.19824C112.585 8.19824 112.573 8.20208 112.564 8.19439C112.547 8.17514 112.519 8.15846 112.526 8.12382C112.534 8.08534 112.569 8.0879 112.595 8.0802C112.659 8.05711 112.723 8.04941 112.789 8.03915C112.906 8.01606 113.025 7.96474 113.141 7.96474C113.325 7.92369 113.507 7.8775 113.69 7.84286C113.855 7.81464 114.02 7.78898 114.184 7.76845C114.207 7.7646 114.231 7.76075 114.254 7.75306C114.313 7.73894 114.372 7.72226 114.429 7.73894C114.445 7.74407 114.459 7.73381 114.474 7.72611C114.489 7.7197 114.503 7.71585 114.517 7.71585C114.59 7.71842 114.664 7.70174 114.736 7.69661C114.759 7.69404 114.79 7.68506 114.797 7.72226C114.802 7.75947 114.783 7.79154 114.759 7.81335C114.753 7.82105 114.743 7.82362 114.737 7.82618C114.726 7.84158 114.718 7.86082 114.714 7.87878C114.71 7.89931 114.709 7.91984 114.712 7.93908C114.727 7.97885 114.73 8.02504 114.728 8.07122C114.721 8.67805 114.714 9.24127 114.71 9.75957C114.71 9.79165 114.719 9.82757 114.69 9.85323C114.686 9.88915 114.681 9.92507 114.679 9.95971C114.678 9.97511 114.674 9.99178 114.667 10.0059C114.661 10.02 114.651 10.0328 114.637 10.0444C114.576 10.1008 114.516 10.1573 114.436 10.1855C114.417 10.174 114.406 10.1932 114.393 10.2009C114.368 10.2497 114.317 10.2638 114.275 10.2907C114.24 10.3125 114.205 10.3407 114.162 10.3343C114.143 10.3433 114.124 10.351 114.107 10.369C114.033 10.4036 113.964 10.4524 113.893 10.4998C113.874 10.505 113.859 10.5178 113.843 10.5319C113.837 10.5486 113.824 10.5653 113.809 10.5755C113.762 10.6114 113.721 10.6525 113.683 10.6974C113.647 10.741 113.629 10.7436 113.598 10.7166C113.564 10.6884 113.528 10.6666 113.489 10.6499C113.47 10.641 113.447 10.6358 113.44 10.6102Z" fill="#F4D302"/>
<path fill-rule="evenodd" clip-rule="evenodd" d="M113.197 7.88648C113.344 7.74407 113.399 7.55677 113.427 7.35919C113.447 7.21935 113.46 7.07951 113.438 6.95122C113.417 6.84089 113.358 6.78315 113.268 6.76391C113.243 6.75749 113.235 6.76647 113.234 6.79727C113.231 6.84088 113.229 6.88579 113.225 6.92941C113.23 6.94224 113.223 6.94737 113.213 6.94993C113.192 6.94224 113.195 6.91914 113.196 6.89477C113.198 6.85628 113.199 6.81651 113.203 6.77802C113.203 6.76519 113.204 6.75493 113.2 6.74466C113.196 6.73568 113.193 6.7267 113.184 6.72029C113.184 6.71387 113.183 6.70746 113.183 6.70104C113.208 6.62535 113.217 6.55222 113.221 6.47781C113.223 6.43932 113.244 6.41367 113.276 6.40597C113.31 6.40084 113.349 6.36748 113.374 6.4034C113.375 6.41495 113.374 6.42521 113.359 6.4265C113.354 6.4265 113.35 6.42778 113.344 6.43034C113.243 6.45472 113.243 6.45472 113.252 6.57788C113.293 6.54453 113.334 6.52913 113.376 6.51502C113.401 6.5086 113.428 6.49449 113.44 6.45857C113.466 6.38929 113.513 6.36491 113.561 6.34824C113.652 6.31103 113.745 6.30205 113.825 6.32129C113.927 6.34695 114.024 6.38801 114.137 6.39827C114.126 6.40469 114.115 6.41367 114.105 6.42265C114.056 6.45985 114.056 6.46242 114.093 6.49577C114.111 6.50989 114.13 6.52272 114.136 6.55736C114.129 6.55992 114.124 6.56505 114.118 6.5689C114.084 6.57917 114.072 6.59841 114.091 6.63305C114.097 6.64588 114.099 6.66256 114.099 6.67923C114.1 6.70104 114.099 6.72285 114.099 6.7498C114.075 6.75621 114.067 6.72414 114.042 6.73184C114.042 6.76391 114.042 6.79598 114.042 6.82677C114.042 6.86013 114.04 6.89605 114.025 6.92684C113.944 7.07823 113.958 7.21807 113.979 7.35534C114.004 7.50545 114.052 7.63631 114.164 7.70302C114.166 7.70302 114.167 7.70174 114.171 7.70174C114.2 7.71072 114.234 7.70815 114.243 7.7569C114.239 7.76588 114.236 7.77102 114.227 7.7723C114.134 7.78128 114.039 7.80309 113.962 7.72996C113.965 7.74664 113.972 7.75562 113.975 7.76845C113.979 7.79667 113.975 7.81464 113.945 7.8172C113.882 7.81849 113.818 7.81849 113.772 7.7646C113.755 7.74407 113.743 7.74536 113.724 7.77871C113.689 7.84158 113.67 7.84543 113.639 7.79667C113.624 7.77615 113.612 7.77871 113.592 7.80052C113.54 7.86082 113.484 7.90188 113.416 7.90957C113.406 7.91086 113.399 7.90829 113.393 7.89803C113.387 7.88263 113.395 7.86467 113.396 7.84286C113.316 7.93395 113.223 7.94934 113.134 7.97629C113.124 7.975 113.11 7.98783 113.105 7.97115C113.102 7.95704 113.111 7.94421 113.121 7.93395C113.138 7.91727 113.156 7.90444 113.175 7.89418C113.182 7.89161 113.188 7.88776 113.197 7.88648Z" fill="black"/>
<path fill-rule="evenodd" clip-rule="evenodd" d="M115.775 9.17968C115.764 9.18738 115.747 9.18353 115.763 9.21817C115.826 9.35031 115.825 9.3516 115.734 9.38752C115.69 9.40676 115.655 9.43755 115.644 9.49657C115.639 9.49657 115.633 9.49016 115.628 9.48374C115.613 9.42857 115.635 9.3965 115.665 9.37341C115.69 9.35416 115.717 9.34133 115.744 9.3285C115.77 9.31696 115.77 9.299 115.747 9.26821C115.739 9.25409 115.726 9.24511 115.716 9.23485C115.695 9.20278 115.669 9.20021 115.646 9.18225C115.639 9.17583 115.634 9.16942 115.629 9.16301C115.607 9.13093 115.599 9.14633 115.597 9.16942C115.594 9.20278 115.596 9.23742 115.596 9.27206C115.591 9.34262 115.567 9.37982 115.519 9.38111C115.517 9.37854 115.512 9.37341 115.51 9.36828C115.551 9.33235 115.558 9.27077 115.556 9.20406C115.554 9.1784 115.556 9.15402 115.552 9.12837C115.548 9.08859 115.563 9.07833 115.593 9.08988C115.601 9.09373 115.608 9.09629 115.618 9.09758C115.65 9.10912 115.694 9.14376 115.688 9.06294C115.688 9.05909 115.696 9.05524 115.701 9.05267C115.705 9.05139 115.709 9.05139 115.714 9.05396C115.727 9.08988 115.728 9.13478 115.764 9.15403C115.769 9.16172 115.774 9.1707 115.775 9.17968Z" fill="#080600"/>
<path fill-rule="evenodd" clip-rule="evenodd" d="M115.51 9.36828C115.514 9.37084 115.519 9.37212 115.523 9.37341C115.533 9.39009 115.545 9.38111 115.556 9.38752C115.561 9.39137 115.568 9.3965 115.571 9.40292C115.579 9.41446 115.584 9.41446 115.588 9.40676C115.597 9.39522 115.605 9.38624 115.62 9.3888C115.627 9.39137 115.632 9.39778 115.635 9.40548C115.645 9.43371 115.606 9.4491 115.637 9.48246C115.64 9.48759 115.642 9.49144 115.644 9.49657C115.605 9.50042 115.598 9.55302 115.559 9.55943C115.554 9.56072 115.551 9.55943 115.548 9.5543C115.532 9.53378 115.56 9.51068 115.538 9.49529C115.519 9.48374 115.518 9.51966 115.501 9.52351C115.497 9.52608 115.492 9.52479 115.488 9.52479C115.483 9.52479 115.48 9.52095 115.476 9.5171C115.487 9.46835 115.499 9.41831 115.51 9.36828Z" fill="#0C0B00"/>
<path fill-rule="evenodd" clip-rule="evenodd" d="M113.359 6.4265C113.364 6.42136 113.367 6.41623 113.371 6.41238C113.374 6.39955 113.403 6.37005 113.367 6.38159C113.338 6.38929 113.31 6.39699 113.281 6.40597C113.266 6.4111 113.251 6.41495 113.241 6.40212C113.21 6.37389 113.234 6.2379 113.278 6.19428C113.285 6.193 113.293 6.19557 113.286 6.20968C113.266 6.26356 113.255 6.32001 113.271 6.36107C113.283 6.38672 113.381 6.32643 113.421 6.27383C113.431 6.2982 113.438 6.32899 113.435 6.36235C113.431 6.3957 113.423 6.43034 113.407 6.46242C113.392 6.44959 113.376 6.43932 113.359 6.4265Z" fill="#1A1600"/>
<path fill-rule="evenodd" clip-rule="evenodd" d="M115.775 9.17968C115.77 9.17327 115.766 9.16942 115.763 9.16429C115.758 9.12195 115.734 9.09244 115.716 9.0578C115.709 9.05652 115.705 9.05267 115.701 9.05139C115.708 8.96158 115.77 8.96158 115.82 8.92438C115.825 9.03343 115.831 9.12837 115.775 9.17968Z" fill="#060500"/>
<path fill-rule="evenodd" clip-rule="evenodd" d="M113.195 6.70104C113.195 6.70746 113.195 6.71387 113.196 6.71901C113.2 6.79727 113.215 6.87424 113.173 6.9602C113.148 6.95892 113.159 6.93326 113.159 6.9153C113.167 6.78828 113.173 6.65999 113.181 6.5317C113.182 6.51245 113.188 6.49064 113.178 6.47525C113.139 6.48808 113.098 6.48936 113.059 6.52143C113.044 6.52528 113.044 6.5163 113.048 6.50347C113.078 6.46242 113.172 6.42136 113.199 6.43676C113.217 6.44446 113.221 6.46498 113.219 6.48808C113.216 6.54324 113.215 6.59713 113.199 6.65614C113.194 6.67154 113.188 6.68822 113.195 6.70104Z" fill="#0E0C00"/>
<path fill-rule="evenodd" clip-rule="evenodd" d="M113.066 6.4111C113.175 6.4188 113.185 6.40597 113.195 6.26998C113.2 6.25458 113.207 6.24817 113.219 6.25202C113.245 6.2905 113.228 6.34182 113.219 6.39314C113.218 6.40084 113.21 6.40982 113.203 6.4188C113.17 6.45087 113.075 6.46113 113.051 6.43548C113.049 6.42393 113.051 6.41367 113.066 6.4111Z" fill="#252000"/>
<path fill-rule="evenodd" clip-rule="evenodd" d="M113.178 6.47525C113.195 6.48808 113.188 6.51245 113.186 6.53426C113.18 6.65486 113.173 6.77546 113.167 6.89733C113.164 6.91786 113.16 6.94224 113.171 6.95892C113.186 6.98842 113.168 7.0051 113.145 7.0205C113.138 7.02178 113.134 7.01921 113.131 7.01665C113.144 6.99484 113.153 6.97046 113.154 6.94737C113.161 6.78957 113.171 6.63177 113.178 6.47525Z" fill="#322A00"/>
<path fill-rule="evenodd" clip-rule="evenodd" d="M115.548 9.55559C115.551 9.55687 115.556 9.55815 115.559 9.55943C115.522 9.6223 115.484 9.68388 115.447 9.74546C115.445 9.74161 115.44 9.73776 115.437 9.73263C115.424 9.67875 115.498 9.56072 115.548 9.55559Z" fill="#241E00"/>
<path fill-rule="evenodd" clip-rule="evenodd" d="M113.066 6.4111C113.062 6.41495 113.058 6.42008 113.053 6.42521C113.05 6.45472 113.047 6.48423 113.048 6.51374C113.052 6.5163 113.055 6.51758 113.059 6.52143C113.048 6.53683 113.037 6.55222 113.026 6.5689C112.998 6.51245 113.002 6.45729 113.037 6.38159C113.047 6.39186 113.056 6.40084 113.066 6.4111Z" fill="#272000"/>
<path fill-rule="evenodd" clip-rule="evenodd" d="M113.207 6.24945C113.203 6.25586 113.199 6.26356 113.195 6.26998C113.19 6.2456 113.173 6.23534 113.157 6.21609C113.202 6.17504 113.243 6.16734 113.286 6.16093C113.295 6.16093 113.313 6.15836 113.313 6.17376C113.313 6.18787 113.297 6.19685 113.286 6.2084C113.285 6.20455 113.283 6.2007 113.28 6.19813C113.255 6.21224 113.228 6.21994 113.207 6.24945Z" fill="#201B00"/>
<path fill-rule="evenodd" clip-rule="evenodd" d="M113.131 7.01665C113.135 7.01536 113.141 7.01536 113.146 7.01408C113.172 7.01793 113.198 7.02819 113.229 7.00638C113.234 7.00895 113.241 7.01152 113.239 7.02306C113.22 7.05257 113.2 7.08079 113.183 7.1103C113.164 7.08336 113.153 7.05257 113.122 7.04102C113.108 7.03589 113.123 7.02435 113.131 7.01665Z" fill="#221C00"/>
<path fill-rule="evenodd" clip-rule="evenodd" d="M113.197 7.88648C113.194 7.89161 113.191 7.89546 113.186 7.90059C113.164 7.89418 113.131 7.94165 113.118 7.89546C113.126 7.88776 113.138 7.88135 113.147 7.87622C113.166 7.87493 113.181 7.8775 113.197 7.88648Z" fill="#3B2E0B"/>
<path fill-rule="evenodd" clip-rule="evenodd" d="M115.476 9.5171C115.478 9.51838 115.484 9.51966 115.487 9.52095C115.499 9.55045 115.497 9.56841 115.464 9.56457C115.462 9.56072 115.459 9.55559 115.456 9.55174C115.459 9.53762 115.466 9.52479 115.476 9.5171Z" fill="#050400"/>
<path fill-rule="evenodd" clip-rule="evenodd" d="M113.215 6.94737C113.218 6.94095 113.222 6.93582 113.225 6.92941C113.231 6.94865 113.232 6.97174 113.246 6.98586C113.242 6.99227 113.235 6.9974 113.231 6.9974C113.206 6.99484 113.197 6.98201 113.215 6.94737Z" fill="#020200"/>
<path fill-rule="evenodd" clip-rule="evenodd" d="M113.23 6.99099C113.235 6.98842 113.24 6.98714 113.245 6.98586C113.267 6.99997 113.267 6.99997 113.237 7.02306C113.232 7.01921 113.23 7.01665 113.227 7.01408C113.223 7.00638 113.223 6.99869 113.23 6.99099Z" fill="#3C3200"/>
<path fill-rule="evenodd" clip-rule="evenodd" d="M114.205 7.6748C114.215 7.67608 114.224 7.67993 114.233 7.68249C114.214 7.73509 114.187 7.7043 114.164 7.70174C114.164 7.70174 114.164 7.70174 114.164 7.70302C114.174 7.68249 114.191 7.68249 114.205 7.6748Z" fill="#3A2E09"/>
<path fill-rule="evenodd" clip-rule="evenodd" d="M112.312 11.0925C112.326 11.0772 112.338 11.0759 112.354 11.072C112.35 11.0874 112.34 11.0913 112.333 11.099C112.33 11.09 112.318 11.0938 112.312 11.0925Z" fill="#997E00"/>
<path fill-rule="evenodd" clip-rule="evenodd" d="M114.97 10.623C114.964 10.6114 114.957 10.6037 114.964 10.5909C114.974 10.5948 114.979 10.6025 114.981 10.6102C114.978 10.614 114.973 10.6179 114.97 10.623Z" fill="#B89800"/>
<path fill-rule="evenodd" clip-rule="evenodd" d="M113.349 11.4274C113.35 11.4197 113.356 11.4069 113.36 11.4107C113.372 11.4171 113.365 11.4325 113.356 11.4454C113.354 11.4402 113.35 11.4351 113.349 11.4274Z" fill="#AD8F00"/>
<path fill-rule="evenodd" clip-rule="evenodd" d="M112.613 8.2457C112.628 8.27008 112.617 8.30344 112.616 8.33294C112.609 8.92694 112.602 9.51197 112.597 10.088C112.597 10.1278 112.605 10.1688 112.596 10.2099C112.591 10.2048 112.585 10.1842 112.578 10.2163C112.558 10.2997 112.537 10.3844 112.515 10.4678C112.511 10.4832 112.513 10.5204 112.482 10.4921C112.47 10.4819 112.463 10.5037 112.457 10.5152C112.433 10.5486 112.412 10.5858 112.389 10.6204C112.394 9.8776 112.4 9.1258 112.407 8.36117C112.433 8.38041 112.453 8.39837 112.473 8.41505C112.483 8.42147 112.487 8.4343 112.502 8.4266C112.527 8.41633 112.61 8.28034 112.613 8.2457Z" fill="#AF7E55"/>
<path fill-rule="evenodd" clip-rule="evenodd" d="M112.289 10.1111C112.285 10.0957 112.281 10.079 112.277 10.0623C112.255 9.9828 112.255 9.9828 112.196 10.0444C112.131 10.0136 112.146 9.93662 112.146 9.86862C112.15 9.39009 112.153 8.9077 112.157 8.42147C112.189 8.42916 112.207 8.45226 112.227 8.47022C112.245 8.48818 112.26 8.4869 112.278 8.45867C112.298 8.43045 112.318 8.40479 112.339 8.37913C112.357 8.39196 112.35 8.41249 112.349 8.42788C112.342 8.96287 112.339 9.49016 112.336 10.0149C112.336 10.0546 112.325 10.0829 112.289 10.1111Z" fill="#AF7E54"/>
<path fill-rule="evenodd" clip-rule="evenodd" d="M111.92 8.48433C111.949 8.50486 111.978 8.54335 112.005 8.5395C112.035 8.53565 112.059 8.47663 112.088 8.44713C112.091 8.44328 112.094 8.44328 112.1 8.44071C112.096 8.83586 112.094 9.22844 112.091 9.61973C112.064 9.58124 112.064 9.58124 112.004 9.6595C111.981 9.60434 111.973 9.53762 111.913 9.5171C111.904 9.51453 111.906 9.49914 111.906 9.48759C111.908 9.15916 111.91 8.82944 111.912 8.49844C111.912 8.49459 111.917 8.49075 111.92 8.48433ZM112.289 7.74664C112.258 7.70045 112.231 7.66197 112.206 7.61963C112.184 7.58627 112.192 7.54394 112.212 7.5016C112.218 7.49005 112.233 7.47466 112.213 7.46953C112.201 7.46568 112.192 7.47466 112.186 7.49005C112.179 7.50416 112.168 7.51956 112.168 7.53496C112.166 7.61835 112.104 7.66966 112.061 7.73381C112.049 7.75306 112.041 7.75049 112.033 7.73509C112.022 7.70559 112.01 7.67864 111.997 7.6517C111.988 7.63502 111.996 7.61963 112.006 7.60423C112.08 7.48107 112.167 7.37074 112.261 7.26682C112.277 7.24629 112.289 7.24501 112.304 7.25527C112.39 7.31942 112.471 7.3887 112.57 7.42975C112.587 7.43745 112.585 7.45285 112.585 7.47081C112.585 7.55163 112.582 7.63118 112.582 7.71072C112.581 7.75306 112.566 7.75177 112.545 7.73894C112.5 7.70815 112.463 7.66838 112.433 7.61963C112.419 7.59782 112.424 7.56831 112.434 7.53752C112.438 7.52469 112.457 7.50673 112.433 7.50288C112.411 7.50032 112.402 7.52469 112.402 7.5388C112.392 7.6222 112.333 7.6748 112.289 7.74664ZM112.034 10.8449C112.037 10.877 112.053 10.8924 112.066 10.9117C112.103 10.9694 112.102 10.9758 112.041 11.022C112.048 11.0502 112.091 11.0399 112.089 11.0836C112.085 11.149 112.095 11.2144 112.061 11.285C112.02 11.3697 111.975 11.4531 111.911 11.5262C111.897 11.5159 111.9 11.4992 111.901 11.4864C111.901 11.199 111.904 10.9117 111.904 10.623C111.902 10.5794 111.91 10.5653 111.947 10.5819C111.976 10.596 112.012 10.596 112.048 10.5807C112.084 10.5678 112.093 10.5845 112.092 10.6204C112.089 10.6692 112.086 10.7179 112.091 10.7667C112.095 10.8116 112.088 10.8437 112.034 10.8449Z" fill="#AF7E55"/>
<path fill-rule="evenodd" clip-rule="evenodd" d="M112.6 10.2804C112.667 10.3651 112.757 10.4075 112.851 10.4472C112.821 10.5242 112.784 10.5999 112.745 10.6743C112.753 10.6897 112.778 10.6666 112.78 10.6807C112.78 10.6923 112.768 10.7089 112.763 10.7231C112.714 10.809 112.668 10.8975 112.62 10.9848C112.6 10.9245 112.58 10.9206 112.524 10.9643C112.509 10.9758 112.494 10.9938 112.472 10.9848C112.477 10.9643 112.494 10.9553 112.506 10.9437C112.584 10.8616 112.624 10.7705 112.624 10.6653C112.627 10.6102 112.623 10.6089 112.578 10.641C112.566 10.6487 112.555 10.6576 112.543 10.6666C112.508 10.5396 112.579 10.4087 112.6 10.2804Z" fill="#FED100"/>
<path fill-rule="evenodd" clip-rule="evenodd" d="M112.541 11.2696C112.55 11.2196 112.587 11.1926 112.596 11.1464C112.526 11.1862 112.452 11.1977 112.392 11.2619C112.382 11.2747 112.37 11.2837 112.359 11.2709C112.348 11.258 112.355 11.2427 112.364 11.2311C112.41 11.1785 112.455 11.1246 112.52 11.1195C112.574 11.1169 112.61 11.0874 112.639 11.0258C112.691 10.9168 112.749 10.8129 112.805 10.7064C112.814 10.6871 112.82 10.6679 112.84 10.6551C112.854 10.6576 112.85 10.6743 112.853 10.6833C112.857 10.7282 112.873 10.7397 112.909 10.6948C112.935 10.6628 112.942 10.6769 112.945 10.7064C112.947 10.7282 112.933 10.7436 112.925 10.7603C112.85 10.8886 112.774 11.0181 112.698 11.1451C112.673 11.1901 112.647 11.235 112.635 11.285C112.632 11.294 112.634 11.3094 112.62 11.3119C112.605 11.3171 112.597 11.3029 112.597 11.2901C112.6 11.2452 112.586 11.235 112.541 11.2696Z" fill="#D00429"/>
<path fill-rule="evenodd" clip-rule="evenodd" d="M113.118 7.89546C113.137 7.90829 113.167 7.88263 113.186 7.90059C113.161 7.9224 113.136 7.94421 113.107 7.97244C113.118 7.97115 113.126 7.97115 113.136 7.97115C113.136 7.97372 113.136 7.97629 113.135 7.97885C112.935 8.02376 112.733 8.06994 112.532 8.11741C112.554 8.14435 112.574 8.17001 112.597 8.19824C112.572 8.22646 112.547 8.25468 112.522 8.28163C112.499 8.16744 112.52 7.9378 112.566 7.85697C112.605 7.91599 112.641 7.97629 112.686 8.02504C112.709 8.04813 112.726 8.06866 112.75 8.01093C112.754 7.99938 112.764 7.9904 112.77 7.98014C112.819 7.91855 112.819 7.91855 112.851 7.97244C112.884 8.0276 112.889 8.0276 112.938 7.97115C112.951 7.95704 112.966 7.94036 112.98 7.92369C112.985 7.90957 112.989 7.89674 113.004 7.89418C113.007 7.8929 113.009 7.89161 113.01 7.89161C113.047 7.8929 113.082 7.89418 113.118 7.89546Z" fill="#AE7E54"/>
<path fill-rule="evenodd" clip-rule="evenodd" d="M112.889 10.4601C112.966 10.4819 113.041 10.5037 113.119 10.5242C113.085 10.5717 113.051 10.6191 113.016 10.664C113.009 10.6756 112.99 10.7013 112.986 10.6743C112.978 10.605 112.95 10.6063 112.894 10.6666C112.897 10.5986 112.878 10.5691 112.807 10.6268C112.843 10.5601 112.873 10.5127 112.889 10.4601Z" fill="#AF7E54"/>
<path fill-rule="evenodd" clip-rule="evenodd" d="M111.915 8.09688C111.93 7.96474 111.9 7.85184 111.944 7.7197C112.033 7.83131 112.023 7.9827 111.915 8.09688Z" fill="#AD7D53"/>
<path fill-rule="evenodd" clip-rule="evenodd" d="M112.159 7.69789C112.278 7.82747 112.277 7.94293 112.154 8.04813C112.155 7.93138 112.158 7.81592 112.159 7.69789Z" fill="#AB7C53"/>
<path fill-rule="evenodd" clip-rule="evenodd" d="M112.382 10.9245C112.297 10.9873 112.153 10.9771 112.111 10.904C112.094 10.8744 112.117 10.8744 112.132 10.8706C112.213 10.8501 112.284 10.8578 112.345 10.9014C112.358 10.9104 112.371 10.9181 112.382 10.9258V10.9245ZM112.441 10.8411C112.382 10.7603 112.386 10.6756 112.45 10.5781C112.468 10.5511 112.476 10.5511 112.485 10.5755C112.506 10.6384 112.534 10.7013 112.47 10.7795C112.458 10.7936 112.452 10.818 112.441 10.8411Z" fill="#097553"/>
<path fill-rule="evenodd" clip-rule="evenodd" d="M112.119 8.05711C111.997 8.02119 111.994 7.85441 112.122 7.73253C112.121 7.84029 112.12 7.94934 112.119 8.05711Z" fill="#AF7E54"/>
<path fill-rule="evenodd" clip-rule="evenodd" d="M112.4 8.00451C112.402 7.89931 112.403 7.79411 112.406 7.68763C112.446 7.73766 112.476 7.78898 112.524 7.8172C112.539 7.8249 112.526 7.84158 112.519 7.85312C112.485 7.90573 112.453 7.95961 112.4 8.00451Z" fill="#AD7D54"/>
<path fill-rule="evenodd" clip-rule="evenodd" d="M112.317 10.8372C112.269 10.8308 112.22 10.8283 112.17 10.8295C112.145 10.8295 112.126 10.7705 112.149 10.7551C112.195 10.7205 112.205 10.6769 112.207 10.6268C112.212 10.6256 112.216 10.6243 112.22 10.6217C112.252 10.6936 112.286 10.7654 112.317 10.8372ZM112.363 7.99681C112.251 7.95063 112.239 7.84414 112.368 7.71328C112.366 7.80822 112.364 7.90188 112.363 7.99681Z" fill="#AC7C53"/>
<path fill-rule="evenodd" clip-rule="evenodd" d="M112.318 10.1432C112.342 10.2355 112.339 10.3202 112.284 10.4075C112.277 10.419 112.27 10.4344 112.258 10.4357C112.244 10.4357 112.247 10.419 112.243 10.4087C112.223 10.3189 112.254 10.2343 112.318 10.1432Z" fill="#097553"/>
<path fill-rule="evenodd" clip-rule="evenodd" d="M112.382 10.9258C112.338 10.827 112.293 10.7282 112.251 10.6281C112.239 10.5986 112.229 10.5653 112.218 10.5281C112.254 10.5473 112.457 10.9822 112.468 11.0553C112.422 11.0207 112.414 10.9617 112.382 10.9245C112.383 10.9245 112.383 10.9258 112.383 10.9258" fill="#EECE02"/>
<path fill-rule="evenodd" clip-rule="evenodd" d="M112.858 7.83388C112.812 7.88391 112.76 7.91855 112.726 7.97244C112.717 7.98527 112.71 7.98014 112.706 7.97372C112.7 7.97115 112.697 7.96602 112.693 7.95961C112.679 7.92497 112.642 7.88391 112.659 7.85184C112.679 7.81464 112.732 7.81849 112.77 7.81464C112.803 7.81207 112.832 7.81849 112.858 7.83388Z" fill="#AE7D54"/>
<path fill-rule="evenodd" clip-rule="evenodd" d="M112.028 8.39966C112.025 8.38939 112.024 8.3817 112.025 8.37271C112.027 8.29189 112.028 8.2085 112.029 8.12511C112.145 8.16488 112.156 8.28932 112.028 8.39966Z" fill="#AF7E54"/>
<path fill-rule="evenodd" clip-rule="evenodd" d="M112.274 8.34577C112.276 8.2534 112.277 8.16231 112.278 8.07122C112.394 8.09945 112.396 8.20593 112.274 8.34577Z" fill="#AE7D54"/>
<path fill-rule="evenodd" clip-rule="evenodd" d="M111.995 8.13024C111.993 8.22518 111.992 8.31883 111.991 8.41377C111.959 8.39196 111.919 8.38554 111.915 8.33551C111.906 8.23416 111.915 8.20978 111.995 8.13024Z" fill="#A87951"/>
<path fill-rule="evenodd" clip-rule="evenodd" d="M112.239 8.07122C112.236 8.16231 112.236 8.2534 112.235 8.34449C112.13 8.31113 112.101 8.2008 112.239 8.07122Z" fill="#AD7D54"/>
<path fill-rule="evenodd" clip-rule="evenodd" d="M112.053 9.67746C112.105 9.76984 112.097 9.85451 112.029 9.95073C111.98 9.893 111.988 9.78395 112.053 9.67746Z" fill="#097553"/>
<path fill-rule="evenodd" clip-rule="evenodd" d="M112.009 10.1547C112.039 10.2201 112.068 10.2843 112.097 10.3497C112.034 10.3241 111.982 10.3202 111.924 10.3407C111.897 10.3523 111.906 10.3228 111.906 10.3087C111.906 10.2958 111.897 10.2702 111.919 10.2689C111.987 10.2676 111.995 10.2176 111.998 10.1598C112.002 10.1586 112.006 10.156 112.009 10.1547Z" fill="#AE7D54"/>
<path fill-rule="evenodd" clip-rule="evenodd" d="M112.745 11.4941C112.744 11.4967 112.742 11.5005 112.742 11.5044C112.723 11.6083 112.725 11.6057 112.642 11.5826C112.608 11.5736 112.619 11.5454 112.624 11.5185C112.642 11.4364 112.643 11.4351 112.706 11.4569C112.723 11.462 112.754 11.4556 112.745 11.4941Z" fill="#F1D002"/>
<path fill-rule="evenodd" clip-rule="evenodd" d="M112.484 8.02247C112.483 8.11484 112.481 8.20722 112.481 8.30087C112.443 8.25982 112.395 8.2534 112.394 8.17899C112.391 8.1033 112.455 8.07764 112.474 8.01991C112.477 8.02119 112.481 8.02247 112.484 8.02247Z" fill="#AE7E54"/>
<path fill-rule="evenodd" clip-rule="evenodd" d="M112.155 10.5037C112.061 10.573 111.984 10.5807 111.925 10.5306C112.003 10.4626 112.08 10.4524 112.155 10.5037Z" fill="#097552"/>
<path fill-rule="evenodd" clip-rule="evenodd" d="M112.118 11.0169C112.196 10.9912 112.265 10.972 112.329 10.9912C112.34 10.995 112.355 10.9976 112.355 11.013C112.355 11.031 112.336 11.0361 112.324 11.0425C112.245 11.0848 112.179 11.081 112.118 11.0169Z" fill="#097553"/>
<path fill-rule="evenodd" clip-rule="evenodd" d="M112.208 10.3369C112.142 10.2856 112.146 10.165 112.212 10.0944C112.227 10.0803 112.233 10.0829 112.239 10.0944C112.255 10.1316 112.262 10.174 112.24 10.2201C112.224 10.2561 112.207 10.2946 112.208 10.3369Z" fill="#097653"/>
<path fill-rule="evenodd" clip-rule="evenodd" d="M112.12 10.4434C112.089 10.4357 112.053 10.4357 112.017 10.4459C111.986 10.4549 111.936 10.4152 111.931 10.3856C111.924 10.3549 111.947 10.3549 111.96 10.3523C112.036 10.3382 112.089 10.3741 112.132 10.428C112.134 10.4382 112.131 10.4434 112.12 10.4434ZM112.588 10.6653C112.582 10.7526 112.574 10.8231 112.514 10.8834C112.504 10.895 112.492 10.9065 112.48 10.9014C112.464 10.8975 112.469 10.8783 112.47 10.8655C112.477 10.7885 112.524 10.732 112.588 10.6653ZM111.737 9.42088C111.743 9.46193 111.727 9.45552 111.71 9.45038C111.686 9.44012 111.664 9.42216 111.652 9.3965C111.639 9.37084 111.633 9.34005 111.636 9.30798C111.638 9.27462 111.653 9.27847 111.668 9.28617C111.725 9.30541 111.736 9.36314 111.737 9.42088Z" fill="#097452"/>
<path fill-rule="evenodd" clip-rule="evenodd" d="M112.256 11.1067C112.217 11.1567 112.18 11.2067 112.142 11.258C112.142 11.2029 112.14 11.1541 112.142 11.1041C112.143 11.081 112.157 11.0874 112.166 11.09C112.194 11.0938 112.221 11.1002 112.256 11.1067Z" fill="#A67850"/>
<path fill-rule="evenodd" clip-rule="evenodd" d="M111.582 9.49272C111.653 9.47989 111.702 9.49272 111.725 9.55302C111.729 9.562 111.738 9.57355 111.729 9.58766C111.722 9.60049 111.708 9.59921 111.697 9.59792C111.641 9.59022 111.613 9.54789 111.582 9.49272Z" fill="#097452"/>
<path fill-rule="evenodd" clip-rule="evenodd" d="M111.886 10.0226C111.784 10.0521 111.741 10.0431 111.703 9.98152C111.738 9.96484 111.775 9.95843 111.808 9.96613C111.841 9.97382 111.869 9.99178 111.886 10.0226Z" fill="#097351"/>
<path fill-rule="evenodd" clip-rule="evenodd" d="M111.878 9.91481C111.8 9.93149 111.737 9.92379 111.689 9.86606C111.752 9.82629 111.827 9.84553 111.878 9.91481Z" fill="#097251"/>
<path fill-rule="evenodd" clip-rule="evenodd" d="M111.808 9.49657C111.787 9.46835 111.776 9.43242 111.773 9.39393C111.772 9.35416 111.777 9.31311 111.795 9.27462C111.843 9.31824 111.849 9.39265 111.808 9.49657Z" fill="#097452"/>
<path fill-rule="evenodd" clip-rule="evenodd" d="M112.968 7.91342C112.962 7.91855 112.953 7.92112 112.947 7.92497C112.881 7.96859 112.881 7.96987 112.872 7.8929C112.869 7.87365 112.866 7.85441 112.864 7.8326C112.918 7.85312 112.968 7.86082 113.01 7.89161C113.011 7.8929 113.011 7.8929 113.011 7.8929C112.999 7.90829 112.983 7.90444 112.968 7.91342Z" fill="#A97A52"/>
<path fill-rule="evenodd" clip-rule="evenodd" d="M112.042 10.1188C112.092 10.2099 112.142 10.301 112.176 10.4049C112.17 10.4087 112.165 10.4139 112.157 10.4203C112.114 10.3241 112.069 10.2291 112.023 10.1342C112.03 10.1291 112.035 10.1239 112.042 10.1188Z" fill="#EBCB02"/>
<path fill-rule="evenodd" clip-rule="evenodd" d="M112.547 11.3594C112.562 11.3594 112.576 11.3697 112.566 11.3902C112.543 11.43 112.514 11.4672 112.48 11.4954C112.463 11.5108 112.449 11.5005 112.448 11.4813C112.448 11.4633 112.527 11.3632 112.547 11.3594Z" fill="#C90428"/>
<path fill-rule="evenodd" clip-rule="evenodd" d="M112.488 11.3222C112.53 11.3171 112.534 11.3363 112.504 11.3748C112.486 11.3979 112.468 11.421 112.449 11.4428C112.417 11.4774 112.401 11.471 112.4 11.43C112.406 11.4069 112.417 11.3838 112.433 11.3645C112.449 11.344 112.468 11.3312 112.488 11.3222Z" fill="#C50427"/>
<path fill-rule="evenodd" clip-rule="evenodd" d="M112.388 11.4197C112.351 11.4197 112.349 11.3992 112.373 11.3645C112.39 11.3427 112.41 11.3196 112.429 11.2978C112.46 11.2645 112.472 11.2683 112.477 11.3119C112.452 11.3543 112.427 11.3953 112.388 11.4197Z" fill="#CC0428"/>
<path fill-rule="evenodd" clip-rule="evenodd" d="M111.962 9.83783C111.924 9.76984 111.917 9.70954 111.953 9.62486C111.993 9.68644 111.983 9.75316 111.962 9.83783Z" fill="#097250"/>
<path fill-rule="evenodd" clip-rule="evenodd" d="M111.904 10.1137C111.906 10.0803 111.894 10.0418 111.935 10.0328C111.974 10.0264 111.98 10.0726 111.98 10.0996C111.984 10.1342 111.943 10.1547 111.919 10.1598C111.886 10.1675 111.914 10.1252 111.904 10.1137Z" fill="#AC7C53"/>
<path fill-rule="evenodd" clip-rule="evenodd" d="M111.826 9.67362C111.853 9.66848 111.86 9.68773 111.865 9.70056C111.892 9.75059 111.917 9.80191 111.939 9.85323C111.944 9.86092 111.946 9.87119 111.941 9.87889C111.931 9.88915 111.924 9.8853 111.92 9.8776C111.88 9.8173 111.85 9.74803 111.826 9.67362Z" fill="#EBCB02"/>
<path fill-rule="evenodd" clip-rule="evenodd" d="M112.331 10.3946C112.336 10.4601 112.322 10.4908 112.281 10.5088C112.268 10.5139 112.258 10.5178 112.253 10.5037C112.248 10.4921 112.258 10.4844 112.265 10.4755C112.288 10.4485 112.31 10.4216 112.331 10.3946Z" fill="#A0734D"/>
<path fill-rule="evenodd" clip-rule="evenodd" d="M112.094 9.92507C112.094 9.9533 112.094 9.98152 112.093 10.0097C112.093 10.0264 112.09 10.0431 112.072 10.0508C112.059 10.0559 112.052 10.0546 112.045 10.0431C112.037 10.029 112.034 10.0162 112.048 9.9982C112.061 9.97896 112.073 9.95715 112.094 9.92507Z" fill="#A2754E"/>
<path fill-rule="evenodd" clip-rule="evenodd" d="M112.144 10.5909C112.145 10.5704 112.138 10.5473 112.165 10.5396C112.191 10.5306 112.195 10.555 112.195 10.5704C112.199 10.5973 112.176 10.6191 112.155 10.6243C112.134 10.6307 112.149 10.6025 112.144 10.5909Z" fill="#A0744D"/>
<path fill-rule="evenodd" clip-rule="evenodd" d="M112.277 10.5588C112.336 10.564 112.339 10.6063 112.329 10.6628C112.304 10.6345 112.294 10.5986 112.277 10.5588Z" fill="#9B704B"/>
<path fill-rule="evenodd" clip-rule="evenodd" d="M111.908 10.4113C111.93 10.4318 111.946 10.4485 111.963 10.4665C111.943 10.478 111.922 10.505 111.911 10.496C111.895 10.4806 111.902 10.4472 111.908 10.4113Z" fill="#A77851"/>
<path fill-rule="evenodd" clip-rule="evenodd" d="M112.587 11.0412C112.539 11.0951 112.514 11.0925 112.501 11.0297C112.527 11.0438 112.549 11.0579 112.587 11.0412Z" fill="#E9C000"/>
<path fill-rule="evenodd" clip-rule="evenodd" d="M112.388 11.4197C112.417 11.3838 112.447 11.3479 112.477 11.3119C112.481 11.3158 112.484 11.3171 112.488 11.3209C112.459 11.3568 112.429 11.394 112.399 11.43C112.397 11.4274 112.392 11.4235 112.388 11.4197Z" fill="#200106"/>
<path fill-rule="evenodd" clip-rule="evenodd" d="M112.386 11.3132C112.387 11.285 112.4 11.2683 112.426 11.2555C112.422 11.2876 112.402 11.3004 112.386 11.3132Z" fill="#BA0424"/>
<path fill-rule="evenodd" clip-rule="evenodd" d="M112.424 11.1336C112.421 11.1067 112.415 11.0925 112.423 11.0682C112.432 11.0874 112.45 11.0964 112.424 11.1336Z" fill="#E1B900"/>
<path fill-rule="evenodd" clip-rule="evenodd" d="M112.076 10.1072C112.093 10.1098 112.095 10.1188 112.091 10.1355C112.08 10.1329 112.078 10.1226 112.076 10.1072Z" fill="#745438"/>
<path fill-rule="evenodd" clip-rule="evenodd" d="M112.12 10.4434C112.125 10.4382 112.128 10.4318 112.132 10.428C112.139 10.4318 112.152 10.437 112.144 10.4485C112.139 10.4575 112.127 10.4485 112.12 10.4434Z" fill="#06543B"/>
<path fill-rule="evenodd" clip-rule="evenodd" d="M112.968 7.91342C112.982 7.89803 112.997 7.89803 113.011 7.8929C113 7.90444 112.989 7.91342 112.98 7.92369C112.976 7.92112 112.974 7.91599 112.968 7.91342Z" fill="#302317"/>
<path fill-rule="evenodd" clip-rule="evenodd" d="M114.69 9.85194C114.692 9.55174 114.692 9.23485 114.697 8.90257C114.701 8.59081 114.706 8.27008 114.711 7.9378C114.715 7.94036 114.721 7.94293 114.723 7.94678C114.753 7.98398 114.777 8.03658 114.813 8.0507C114.85 8.06609 114.868 7.98527 114.908 7.96346C114.899 8.84227 114.892 9.63128 114.886 10.3382C114.851 10.3151 114.837 10.2817 114.821 10.2509C114.771 10.1457 114.739 10.029 114.707 9.91224C114.703 9.893 114.696 9.87247 114.69 9.85194ZM115.004 10.3484C114.986 10.3664 114.968 10.3779 114.946 10.3869C114.95 9.67233 114.958 8.86793 114.966 7.96346C114.986 7.96987 114.998 7.99168 115.009 8.00964C115.041 8.06866 115.069 8.06353 115.098 8.00964C115.109 7.99296 115.122 7.98014 115.133 7.96602C115.151 7.97629 115.144 7.99296 115.144 8.00708C115.138 8.7871 115.133 9.48246 115.129 10.1008C115.129 10.1111 115.128 10.1252 115.125 10.1368C115.123 10.1496 115.126 10.165 115.119 10.1778C115.091 10.2291 115.056 10.2792 115.029 10.3305C115.021 10.3382 115.013 10.3446 115.004 10.3484Z" fill="#AF7F55"/>
<path fill-rule="evenodd" clip-rule="evenodd" d="M115.184 9.95971C115.186 9.94688 115.183 9.93534 115.183 9.92379C115.186 9.35801 115.191 8.72552 115.196 8.02504C115.198 8.00579 115.199 7.9904 115.2 7.95704C115.225 7.99168 115.245 8.01734 115.265 8.04813C115.281 8.07379 115.293 8.07251 115.31 8.0507C115.327 8.02376 115.349 8.00195 115.37 7.97757C115.383 7.99553 115.376 8.01477 115.377 8.03145C115.374 8.63957 115.37 9.18995 115.37 9.66848C115.37 9.7275 115.334 9.76342 115.309 9.80576C115.284 9.85323 115.229 9.88273 115.219 9.94303C115.218 9.95073 115.203 9.95586 115.195 9.96099C115.192 9.96613 115.189 9.96613 115.184 9.95971Z" fill="#AF7E55"/>
<path fill-rule="evenodd" clip-rule="evenodd" d="M114.435 10.1868C114.458 10.1457 114.502 10.1316 114.534 10.1072C114.591 10.0675 114.639 10.0187 114.677 9.96099C114.711 10.0765 114.746 10.1881 114.782 10.2984C114.81 10.3805 114.847 10.4562 114.885 10.5306C114.896 10.5486 114.901 10.5588 114.871 10.5678C114.833 10.5781 114.832 10.6076 114.836 10.641C114.807 10.632 114.782 10.6281 114.756 10.6358C114.711 10.6499 114.684 10.6333 114.66 10.5999C114.608 10.5242 114.551 10.4472 114.493 10.3677C114.506 10.3651 114.519 10.36 114.533 10.3574C114.498 10.301 114.459 10.2471 114.435 10.1868Z" fill="#FED100"/>
<path fill-rule="evenodd" clip-rule="evenodd" d="M115.252 10.0765C115.288 10.0495 115.305 10.0072 115.339 9.97896C115.36 9.96228 115.336 9.93149 115.363 9.91353C115.362 10.2278 115.362 10.5281 115.361 10.8193C115.347 10.8231 115.339 10.8129 115.333 10.8052C115.237 10.7308 115.165 10.6461 115.18 10.5178C115.191 10.41 115.186 10.301 115.187 10.1881C115.188 10.1663 115.192 10.1445 115.204 10.1239C115.216 10.1047 115.232 10.088 115.252 10.0765ZM115.268 7.11543C115.23 7.03333 115.16 7.00125 115.164 6.88322C115.164 6.86783 115.156 6.855 115.151 6.84088C115.145 6.82549 115.138 6.81009 115.123 6.82421C115.103 6.84217 115.12 6.855 115.126 6.86654C115.145 6.92043 115.144 6.97431 115.115 7.02948C115.11 7.03461 115.11 7.04102 115.106 7.04616C115.082 7.09106 115.071 7.14751 115.039 7.17958C115.007 7.12698 114.954 7.09747 114.95 7.01152C114.949 6.99355 114.942 6.97944 114.935 6.96405C114.929 6.94865 114.92 6.95507 114.911 6.96276C114.9 6.97303 114.905 6.98201 114.91 6.99099C114.936 7.04872 114.915 7.09876 114.886 7.15007C114.859 7.19754 114.833 7.24501 114.799 7.2835C114.783 7.30146 114.765 7.31557 114.767 7.26939C114.771 7.17317 114.774 7.07566 114.776 6.97944C114.775 6.95635 114.783 6.94224 114.797 6.92812C114.886 6.8396 114.962 6.7267 115.04 6.61765C115.061 6.5843 115.074 6.58045 115.097 6.60354C115.169 6.68308 115.237 6.77417 115.298 6.87681C115.322 6.91914 115.326 6.9525 115.305 7.00125C115.292 7.03333 115.284 7.07053 115.268 7.11543Z" fill="#AF7E55"/>
<path fill-rule="evenodd" clip-rule="evenodd" d="M114.343 10.4087C114.355 10.4126 114.362 10.4177 114.37 10.4203C114.413 10.4447 114.415 10.4434 114.425 10.3921C114.425 10.3818 114.42 10.3677 114.436 10.3638C114.449 10.3626 114.456 10.3741 114.462 10.3831C114.52 10.4665 114.582 10.5473 114.637 10.6307C114.663 10.6692 114.697 10.6846 114.747 10.6692C114.81 10.6525 114.853 10.6794 114.898 10.7077C114.911 10.7179 114.922 10.7282 114.909 10.7449C114.897 10.7603 114.882 10.7513 114.873 10.7436C114.814 10.7102 114.741 10.7308 114.675 10.7141C114.68 10.75 114.715 10.7628 114.728 10.7911C114.709 10.8103 114.692 10.7885 114.676 10.7949C114.666 10.818 114.686 10.8552 114.654 10.8629C114.623 10.8719 114.636 10.8257 114.62 10.809C114.604 10.7936 114.593 10.7744 114.577 10.7564C114.502 10.6679 114.43 10.5781 114.355 10.4883C114.334 10.4652 114.326 10.4434 114.343 10.4087Z" fill="#D00429"/>
<path fill-rule="evenodd" clip-rule="evenodd" d="M114.163 7.70302C114.187 7.69789 114.211 7.70045 114.233 7.68249C114.268 7.66838 114.301 7.65427 114.336 7.63887C114.342 7.64016 114.345 7.64657 114.348 7.65042C114.372 7.6594 114.395 7.67736 114.411 7.70174C114.444 7.75049 114.464 7.7197 114.488 7.67736C114.5 7.65427 114.503 7.60937 114.527 7.60937C114.55 7.60937 114.571 7.63631 114.583 7.66325C114.608 7.72355 114.628 7.70174 114.655 7.65555C114.698 7.58756 114.734 7.51058 114.771 7.43232C114.796 7.47081 114.813 7.50801 114.81 7.56446C114.805 7.67608 114.805 7.78769 114.794 7.90829C114.774 7.88007 114.755 7.85312 114.737 7.82618C114.745 7.78641 114.775 7.7646 114.795 7.71713C114.616 7.73125 114.436 7.75049 114.258 7.7723C114.251 7.76588 114.245 7.75947 114.238 7.75306C114.211 7.74407 114.185 7.72611 114.163 7.70302Z" fill="#AF7E54"/>
<path fill-rule="evenodd" clip-rule="evenodd" d="M115.177 10.1765C115.141 10.2407 115.104 10.3048 115.067 10.3664C115.055 10.3908 115.049 10.4152 115.052 10.4395C115.052 10.4703 115.05 10.5037 115.024 10.5281C115.001 10.5511 114.973 10.5653 114.939 10.5524C114.902 10.5383 114.895 10.5114 114.901 10.4767C114.908 10.4459 114.929 10.4241 114.955 10.4049C114.974 10.3921 115.001 10.3818 115.012 10.36C115.039 10.2804 115.088 10.215 115.133 10.1457C115.152 10.1149 115.17 10.0829 115.188 10.0508C115.195 10.0405 115.203 10.0264 115.219 10.0303C115.239 10.0341 115.244 10.0495 115.242 10.0649C115.229 10.1072 115.206 10.1445 115.177 10.1765Z" fill="#F3D202"/>
<path fill-rule="evenodd" clip-rule="evenodd" d="M114.162 10.3343C114.238 10.2881 114.315 10.2432 114.392 10.1996C114.405 10.2432 114.433 10.2766 114.461 10.3125C114.444 10.3215 114.431 10.3189 114.418 10.3151C114.399 10.31 114.388 10.3189 114.387 10.3356C114.387 10.401 114.357 10.3792 114.326 10.3664C114.324 10.3638 114.32 10.3638 114.315 10.3626C114.296 10.3856 114.301 10.4177 114.282 10.4472C114.238 10.4126 114.198 10.3754 114.162 10.3343Z" fill="#AF7E54"/>
<path fill-rule="evenodd" clip-rule="evenodd" d="M115.466 9.56457C115.477 9.55302 115.485 9.53762 115.487 9.51966C115.494 9.50812 115.5 9.49657 115.505 9.48374C115.509 9.46835 115.514 9.45295 115.534 9.45936C115.551 9.4645 115.564 9.47348 115.572 9.49144C115.581 9.51197 115.572 9.52351 115.562 9.53378C115.558 9.54147 115.552 9.54917 115.548 9.55559C115.502 9.60819 115.472 9.67105 115.438 9.73263C115.421 9.76214 115.404 9.79165 115.385 9.81987C115.377 9.83527 115.368 9.85451 115.343 9.83655C115.319 9.81859 115.333 9.80576 115.34 9.79165C115.378 9.72365 115.419 9.65309 115.458 9.58509C115.461 9.57868 115.462 9.5697 115.466 9.56457Z" fill="#F1D002"/>
<path fill-rule="evenodd" clip-rule="evenodd" d="M115.12 10.673C115.081 10.6397 115.042 10.605 115.001 10.5717C115.062 10.5345 115.077 10.4806 115.07 10.419C115.068 10.3779 115.098 10.3472 115.121 10.3023C115.12 10.4267 115.121 10.5511 115.12 10.673ZM115.363 7.03974C115.388 7.11159 115.397 7.32455 115.376 7.49005C115.285 7.40538 115.278 7.18856 115.363 7.03974ZM115.16 7.51571C115.029 7.40153 115.068 7.25271 115.16 7.09876C115.168 7.10517 115.167 7.118 115.165 7.12826C115.164 7.25784 115.163 7.38742 115.16 7.51571Z" fill="#AE7E54"/>
<path fill-rule="evenodd" clip-rule="evenodd" d="M115.195 7.51443C115.196 7.38357 115.199 7.25399 115.2 7.12057C115.299 7.19883 115.325 7.39511 115.195 7.51443Z" fill="#AD7D54"/>
<path fill-rule="evenodd" clip-rule="evenodd" d="M114.93 7.17317C114.929 7.29633 114.926 7.41949 114.924 7.54137C114.872 7.50801 114.844 7.45285 114.812 7.40025C114.803 7.38613 114.807 7.37459 114.817 7.36176C114.86 7.31557 114.89 7.25014 114.93 7.17317Z" fill="#AE7E54"/>
<path fill-rule="evenodd" clip-rule="evenodd" d="M114.844 7.58242C114.957 7.73509 114.957 7.78256 114.839 7.90188C114.84 7.79539 114.843 7.68891 114.844 7.58242Z" fill="#AA7B52"/>
<path fill-rule="evenodd" clip-rule="evenodd" d="M115.276 7.55677C115.275 7.67608 115.273 7.79539 115.273 7.91471C115.24 7.85826 115.198 7.83645 115.189 7.76588C115.176 7.66325 115.224 7.61578 115.276 7.55677Z" fill="#AB7C53"/>
<path fill-rule="evenodd" clip-rule="evenodd" d="M114.492 7.51571C114.551 7.46054 114.607 7.44772 114.666 7.44515C114.688 7.44515 114.696 7.45413 114.685 7.48364C114.684 7.48749 114.682 7.49262 114.68 7.49647C114.668 7.53752 114.66 7.59012 114.635 7.61193C114.6 7.64144 114.59 7.57473 114.564 7.56575C114.539 7.55548 114.517 7.53496 114.492 7.51571Z" fill="#AD7D54"/>
<path fill-rule="evenodd" clip-rule="evenodd" d="M115.077 7.56575C115.196 7.67095 115.18 7.81207 115.072 7.89674C115.074 7.78769 115.076 7.67736 115.077 7.56575Z" fill="#AD7D53"/>
<path fill-rule="evenodd" clip-rule="evenodd" d="M115.035 7.89674C114.934 7.81977 114.912 7.68763 115.039 7.56959C115.037 7.67993 115.036 7.78898 115.035 7.89674Z" fill="#AD7D54"/>
<path fill-rule="evenodd" clip-rule="evenodd" d="M114.96 7.52726C114.963 7.41692 114.964 7.30788 114.967 7.19754C115.076 7.25656 115.076 7.38613 114.96 7.52726Z" fill="#AE7E54"/>
<path fill-rule="evenodd" clip-rule="evenodd" d="M115.307 7.56318C115.413 7.64016 115.405 7.85184 115.306 7.90444C115.306 7.89674 115.304 7.89161 115.304 7.8852C115.304 7.77871 115.306 7.67223 115.307 7.56318Z" fill="#AF7E54"/>
<path fill-rule="evenodd" clip-rule="evenodd" d="M114.612 11.1541C114.613 11.1169 114.614 11.0874 114.612 11.0579C114.613 11.0412 114.621 11.0335 114.639 11.0348C114.653 11.0361 114.669 11.0387 114.681 11.0425C114.722 11.0579 114.722 11.0682 114.684 11.0964C114.663 11.1131 114.642 11.1298 114.612 11.1541Z" fill="#EDCD02"/>
<path fill-rule="evenodd" clip-rule="evenodd" d="M114.348 7.65042C114.344 7.64657 114.339 7.64272 114.336 7.63887C114.38 7.59525 114.429 7.5619 114.476 7.52597C114.486 7.54778 114.48 7.56831 114.477 7.58756C114.466 7.66838 114.46 7.67095 114.404 7.6517C114.387 7.64529 114.37 7.62476 114.348 7.65042Z" fill="#AC7C53"/>
<path fill-rule="evenodd" clip-rule="evenodd" d="M114.912 10.8501C114.908 10.8655 114.895 10.8809 114.875 10.8706C114.847 10.8552 114.82 10.8372 114.796 10.8167C114.78 10.8026 114.794 10.7872 114.814 10.7808C114.831 10.7744 114.91 10.8308 114.912 10.8501Z" fill="#C40426"/>
<path fill-rule="evenodd" clip-rule="evenodd" d="M114.865 10.8975C114.863 10.9129 114.851 10.927 114.835 10.9193C114.804 10.904 114.776 10.886 114.752 10.8642C114.738 10.8526 114.749 10.836 114.765 10.8295C114.784 10.8231 114.868 10.8796 114.865 10.8975Z" fill="#C50427"/>
<path fill-rule="evenodd" clip-rule="evenodd" d="M114.725 10.8783C114.739 10.8757 114.82 10.9283 114.819 10.9424C114.821 10.9514 114.815 10.9591 114.808 10.9655C114.803 10.9694 114.799 10.9707 114.794 10.9707C114.789 10.9707 114.784 10.9694 114.782 10.9681C114.755 10.9514 114.731 10.9347 114.709 10.9193C114.701 10.9142 114.699 10.9052 114.702 10.8963C114.706 10.8873 114.715 10.8809 114.725 10.8783Z" fill="#CB0428"/>
<path fill-rule="evenodd" clip-rule="evenodd" d="M114.853 10.6204C114.853 10.596 114.865 10.5819 114.887 10.5807C114.918 10.5768 114.942 10.5896 114.945 10.6179C114.95 10.641 114.93 10.6525 114.907 10.6551C114.878 10.6551 114.858 10.6435 114.853 10.6204ZM115.333 9.94945C115.33 9.97126 115.316 9.97511 115.3 9.97126C115.273 9.96741 115.245 9.95201 115.241 9.92251C115.238 9.9007 115.255 9.89428 115.274 9.89813C115.303 9.90454 115.324 9.92122 115.333 9.94945Z" fill="#EECE02"/>
<path fill-rule="evenodd" clip-rule="evenodd" d="M115.133 10.1457C115.095 10.2189 115.056 10.2907 115.011 10.36C115.007 10.3561 115.005 10.3523 115.001 10.3484C115.041 10.2766 115.079 10.2035 115.125 10.1355C115.127 10.1393 115.13 10.1432 115.133 10.1457Z" fill="#1B1606"/>
<path fill-rule="evenodd" clip-rule="evenodd" d="M115.289 10.0085C115.288 10.0264 115.276 10.0277 115.262 10.0264C115.239 10.0213 115.218 10.0123 115.214 9.98665C115.212 9.97126 115.226 9.96613 115.24 9.96997C115.262 9.97382 115.28 9.98665 115.289 10.0085Z" fill="#E6C702"/>
<path fill-rule="evenodd" clip-rule="evenodd" d="M115.36 9.88273C115.363 9.90711 115.343 9.90454 115.336 9.90326C115.312 9.9007 115.291 9.88658 115.286 9.86092C115.281 9.84425 115.296 9.84296 115.311 9.84553C115.335 9.84938 115.351 9.86221 115.36 9.88273Z" fill="#E5C602"/>
<path fill-rule="evenodd" clip-rule="evenodd" d="M115.177 10.1765C115.199 10.1393 115.219 10.1021 115.242 10.0649C115.245 10.07 115.249 10.0726 115.252 10.0765C115.235 10.1149 115.213 10.1534 115.187 10.1881C115.182 10.1842 115.18 10.1804 115.177 10.1765Z" fill="#211B04"/>
<path fill-rule="evenodd" clip-rule="evenodd" d="M114.726 11.0027C114.726 11.0169 114.718 11.0207 114.706 11.022C114.687 11.0246 114.67 11.0194 114.661 11.004C114.656 10.9938 114.665 10.9861 114.677 10.9835C114.687 10.9822 114.697 10.9822 114.704 10.9861C114.714 10.9886 114.722 10.995 114.726 11.0027Z" fill="#E0C202"/>
<path fill-rule="evenodd" clip-rule="evenodd" d="M114.858 10.7526C114.869 10.7603 114.887 10.7628 114.888 10.7795C114.888 10.7859 114.88 10.7911 114.874 10.7872C114.861 10.7808 114.847 10.7757 114.844 10.7615C114.843 10.7551 114.847 10.7513 114.858 10.7526Z" fill="#A60320"/>
<path fill-rule="evenodd" clip-rule="evenodd" d="M115.184 9.95971C115.188 9.95971 115.192 9.95971 115.195 9.95971C115.194 9.98024 115.194 10.0008 115.194 10.0187C115.178 9.99178 115.187 9.97639 115.184 9.95971Z" fill="#A3764E"/>
<path fill-rule="evenodd" clip-rule="evenodd" d="M113.44 10.6102C113.509 10.6268 113.568 10.6551 113.617 10.7051C113.637 10.7269 113.648 10.7166 113.664 10.6936C113.713 10.6268 113.775 10.573 113.844 10.5319C113.986 10.8437 114.137 11.1362 114.402 11.335C114.334 11.3722 114.269 11.412 114.201 11.4492C114.178 11.462 114.17 11.4441 114.161 11.4338C113.993 11.2645 113.845 11.0746 113.772 10.8206C113.768 10.8077 113.769 10.7885 113.748 10.7808C113.736 10.8873 113.75 10.9822 113.768 11.0759C113.807 11.2619 113.861 11.4351 113.954 11.5839C113.967 11.6032 113.96 11.616 113.939 11.6339C113.836 11.7122 113.734 11.793 113.649 11.8957C113.636 11.9098 113.628 11.9136 113.616 11.9059C113.53 11.8546 113.435 11.8264 113.332 11.8046C113.302 11.7982 113.301 11.7841 113.317 11.7507C113.435 11.4826 113.503 11.2157 113.531 10.9463C113.535 10.9142 113.531 10.8834 113.533 10.8526C113.534 10.8437 113.534 10.8347 113.521 10.8295C113.509 10.868 113.496 10.9052 113.486 10.9424C113.407 11.217 113.259 11.4697 113.101 11.7225C113.09 11.7404 113.08 11.7545 113.056 11.752C112.996 11.7443 112.931 11.7404 112.863 11.734C112.95 11.6263 113.021 11.5134 113.086 11.3966C113.227 11.14 113.338 10.877 113.44 10.6102Z" fill="#AF7E55"/>
<path fill-rule="evenodd" clip-rule="evenodd" d="M112.656 9.36571C112.66 9.01932 112.664 8.67292 112.67 8.3214C112.671 8.26623 112.677 8.20978 112.652 8.16616C112.671 8.14563 112.691 8.1482 112.708 8.14307C113.357 8.00195 113.998 7.88391 114.627 7.80437C114.664 7.80181 114.686 7.80052 114.663 7.86595C114.655 7.89803 114.656 7.93652 114.656 7.97244C114.65 8.33423 114.648 8.68575 114.644 9.02573C114.643 9.05011 114.641 9.07448 114.641 9.09758C114.638 9.10271 114.632 9.10527 114.628 9.10656C114.54 9.09501 114.466 9.04113 114.395 8.98596C114.337 8.94491 114.339 8.94491 114.282 8.99109C114.205 9.05652 114.126 9.11682 114.028 9.12323C114.003 9.09373 114.019 9.07063 114.043 9.05139C114.075 9.02701 114.107 9.00777 114.138 8.98339C114.338 8.83329 114.462 8.45226 114.238 8.16873C114.177 8.09945 114.114 8.0353 114.047 7.98142C114.053 8.09175 114.096 8.17771 114.123 8.27521C114.156 8.40222 114.167 8.5318 114.127 8.66779C114.113 8.71526 114.089 8.75888 114.056 8.79224C114.025 8.82688 113.984 8.84997 113.944 8.86023C113.934 8.8628 113.925 8.86536 113.917 8.87306C113.873 8.91412 113.832 8.91155 113.794 8.87948C113.77 8.86023 113.746 8.87691 113.726 8.89744C113.677 8.94619 113.632 8.9526 113.585 8.9154C113.563 8.89615 113.539 8.90129 113.515 8.92694C113.48 8.96543 113.445 8.97056 113.407 8.95389C113.4 8.95004 113.392 8.94876 113.386 8.94619C113.23 8.92694 113.167 8.84227 113.171 8.65368C113.173 8.54206 113.205 8.43173 113.244 8.3214C113.271 8.25468 113.29 8.18669 113.302 8.11613C113.199 8.22646 113.105 8.33808 113.028 8.47278C112.923 8.66651 112.959 8.93977 113.071 9.04369C113.123 9.09629 113.183 9.13606 113.254 9.15787C113.298 9.17199 113.302 9.18866 113.276 9.23485C113.171 9.25153 113.084 9.21047 113.004 9.15787C112.978 9.1412 112.961 9.14504 112.933 9.17327C112.853 9.25409 112.771 9.3362 112.668 9.37084C112.664 9.36956 112.659 9.36828 112.656 9.36571Z" fill="#D00429"/>
<path fill-rule="evenodd" clip-rule="evenodd" d="M114.632 9.09629C114.635 9.10014 114.637 9.09886 114.64 9.09629C114.636 9.37084 114.635 9.63384 114.633 9.88658C114.633 9.93149 114.607 9.96484 114.578 9.99435C114.514 10.0636 114.434 10.1124 114.354 10.1573C114.187 10.2522 114.02 10.351 113.853 10.4575C113.783 10.5037 113.713 10.5499 113.656 10.6166C113.646 10.6256 113.639 10.6345 113.627 10.6256C113.5 10.537 113.338 10.5178 113.19 10.4755C113.075 10.4421 112.958 10.4139 112.848 10.3741C112.806 10.3587 112.766 10.3407 112.731 10.3164C112.676 10.2766 112.644 10.2227 112.646 10.1355C112.655 9.88017 112.654 9.62486 112.656 9.36571C112.659 9.36571 112.66 9.36571 112.662 9.36443C112.723 9.35288 112.77 9.38111 112.819 9.40163C112.857 9.41959 112.897 9.43627 112.933 9.45936C112.958 9.47604 112.975 9.47219 112.999 9.4414C113.058 9.37341 113.121 9.31439 113.192 9.26179C113.215 9.2464 113.239 9.22844 113.265 9.24255C113.28 9.27719 113.258 9.30926 113.244 9.34262C113.227 9.37726 113.227 9.40035 113.267 9.3965C113.272 9.39522 113.265 9.3965 113.271 9.3965C113.411 9.40805 113.502 9.45038 113.506 9.68773C113.496 9.72237 113.511 9.75829 113.484 9.79036C113.457 9.79678 113.458 9.7724 113.452 9.75701C113.444 9.73391 113.428 9.71595 113.406 9.70697C113.386 9.69927 113.363 9.69799 113.338 9.70697C113.311 9.71852 113.319 9.74033 113.322 9.75572C113.347 9.86862 113.353 9.98409 113.353 10.1008C113.352 10.1291 113.34 10.1624 113.354 10.1881C113.358 10.1919 113.358 10.1958 113.36 10.2009C113.362 10.2163 113.355 10.2304 113.349 10.2458C113.326 10.3048 113.335 10.3343 113.383 10.3497C113.439 10.3664 113.486 10.3933 113.531 10.4229C113.594 10.4639 113.699 10.4382 113.762 10.3703C113.8 10.3305 113.842 10.2984 113.884 10.2676C113.955 10.2189 113.963 10.2009 113.93 10.1278C113.928 10.1226 113.928 10.1188 113.928 10.1137C113.926 10.106 113.928 10.097 113.932 10.0906C113.938 9.99435 113.935 9.89813 113.947 9.80191C113.952 9.75187 113.96 9.70312 113.972 9.65437C113.981 9.62102 113.971 9.60947 113.941 9.6146C113.873 9.6223 113.852 9.64667 113.836 9.72365C113.827 9.77882 113.842 9.83013 113.821 9.88402C113.817 9.893 113.811 9.89813 113.803 9.89685C113.797 9.89556 113.792 9.89172 113.788 9.8853C113.784 9.88017 113.783 9.87247 113.782 9.86606C113.785 9.76086 113.78 9.65437 113.799 9.54404C113.823 9.40163 113.911 9.3285 114.026 9.2836C114.076 9.26564 114.076 9.26564 114.055 9.21561C114.045 9.1938 114.032 9.17455 114.032 9.14761C114.048 9.09758 114.078 9.1104 114.101 9.12067C114.173 9.15402 114.241 9.19508 114.3 9.25281C114.324 9.2759 114.339 9.27719 114.366 9.25281C114.425 9.19893 114.495 9.16044 114.559 9.11682C114.581 9.10142 114.605 9.09629 114.632 9.09629Z" fill="#0B45BA"/>
<path fill-rule="evenodd" clip-rule="evenodd" d="M114.24 7.75177C114.249 7.75305 114.254 7.75947 114.258 7.7723C113.886 7.83131 113.513 7.90188 113.135 7.97885C113.136 7.97629 113.136 7.97372 113.136 7.97115C113.245 7.93267 113.349 7.88263 113.441 7.76717C113.438 7.81849 113.413 7.85184 113.399 7.88905C113.396 7.91599 113.411 7.90316 113.423 7.89931C113.49 7.87365 113.554 7.82233 113.603 7.75306C113.624 7.72483 113.633 7.72226 113.643 7.75306C113.651 7.77871 113.664 7.80052 113.676 7.8249C113.71 7.78898 113.717 7.74151 113.741 7.69789C113.8 7.7723 113.874 7.80822 113.97 7.80437C113.954 7.76204 113.93 7.72996 113.919 7.68378C113.944 7.68121 113.955 7.69789 113.969 7.70815C114.041 7.76204 114.125 7.76973 114.211 7.76845C114.221 7.76717 114.233 7.77102 114.24 7.75177Z" fill="#AF7E54"/>
<path fill-rule="evenodd" clip-rule="evenodd" d="M113.698 6.51245C113.79 6.46113 113.846 6.52656 113.917 6.54709C113.873 6.48808 113.827 6.43291 113.745 6.46242C113.68 6.48423 113.615 6.50347 113.556 6.48038C113.537 6.47396 113.509 6.48679 113.485 6.49064C113.474 6.49193 113.458 6.49834 113.457 6.48038C113.455 6.46498 113.465 6.45215 113.476 6.43932C113.492 6.42008 113.513 6.40597 113.531 6.40084C113.643 6.35722 113.745 6.33797 113.839 6.37133C113.894 6.39314 113.953 6.40853 114.009 6.42906C114.016 6.43034 114.023 6.43548 114.029 6.43676C113.984 6.524 114.064 6.49193 114.066 6.53426C114.068 6.53683 114.068 6.53811 114.068 6.54196C114.06 6.54966 114.052 6.55736 114.044 6.56377C114.021 6.58173 114.014 6.59713 114.037 6.61124C114.045 6.61637 114.052 6.62407 114.056 6.63305C114.061 6.6446 114.062 6.65742 114.061 6.67282C114.038 6.6895 114.024 6.66256 114.002 6.67667C113.994 6.69335 114 6.70746 114.001 6.71901C114.006 6.81523 114.004 6.90503 113.955 7.00767C113.905 7.11543 113.928 7.22064 113.934 7.32327C113.94 7.45541 113.992 7.55805 114.042 7.66582C113.942 7.63887 113.848 7.52341 113.865 7.41179C113.878 7.32199 113.873 7.23346 113.877 7.14366C113.877 7.12698 113.886 7.09747 113.864 7.10132C113.839 7.10645 113.846 7.1334 113.845 7.15136C113.84 7.25143 113.835 7.35021 113.833 7.45028C113.83 7.54009 113.858 7.61193 113.881 7.68763C113.889 7.71072 113.897 7.73509 113.906 7.76204C113.806 7.73638 113.754 7.65299 113.759 7.52854C113.763 7.40538 113.767 7.28607 113.772 7.16419C113.772 7.14751 113.782 7.11928 113.759 7.1257C113.737 7.13211 113.742 7.15649 113.743 7.17188C113.736 7.32199 113.729 7.47081 113.726 7.61963C113.725 7.62348 113.726 7.62733 113.726 7.63118C113.726 7.66966 113.708 7.70944 113.681 7.71585C113.66 7.71713 113.646 7.68506 113.648 7.64657C113.654 7.49647 113.661 7.34636 113.666 7.19498C113.668 7.1783 113.677 7.14622 113.656 7.15007C113.629 7.15392 113.638 7.18215 113.638 7.20011C113.631 7.32199 113.626 7.4413 113.623 7.5619C113.619 7.67608 113.561 7.77743 113.46 7.84414C113.477 7.79154 113.491 7.74792 113.509 7.70302C113.537 7.61963 113.551 7.53752 113.553 7.45285C113.553 7.37074 113.558 7.28863 113.561 7.20781C113.563 7.19241 113.567 7.16803 113.548 7.17317C113.527 7.18086 113.533 7.20011 113.531 7.2155C113.526 7.29889 113.519 7.38357 113.523 7.46568C113.524 7.5619 113.487 7.63887 113.426 7.71072C113.394 7.75177 113.355 7.79026 113.314 7.81849C113.326 7.79411 113.332 7.77871 113.34 7.7646C113.474 7.49005 113.499 7.2155 113.477 6.94095C113.476 6.91145 113.465 6.8845 113.457 6.85628C113.451 6.83575 113.445 6.81266 113.463 6.78828C113.48 6.76391 113.501 6.76263 113.519 6.76263C113.552 6.76391 113.574 6.787 113.607 6.79855C113.608 6.78572 113.607 6.77161 113.602 6.76134C113.6 6.75108 113.595 6.74082 113.586 6.73697C113.554 6.71259 113.554 6.68052 113.586 6.63561C113.585 6.60611 113.617 6.60226 113.624 6.57532C113.636 6.52272 113.671 6.53041 113.698 6.51245Z" fill="#AF7E55"/>
<path fill-rule="evenodd" clip-rule="evenodd" d="M113.207 6.24945C113.215 6.23149 113.181 6.22636 113.203 6.20968C113.23 6.18915 113.258 6.17504 113.28 6.19813C113.236 6.261 113.252 6.31873 113.246 6.37774C113.243 6.38801 113.253 6.39314 113.262 6.38929C113.301 6.37774 113.338 6.37518 113.377 6.34952C113.39 6.34182 113.404 6.31103 113.412 6.32899C113.417 6.34054 113.419 6.35208 113.418 6.36748C113.417 6.38159 113.414 6.3957 113.405 6.40982C113.396 6.43291 113.384 6.40597 113.371 6.41238C113.367 6.4111 113.364 6.40853 113.357 6.40982C113.253 6.41495 113.237 6.4265 113.235 6.55479C113.233 6.60739 113.199 6.65358 113.195 6.70104C113.181 6.63946 113.195 6.5689 113.2 6.50091C113.203 6.45472 113.192 6.44446 113.156 6.45985C113.118 6.47525 113.08 6.47525 113.048 6.51374C113.014 6.53041 113.027 6.49449 113.029 6.48294C113.035 6.46498 113.013 6.43548 113.052 6.4265C113.093 6.45215 113.142 6.42008 113.188 6.4111C113.2 6.40725 113.207 6.39442 113.207 6.38288C113.206 6.33797 113.222 6.28794 113.207 6.24945Z" fill="#F2D102"/>
<path fill-rule="evenodd" clip-rule="evenodd" d="M113.23 6.99099C113.228 6.99869 113.228 7.00638 113.227 7.01408C113.18 7.07438 113.18 7.07438 113.146 7.01408C113.159 6.99869 113.169 6.98073 113.171 6.95892C113.173 6.8999 113.179 6.84217 113.181 6.78315C113.183 6.76134 113.184 6.73953 113.195 6.71901C113.212 6.70489 113.225 6.69463 113.223 6.72927C113.217 6.80368 113.216 6.87552 113.213 6.94865C113.211 6.9679 113.22 6.98073 113.23 6.99099Z" fill="#E9CA02"/>
<path fill-rule="evenodd" clip-rule="evenodd" d="M113.295 6.65229C113.352 6.63946 113.401 6.64331 113.441 6.67154C113.45 6.67795 113.463 6.68308 113.458 6.69848C113.453 6.71901 113.438 6.71644 113.429 6.71772C113.371 6.72029 113.313 6.72029 113.257 6.72157C113.242 6.72285 113.239 6.71259 113.241 6.69591C113.242 6.68052 113.249 6.66769 113.262 6.66384C113.273 6.65999 113.283 6.65486 113.295 6.65229Z" fill="#F9CD00"/>
<path fill-rule="evenodd" clip-rule="evenodd" d="M113.377 6.62407C113.332 6.61637 113.285 6.63433 113.23 6.64844C113.274 6.5843 113.321 6.58173 113.365 6.56505C113.407 6.54966 113.448 6.54196 113.468 6.58686H113.466C113.468 6.61894 113.496 6.63433 113.49 6.67795C113.468 6.66256 113.447 6.64844 113.425 6.63305C113.416 6.61252 113.398 6.61509 113.377 6.62407Z" fill="#C6092E"/>
<path fill-rule="evenodd" clip-rule="evenodd" d="M113.558 6.56249C113.523 6.65101 113.496 6.59584 113.468 6.58686C113.468 6.58686 113.468 6.58686 113.468 6.58558C113.474 6.56377 113.463 6.53298 113.493 6.52143C113.528 6.50989 113.565 6.49962 113.579 6.54324C113.578 6.56249 113.571 6.56634 113.558 6.56249Z" fill="#AA7B52"/>
<path fill-rule="evenodd" clip-rule="evenodd" d="M113.558 6.56249C113.567 6.55864 113.575 6.55607 113.579 6.54324C113.592 6.54068 113.605 6.53683 113.617 6.53298C113.636 6.54196 113.649 6.55736 113.635 6.59199C113.624 6.61765 113.602 6.6215 113.586 6.63561C113.553 6.63177 113.554 6.59969 113.558 6.56249Z" fill="#E1C302"/>
<path fill-rule="evenodd" clip-rule="evenodd" d="M113.465 6.73184C113.419 6.81907 113.417 6.82164 113.364 6.75878C113.399 6.74082 113.427 6.74466 113.465 6.73184Z" fill="#BE0425"/>
<path fill-rule="evenodd" clip-rule="evenodd" d="M113.633 6.59199C113.634 6.56762 113.628 6.54709 113.616 6.53426C113.644 6.52656 113.67 6.52015 113.698 6.51245C113.659 6.53298 113.659 6.53298 113.633 6.59199Z" fill="#020101"/>
<path fill-rule="evenodd" clip-rule="evenodd" d="M113.377 6.62407C113.39 6.61509 113.389 6.58815 113.406 6.58943C113.426 6.59456 113.426 6.61509 113.425 6.63305C113.407 6.63048 113.392 6.62792 113.377 6.62407Z" fill="#34020C"/>
<path fill-rule="evenodd" clip-rule="evenodd" d="M113.423 7.89931C113.413 7.90957 113.399 7.91855 113.389 7.91086C113.383 7.90701 113.392 7.8929 113.401 7.88648C113.407 7.89161 113.416 7.89674 113.423 7.89931Z" fill="#291D14"/>
<path fill-rule="evenodd" clip-rule="evenodd" d="M115.621 9.39393C115.613 9.40933 115.606 9.42344 115.596 9.43884C115.592 9.44525 115.592 9.4645 115.573 9.45295C115.548 9.43627 115.559 9.42216 115.563 9.40933C115.568 9.3965 115.56 9.37854 115.567 9.36828C115.596 9.32209 115.606 9.26179 115.613 9.20021C115.618 9.17199 115.63 9.16429 115.65 9.1707C115.68 9.1784 115.717 9.15916 115.726 9.231C115.747 9.25153 115.752 9.27847 115.739 9.29002C115.697 9.32209 115.669 9.37341 115.621 9.39393Z" fill="#F2D102"/>
<path fill-rule="evenodd" clip-rule="evenodd" d="M115.555 9.39393C115.546 9.39778 115.546 9.41959 115.529 9.4042C115.517 9.39393 115.515 9.38367 115.523 9.37341C115.566 9.35545 115.578 9.31183 115.579 9.26051C115.581 9.231 115.579 9.20021 115.579 9.16942C115.579 9.15146 115.569 9.12195 115.586 9.12067C115.606 9.11682 115.632 9.12195 115.65 9.14504C115.661 9.15403 115.644 9.15018 115.64 9.15403C115.61 9.18225 115.62 9.23485 115.61 9.27334C115.598 9.32081 115.586 9.36571 115.555 9.39393Z" fill="#E5C602"/>
<path fill-rule="evenodd" clip-rule="evenodd" d="M115.639 9.48246C115.616 9.48502 115.6 9.47989 115.612 9.4491C115.618 9.43499 115.623 9.42344 115.629 9.40933C115.635 9.37341 115.658 9.35673 115.679 9.33877C115.705 9.31311 115.74 9.29643 115.754 9.25153C115.806 9.33107 115.805 9.33364 115.747 9.35288C115.692 9.37212 115.634 9.39265 115.639 9.48246Z" fill="#E9CA02"/>
<path fill-rule="evenodd" clip-rule="evenodd" d="M115.716 9.0578C115.739 9.06294 115.759 9.06807 115.774 9.10399C115.786 9.13606 115.777 9.15146 115.763 9.16429C115.74 9.16429 115.719 9.15146 115.705 9.11939C115.692 9.08859 115.704 9.0732 115.716 9.0578Z" fill="#E8C902"/>
<path fill-rule="evenodd" clip-rule="evenodd" d="M115.555 9.39393C115.588 9.34005 115.605 9.27334 115.611 9.19508C115.612 9.17327 115.613 9.14889 115.64 9.15403C115.643 9.16044 115.647 9.16429 115.65 9.16942C115.635 9.17712 115.63 9.1938 115.628 9.21432C115.62 9.2913 115.605 9.36058 115.561 9.40933C115.56 9.40292 115.557 9.39778 115.555 9.39393Z" fill="#201C00"/>
<path fill-rule="evenodd" clip-rule="evenodd" d="M115.753 9.25153C115.752 9.26692 115.751 9.2836 115.744 9.29387C115.74 9.30669 115.731 9.31568 115.72 9.31952C115.682 9.34005 115.655 9.37212 115.629 9.40933C115.627 9.4042 115.624 9.40035 115.621 9.39393C115.64 9.34775 115.673 9.32209 115.709 9.299C115.732 9.28488 115.737 9.26436 115.726 9.231C115.738 9.22715 115.747 9.23613 115.753 9.25153Z" fill="#201B00"/>
<path fill-rule="evenodd" clip-rule="evenodd" d="M115.799 8.98083C115.799 9.01675 115.799 9.05396 115.799 9.0886C115.777 9.0655 115.755 9.04369 115.733 9.01932C115.753 9.00007 115.776 8.98853 115.799 8.98083Z" fill="#E6C702"/>
<path fill-rule="evenodd" clip-rule="evenodd" d="M114.04 9.13991C114.064 9.1861 114.088 9.23228 114.114 9.28232C114.07 9.29771 114.031 9.30926 113.993 9.32466C113.891 9.36699 113.833 9.4491 113.816 9.56841C113.798 9.68003 113.804 9.7878 113.803 9.89428C113.815 9.90198 113.818 9.91737 113.825 9.92764C113.832 9.93662 113.835 9.94816 113.835 9.96099C113.831 10.0072 113.853 10.0341 113.882 10.0585C113.901 10.0752 113.928 10.0816 113.937 10.1111C113.993 10.1663 113.986 10.2214 113.913 10.2715C113.861 10.3061 113.815 10.3459 113.772 10.3921C113.706 10.4652 113.577 10.4908 113.513 10.4434C113.469 10.4087 113.421 10.3844 113.369 10.369C113.292 10.3484 113.302 10.2522 113.359 10.2035C113.36 10.1829 113.375 10.1714 113.388 10.1586C113.411 10.138 113.43 10.1124 113.443 10.0829C113.456 10.0546 113.462 10.0239 113.462 9.99307C113.462 9.9828 113.462 9.96997 113.468 9.95971C113.478 9.86606 113.493 9.7724 113.486 9.68003C113.481 9.48374 113.431 9.43884 113.193 9.41703C113.207 9.35673 113.251 9.3067 113.259 9.24255C113.259 9.23613 113.264 9.23228 113.269 9.22844C113.293 9.20406 113.286 9.1938 113.261 9.18738C113.188 9.1707 113.123 9.13606 113.068 9.08346C112.93 8.95902 112.87 8.64598 113.066 8.36758C113.145 8.25853 113.239 8.16488 113.323 8.05198C113.332 8.12254 113.31 8.18541 113.29 8.2457C113.254 8.35989 113.21 8.46894 113.195 8.5844C113.185 8.66394 113.188 8.73835 113.215 8.80763C113.243 8.88461 113.297 8.92566 113.376 8.92566C113.383 8.92566 113.392 8.9231 113.399 8.92694C113.442 8.95517 113.481 8.94491 113.523 8.89231C113.546 8.86152 113.57 8.87563 113.591 8.89102C113.651 8.93336 113.661 8.93336 113.723 8.8705C113.757 8.83586 113.784 8.83457 113.811 8.8628C113.836 8.88846 113.86 8.89615 113.892 8.86408C113.904 8.85382 113.919 8.84612 113.933 8.84227C114.044 8.80378 114.109 8.71398 114.127 8.5767C114.142 8.44969 114.119 8.33551 114.082 8.22389C114.064 8.15975 114.041 8.09945 114.028 8.03017C114.02 7.9981 114.02 7.96346 114.027 7.92625C114.1 7.9981 114.171 8.06481 114.239 8.13794C114.496 8.42403 114.37 8.9 114.065 9.06294C114.049 9.07063 114.006 9.07063 114.033 9.11554C114.041 9.12195 114.038 9.13222 114.04 9.13991Z" fill="black"/>
<path fill-rule="evenodd" clip-rule="evenodd" d="M113.676 8.00195C113.695 8.06738 113.711 8.11741 113.723 8.16744C113.731 8.19695 113.741 8.19952 113.764 8.18156C113.805 8.1482 113.847 8.11869 113.902 8.07764C113.876 8.1482 113.856 8.2008 113.835 8.25468C113.821 8.28419 113.824 8.29702 113.851 8.30344C113.893 8.3137 113.935 8.32653 113.99 8.34449C113.944 8.37015 113.907 8.39452 113.871 8.40992C113.827 8.43173 113.812 8.45354 113.839 8.50229C113.856 8.53693 113.87 8.57799 113.891 8.6293C113.844 8.61134 113.807 8.60108 113.774 8.58055C113.733 8.55618 113.718 8.57414 113.705 8.62674C113.695 8.67164 113.678 8.71398 113.66 8.77428C113.643 8.71269 113.627 8.66651 113.613 8.61904C113.605 8.59081 113.595 8.5844 113.568 8.60364C113.529 8.63572 113.488 8.66266 113.435 8.70115C113.458 8.637 113.477 8.58568 113.5 8.53565C113.513 8.50357 113.513 8.48818 113.482 8.48305C113.439 8.47663 113.398 8.46252 113.344 8.45097C113.399 8.41634 113.441 8.38811 113.486 8.36373C113.515 8.34834 113.517 8.33551 113.505 8.30857C113.486 8.26495 113.469 8.21876 113.445 8.15975C113.499 8.18027 113.54 8.1931 113.577 8.21106C113.602 8.22261 113.614 8.2162 113.622 8.18284C113.637 8.12896 113.653 8.07379 113.676 8.00195Z" fill="#010000"/>
<path fill-rule="evenodd" clip-rule="evenodd" d="M114.04 9.13991C114.038 9.13222 114.036 9.12452 114.033 9.11682C114.136 9.06935 114.236 9.02188 114.317 8.92566C114.327 8.91283 114.336 8.9077 114.348 8.92053C114.433 9.00264 114.531 9.05267 114.632 9.09886C114.537 9.16301 114.436 9.21689 114.347 9.29643C114.327 9.31568 114.32 9.30028 114.308 9.28873C114.239 9.21817 114.154 9.17327 114.068 9.1335C114.057 9.12837 114.047 9.12067 114.04 9.13991ZM113.269 9.22715C113.265 9.23228 113.262 9.23742 113.258 9.24126C113.163 9.299 113.074 9.37726 112.998 9.46835C112.976 9.49529 112.963 9.50427 112.939 9.48759C112.854 9.43114 112.756 9.40163 112.665 9.36314C112.768 9.29515 112.872 9.22074 112.959 9.1181C112.968 9.10527 112.977 9.10142 112.986 9.11297C113.063 9.18995 113.168 9.20406 113.269 9.22715Z" fill="#010100"/>
<path fill-rule="evenodd" clip-rule="evenodd" d="M113.205 10.0277C113.258 10.0816 113.262 10.1355 113.228 10.1906C113.192 10.2471 113.138 10.2599 113.069 10.2317C113.05 10.2766 113.025 10.3177 112.978 10.3343C112.909 10.3561 112.857 10.3087 112.872 10.2278C112.877 10.1932 112.87 10.1855 112.842 10.1842C112.819 10.1842 112.8 10.174 112.787 10.156C112.771 10.138 112.767 10.1137 112.768 10.0867C112.77 10.0598 112.782 10.0328 112.799 10.0097C112.815 9.98922 112.838 9.97254 112.862 9.96484C112.89 9.95715 112.896 9.94688 112.892 9.91737C112.889 9.85708 112.921 9.80448 112.971 9.78138C113.02 9.76086 113.064 9.77882 113.086 9.83013C113.093 9.84425 113.089 9.86092 113.114 9.84681C113.185 9.80448 113.23 9.80961 113.254 9.85964C113.28 9.90968 113.262 9.96484 113.205 10.0277ZM114.462 9.7801C114.257 9.78267 114.179 9.89428 114.219 10.1137C114.128 10.1124 114.045 10.0226 114.037 9.91481C114.029 9.82115 114.088 9.72493 114.177 9.6826C114.28 9.63769 114.402 9.68003 114.462 9.7801Z" fill="#010101"/>
<path fill-rule="evenodd" clip-rule="evenodd" d="M113.821 9.96484C113.816 9.95586 113.815 9.94688 113.811 9.9379C113.808 9.91994 113.816 9.90198 113.812 9.88273C113.813 9.83013 113.811 9.77625 113.821 9.72108C113.833 9.63769 113.839 9.62871 113.911 9.60305C114.011 9.56841 114.011 9.56841 113.986 9.67362C113.957 9.80576 113.946 9.9379 113.958 10.0649C113.959 10.0777 113.972 10.0957 113.945 10.1008C113.879 10.0816 113.833 10.0418 113.821 9.96484Z" fill="#010201"/>
<path fill-rule="evenodd" clip-rule="evenodd" d="M113.482 9.96869C113.482 9.97896 113.482 9.98922 113.482 10.0008C113.467 10.0187 113.468 10.0418 113.46 10.0611C113.45 10.0906 113.435 10.1175 113.414 10.1432C113.392 10.1663 113.368 10.1868 113.342 10.2009C113.335 10.2009 113.32 10.2137 113.322 10.1945C113.334 10.106 113.338 10.02 113.331 9.93277C113.322 9.8481 113.307 9.76727 113.286 9.68773C113.419 9.65694 113.461 9.68003 113.476 9.7878C113.492 9.84553 113.478 9.90839 113.482 9.96869Z" fill="#010101"/>
<path fill-rule="evenodd" clip-rule="evenodd" d="M113.362 9.65694C113.35 9.6595 113.281 9.59407 113.281 9.58381C113.281 9.57611 113.352 9.48374 113.359 9.48117C113.367 9.47861 113.44 9.54276 113.441 9.55302C113.44 9.56328 113.371 9.65437 113.362 9.65694Z" fill="#030405"/>
<path fill-rule="evenodd" clip-rule="evenodd" d="M113.94 9.39393C113.951 9.39522 114.017 9.46835 114.016 9.47733C114.015 9.48759 113.946 9.56841 113.937 9.5697C113.928 9.57098 113.858 9.5017 113.858 9.49272C113.858 9.48246 113.931 9.39522 113.94 9.39393Z" fill="#020303"/>
<path fill-rule="evenodd" clip-rule="evenodd" d="M113.482 9.96869C113.464 9.91224 113.48 9.8481 113.476 9.7878C113.493 9.75059 113.479 9.71467 113.486 9.67875C113.5 9.77368 113.499 9.87119 113.482 9.96869Z" fill="#083288"/>
<path fill-rule="evenodd" clip-rule="evenodd" d="M113.821 9.96484C113.843 10.0303 113.888 10.0726 113.946 10.1008C113.943 10.1034 113.939 10.1072 113.935 10.1111C113.893 10.0906 113.848 10.07 113.828 10.02C113.821 10.0033 113.808 9.98665 113.821 9.96484Z" fill="#08348D"/>
<path fill-rule="evenodd" clip-rule="evenodd" d="M113.342 10.2022C113.403 10.1534 113.45 10.0957 113.467 10.0162C113.468 10.0097 113.476 10.0046 113.482 10.0008C113.469 10.0854 113.43 10.1534 113.359 10.2022C113.353 10.2022 113.349 10.2009 113.342 10.2022Z" fill="#093898"/>
<path fill-rule="evenodd" clip-rule="evenodd" d="M113.812 9.88273C113.821 9.89941 113.827 9.91737 113.811 9.9379C113.799 9.92635 113.8 9.91096 113.804 9.89172C113.806 9.88915 113.808 9.8853 113.812 9.88273Z" fill="#06276A"/>
<path fill-rule="evenodd" clip-rule="evenodd" d="M113.592 6.56634C113.601 6.56377 113.605 6.5689 113.607 6.57788C113.608 6.58943 113.603 6.59713 113.595 6.60226C113.585 6.60611 113.577 6.60098 113.577 6.59071C113.577 6.58045 113.585 6.57147 113.592 6.56634Z" fill="#1F1B00"/>
<path fill-rule="evenodd" clip-rule="evenodd" d="M114.08 8.04172C114.195 8.14435 114.296 8.2611 114.319 8.44584C114.348 8.66907 114.238 8.89102 114.051 9.01162C114.023 9.02958 113.974 9.03471 113.968 9.07063C113.962 9.10142 113.989 9.13478 114.001 9.16814C114.013 9.19636 114.024 9.22459 114.036 9.25538C113.999 9.27334 113.966 9.28745 113.931 9.30413C113.853 9.34647 113.806 9.41575 113.787 9.5094C113.755 9.67105 113.76 9.82629 113.766 9.98024C113.768 10.0444 113.796 10.0906 113.851 10.1137C113.868 10.1214 113.885 10.1316 113.902 10.1432C113.934 10.1675 113.937 10.2086 113.897 10.2355C113.833 10.2804 113.772 10.333 113.709 10.3805C113.684 10.3998 113.656 10.4113 113.627 10.4139C113.598 10.4177 113.571 10.4113 113.548 10.3959C113.504 10.3715 113.458 10.3523 113.409 10.3356C113.345 10.3164 113.342 10.2638 113.405 10.2137C113.501 10.1419 113.53 10.0508 113.53 9.94175C113.53 9.825 113.535 9.70826 113.519 9.59279C113.503 9.45552 113.433 9.38367 113.311 9.37726C113.271 9.37597 113.265 9.36571 113.285 9.32209C113.307 9.27077 113.344 9.21047 113.338 9.16685C113.332 9.12195 113.265 9.13478 113.227 9.11682C113.048 9.02958 112.962 8.84355 113.004 8.62674C113.032 8.49331 113.145 8.30087 113.262 8.18541C113.265 8.22133 113.248 8.25084 113.237 8.28291C113.187 8.42403 113.13 8.56259 113.137 8.70756C113.146 8.85767 113.213 8.9603 113.319 8.97056C113.359 8.9757 113.403 8.97056 113.441 8.99366C113.464 9.00905 113.489 8.98468 113.506 8.96287C113.536 8.92823 113.561 8.92566 113.591 8.94875C113.638 8.98468 113.671 8.97955 113.723 8.92823C113.753 8.89744 113.775 8.89231 113.803 8.91668C113.832 8.94491 113.865 8.94491 113.898 8.90898C113.915 8.89359 113.933 8.88461 113.952 8.88204C114.041 8.86536 114.103 8.80507 114.142 8.70885C114.166 8.64983 114.18 8.58697 114.184 8.5241C114.187 8.46124 114.18 8.39709 114.162 8.33936C114.142 8.26367 114.115 8.1931 114.092 8.11613C114.086 8.09432 114.073 8.07507 114.079 8.04172" fill="#FED100"/>
<path fill-rule="evenodd" clip-rule="evenodd" d="M113.862 8.3586C113.858 8.36502 113.856 8.36887 113.854 8.37143C113.825 8.39453 113.779 8.39709 113.771 8.43045C113.763 8.46124 113.791 8.49588 113.807 8.54335C113.778 8.5318 113.757 8.5241 113.738 8.51384C113.711 8.49844 113.698 8.50742 113.692 8.54463C113.685 8.57029 113.675 8.59595 113.669 8.61391C113.659 8.62545 113.658 8.62417 113.657 8.62032C113.643 8.58825 113.648 8.52923 113.616 8.5241C113.591 8.52154 113.556 8.56131 113.522 8.58568C113.533 8.53821 113.573 8.49203 113.559 8.46252C113.548 8.43814 113.502 8.43943 113.465 8.4266C113.5 8.40479 113.536 8.38298 113.572 8.36245C113.554 8.32268 113.54 8.28419 113.526 8.2457C113.561 8.25853 113.595 8.27008 113.628 8.28291C113.643 8.24057 113.656 8.2008 113.668 8.16103C113.688 8.16873 113.686 8.1931 113.69 8.20978C113.7 8.25853 113.717 8.28034 113.76 8.23416C113.772 8.22133 113.79 8.21363 113.804 8.20208C113.806 8.20593 113.809 8.20978 113.808 8.21235C113.798 8.25212 113.76 8.29702 113.773 8.32653C113.786 8.35219 113.829 8.34962 113.862 8.3586ZM114.151 9.11297C114.216 9.07577 114.274 9.04113 114.319 8.98339C114.332 8.97056 114.341 8.96928 114.351 8.98083C114.402 9.03471 114.466 9.06679 114.533 9.10142C114.468 9.14761 114.403 9.1861 114.345 9.24255C114.337 9.25025 114.33 9.25409 114.32 9.24383C114.273 9.18995 114.214 9.15146 114.151 9.11297ZM112.765 9.34903C112.835 9.29771 112.901 9.25025 112.956 9.18097C112.967 9.16685 112.975 9.16814 112.985 9.17712C113.031 9.22074 113.086 9.24255 113.154 9.25794C113.095 9.32081 113.037 9.37982 112.982 9.43884C112.968 9.45167 112.96 9.44782 112.951 9.44269C112.889 9.41061 112.829 9.37982 112.765 9.34903Z" fill="#FDD100"/>
<path fill-rule="evenodd" clip-rule="evenodd" d="M113.105 10.038C113.105 10.0495 113.101 10.0598 113.096 10.07C113.093 10.0829 113.087 10.0919 113.08 10.1021C113.072 10.1098 113.063 10.1175 113.052 10.1239C113.044 10.1291 113.035 10.1329 113.024 10.1342C113.014 10.1368 113.003 10.1368 112.996 10.1329C112.987 10.1303 112.977 10.1252 112.971 10.1188C112.965 10.1111 112.96 10.1047 112.956 10.0944C112.952 10.0842 112.951 10.0739 112.951 10.0623C112.953 10.0418 112.962 10.0187 112.977 10.002C112.99 9.98409 113.011 9.97254 113.029 9.96997C113.039 9.96741 113.049 9.96741 113.059 9.96997C113.068 9.97126 113.076 9.97767 113.083 9.9828C113.089 9.9905 113.095 9.99692 113.099 10.0072C113.102 10.0174 113.104 10.0277 113.105 10.038Z" fill="#FCCF00"/>
<path fill-rule="evenodd" clip-rule="evenodd" d="M112.93 9.98024C112.905 9.90583 112.929 9.84425 112.989 9.82372C113.004 9.81859 113.022 9.81859 113.036 9.825C113.051 9.83013 113.061 9.84168 113.068 9.85836C113.086 9.89556 113.075 9.91994 113.032 9.92379C112.994 9.92764 112.967 9.97639 112.93 9.97896V9.98024Z" fill="#FACE00"/>
<path fill-rule="evenodd" clip-rule="evenodd" d="M112.985 10.2881C112.927 10.3035 112.89 10.2676 112.898 10.2112C112.903 10.1624 112.923 10.147 112.958 10.1675C112.974 10.1765 112.994 10.1817 113.014 10.1791C113.056 10.174 113.062 10.1881 113.043 10.2304C113.037 10.2445 113.029 10.2574 113.02 10.2676C113.009 10.2766 112.998 10.2843 112.985 10.2881Z" fill="#FBCE00"/>
<path fill-rule="evenodd" clip-rule="evenodd" d="M113.144 9.86092C113.159 9.85708 113.175 9.85708 113.19 9.86349C113.203 9.86991 113.21 9.88145 113.217 9.89685C113.223 9.90968 113.227 9.92635 113.223 9.9456C113.221 9.96099 113.215 9.97767 113.203 9.99178C113.172 10.0354 113.149 10.0341 113.137 9.99178C113.132 9.97382 113.121 9.96228 113.112 9.94688C113.104 9.93149 113.068 9.94432 113.084 9.90968C113.089 9.89556 113.098 9.88402 113.109 9.87632C113.121 9.86734 113.132 9.86221 113.144 9.86092Z" fill="#FCCF00"/>
<path fill-rule="evenodd" clip-rule="evenodd" d="M112.928 9.97896C112.93 10.0277 112.897 10.0829 112.922 10.1303C112.928 10.1457 112.904 10.1509 112.896 10.1547C112.885 10.1586 112.874 10.1611 112.864 10.1598C112.854 10.1573 112.844 10.1534 112.836 10.1483C112.829 10.1419 112.821 10.1342 112.817 10.1239C112.814 10.1149 112.812 10.1047 112.811 10.0919C112.811 10.0816 112.813 10.0675 112.817 10.0559C112.819 10.0444 112.826 10.0316 112.833 10.0213C112.842 10.011 112.851 10.002 112.861 9.99563C112.872 9.98922 112.881 9.98409 112.893 9.98409C112.905 9.98152 112.916 9.9905 112.93 9.98024L112.928 9.97896Z" fill="#FDD000"/>
<path fill-rule="evenodd" clip-rule="evenodd" d="M113.211 10.1047C113.211 10.1496 113.195 10.1804 113.161 10.2022C113.129 10.224 113.102 10.2201 113.077 10.1996C113.063 10.1868 113.053 10.1714 113.084 10.1522C113.105 10.1368 113.118 10.1137 113.131 10.0893C113.139 10.0726 113.132 10.0444 113.159 10.0444C113.181 10.0431 113.195 10.0559 113.205 10.0752C113.209 10.0854 113.211 10.0983 113.211 10.1047Z" fill="#FBCF00"/>
<path fill-rule="evenodd" clip-rule="evenodd" d="M114.356 9.73905C114.226 9.79549 114.155 9.88658 114.154 10.0264C114.121 10.0085 114.097 9.97511 114.086 9.93405C114.076 9.89428 114.082 9.84938 114.101 9.80961C114.148 9.72237 114.25 9.69158 114.356 9.73905ZM113.959 9.63256C113.927 9.76214 113.923 9.88658 113.917 10.0174C113.871 9.99178 113.851 9.95458 113.849 9.90454C113.847 9.85323 113.848 9.80191 113.852 9.74803C113.855 9.66464 113.872 9.64539 113.959 9.63256Z" fill="#FDD000"/>
<path fill-rule="evenodd" clip-rule="evenodd" d="M113.367 10.1111C113.369 9.98024 113.365 9.86092 113.34 9.74803C113.339 9.73905 113.337 9.72365 113.352 9.72365C113.383 9.72365 113.423 9.70826 113.433 9.75572C113.45 9.83655 113.452 9.92379 113.433 10.0097C113.426 10.0482 113.404 10.0765 113.367 10.1111Z" fill="#FCCF00"/>
<path fill-rule="evenodd" clip-rule="evenodd" d="M113.358 9.61588C113.344 9.60434 113.32 9.59536 113.322 9.57483C113.325 9.55687 113.342 9.52864 113.364 9.52864C113.379 9.52864 113.401 9.54276 113.396 9.56585C113.394 9.58509 113.376 9.60434 113.358 9.61588Z" fill="#F3C800"/>
<path fill-rule="evenodd" clip-rule="evenodd" d="M113.98 9.47219C113.97 9.49657 113.955 9.52095 113.939 9.52351C113.919 9.52864 113.901 9.50555 113.898 9.48502C113.898 9.46835 113.92 9.4414 113.938 9.44012C113.952 9.43884 113.965 9.46065 113.98 9.47219Z" fill="#F2C700"/>
<path fill-rule="evenodd" clip-rule="evenodd" d="M113.491 10.233C113.513 10.2266 113.545 10.2214 113.545 10.2586C113.547 10.2984 113.515 10.3048 113.486 10.31C113.476 10.3112 113.464 10.3125 113.453 10.3112C113.431 10.31 113.392 10.3228 113.396 10.2856C113.399 10.2548 113.435 10.2497 113.458 10.242C113.467 10.2381 113.477 10.2368 113.491 10.233Z" fill="#060500"/>
<path fill-rule="evenodd" clip-rule="evenodd" d="M113.807 10.2535C113.772 10.2586 113.739 10.2676 113.741 10.2253C113.743 10.1842 113.775 10.1829 113.802 10.1804C113.823 10.1778 113.843 10.1791 113.864 10.1804C113.877 10.1817 113.892 10.1855 113.892 10.2035C113.891 10.2201 113.874 10.2291 113.859 10.2355C113.84 10.2432 113.82 10.2484 113.807 10.2535Z" fill="#050400"/>
<path d="M19.1171 23.8461V42.9632H14.7475V31.848L9.80433 39.9591H9.31275L4.36962 31.848V42.9632H0V23.8461H4.36962L9.55854 32.3395L14.7475 23.8461H19.1171Z" fill="#3F3D56"/>
<path d="M38.5704 40.4779C36.6405 42.3897 34.2918 43.3455 31.5244 43.3455C28.757 43.3455 26.4083 42.3897 24.4784 40.4779C22.5485 38.5662 21.5835 36.2085 21.5835 33.4046C21.5835 30.6008 22.5485 28.243 24.4784 26.3313C26.4083 24.4196 28.757 23.4637 31.5244 23.4637C34.2918 23.4637 36.6405 24.4196 38.5704 26.3313C40.5003 28.243 41.4653 30.6008 41.4653 33.4046C41.4653 36.2085 40.5003 38.5662 38.5704 40.4779ZM27.5371 37.5011C28.6113 38.5571 29.9404 39.0851 31.5244 39.0851C33.1084 39.0851 34.4284 38.5571 35.4844 37.5011C36.5586 36.4452 37.0957 35.0796 37.0957 33.4046C37.0957 31.7296 36.5586 30.3641 35.4844 29.3081C34.4284 28.2521 33.1084 27.7241 31.5244 27.7241C29.9404 27.7241 28.6113 28.2521 27.5371 29.3081C26.4811 30.3641 25.9531 31.7296 25.9531 33.4046C25.9531 35.0796 26.4811 36.4452 27.5371 37.5011Z" fill="#3F3D56"/>
<path d="M48.2952 38.7574H55.1227V42.9632H43.9255V23.8461H48.2952V38.7574Z" fill="#3F3D56"/>
<path d="M64.694 23.8461C67.334 23.8461 69.537 24.7655 71.3031 26.6044C73.0873 28.4251 73.9795 30.6918 73.9795 33.4046C73.9795 36.1174 73.0873 38.3933 71.3031 40.2322C69.537 42.0528 67.334 42.9632 64.694 42.9632H57.0472V23.8461H64.694ZM64.694 38.7574C66.2052 38.7574 67.425 38.2749 68.3536 37.31C69.3003 36.3268 69.7737 35.025 69.7737 33.4046C69.7737 31.7842 69.3003 30.4915 68.3536 29.5266C67.425 28.5434 66.2052 28.0518 64.694 28.0518H61.4168V38.7574H64.694Z" fill="#3F3D56"/>
<path d="M92.6039 40.4779C90.674 42.3897 88.3253 43.3455 85.5579 43.3455C82.7905 43.3455 80.4418 42.3897 78.5119 40.4779C76.582 38.5662 75.617 36.2085 75.617 33.4046C75.617 30.6008 76.582 28.243 78.5119 26.3313C80.4418 24.4196 82.7905 23.4637 85.5579 23.4637C88.3253 23.4637 90.674 24.4196 92.6039 26.3313C94.5338 28.243 95.4988 30.6008 95.4988 33.4046C95.4988 36.2085 94.5338 38.5662 92.6039 40.4779ZM81.5706 37.5011C82.6448 38.5571 83.9739 39.0851 85.5579 39.0851C87.1419 39.0851 88.4619 38.5571 89.5179 37.5011C90.592 36.4452 91.1292 35.0796 91.1292 33.4046C91.1292 31.7296 90.592 30.3641 89.5179 29.3081C88.4619 28.2521 87.1419 27.7241 85.5579 27.7241C83.9739 27.7241 82.6448 28.2521 81.5706 29.3081C80.5146 30.3641 79.9866 31.7296 79.9866 33.4046C79.9866 35.0796 80.5146 36.4452 81.5706 37.5011Z" fill="#3F3D56"/>
<path d="M101.72 42.9632L95.4936 23.8461H100.273L104.506 37.9108L108.739 23.8461H113.518L107.292 42.9632H101.72Z" fill="#3F3D56"/>
<path d="M126.221 42.9632L125.265 39.9591H118.164L117.208 42.9632H112.429L118.929 23.8461H124.5L131 42.9632H126.221ZM119.475 35.8625H123.954L121.715 28.8438L119.475 35.8625Z" fill="#3F3D56"/>
<path d="M8.2079 18.9303C5.84775 18.9303 3.88597 18.15 2.32256 16.5894C0.774188 15.0138 0 13.0631 0 10.7372C0 8.41136 0.774188 6.46814 2.32256 4.90756C3.88597 3.33198 5.84775 2.54419 8.2079 2.54419C9.62098 2.54419 10.9288 2.87431 12.1315 3.53456C13.3341 4.1798 14.2811 5.06512 14.9726 6.19054L11.8609 7.99121C11.5151 7.37598 11.019 6.9033 10.3726 6.57318C9.72621 6.22805 9.00463 6.05549 8.2079 6.05549C6.80985 6.05549 5.68991 6.48315 4.84807 7.33846C4.02127 8.19378 3.60787 9.3267 3.60787 10.7372C3.60787 12.1477 4.02127 13.2807 4.84807 14.136C5.68991 14.9913 6.80985 15.419 8.2079 15.419C9.00463 15.419 9.72621 15.2464 10.3726 14.9013C11.0341 14.5561 11.5301 14.0835 11.8609 13.4832L14.9726 15.2839C14.2962 16.4093 13.3566 17.3022 12.154 17.9624C10.9514 18.6076 9.63601 18.9303 8.2079 18.9303Z" fill="#3F3D56"/>
<path d="M27.0135 17.4672C25.8711 18.4426 24.4129 18.9303 22.639 18.9303C20.8651 18.9303 19.407 18.4426 18.2645 17.4672C17.122 16.4919 16.5507 15.1789 16.5507 13.5283V2.85931H20.1586V13.2131C20.1586 14.6837 20.9854 15.419 22.639 15.419C24.2926 15.419 25.1194 14.6837 25.1194 13.2131V2.85931H28.7273V13.5283C28.7273 15.1789 28.156 16.4919 27.0135 17.4672Z" fill="#3F3D56"/>
<path d="M34.9371 15.1489H40.5744V18.6151H31.3293V2.85931H34.9371V15.1489Z" fill="#3F3D56"/>
<path d="M52.3978 2.85931L52.354 6.99994H48.2952V23.846H43.9248L43.8868 6.99994H39.9656L40.0093 2.85931H52.3978Z" fill="#3F3D56"/>
<path d="M65.7658 17.4672C64.6233 18.4426 63.1651 18.9303 61.3913 18.9303C59.6174 18.9303 58.1592 18.4426 57.0167 17.4672C55.8742 16.4919 55.303 15.1789 55.303 13.5283V2.85931H58.9108V13.2131C58.9108 14.6837 59.7376 15.419 61.3913 15.419C63.0449 15.419 63.8717 14.6837 63.8717 13.2131V2.85931H67.4795V13.5283C67.4795 15.1789 66.9083 16.4919 65.7658 17.4672Z" fill="#3F3D56"/>
<path d="M78.3796 18.6151L75.4031 13.4382H73.6894V18.6151H70.0815V2.85931H76.3953C77.8985 2.85931 79.1763 3.3845 80.2286 4.43489C81.2809 5.48528 81.8071 6.76075 81.8071 8.26131C81.8071 9.22166 81.5365 10.1145 80.9953 10.9398C80.4691 11.7501 79.7701 12.3803 78.8982 12.8305L82.258 18.6151H78.3796ZM73.6894 6.23556V10.2871H76.3953C76.8913 10.2871 77.3123 10.092 77.658 9.70184C78.0188 9.3117 78.1992 8.83152 78.1992 8.26131C78.1992 7.6911 78.0188 7.21092 77.658 6.82077C77.3123 6.43063 76.8913 6.23556 76.3953 6.23556H73.6894Z" fill="#3F3D56"/>
<path d="M87.5624 15.1489H93.8762V18.6151H83.9545V2.85931H93.7634V6.32559H87.5624V8.93656H93.1997V12.3578H87.5624V15.1489Z" fill="#3F3D56"/>
<defs>
<linearGradient id="paint0_linear_51_73" x1="120.234" y1="1.33783" x2="120.234" y2="14.74" gradientUnits="userSpaceOnUse">
<stop stop-color="#FD4343"/>
<stop offset="1" stop-color="#CB0000"/>
</linearGradient>
<linearGradient id="paint1_linear_51_73" x1="106.316" y1="2.79321" x2="106.316" y2="17.2263" gradientUnits="userSpaceOnUse">
<stop stop-color="#2E4AF5"/>
<stop offset="1" stop-color="#2B3990"/>
</linearGradient>
<linearGradient id="paint2_linear_51_73" x1="112.333" y1="2.36882" x2="113.944" y2="16.5737" gradientUnits="userSpaceOnUse">
<stop stop-color="#FFE050"/>
<stop offset="1" stop-color="#FED100"/>
</linearGradient>
</defs>
</svg>
