<svg width="201" height="179" viewBox="0 0 201 179" fill="none" xmlns="http://www.w3.org/2000/svg">
<path fill-rule="evenodd" clip-rule="evenodd" d="M4.56372 68.0305L100.5 0L196.927 68.0305H4.56372ZM0 167.304H14.8525V156.949H17.0117V152.01H23.3093V92.7466H10.436V78.5483H190.548V92.7466H177.691V152.01H183.988V156.949H186.147V167.304H201V178.149H0V167.304ZM53.3088 156.949H60.5715V152.01H66.8691V92.7466H47.0112V152.01H53.3088V156.949ZM96.8687 156.949H104.148V152.01H110.429V92.7466H90.571V152.01H96.8687V156.949ZM140.428 156.949H147.708V152.01H154.005V92.7466H134.131V152.01H140.428V156.949ZM68.1941 50.8716L100.647 25.9756L133.28 50.8716H68.1941Z" fill="#3F3D56"/>
</svg>
