<svg width="143" height="154" viewBox="0 0 143 154" fill="none" xmlns="http://www.w3.org/2000/svg">
<path d="M71.6485 4.62713C76.1692 4.62713 80.5897 5.07795 84.86 5.92949C87.4271 2.68612 91.4093 0.60735 95.8674 0.60735C103.619 0.60735 109.905 6.89374 109.905 14.6453C109.905 15.2965 109.855 15.9351 109.78 16.5612C113.049 18.8404 116.104 21.395 118.922 24.2001C122.09 27.3683 124.933 30.8371 127.412 34.5814C131.482 34.1431 135.715 35.483 138.845 38.6137C144.33 44.0986 144.33 52.9897 138.845 58.4621C138.407 58.9004 137.944 59.3012 137.468 59.6769C138.144 63.5088 138.507 67.4409 138.507 71.4732C138.507 76.0941 138.031 80.6148 137.142 84.9727C140.31 87.5524 142.339 91.472 142.339 95.8799C142.339 103.631 136.053 109.918 128.301 109.918C127.663 109.918 127.049 109.88 126.435 109.793C124.194 112.998 121.677 115.991 118.922 118.746C111.095 126.573 101.34 132.471 90.4326 135.652L91.6473 141.4H138.257C139.384 141.4 140.398 141.863 141.137 142.59C141.876 143.328 142.339 144.343 142.339 145.47V149.803C142.339 150.93 141.876 151.944 141.137 152.683C140.398 153.422 139.384 153.885 138.257 153.885H5.0529C3.92586 153.885 2.91152 153.422 2.17269 152.683C1.43385 151.944 0.970508 150.93 0.970508 149.803V145.47C0.970508 144.355 1.43385 143.328 2.17269 142.59C2.91152 141.851 3.92586 141.4 5.0529 141.4H51.8251L53.2151 135.752C42.1701 132.584 32.2897 126.661 24.3879 118.746C21.2197 115.578 18.3645 112.084 15.8725 108.327C11.6899 108.878 7.31951 107.551 4.1137 104.333C-1.37123 98.8478 -1.37123 89.9567 4.1137 84.4843C4.65218 83.9458 5.2157 83.47 5.80426 83.0317C5.15308 79.2749 4.80245 75.4179 4.80245 71.4732C4.80245 66.94 5.25327 62.507 6.11733 58.2242C2.76125 55.6571 0.60735 51.6122 0.60735 47.0665C0.60735 39.315 6.89374 33.0286 14.6453 33.0286C15.3966 33.0286 16.123 33.0912 16.8367 33.2039C19.0908 29.9856 21.6079 26.9801 24.3879 24.2126C27.5061 21.0945 30.9373 18.2769 34.619 15.8224C34.093 11.6649 35.4204 7.30699 38.6137 4.1137C44.0986 -1.37123 52.9897 -1.37123 58.4621 4.1137C58.9631 4.61461 59.4014 5.12804 59.8146 5.67904C63.6591 4.97777 67.6162 4.62713 71.6485 4.62713ZM82.5934 82.5934C76.4447 88.742 66.4892 88.742 60.3406 82.5934C54.1919 76.4447 54.1919 66.4892 60.3406 60.3406C66.4892 54.1919 76.4447 54.1919 82.5934 60.3406C88.742 66.4892 88.742 76.4573 82.5934 82.5934ZM64.2476 92.2984H81.2284C83.7455 104.095 86.25 115.904 88.742 127.713C98.0965 124.87 106.462 119.761 113.199 113.023C115.278 110.945 117.194 108.716 118.947 106.349C116.067 103.782 114.251 100.037 114.251 95.8799C114.251 95.1787 114.301 94.4899 114.401 93.8137L92.7994 84.5219C90.971 83.7329 90.132 81.6291 90.921 79.8008C91.7099 77.985 93.8137 77.1335 95.642 77.9224L117.269 87.2142C119.836 83.9458 123.831 81.842 128.314 81.842C128.714 81.842 129.115 81.8545 129.503 81.8921C130.104 78.511 130.43 75.0297 130.43 71.4732C130.43 68.4427 130.205 65.4623 129.754 62.5571C125.884 62.7825 121.952 61.43 118.997 58.4747C118.496 57.9738 118.045 57.4478 117.632 56.8968L95.7672 65.6126C93.9264 66.3389 91.8476 65.4373 91.1213 63.609C90.395 61.7681 91.2966 59.6894 93.1249 58.9631L114.977 50.2473C114.476 46.1148 115.816 41.7945 118.984 38.6137C119.26 38.3382 119.548 38.0752 119.836 37.8248C117.857 34.9946 115.641 32.3524 113.199 29.9104C111.057 27.7691 108.766 25.803 106.311 24.0122C103.744 26.8799 100.012 28.6707 95.8674 28.6707C95.1661 28.6707 94.4774 28.6206 93.8012 28.5204L84.5093 50.1346C83.7204 51.9504 81.6166 52.8019 79.7883 52.013C77.9725 51.224 77.121 49.1202 77.9099 47.2919L87.2017 25.6652C83.9333 23.0981 81.8295 19.1034 81.8295 14.6202C81.8295 14.2696 81.842 13.919 81.867 13.5683C78.5485 12.9798 75.1298 12.6792 71.6485 12.6792C68.5554 12.6792 65.5249 12.9171 62.5571 13.3805C62.7199 17.1749 61.3549 21.0319 58.4621 23.9371C57.9612 24.438 57.4353 24.8888 56.8843 25.3021L65.6001 47.1667C66.3264 49.0075 65.4248 51.0863 63.5965 51.8126C61.7556 52.5389 59.6769 51.6373 58.9505 49.809L50.2347 27.9569C46.1023 28.4578 41.7819 27.1179 38.6012 23.9496C38.3883 23.7367 38.1754 23.5113 37.975 23.2859C35.1449 25.2645 32.5026 27.481 30.0732 29.9104C27.9444 32.0393 25.9658 34.3435 24.175 36.7854C26.93 39.3525 28.6456 42.9966 28.6456 47.0665C28.6456 47.7678 28.5956 48.4565 28.4954 49.1328L50.1095 58.4246C51.9378 59.2135 52.7769 61.3173 51.9879 63.1456C51.199 64.9614 49.0952 65.813 47.2669 65.024L25.6402 55.7322C23.073 59.0006 19.0783 61.1044 14.5952 61.1044C14.3072 61.1044 14.0317 61.0919 13.7562 61.0794C13.1551 64.448 12.842 67.9293 12.842 71.4732C12.842 74.5037 13.0674 77.4716 13.5057 80.3769C17.25 80.2516 21.0444 81.6166 23.9121 84.4843C24.413 84.9852 24.8638 85.5112 25.277 86.0622L47.1416 77.3464C48.9825 76.62 51.0612 77.5217 51.7876 79.35C52.5139 81.1908 51.6122 83.2696 49.7839 83.9959L27.9318 92.7117C28.4328 96.8442 27.0928 101.165 23.9246 104.345C23.7242 104.546 23.5113 104.746 23.2985 104.934C25.3146 107.839 27.5812 110.557 30.0732 113.036C36.9482 119.911 45.5262 125.095 55.1186 127.9C58.0239 116.041 60.9416 104.17 63.8719 92.3235H64.2476V92.2984Z" fill="#3F3D56"/>
</svg>
