<svg width="219" height="118" viewBox="0 0 219 118" fill="none" xmlns="http://www.w3.org/2000/svg">
<path d="M84.7408 109.92V81.7489H80.8549C79.8841 81.7478 78.923 81.5537 78.0268 81.1778C77.1306 80.8019 76.3168 80.2516 75.6321 79.5584C74.9407 78.8711 74.3923 78.0519 74.0189 77.1486C73.6455 76.2453 73.4546 75.2761 73.4575 74.2976V66.8104C73.4575 64.8342 74.2368 62.9389 75.6241 61.5415C77.0114 60.1441 78.893 59.3591 80.8549 59.3591H89.9101V41.2964H81.2292C80.2563 41.2964 79.2929 41.1031 78.3942 40.7275C77.4956 40.3519 76.6793 39.8014 75.9921 39.1076C75.305 38.4138 74.7605 37.5903 74.3897 36.6842C74.019 35.778 73.8294 34.8072 73.8318 33.8271V12.9994C73.8318 11.0232 74.6111 9.12791 75.9984 7.73052C77.3857 6.33313 79.2673 5.54808 81.2292 5.54808H89.9101V1.25685C89.9101 1.0918 89.9423 0.92836 90.0051 0.775873C90.0678 0.623385 90.1597 0.484831 90.2755 0.368122C90.3914 0.251413 90.5289 0.158834 90.6803 0.0956718C90.8317 0.0325093 90.994 0 91.1578 0L99.3396 0C99.6705 0 99.9879 0.132417 100.222 0.368122C100.456 0.603827 100.587 0.923511 100.587 1.25685V5.54808H191.496V1.25685C191.496 0.923511 191.627 0.603827 191.861 0.368122C192.095 0.132417 192.412 0 192.743 0H200.925C201.089 0 201.251 0.0325093 201.403 0.0956718C201.554 0.158834 201.692 0.251413 201.807 0.368122C201.923 0.484831 202.015 0.623385 202.078 0.775873C202.141 0.92836 202.173 1.0918 202.173 1.25685V5.54808H211.602C213.561 5.55752 215.438 6.3456 216.823 7.74095C218.208 9.1363 218.99 11.0261 219 12.9994V33.7553C219.014 35.738 218.247 37.6454 216.867 39.0591C215.487 40.4728 213.606 41.2774 211.638 41.2964H202.209V59.4309H211.264C213.226 59.4309 215.107 60.216 216.494 61.6134C217.882 63.0107 218.661 64.906 218.661 66.8822V74.3694C218.652 76.3427 217.869 78.2325 216.484 79.6279C215.099 81.0232 213.223 81.8113 211.264 81.8208H209.036V109.92H218.822V118H0V109.92H5.91795C4.68319 103.773 4.23985 97.4907 4.59889 91.2292C4.88151 85.4849 6.7319 79.9306 9.94643 75.1774C10.0322 75.0562 10.1442 74.9561 10.2738 74.8846C10.4034 74.813 10.5475 74.772 10.6951 74.7645C10.8217 74.7441 10.951 74.7495 11.0755 74.7802C11.2 74.8109 11.3172 74.8663 11.4201 74.9433C11.5231 75.0202 11.6097 75.1171 11.675 75.2282C11.7403 75.3393 11.7829 75.4625 11.8003 75.5904C12.335 78.9659 12.7272 82.3594 12.9232 85.7529C13.1427 89.0219 13.1844 92.3006 13.048 95.5742C13.048 96.9568 12.9054 98.052 12.8341 99.0396C12.2115 102.475 12.8447 106.021 14.6166 109.023C15.9584 100.702 16.8095 92.3079 17.1656 83.8856C17.5522 74.9599 17.3795 66.0185 16.6487 57.1147C16.6377 56.8719 16.7159 56.6335 16.8685 56.4452C17.0211 56.2569 17.2372 56.1319 17.4756 56.0941C17.714 56.0563 17.9578 56.1084 18.1604 56.2404C18.3631 56.3724 18.5102 56.575 18.5738 56.8095C20.1546 62.4679 21.4221 68.2103 22.3706 74.0103C23.3426 80.0928 23.9794 86.2248 24.2779 92.3783V92.486L24.064 98.7523C26.7865 90.2916 28.72 81.5937 29.8393 72.7715C31.3423 61.8062 29.7034 50.6367 25.1156 40.5782C25.0055 40.3423 24.9925 40.0722 25.0793 39.8267C25.1661 39.5812 25.3458 39.3802 25.5791 39.2675C25.7717 39.1771 25.988 39.151 26.1964 39.193C26.4048 39.235 26.5944 39.3428 26.7377 39.5009C31.7882 45.7133 35.068 54.1282 36.5772 64.7456C38.0311 77.4408 37.7673 90.2761 35.7929 102.9L34.4204 109.83H41.5504L40.4096 104.139C38.7477 93.5713 38.5258 82.8248 39.7501 72.1969C41.0691 63.3032 43.8618 56.2529 48.1279 51.046C48.2642 50.8727 48.4551 50.7516 48.6691 50.7026C48.883 50.6536 49.1072 50.6797 49.3044 50.7766C49.5377 50.8893 49.7174 51.0903 49.8042 51.3358C49.891 51.5813 49.8779 51.8515 49.7678 52.0873C45.9516 60.4641 44.5851 69.763 45.8285 78.8941C46.691 85.8498 48.1766 92.7126 50.2669 99.3987L50.1243 95.4665V95.3408C50.3775 90.1978 50.9131 85.0728 51.7286 79.9893C52.5168 75.145 53.5761 70.3493 54.9015 65.6254C54.9524 65.3927 55.085 65.1864 55.275 65.0445C55.465 64.9027 55.6995 64.8347 55.9353 64.8533C56.1938 64.8762 56.4333 64.9996 56.603 65.1974C56.7727 65.3951 56.8593 65.6517 56.8444 65.9127C55.6708 80.1814 56.2034 94.5406 58.4308 108.681C59.4426 106.433 59.8425 103.955 59.5895 101.499C59.5895 100.512 59.5895 99.3807 59.5895 98.0161V96.9568C59.5636 91.7084 59.9031 86.4647 60.6055 81.2641C60.6251 81.1355 60.6697 81.012 60.7368 80.9007C60.8039 80.7895 60.8921 80.6927 60.9965 80.616C61.1009 80.5392 61.2193 80.484 61.3449 80.4535C61.4705 80.423 61.6009 80.4178 61.7285 80.4382C61.9852 80.4706 62.2205 80.5987 62.388 80.7973C65.1003 84.7934 66.6668 89.4652 66.9156 94.2995C67.2236 99.514 66.8581 104.747 65.8283 109.866L84.7408 109.92ZM96.0063 109.92H197.859V95.1613H96.0063V109.884V109.92ZM197.859 90.0082V81.7489H96.0063V90.0082H197.859ZM191.62 59.3591V41.2964H100.712V59.3591H191.62Z" fill="#3F3D56"/>
</svg>
