<svg width="13" height="14" viewBox="0 0 13 14" fill="none" xmlns="http://www.w3.org/2000/svg">
<path d="M6.87606 3.1093H6.12629C6.05771 3.1093 6.00159 3.16791 6.00159 3.23954V7.72116C6.00159 7.76349 6.0203 7.80256 6.05303 7.82698L8.62967 9.79186C8.68579 9.83419 8.76372 9.82279 8.80425 9.76419L9.25006 9.1293C9.29215 9.06907 9.27968 8.98767 9.22356 8.94698L7.00076 7.26861V3.23954C7.00076 3.16791 6.94464 3.1093 6.87606 3.1093ZM10.3022 4.33349L12.7464 4.95698C12.8243 4.97651 12.9007 4.91465 12.9007 4.83163L12.9132 2.20256C12.9132 2.09349 12.7931 2.03163 12.7121 2.1L10.2555 4.10396C10.2369 4.11896 10.2228 4.13912 10.2147 4.16214C10.2066 4.18516 10.2049 4.21009 10.2098 4.23407C10.2147 4.25804 10.2259 4.2801 10.2423 4.29768C10.2586 4.31527 10.2794 4.32768 10.3022 4.33349ZM12.9163 9.23512L12.0325 8.91768C12.0016 8.90664 11.9679 8.90864 11.9385 8.92325C11.9091 8.93785 11.8863 8.9639 11.875 8.99581C11.8454 9.07884 11.8142 9.16023 11.7815 9.24163C11.504 9.92698 11.1065 10.544 10.5984 11.073C10.0959 11.5995 9.50033 12.0191 8.84478 12.3086C8.16567 12.6085 7.43567 12.7624 6.69836 12.7612C5.95327 12.7612 5.23156 12.6098 4.55194 12.3086C3.89639 12.0191 3.30084 11.5995 2.79833 11.073C2.29173 10.544 1.89425 9.92698 1.61523 9.24163C1.32969 8.532 1.18339 7.76974 1.18501 7C1.18501 6.22186 1.32997 5.46651 1.61834 4.75675C1.8958 4.0714 2.29329 3.45442 2.80145 2.92535C3.30396 2.39892 3.8995 1.9793 4.55506 1.68977C5.23156 1.38861 5.95483 1.23721 6.69992 1.23721C7.44501 1.23721 8.16672 1.38861 8.84634 1.68977C9.50189 1.9793 10.0974 2.39892 10.5999 2.92535C10.7589 3.09302 10.9086 3.26721 11.0458 3.45116L11.9779 2.6893C10.7512 1.05163 8.84166 -0.00162602 6.6968 1.88437e-06C2.962 0.00162979 -0.0370641 3.16954 0.000346221 7.07163C0.0377566 10.9053 3.02279 14 6.69992 14C9.59143 14 12.0543 12.0856 12.9927 9.40442C13.016 9.33605 12.9817 9.25954 12.9163 9.23512Z" fill="black"/>
</svg>
