<svg width="205" height="148" viewBox="0 0 205 148" fill="none" xmlns="http://www.w3.org/2000/svg">
<path fill-rule="evenodd" clip-rule="evenodd" d="M146.002 35.3091C154.777 37.7282 164.004 38.3789 173.664 37.2778C176.033 37.0108 178.352 36.6938 180.604 36.3935C191.382 34.9921 200.391 34.1913 203.595 42.2663C209.25 56.531 196.454 87.4296 189.714 99.9258C175.833 125.669 148.171 154.465 116.171 145.923C111.182 144.589 106.694 142.42 102.69 139.483C113.201 133.627 121.51 124.635 127.933 114.057L127.916 114.09C135.875 114.524 144.15 118.729 151.724 123.166C152.275 113.173 142.615 106.533 134.006 102.395C140.913 86.8957 144.567 69.4944 145.701 53.9617C146.035 49.1567 146.219 42.5999 146.002 35.3091ZM4.35541 10.8672C6.9581 8.39796 10.8955 7.74729 15.3668 8.03091C23.7588 8.54811 32.4344 11.1341 40.5761 13.3364C58.2778 18.108 75.5956 16.5564 92.4631 8.765C94.7321 7.71392 96.951 6.62946 99.1033 5.59506C109.381 0.623262 118.123 -3.16398 123.979 3.84325C134.34 16.2227 131.787 51.2923 129.201 65.9908C123.862 96.272 105.794 134.178 71.0076 136.23C52.5552 137.314 36.8223 126.937 23.275 107.333C14.6494 93.9863 8.42628 80.2722 4.62235 66.1743C1.88619 55.897 -4.10332 18.9255 4.35541 10.8672ZM21.5899 57.2317C18.4033 56.3975 16.568 55.3631 15.9507 54.1452C13.4982 49.2735 33.7358 36.9775 48.0172 48.2725C68.3215 64.0721 28.7973 59.3673 21.5899 57.2317ZM54.4405 104.764C49.0516 100.91 46.1653 96.1553 44.597 89.7153C62.3987 98.7246 79.0659 98.0739 94.5819 85.6778C93.9646 91.1668 92.1794 96.0885 89.1096 100.41C80.0503 113.173 66.8032 113.59 54.4405 104.764ZM111.9 50.1577C114.886 48.7563 116.505 47.4049 116.888 46.0869C118.423 40.8481 96.2837 32.4228 84.288 46.1369C67.187 65.3735 105.21 53.5613 111.9 50.1577ZM151.524 70.1951C159.933 63.4548 171.445 64.8229 179.453 71.413C181.488 73.0981 187.077 78.0032 183.857 80.6893C182.973 81.4234 181.505 81.8405 179.47 81.9406C174.498 82.5078 167.257 81.4734 161.484 79.0876C156.946 77.2524 153.509 74.7999 151.524 70.1951Z" fill="#3F3D56"/>
</svg>
