<svg width="17" height="12" viewBox="0 0 17 12" fill="none" xmlns="http://www.w3.org/2000/svg">
<path d="M16.2 4.8C16.3591 4.8 16.5117 4.73679 16.6243 4.62426C16.7368 4.51174 16.8 4.35913 16.8 4.2V1.2C16.8 0.88174 16.6736 0.576515 16.4485 0.351472C16.2235 0.126428 15.9183 0 15.6 0H1.2C0.88174 0 0.576515 0.126428 0.351472 0.351472C0.126428 0.576515 0 0.88174 0 1.2V4.2C0 4.35913 0.0632141 4.51174 0.175736 4.62426C0.288258 4.73679 0.44087 4.8 0.6 4.8C0.91826 4.8 1.22348 4.92643 1.44853 5.15147C1.67357 5.37652 1.8 5.68174 1.8 6C1.8 6.31826 1.67357 6.62348 1.44853 6.84853C1.22348 7.07357 0.91826 7.2 0.6 7.2C0.44087 7.2 0.288258 7.26321 0.175736 7.37574C0.0632141 7.48826 0 7.64087 0 7.8V10.8C0 11.1183 0.126428 11.4235 0.351472 11.6485C0.576515 11.8736 0.88174 12 1.2 12H15.6C15.9183 12 16.2235 11.8736 16.4485 11.6485C16.6736 11.4235 16.8 11.1183 16.8 10.8V7.8C16.8 7.64087 16.7368 7.48826 16.6243 7.37574C16.5117 7.26321 16.3591 7.2 16.2 7.2C15.8817 7.2 15.5765 7.07357 15.3515 6.84853C15.1264 6.62348 15 6.31826 15 6C15 5.68174 15.1264 5.37652 15.3515 5.15147C15.5765 4.92643 15.8817 4.8 16.2 4.8V4.8ZM15.6 8.322V10.8H11.4V9H10.2V10.8H1.2V8.322C1.7136 8.18776 2.1682 7.88703 2.49265 7.46688C2.81711 7.04672 2.99311 6.53085 2.99311 6C2.99311 5.46915 2.81711 4.95328 2.49265 4.53312C2.1682 4.11297 1.7136 3.81224 1.2 3.678V1.2H10.2V3H11.4V1.2H15.6V3.678C15.0864 3.81224 14.6318 4.11297 14.3073 4.53312C13.9829 4.95328 13.8069 5.46915 13.8069 6C13.8069 6.53085 13.9829 7.04672 14.3073 7.46688C14.6318 7.88703 15.0864 8.18776 15.6 8.322V8.322Z" fill="black"/>
</svg>
