<svg width="216" height="176" viewBox="0 0 216 176" fill="none" xmlns="http://www.w3.org/2000/svg">
<path d="M63.6735 110.453C63.7505 109.93 63.7117 109.396 63.56 108.889C63.4083 108.382 63.1473 107.914 62.7954 107.519C62.4435 107.124 62.0092 106.811 61.5232 106.602C61.0372 106.393 60.5112 106.293 59.9824 106.309L36.8025 82.8723L32.2234 89.2737L56.4483 110.298C56.5343 111.185 56.9426 112.009 57.5958 112.615C58.2489 113.221 59.1016 113.566 59.9922 113.585C60.8828 113.604 61.7494 113.296 62.4279 112.719C63.1064 112.141 63.5496 111.335 63.6735 110.453Z" fill="#FFB8B8"/>
<path d="M52.6932 96.9201L46.7768 102.83C46.4935 103.111 46.1108 103.27 45.7115 103.272C45.3122 103.273 44.9282 103.118 44.6426 102.838L28.4759 86.9444C27.9169 86.3948 27.4725 85.7399 27.1682 85.0174C26.864 84.295 26.706 83.5194 26.7034 82.7355C26.7008 81.9517 26.8536 81.175 27.153 80.4506C27.4524 79.7261 27.8925 79.0682 28.4478 78.5149C29.003 77.9616 29.6625 77.5239 30.388 77.2271C31.1135 76.9302 31.8906 76.7802 32.6745 76.7855C33.4584 76.7909 34.2334 76.9517 34.9547 77.2585C35.6761 77.5652 36.3295 78.012 36.8771 78.5729L52.7066 94.7885C52.9841 95.0747 53.1382 95.4584 53.1357 95.857C53.1332 96.2557 52.9743 96.6374 52.6932 96.9201Z" fill="#6D79FF"/>
<path d="M31.9439 67.9116C36.5138 67.9116 40.2184 64.207 40.2184 59.6372C40.2184 55.0673 36.5138 51.3627 31.9439 51.3627C27.374 51.3627 23.6694 55.0673 23.6694 59.6372C23.6694 64.207 27.374 67.9116 31.9439 67.9116Z" fill="#FFB8B8"/>
<path d="M3.98486 158.794L6.08001 162.353L20.8064 155.966L17.714 150.712L3.98486 158.794Z" fill="#FFB8B8"/>
<path d="M4.61242 157.202L8.73848 164.212L8.73865 164.212C9.08395 164.799 9.31032 165.447 9.40483 166.122C9.49934 166.796 9.46014 167.482 9.28947 168.141C9.1188 168.8 8.82001 169.419 8.41014 169.962C8.00028 170.506 7.48737 170.963 6.90071 171.308L6.75554 171.394L0 159.917L4.61242 157.202Z" fill="#2F2E41"/>
<path d="M28.2604 171.617H32.3908L34.3555 155.686L28.2598 155.686L28.2604 171.617Z" fill="#FFB8B8"/>
<path d="M27.207 170.268L35.341 170.268H35.3413C36.022 170.268 36.6961 170.402 37.325 170.663C37.9539 170.923 38.5253 171.305 39.0067 171.786C39.488 172.268 39.8699 172.839 40.1304 173.468C40.3909 174.097 40.5249 174.771 40.5249 175.452V175.62L27.2073 175.621L27.207 170.268Z" fill="#2F2E41"/>
<path d="M11.6553 161.965C11.4176 161.965 11.1832 161.909 10.9711 161.802C10.759 161.695 10.5751 161.539 10.4344 161.347L6.45102 155.937C6.32949 155.772 6.24269 155.584 6.19587 155.385C6.14904 155.185 6.14315 154.978 6.17856 154.776C6.21397 154.574 6.28995 154.382 6.40189 154.21C6.51384 154.039 6.65942 153.891 6.82986 153.778L24.5553 141.939L13.86 113.816L36.7315 115.704L37.5019 139.87C37.5741 142.071 37.0466 144.25 35.9758 146.175C34.9049 148.099 33.331 149.695 31.4225 150.794L12.4127 161.761C12.1826 161.894 11.9213 161.965 11.6553 161.965Z" fill="#2F2E41"/>
<path d="M28.3851 168.383C27.9929 168.382 27.6162 168.229 27.3342 167.956C27.0522 167.684 26.8868 167.312 26.8729 166.92L26.0347 143.378L36.4138 142.831L35.5874 166.543C35.5752 166.918 35.4236 167.276 35.162 167.546C34.9004 167.816 34.5476 167.979 34.1725 168.003L28.4882 168.379C28.4537 168.382 28.4193 168.383 28.3851 168.383Z" fill="#2F2E41"/>
<path d="M39.3784 120.379C36.7377 120.379 27.5141 117.409 24.3121 116.35C23.833 116.733 21.2015 118.701 18.1297 118.341C16.2343 118.119 14.5657 117.046 13.1702 115.152C10.0887 110.97 13.8948 93.0348 17.6304 78.7253C18.3793 75.8329 20.2204 73.3435 22.7667 71.7803C25.313 70.2172 28.3661 69.7022 31.2843 70.3434C33.3993 70.8103 35.3423 71.8578 36.8948 73.3681C38.4474 74.8784 39.548 76.7917 40.0731 78.8931C40.7764 81.756 40.1714 85.1237 39.7296 87.583C39.5219 88.7391 39.3578 89.6524 39.4139 90.1011C39.6307 91.8356 40.8352 119.038 40.0607 120.199C39.9783 120.323 39.7397 120.379 39.3784 120.379Z" fill="#6D79FF"/>
<path d="M29.718 120.427C30.1424 120.111 30.4924 119.706 30.7433 119.24C30.9942 118.774 31.1399 118.259 31.1701 117.731C31.2003 117.203 31.1144 116.674 30.9183 116.183C30.7222 115.691 30.4208 115.249 30.0352 114.887L30.1987 81.9237L22.4351 83.2165L24.7156 115.212C24.1498 115.9 23.8562 116.771 23.8902 117.661C23.9242 118.552 24.2836 119.398 24.9002 120.041C25.5168 120.684 26.3478 121.079 27.2358 121.15C28.1237 121.221 29.0069 120.964 29.718 120.427Z" fill="#FFB8B8"/>
<path d="M31.5138 103.093H23.1515C22.7522 103.092 22.3693 102.933 22.0857 102.652C21.802 102.371 21.6403 101.99 21.6355 101.591L21.4302 78.9202C21.423 78.1363 21.5714 77.3588 21.8667 76.6326C22.162 75.9064 22.5983 75.2459 23.1504 74.6894C23.7026 74.1329 24.3596 73.6914 25.0834 73.3904C25.8073 73.0894 26.5836 72.935 27.3675 72.9359C28.1515 72.9369 28.9274 73.0933 29.6506 73.396C30.3737 73.6988 31.0296 74.1419 31.5804 74.6997C32.1311 75.2576 32.5659 75.9191 32.8594 76.646C33.1529 77.3729 33.2993 78.1508 33.2903 78.9347L33.0298 101.594C33.0238 101.993 32.8617 102.373 32.5782 102.653C32.2947 102.934 31.9125 103.091 31.5138 103.093Z" fill="#6D79FF"/>
<path d="M29.837 67.8772C26.0485 67.8841 22.4744 64.8896 21.8179 61.1584C21.5828 59.6926 21.6888 58.1923 22.1276 56.7741C22.604 55.1597 23.421 53.6661 24.5234 52.3941C25.6259 51.1221 26.9883 50.1013 28.5187 49.4004C30.0492 48.6995 31.7121 48.3349 33.3954 48.3311C35.0786 48.3273 36.7432 48.6844 38.2767 49.3784C39.2902 49.837 40.2885 50.4957 40.7526 51.5067C41.2166 52.5177 40.9262 53.9307 39.911 54.3856C39.2476 54.6829 38.4151 54.5369 37.8266 54.9637C36.9812 55.5766 37.1988 56.881 37.5763 57.8546C37.9538 58.8282 38.3807 60.0063 37.748 60.8369C37.1583 61.6109 35.9797 61.5869 35.0513 61.2956C34.123 61.0042 33.2066 60.5164 32.2387 60.6156C30.827 60.7604 29.8125 62.1646 29.6247 63.5712C29.4369 64.9779 29.879 66.3839 30.3154 67.7343L29.837 67.8772Z" fill="#2F2E41"/>
<path d="M133.378 76.3221C133.378 53.6944 151.721 0 174.349 0C196.976 0 215.32 53.6944 215.32 76.3221C215.32 87.1883 211.003 97.6094 203.32 105.293C195.636 112.977 185.215 117.293 174.349 117.293C163.483 117.293 153.061 112.977 145.378 105.293C137.694 97.6094 133.378 87.1883 133.378 76.3221Z" fill="#6D79FF"/>
<path d="M174.349 176C174.26 176 174.174 175.965 174.111 175.901C174.047 175.838 174.012 175.753 174.012 175.663V34.4084C174.012 34.3191 174.047 34.2334 174.111 34.1702C174.174 34.107 174.26 34.0715 174.349 34.0715C174.438 34.0715 174.524 34.107 174.587 34.1702C174.65 34.2334 174.686 34.3191 174.686 34.4084V175.663C174.686 175.753 174.65 175.838 174.587 175.901C174.524 175.965 174.438 176 174.349 176Z" fill="#3F3D56"/>
<path d="M174.349 61.6786C174.305 61.6787 174.261 61.67 174.22 61.6531C174.179 61.6361 174.142 61.6113 174.111 61.5799L157.895 45.3637C157.832 45.3004 157.797 45.2149 157.797 45.126C157.798 45.037 157.833 44.9517 157.896 44.8888C157.959 44.8259 158.044 44.7904 158.133 44.7902C158.222 44.7899 158.308 44.8248 158.371 44.8874L174.587 61.1035C174.634 61.1507 174.666 61.2107 174.679 61.276C174.692 61.3414 174.686 61.4091 174.66 61.4707C174.635 61.5322 174.592 61.5848 174.536 61.6218C174.481 61.6589 174.416 61.6786 174.349 61.6786V61.6786Z" fill="#3F3D56"/>
<path d="M174.349 89.7521C174.282 89.7521 174.217 89.7323 174.162 89.6953C174.106 89.6583 174.063 89.6057 174.038 89.5441C174.012 89.4826 174.005 89.4148 174.018 89.3495C174.031 89.2842 174.064 89.2241 174.111 89.177L201.268 62.0198C201.331 61.9573 201.416 61.9224 201.505 61.9227C201.594 61.923 201.68 61.9585 201.742 62.0214C201.805 62.0843 201.841 62.1695 201.841 62.2584C201.842 62.3474 201.807 62.4328 201.744 62.4962L174.587 89.6534C174.556 89.6847 174.519 89.7096 174.478 89.7265C174.437 89.7435 174.393 89.7521 174.349 89.7521Z" fill="#3F3D56"/>
<path d="M60.9652 110.261C66.3403 109.046 72.4299 113.251 72.6186 118.895C72.6717 120.483 72.2064 122.15 70.9848 123.23C69.9762 124.122 68.4754 124.572 67.1716 124.136C64.6626 123.297 64.5286 119.801 65.8745 117.934C67.6969 115.405 71.3072 114.974 74.172 115.274C77.6744 115.642 81.0031 117.178 83.7965 119.283C89.3885 123.496 92.9493 129.955 95.8314 136.195C98.7818 142.595 100.927 149.338 102.219 156.266C102.381 157.137 102.53 158.009 102.665 158.884C102.704 159.012 102.791 159.12 102.908 159.185C103.025 159.249 103.163 159.265 103.292 159.228C103.419 159.188 103.525 159.1 103.589 158.984C103.653 158.867 103.67 158.73 103.636 158.602C102.456 151.041 100.277 143.67 97.1558 136.683C94.1381 129.92 90.3337 122.906 84.2815 118.393C81.2645 116.143 77.7017 114.578 73.9312 114.243C70.7571 113.961 66.9985 114.633 65.0246 117.393C63.4673 119.571 63.6255 123.191 66.035 124.708C67.3597 125.542 69.0429 125.444 70.4183 124.796C71.1482 124.435 71.791 123.921 72.3021 123.287C72.8133 122.653 73.1805 121.916 73.3783 121.127C74.2338 117.992 72.9347 114.601 70.7074 112.36C68.6169 110.251 65.776 109.057 62.8066 109.038C62.0916 109.046 61.3795 109.13 60.6827 109.291C60.0481 109.434 60.3317 110.405 60.9652 110.261V110.261Z" fill="#CCCCCC"/>
<path d="M86.8871 172.339L83.5469 166.636L87.6656 164.223L91.0059 169.926V169.926C91.3258 170.472 91.4156 171.123 91.2556 171.736C91.0956 172.348 90.6989 172.872 90.1527 173.192C89.6065 173.512 88.9556 173.601 88.3432 173.441C87.7308 173.281 87.207 172.885 86.8871 172.339Z" fill="#6D79FF"/>
<path d="M75.8429 160.485C77.4652 160.485 78.7803 159.17 78.7803 157.547C78.7803 155.925 77.4652 154.61 75.8429 154.61C74.2206 154.61 72.9055 155.925 72.9055 157.547C72.9055 159.17 74.2206 160.485 75.8429 160.485Z" fill="#6D79FF"/>
<path d="M99.8109 172.339L96.4707 166.636L100.589 164.223L103.93 169.926C104.249 170.472 104.338 171.123 104.178 171.735C104.018 172.346 103.621 172.87 103.075 173.19C102.53 173.509 101.879 173.599 101.267 173.44C100.655 173.28 100.131 172.884 99.8109 172.339Z" fill="#6D79FF"/>
<path d="M76.4011 163.465C76.403 161.81 77.0612 160.223 78.2314 159.053C79.4016 157.883 80.9881 157.225 82.643 157.223H102.402C103.102 157.224 103.772 157.502 104.267 157.997C104.762 158.491 105.04 159.162 105.041 159.861V162.11C105.038 164.124 104.237 166.055 102.813 167.479C101.389 168.903 99.4576 169.704 97.4434 169.707H82.643C80.9881 169.705 79.4016 169.047 78.2314 167.876C77.0612 166.706 76.403 165.12 76.4011 163.465Z" fill="#3F3D56"/>
<path d="M80.9575 173.074V166.465H85.7308V173.074C85.7308 173.707 85.4793 174.314 85.0317 174.762C84.5842 175.209 83.9771 175.461 83.3441 175.461C82.7112 175.461 82.1041 175.209 81.6566 174.762C81.209 174.314 80.9575 173.707 80.9575 173.074Z" fill="#3F3D56"/>
<path d="M94.8081 173.074V166.465H99.5813V173.074C99.5817 173.388 99.5203 173.698 99.4005 173.988C99.2807 174.278 99.105 174.542 98.8833 174.763C98.6617 174.985 98.3984 175.161 98.1087 175.282C97.8189 175.402 97.5084 175.464 97.1947 175.464C96.8811 175.464 96.5705 175.402 96.2807 175.282C95.991 175.161 95.7278 174.985 95.5061 174.763C95.2845 174.542 95.1087 174.278 94.989 173.988C94.8692 173.698 94.8077 173.388 94.8081 173.074Z" fill="#3F3D56"/>
<path d="M114.228 146.926C114.717 146.32 115.426 145.933 116.199 145.849C116.973 145.766 117.748 145.992 118.354 146.479C118.961 146.967 119.349 147.674 119.435 148.448C119.52 149.221 119.295 149.997 118.809 150.604L113.981 156.616L109.4 152.937L114.228 146.926Z" fill="#6D79FF"/>
<path d="M102.598 158.768L106.466 153.952C107.407 152.784 108.772 152.036 110.263 151.873C111.754 151.711 113.249 152.146 114.419 153.084L115.628 154.054C117.021 155.176 117.912 156.804 118.106 158.582C118.301 160.36 117.782 162.142 116.663 163.537L113.476 167.505C113.124 167.943 112.613 168.223 112.055 168.283C111.496 168.344 110.937 168.181 110.499 167.83L102.923 161.746C102.486 161.394 102.206 160.883 102.145 160.324C102.084 159.766 102.247 159.207 102.598 158.768Z" fill="#3F3D56"/>
<path d="M114.803 146.21C114.969 146.003 115.174 145.831 115.407 145.704C115.64 145.576 115.895 145.496 116.159 145.467C116.422 145.438 116.689 145.462 116.944 145.536C117.198 145.61 117.436 145.734 117.642 145.9C117.849 146.066 118.021 146.271 118.149 146.504C118.276 146.736 118.356 146.992 118.385 147.255C118.414 147.519 118.391 147.786 118.316 148.04C118.242 148.295 118.118 148.532 117.952 148.739L112.549 155.466L109.4 152.937L114.803 146.21Z" fill="#3F3D56"/>
<path d="M107.063 157.455L115.365 164.123C115.97 164.611 116.357 165.32 116.44 166.093C116.523 166.866 116.297 167.641 115.81 168.247C115.323 168.854 114.615 169.242 113.842 169.328C113.069 169.413 112.294 169.188 111.686 168.703L103.384 162.035L107.063 157.455Z" fill="#3F3D56"/>
<path d="M116.171 168.47C116.6 167.936 116.707 167.311 116.41 167.072C116.114 166.834 115.526 167.074 115.098 167.608C114.669 168.141 114.562 168.767 114.859 169.005C115.155 169.243 115.743 169.003 116.171 168.47Z" fill="#6D79FF"/>
</svg>
