<svg width="237" height="129" viewBox="0 0 237 129" fill="none" xmlns="http://www.w3.org/2000/svg">
<path fill-rule="evenodd" clip-rule="evenodd" d="M70.4944 66.4224L69.5098 71.1145L72.7917 84.4378C72.5793 87.8748 73.4867 91.5628 72.1739 94.7488C70.447 98.8869 70.1748 103.489 71.4017 107.802C69.4712 110.679 69.9345 113.594 65.8805 116.452C60.6295 118.229 58.0234 120.932 58.6025 124.755C62.6179 126.531 68.5446 126.821 75.977 125.933C83.4094 125.045 87.6565 121.917 79.4905 115.931C83.7762 115.139 85.282 110.968 85.282 104.847C86.0794 104.409 86.7624 103.789 87.2755 103.038C87.7887 102.286 88.1176 101.424 88.2357 100.522C88.5253 93.8606 90.0503 90.0953 92.56 88.763C91.4596 99.4988 96.6527 101.874 95.8419 109.095C95.6181 110.979 94.957 112.784 93.9113 114.367C84.9924 116.491 89.1237 122.515 96.0156 124.485C100.629 125.798 113.178 125.045 107.946 118.151C106.904 116.761 106.904 114.83 104.992 113.498C106.521 111.889 107.565 109.881 108.004 107.705C110.919 96.7762 104.317 90.1918 110.185 80.6725C123.699 84.3798 136.305 86.1756 147.444 85.2487C166.614 83.6075 171.826 77.0038 184.239 64.7039C186.136 70.8064 189.442 76.3762 193.892 80.9621C196.653 82.5841 198.641 85.7894 199.683 90.829C200.88 98.8037 201.073 106.276 198.815 112.436C194.027 110.621 179.51 115.294 185.726 120.777C186.371 121.355 187.216 121.66 188.081 121.627C179.954 131.281 203.255 129.138 206.595 127.864C209.934 126.589 211.286 124.098 210.224 119.908C216.015 114.116 219.181 105.639 221.131 95.5018C226.923 94.4205 225.34 89.0719 223.68 85.2487C222.019 81.4256 220.089 79.6298 218.351 75.9611C224.094 66.9533 227.209 56.5214 227.348 45.839C229.104 62.4448 233.641 71.2883 237 74.5709C227.541 44.6612 232.56 51.2649 231.208 39.6215C232.058 33.153 228.564 28.4802 222.386 24.9081C213.409 4.17018 198.969 5.98523 180.707 3.97709C176.306 3.42271 171.942 2.61033 167.637 1.54415C165.396 1.11697 163.123 0.877994 160.842 0.829719C153.66 0.694556 151.189 2.39375 144.51 4.05432C137.115 5.8624 129.514 6.68693 121.904 6.50657C89.7608 5.96592 102.328 -5.77396 62.2898 3.64884C49.1044 6.71897 41.5176 12.7627 38.0427 21.8572C33.9114 17.8796 22.7724 16.7403 16.2087 18.9802C19.3168 23.1896 27.0388 29.7546 35.2821 28.403C31.8072 39.7953 28.1199 47.712 21.7686 48.9285C17.3649 47.0293 13.7654 43.6476 11.5948 39.3705C13.6798 54.4122 18.0041 53.3502 23.6991 56.7486C11.4404 56.0149 4.45198 44.9315 2.83036 34.775C-5.41287 56.3625 5.80333 67.4651 17.8303 70.2263C19.2083 73.217 21.1803 75.8959 23.6262 78.1001C26.0722 80.3043 28.9411 81.9876 32.0581 83.0475C27.174 72.5434 48.6411 79.0119 57.5407 72.2731C60.4829 69.8887 62.8238 66.8462 64.3747 63.3909C66.5386 64.154 68.5954 65.1924 70.4944 66.4804V66.4224ZM40.5523 44.9701C39.6527 44.6053 38.6511 44.5805 37.7346 44.9003C36.818 45.2201 36.0492 45.8626 35.5716 46.7079C35.4142 47.0295 35.3309 47.3823 35.3279 47.7403C35.3248 48.0984 35.4021 48.4525 35.5539 48.7767C35.7058 49.101 35.9285 49.387 36.2055 49.6137C36.4825 49.8405 36.8069 50.0022 37.1547 50.087C39.0852 50.3187 40.6682 46.8817 40.5523 44.9701Z" fill="#3F3D56"/>
</svg>
